<?xml version="1.0" encoding="UTF-8" standalone="no"?>
<!-- Created with Inkscape (http://www.inkscape.org/) -->

<svg
   width="16"
   height="16"
   viewBox="0 0 16 16.000001"
   version="1.1"
   id="svg5"
   inkscape:version="1.2.1 (9c6d41e410, 2022-07-14, custom)"
   sodipodi:docname="view-media-lyrics.svg"
   xmlns:inkscape="http://www.inkscape.org/namespaces/inkscape"
   xmlns:sodipodi="http://sodipodi.sourceforge.net/DTD/sodipodi-0.dtd"
   xmlns="http://www.w3.org/2000/svg"
   xmlns:svg="http://www.w3.org/2000/svg">
  <sodipodi:namedview
     id="namedview7"
     pagecolor="#ffffff"
     bordercolor="#000000"
     borderopacity="0.25"
     inkscape:showpageshadow="2"
     inkscape:pageopacity="0.0"
     inkscape:pagecheckerboard="0"
     inkscape:deskcolor="#d1d1d1"
     inkscape:document-units="px"
     showgrid="false"
     inkscape:zoom="50.5625"
     inkscape:cx="7.9901112"
     inkscape:cy="8"
     inkscape:window-width="1920"
     inkscape:window-height="1012"
     inkscape:window-x="0"
     inkscape:window-y="0"
     inkscape:window-maximized="1"
     inkscape:current-layer="svg5" />
  <defs
     id="defs2">
    <style
       id="current-color-scheme"
       type="text/css">
      .ColorScheme-Text { color:#363636; }
    </style>
  </defs>
  <path
     id="path662"
     style="opacity:1;fill:currentColor;fill-opacity:1;stroke-width:0.857143"
     class="ColorScheme-Text"
     d="M 0 0 L 0 1 L 16 1 L 16 0 L 0 0 z M 0 3 L 0 4 L 8 4 L 8 3 L 0 3 z M 12 3 C 11.446008 3 11 3.4460056 11 4 L 11 10.763672 C 10.449942 10.271811 9.7378953 9.9999285 9 10 C 7.3431509 10 6 11.343152 6 13 C 6 14.656848 7.3431509 16 9 16 C 10.656848 16 12 14.656848 12 13 L 12 7 L 15.060547 8 C 15.581131 8.1894782 16 7.8957926 16 7.3417969 L 16 5.3417969 C 16 4.7878019 15.581131 4.1894778 15.060547 4 L 12 3 z M 12 4 L 15 5 L 15 7 L 12 6 L 12 4 z M 0 6 L 0 7 L 8 7 L 8 6 L 0 6 z M 0 9 L 0 10 L 4 10 L 4 9 L 0 9 z M 9 11 C 10.104568 11 11 11.895432 11 13 C 11 14.104568 10.104568 15 9 15 C 7.8954316 15 7 14.104568 7 13 C 7 11.895432 7.8954316 11 9 11 z M 0 12 L 0 13 L 4 13 L 4 12 L 0 12 z " />
</svg>
