<?xml version="1.0" encoding="UTF-8" standalone="no"?>
<svg
   id="Capa_1"
   enable-background="new 0 0 512 512"
   height="512"
   viewBox="0 0 512 512"
   width="512"
   version="1.1"
   sodipodi:docname="no_watermark_image.svg"
   inkscape:version="1.3 (1:1.3+202307231459+0e150ed6c4)"
   xmlns:inkscape="http://www.inkscape.org/namespaces/inkscape"
   xmlns:sodipodi="http://sodipodi.sourceforge.net/DTD/sodipodi-0.dtd"
   xmlns="http://www.w3.org/2000/svg"
   xmlns:svg="http://www.w3.org/2000/svg">
  <defs
     id="defs10" />
  <sodipodi:namedview
     id="namedview10"
     pagecolor="#ffffff"
     bordercolor="#666666"
     borderopacity="1.0"
     inkscape:showpageshadow="2"
     inkscape:pageopacity="0.0"
     inkscape:pagecheckerboard="0"
     inkscape:deskcolor="#d1d1d1"
     inkscape:zoom="1.5606068"
     inkscape:cx="347.94159"
     inkscape:cy="194.15525"
     inkscape:window-width="2560"
     inkscape:window-height="1372"
     inkscape:window-x="1920"
     inkscape:window-y="0"
     inkscape:window-maximized="1"
     inkscape:current-layer="Capa_1" />
  <g
     id="g10">
    <g
       id="g6">
      <path
         d="m 502.681,198.27 v 68.85 l -2.48,1.68 -24.29,16.48 -58.97,-40 -58.97,40 -58.97,-40 -58.97,40 -58.96,-40 -58.97,40 -26.76,-18.15 V 47.38 c 0,-22.03 17.85,-39.88 39.87,-39.88 h 176.7 c 15.88,0 67.31,43.85 112.77,90.03 41.48,42.15 78,86.24 78,100.74 z"
         fill="#ddeafb"
         id="path1" />
      <path
         d="m 475.911,332.15 26.77,-18.16 v 150.63 c 0,22.03 -17.85,39.88 -39.87,39.88 h -327.6 c -18.82,0 -34.59,-13.04 -38.78,-30.58 l -0.16,-22.8 -0.93,-135.78 V 314 l 26.76,18.15 58.97,-40 58.96,40 58.97,-40 58.97,40 58.97,-40 z"
         fill="#ddeafb"
         id="path2" />
      <path
         d="m 502.681,198.27 v 68.85 l -2.48,1.68 C 484.431,174.72 399.591,167.68 370.261,138.35 l 54.42,-40.82 c 41.48,42.15 78,86.24 78,100.74 z"
         fill="#cbe2ff"
         id="path3" />
      <path
         d="m 311.906,7.5 h -97.57 c 0.11,0 0.22,0.01 0.34,0.01 119.72,3 125.26,100.52 157.15,132.41 l 40.82,-54.42 c -42.15,-41.48 -86.24,-78 -100.74,-78 z"
         fill="#cbe2ff"
         id="path4" />
      <path
         d="m 502.681,198.276 v 16.868 c 0,-35.514 -28.798,-64.312 -64.312,-64.312 h -39.143 c -22.019,0 -39.877,-17.858 -39.877,-39.877 V 71.812 C 359.349,36.298 330.551,7.5 295.037,7.5 h 16.868 c 30.373,0 59.512,12.068 80.989,33.545 l 76.242,76.242 c 21.476,21.476 33.545,50.615 33.545,80.989 z"
         fill="#bed8fb"
         id="path5" />
      <circle
         cx="96.445"
         cy="141.864"
         fill="#dd636e"
         r="87.125999"
         id="circle5" />
      <path
         d="m 107.749,228.264 c -3.7,0.48 -7.48,0.73 -11.31,0.73 -48.12,0 -87.12,-39.01 -87.12,-87.13 0,-48.11 39,-87.12 87.12,-87.12 3.83,0 7.61,0.25 11.31,0.73 -42.78,5.54 -75.82,42.11 -75.82,86.39 0,44.29 33.04,80.86 75.82,86.4 z"
         fill="#da4a54"
         id="path6" />
    </g>
    <path
       d="m 510.181,198.276 c 0,-32.598 -12.693,-63.244 -35.741,-86.292 L 398.198,35.742 C 375.148,12.693 344.503,0 311.905,0 h -0.006 -176.7 c -26.12,0 -47.37,21.255 -47.37,47.38 v 0.257 c -48.153,4.369 -86.01,44.956 -86.01,94.223 0,49.273 37.856,89.864 86.01,94.233 v 31.027 c 0,2.486 1.232,4.811 3.29,6.207 l 26.769,18.16 c 2.543,1.725 5.88,1.724 8.421,0 l 54.761,-37.144 54.749,37.144 c 2.543,1.725 5.88,1.724 8.421,0 l 54.76,-37.144 54.76,37.144 c 2.541,1.725 5.879,1.724 8.42,0 l 54.761,-37.144 54.76,37.144 c 1.271,0.862 2.74,1.293 4.21,1.293 1.47,0 2.939,-0.431 4.21,-1.293 l 26.76,-18.15 c 2.058,-1.396 3.29,-3.721 3.29,-6.207 z M 387.59,46.348 463.832,122.59 c 12.185,12.184 21.069,26.788 26.205,42.729 -13.069,-13.549 -31.401,-21.988 -51.669,-21.988 h -39.143 c -17.853,0 -32.377,-14.524 -32.377,-32.377 V 71.812 c 0,-20.268 -8.438,-38.599 -21.987,-51.669 15.942,5.137 30.545,14.021 42.729,26.205 z m 88.319,229.87 -54.76,-37.144 c -2.541,-1.724 -5.879,-1.724 -8.42,0 l -54.761,37.144 -54.76,-37.144 c -2.541,-1.724 -5.879,-1.724 -8.42,0 l -54.76,37.144 -54.749,-37.144 c -2.543,-1.725 -5.88,-1.724 -8.421,0 l -54.761,37.144 -19.27,-13.072 V 236.27 c 49.21,-3.293 88.24,-44.375 88.24,-94.41 0,-29.062 -13.078,-56.098 -35.881,-74.177 -3.244,-2.573 -7.963,-2.029 -10.536,1.218 -2.573,3.246 -2.028,7.963 1.218,10.536 19.191,15.217 30.199,37.969 30.199,62.423 0,43.908 -35.718,79.63 -79.62,79.63 -43.908,0 -79.63,-35.722 -79.63,-79.63 0,-43.903 35.722,-79.62 79.63,-79.62 7.619,0 15.133,1.069 22.331,3.177 3.979,1.166 8.142,-1.115 9.306,-5.089 1.165,-3.975 -1.114,-8.141 -5.089,-9.306 -6.547,-1.918 -13.307,-3.107 -20.168,-3.564 V 47.38 c 0,-17.854 14.521,-32.38 32.37,-32.38 h 159.838 c 31.326,0 56.812,25.486 56.812,56.812 v 39.143 c 0,26.124 21.253,47.377 47.377,47.377 h 39.143 c 31.171,0 56.551,25.237 56.801,56.35 v 48.472 z"
       id="path7"
       style="stroke:none;stroke-opacity:1;fill:#3daee9;fill-opacity:1" />
    <path
       d="m 507.608,308.351 c -2.641,-2.287 -6.383,-2.434 -9.149,-0.558 l -22.55,15.294 -54.76,-37.144 c -2.541,-1.725 -5.878,-1.724 -8.421,0 l -19.519,13.243 c -3.399,2.306 -4.586,6.937 -2.382,10.403 2.279,3.586 7.05,4.555 10.543,2.187 l 15.569,-10.563 54.76,37.144 c 2.541,1.725 5.879,1.724 8.42,0 l 15.05,-10.208 V 464.62 c 0,17.883 -14.497,32.38 -32.38,32.38 h -327.59 c -0.462,0 -0.921,-0.01 -1.379,-0.029 -16.775,-0.699 -29.846,-14.883 -29.961,-31.673 l -0.941,-137.098 14.97,10.156 c 2.543,1.725 5.88,1.724 8.421,0 l 54.761,-37.144 54.749,37.144 c 2.543,1.725 5.88,1.724 8.421,0 l 54.76,-37.144 54.76,37.144 c 2.54,1.724 5.877,1.724 8.419,0.001 l 11.172,-7.575 c 3.399,-2.304 4.586,-6.933 2.384,-10.399 -2.279,-3.587 -7.052,-4.559 -10.543,-2.192 l -7.221,4.896 -54.761,-37.145 c -2.541,-1.724 -5.879,-1.724 -8.42,0 l -54.76,37.144 -54.749,-37.144 c -2.543,-1.725 -5.88,-1.724 -8.421,0 l -54.761,37.144 -22.379,-15.18 c -1.84,-1.248 -4.138,-1.747 -6.287,-1.175 -3.377,0.899 -5.604,3.914 -5.604,7.259 v 1.402 l 1.09,154.58 c 0,17.853 14.019,42.029 46.28,42.029 h 327.6 c 26.162,0 47.37,-21.208 47.37,-47.37 V 314.215 c 0,-2.225 -0.879,-4.407 -2.561,-5.864 z"
       id="path8"
       style="fill:#3daee9;fill-opacity:1" />
    <path
       d="M 131.2,96.501 96.445,131.256 61.689,96.501 c -2.93,-2.929 -7.678,-2.929 -10.607,0 -2.929,2.929 -2.929,7.677 0,10.606 l 34.756,34.756 -34.756,34.757 c -2.929,2.929 -2.929,7.677 0,10.606 1.465,1.465 3.385,2.197 5.304,2.197 1.919,0 3.839,-0.732 5.304,-2.197 l 34.755,-34.755 34.755,34.755 c 1.465,1.465 3.385,2.197 5.304,2.197 1.919,0 3.839,-0.732 5.304,-2.197 2.929,-2.929 2.929,-7.677 0,-10.606 l -34.756,-34.756 34.756,-34.756 c 2.929,-2.929 2.929,-7.677 0,-10.606 -2.93,-2.93 -7.678,-2.93 -10.608,-10e-4 z"
       id="path9"
       style="fill:#3daee9;fill-opacity:1" />
  </g>
</svg>
