<?xml version="1.0" encoding="UTF-8" standalone="no"?>
<!-- Created with Inkscape (http://www.inkscape.org/) -->

<svg
   width="22"
   height="22"
   viewBox="0 0 22 22.000001"
   version="1.1"
   id="svg5"
   inkscape:version="1.2.1 (9c6d41e410, 2022-07-14, custom)"
   sodipodi:docname="view-media-lyrics.svg"
   xmlns:inkscape="http://www.inkscape.org/namespaces/inkscape"
   xmlns:sodipodi="http://sodipodi.sourceforge.net/DTD/sodipodi-0.dtd"
   xmlns="http://www.w3.org/2000/svg"
   xmlns:svg="http://www.w3.org/2000/svg">
  <sodipodi:namedview
     id="namedview7"
     pagecolor="#ffffff"
     bordercolor="#000000"
     borderopacity="0.25"
     inkscape:showpageshadow="2"
     inkscape:pageopacity="0.0"
     inkscape:pagecheckerboard="0"
     inkscape:deskcolor="#d1d1d1"
     inkscape:document-units="px"
     showgrid="false"
     inkscape:zoom="36.772727"
     inkscape:cx="11"
     inkscape:cy="11"
     inkscape:window-width="1920"
     inkscape:window-height="1012"
     inkscape:window-x="0"
     inkscape:window-y="0"
     inkscape:window-maximized="1"
     inkscape:current-layer="svg5"
     showguides="false" />
  <defs
     id="defs2">
    <style
       id="current-color-scheme"
       type="text/css">
      .ColorScheme-Text { color:#dedede; }
    </style>
  </defs>
  <path
     id="path285"
     style="opacity:1;fill:currentColor;fill-opacity:1;stroke-width:0.857143"
     class="ColorScheme-Text"
     d="M 2,2 V 3 H 20 V 2 Z m 12,3 v 9.763672 C 13.44994,14.271811 12.737897,13.999928 12,14 c -1.656852,0 -3,1.343148 -3,3 0,1.656852 1.343148,3 3,3 1.656852,0 3,-1.343148 3,-3 V 9 l 5,1.820312 V 8.8203125 C 20,7.7123157 19.107997,6.4950748 18,6.0917969 L 15,5 Z M 2,6 v 1 h 9 V 6 Z m 13,0 3,1.0917969 c 0.553997,0.2016388 1,0.8092829 1,1.3632812 V 9.455078 L 15,8 Z M 2,10 v 1 h 9 v -1 z m 0,4 v 1 h 4 v -1 z m 10,1 c 1.104569,0 2,0.895432 2,2 0,1.104568 -0.895431,2 -2,2 -1.104568,0 -2,-0.895432 -2,-2 0,-1.104568 0.895432,-2 2,-2 z M 2,18 v 1 h 4 v -1 z" />
</svg>
