<?xml version="1.0" encoding="UTF-8" standalone="no"?>
<!-- Created with Inkscape (http://www.inkscape.org/) -->

<svg
   width="22"
   height="22"
   viewBox="0 0 22 22.000001"
   version="1.1"
   id="svg5"
   inkscape:version="1.2.1 (9c6d41e410, 2022-07-14, custom)"
   sodipodi:docname="view-media-lyrics.svg"
   xmlns:inkscape="http://www.inkscape.org/namespaces/inkscape"
   xmlns:sodipodi="http://sodipodi.sourceforge.net/DTD/sodipodi-0.dtd"
   xmlns="http://www.w3.org/2000/svg"
   xmlns:svg="http://www.w3.org/2000/svg">
  <sodipodi:namedview
     id="namedview7"
     pagecolor="#ffffff"
     bordercolor="#000000"
     borderopacity="0.25"
     inkscape:showpageshadow="2"
     inkscape:pageopacity="0.0"
     inkscape:pagecheckerboard="0"
     inkscape:deskcolor="#d1d1d1"
     inkscape:document-units="px"
     showgrid="false"
     inkscape:zoom="36.772727"
     inkscape:cx="11"
     inkscape:cy="11"
     inkscape:window-width="1920"
     inkscape:window-height="1012"
     inkscape:window-x="0"
     inkscape:window-y="0"
     inkscape:window-maximized="1"
     inkscape:current-layer="svg5"
     showguides="false" />
  <defs
     id="defs2">
    <style
       id="current-color-scheme"
       type="text/css">
      .ColorScheme-Text { color:#363636; }
    </style>
  </defs>
  <path
     id="path285"
     style="opacity:1;fill:currentColor;fill-opacity:1;stroke-width:0.857143"
     class="ColorScheme-Text"
     d="M 2 2 L 2 3 L 20 3 L 20 2 L 2 2 z M 14 5 L 14 14.763672 C 13.44994 14.271811 12.737897 13.999928 12 14 C 10.343148 14 9 15.343148 9 17 C 9 18.656852 10.343148 20 12 20 C 13.656852 20 15 18.656852 15 17 L 15 9 L 20 10.820312 L 20 8.8203125 C 20 7.7123157 19.107997 6.4950748 18 6.0917969 L 15 5 L 14 5 z M 2 6 L 2 7 L 11 7 L 11 6 L 2 6 z M 15 6 L 18 7.0917969 C 18.553997 7.2934357 19 7.9010798 19 8.4550781 L 19 9.4550781 L 15 8 L 15 6 z M 2 10 L 2 11 L 11 11 L 11 10 L 2 10 z M 2 14 L 2 15 L 6 15 L 6 14 L 2 14 z M 12 15 C 13.104569 15 14 15.895432 14 17 C 14 18.104568 13.104569 19 12 19 C 10.895432 19 10 18.104568 10 17 C 10 15.895432 10.895432 15 12 15 z M 2 18 L 2 19 L 6 19 L 6 18 L 2 18 z " />
</svg>
