<?xml version="1.0" encoding="UTF-8" standalone="no"?>
<svg
   version="1.1"
   viewBox="0 0 22 22"
   id="svg3"
   sodipodi:docname="duplicate-node.svg"
   inkscape:version="1.4.2 (1:1.4.2+202505120738+ebf0e940d0)"
   xmlns:inkscape="http://www.inkscape.org/namespaces/inkscape"
   xmlns:sodipodi="http://sodipodi.sourceforge.net/DTD/sodipodi-0.dtd"
   xmlns="http://www.w3.org/2000/svg"
   xmlns:svg="http://www.w3.org/2000/svg">
  <defs
     id="defs3" />
  <sodipodi:namedview
     id="namedview3"
     pagecolor="#ffffff"
     bordercolor="#666666"
     borderopacity="1.0"
     inkscape:showpageshadow="2"
     inkscape:pageopacity="0.0"
     inkscape:pagecheckerboard="0"
     inkscape:deskcolor="#d1d1d1"
     inkscape:zoom="37.508801"
     inkscape:cx="13.556818"
     inkscape:cy="12.063835"
     inkscape:window-width="2560"
     inkscape:window-height="1372"
     inkscape:window-x="1920"
     inkscape:window-y="0"
     inkscape:window-maximized="1"
     inkscape:current-layer="svg3" />
  <style
     id="current-color-scheme"
     type="text/css">.ColorScheme-Text{color:#363636;}</style>
  <g
     id="g1">
    <path
       style="fill:#363636;fill-opacity:1;stroke:none;stroke-width:0.38827"
       id="path1"
       sodipodi:type="arc"
       sodipodi:cx="7.7458348"
       sodipodi:cy="7.7561455"
       sodipodi:rx="6.3466802"
       sodipodi:ry="6.3699913"
       sodipodi:start="5.673664"
       sodipodi:end="5.6735508"
       sodipodi:arc-type="arc"
       d="M 12.949618,4.1094845 A 6.3466802,6.3699913 0 0 1 11.379298,12.978939 6.3466802,6.3699913 0 0 1 2.5422568,11.403102 6.3466802,6.3699913 0 0 1 4.1120771,2.5335581 6.3466802,6.3699913 0 0 1 12.949207,4.1088933"
       sodipodi:open="true" />
    <path
       style="fill:#3daee9;fill-opacity:1;stroke:#ffffff;stroke-width:0.459006;stroke-dasharray:none;stroke-opacity:1"
       id="path2"
       sodipodi:type="arc"
       sodipodi:cx="14.060121"
       sodipodi:cy="14.158701"
       sodipodi:rx="6.3401823"
       sodipodi:ry="6.3609824"
       sodipodi:start="5.673664"
       sodipodi:end="5.6735508"
       sodipodi:open="true"
       sodipodi:arc-type="arc"
       d="M 19.258576,10.517197 A 6.3401823,6.3609824 0 0 1 17.689864,19.374108 6.3401823,6.3609824 0 0 1 8.8618701,17.8005 6.3401823,6.3609824 0 0 1 10.430083,8.9434997 6.3401823,6.3609824 0 0 1 19.258166,10.516607" />
    <path
       d="m 14.724816,13.591794 h 2.992792 q 0.328477,0 0.538337,0.237233 0.237234,0.237234 0.228109,0.529214 v 0.0365 q 0,0.319353 -0.228109,0.538338 -0.237233,0.228109 -0.538337,0.228109 h -2.992792 v 2.828553 q 0,0.364975 -0.264607,0.629581 -0.264607,0.264607 -0.602208,0.255483 h -0.0365 q -0.364974,0.01825 -0.620456,-0.246358 -0.246358,-0.273731 -0.246358,-0.638706 V 15.161185 H 9.9618967 q -0.3284771,0 -0.5474619,-0.237234 Q 9.19545,14.686718 9.19545,14.394738 v -0.0365 q 0,-0.328478 0.2189848,-0.529214 0.2372335,-0.237233 0.5474619,-0.237233 h 2.9927923 v -2.80118 q 0,-0.364975 0.255482,-0.611333 0.246358,-0.2463578 0.611332,-0.2463578 h 0.0365 q 0.364974,0 0.602208,0.2646068 0.264607,0.264606 0.264607,0.593084 z"
       id="text4"
       style="font-size:18.6867px;line-height:1000;font-family:Dyuthi;-inkscape-font-specification:'Dyuthi, Normal';letter-spacing:0px;word-spacing:0px;fill:#ffffff;stroke-width:0.467171"
       transform="scale(1.014006,0.9861875)"
       aria-label="+" />
  </g>
</svg>
