<?xml version="1.0" encoding="UTF-8" standalone="no"?>
<!-- Created with Inkscape (http://www.inkscape.org/) -->

<svg
   width="8"
   height="8"
   viewBox="0 0 8 8"
   version="1.1"
   id="svg5"
   inkscape:version="1.2.1 (9c6d41e410, 2022-07-14, custom)"
   sodipodi:docname="emblem-added.svg"
   xmlns:inkscape="http://www.inkscape.org/namespaces/inkscape"
   xmlns:sodipodi="http://sodipodi.sourceforge.net/DTD/sodipodi-0.dtd"
   xmlns="http://www.w3.org/2000/svg"
   xmlns:svg="http://www.w3.org/2000/svg">
  <sodipodi:namedview
     id="namedview7"
     pagecolor="#ffffff"
     bordercolor="#666666"
     borderopacity="1.0"
     inkscape:pageshadow="2"
     inkscape:pageopacity="0.0"
     inkscape:pagecheckerboard="0"
     inkscape:document-units="px"
     showgrid="false"
     units="px"
     height="22px"
     showguides="false"
     inkscape:zoom="101.25"
     inkscape:cx="4"
     inkscape:cy="4"
     inkscape:window-width="1920"
     inkscape:window-height="1012"
     inkscape:window-x="0"
     inkscape:window-y="0"
     inkscape:window-maximized="1"
     inkscape:current-layer="svg5"
     inkscape:showpageshadow="2"
     inkscape:deskcolor="#d1d1d1" />
  <defs
     id="defs2" />
  <rect
     style="fill:#4d4d4d;fill-opacity:1;stroke-width:0.202146;stroke-linejoin:round"
     id="rect858"
     height="8"
     x="0"
     y="0"
     width="8"
     ry="1" />
  <rect
     style="fill:#7e7e7e;fill-opacity:1;stroke-width:0.927421;stroke-linecap:round"
     id="rect3728"
     width="6"
     height="6"
     x="1"
     y="1" />
  <path
     id="rect372"
     style="fill:#ffffff;fill-opacity:1;stroke-linecap:round;stroke-linejoin:round"
     d="M 3.5,1 C 3.2230003,1 3,1.2230003 3,1.5 V 3 H 1.5 C 1.2230003,3 1,3.2230003 1,3.5 1,3.7769997 1.2230003,4 1.5,4 H 3 V 5.5 C 3,5.7769997 3.2230003,6 3.5,6 3.7769997,6 4,5.7769997 4,5.5 V 4 H 5.5 C 5.7769997,4 6,3.7769997 6,3.5 6,3.2230003 5.7769997,3 5.5,3 H 4 V 1.5 C 4,1.2230003 3.7769997,1 3.5,1 Z"
     sodipodi:nodetypes="sscssscssscssscss" />
</svg>
