<?xml version="1.0" encoding="UTF-8" standalone="no"?>
<!-- Created with Inkscape (http://www.inkscape.org/) -->

<svg
   width="8"
   height="8"
   viewBox="0 0 8 8"
   version="1.1"
   id="svg5"
   inkscape:version="1.2.1 (9c6d41e410, 2022-07-14, custom)"
   sodipodi:docname="emblem-unreadable.svg"
   xmlns:inkscape="http://www.inkscape.org/namespaces/inkscape"
   xmlns:sodipodi="http://sodipodi.sourceforge.net/DTD/sodipodi-0.dtd"
   xmlns:xlink="http://www.w3.org/1999/xlink"
   xmlns="http://www.w3.org/2000/svg"
   xmlns:svg="http://www.w3.org/2000/svg">
  <sodipodi:namedview
     id="namedview7"
     pagecolor="#ffffff"
     bordercolor="#666666"
     borderopacity="1.0"
     inkscape:pageshadow="2"
     inkscape:pageopacity="0.0"
     inkscape:pagecheckerboard="0"
     inkscape:document-units="px"
     showgrid="false"
     units="px"
     height="22px"
     showguides="false"
     inkscape:zoom="103.375"
     inkscape:cx="3.9951632"
     inkscape:cy="4"
     inkscape:window-width="1920"
     inkscape:window-height="1029"
     inkscape:window-x="0"
     inkscape:window-y="0"
     inkscape:window-maximized="1"
     inkscape:current-layer="svg5"
     inkscape:showpageshadow="2"
     inkscape:deskcolor="#d1d1d1" />
  <defs
     id="defs2">
    <linearGradient
       inkscape:collect="always"
       xlink:href="#linearGradient8163"
       id="linearGradient8165"
       x1="5.7449827"
       y1="8.3089285"
       x2="5.7449827"
       y2="19.347616"
       gradientUnits="userSpaceOnUse"
       gradientTransform="matrix(0.63646015,0,0,0.72472385,0.78761935,-6.0216785)" />
    <linearGradient
       inkscape:collect="always"
       id="linearGradient8163">
      <stop
         style="stop-color:#e8ebf1;stop-opacity:1;"
         offset="0"
         id="stop8159" />
      <stop
         style="stop-color:#c6cfdd;stop-opacity:1"
         offset="1"
         id="stop8161" />
    </linearGradient>
    <linearGradient
       inkscape:collect="always"
       xlink:href="#linearGradient2733"
       id="linearGradient935"
       x1="5"
       y1="11"
       x2="20"
       y2="11"
       gradientUnits="userSpaceOnUse"
       gradientTransform="matrix(0.33333332,0,0,0.5,1.4901883,-5.5000005)" />
    <linearGradient
       inkscape:collect="always"
       id="linearGradient2733">
      <stop
         style="stop-color:#ed6767;stop-opacity:1"
         offset="0"
         id="stop2729" />
      <stop
         style="stop-color:#d40101;stop-opacity:1"
         offset="1"
         id="stop2731" />
    </linearGradient>
  </defs>
  <rect
     style="fill:url(#linearGradient8165);fill-opacity:1;stroke-width:0.179695;stroke-linejoin:round"
     id="rect858"
     height="8"
     x="0"
     y="0"
     width="8"
     ry="1" />
  <rect
     style="fill:#ffffff;fill-opacity:1;stroke-width:0.927421;stroke-linecap:round"
     id="rect3728"
     width="6"
     height="6"
     x="1"
     y="1.0000002" />
  <path
     id="rect295"
     style="fill:url(#linearGradient935);fill-opacity:1;stroke-width:0.377964;stroke-linecap:round"
     d="M 3.3035145 -0.35355339 C 3.2131396 -0.26317848 3.1571213 -0.13849986 3.1571213 2.220446e-16 C 3.1571213 0.27699972 3.3800682 0.49994659 3.6570679 0.49994659 L 5.1569077 0.49994659 L 5.1569077 1.9997864 C 5.1569077 2.2767858 5.3798547 2.499733 5.6568542 2.499733 C 5.9338537 2.499733 6.1568008 2.2767858 6.1568008 1.9997864 L 6.1568008 0.49994659 L 7.6566406 0.49994659 C 7.9336403 0.49994659 8.1565872 0.27699972 8.1565872 8.8817842e-16 C 8.1565872 -0.27699972 7.9336403 -0.49994659 7.6566406 -0.49994659 L 6.1568008 -0.49994659 L 6.1568008 -1.9997864 C 6.1568008 -2.2767858 5.9338537 -2.499733 5.6568542 -2.499733 C 5.5183545 -2.499733 5.3936757 -2.4437146 5.3033009 -2.3533398 C 5.212926 -2.2629649 5.1569077 -2.138286 5.1569077 -1.9997864 L 5.1569077 -0.49994659 L 3.6570679 -0.49994659 C 3.518568 -0.49994659 3.3938894 -0.4439283 3.3035145 -0.35355339 z "
     transform="rotate(45)" />
</svg>
