<?xml version="1.0" encoding="UTF-8" standalone="no"?>
<!-- Created with Inkscape (http://www.inkscape.org/) -->

<svg
   width="48"
   height="48"
   viewBox="0 0 48 48"
   version="1.1"
   id="svg5"
   inkscape:version="1.2.1 (9c6d41e410, 2022-07-14, custom)"
   sodipodi:docname="image-missing.svg"
   xmlns:inkscape="http://www.inkscape.org/namespaces/inkscape"
   xmlns:sodipodi="http://sodipodi.sourceforge.net/DTD/sodipodi-0.dtd"
   xmlns:xlink="http://www.w3.org/1999/xlink"
   xmlns="http://www.w3.org/2000/svg"
   xmlns:svg="http://www.w3.org/2000/svg">
  <sodipodi:namedview
     id="namedview7"
     pagecolor="#ffffff"
     bordercolor="#000000"
     borderopacity="0.25"
     inkscape:showpageshadow="2"
     inkscape:pageopacity="0.0"
     inkscape:pagecheckerboard="0"
     inkscape:deskcolor="#d1d1d1"
     inkscape:document-units="px"
     showgrid="false"
     inkscape:zoom="16.875"
     inkscape:cx="24"
     inkscape:cy="24"
     inkscape:window-width="1920"
     inkscape:window-height="1012"
     inkscape:window-x="0"
     inkscape:window-y="0"
     inkscape:window-maximized="1"
     inkscape:current-layer="svg5"
     showguides="false" />
  <defs
     id="defs2">
    <linearGradient
       inkscape:collect="always"
       xlink:href="#linearGradient1407"
       id="linearGradient1477"
       x1="7.4604449"
       y1="7.4684963"
       x2="14.594507"
       y2="14.475561"
       gradientUnits="userSpaceOnUse"
       gradientTransform="matrix(2,0,0,2,2,1.9999999)" />
    <linearGradient
       inkscape:collect="always"
       id="linearGradient1407">
      <stop
         style="stop-color:#e96311;stop-opacity:1;"
         offset="0"
         id="stop1403" />
      <stop
         style="stop-color:#da3f04;stop-opacity:1"
         offset="1"
         id="stop1405" />
    </linearGradient>
  </defs>
  <rect
     style="fill:#7d7d7b;fill-opacity:1;stroke-width:2;stroke-linejoin:round"
     id="rect845"
     width="44"
     height="34"
     x="2"
     y="7"
     ry="0.99999994" />
  <rect
     style="fill:#fafafa;fill-opacity:1;stroke-width:2.06559;stroke-linejoin:round"
     id="rect5692"
     width="42"
     height="32"
     x="2.999999"
     y="7.999999" />
  <path
     id="path374"
     style="fill:url(#linearGradient1477);fill-opacity:1;stroke-width:3.33334"
     d="m 24,14 c -5.522836,0 -10,4.477164 -10,10 0,5.522834 4.477164,10 10,10 5.522834,0 10,-4.477166 10,-10 0,-5.522836 -4.477166,-10 -10,-10 z m 0,2 c 1.84849,0 3.54774,0.630759 4.902344,1.683594 l -11.21875,11.21875 C 16.630758,27.54774 16,25.848488 16,24 c 0,-4.41827 3.581732,-8 8,-8 z m 6.316406,3.097656 C 31.36924,20.45226 32,22.151512 32,24 c 0,4.41827 -3.581728,8 -8,8 -1.848488,0 -3.54774,-0.63076 -4.902344,-1.683594 z" />
</svg>
