<?xml version="1.0" encoding="UTF-8"?>
<!DOCTYPE svg PUBLIC "-//W3C//DTD SVG 1.1//EN" "http://www.w3.org/Graphics/SVG/1.1/DTD/svg11.dtd">
<svg xmlns="http://www.w3.org/2000/svg" xmlns:xlink="http://www.w3.org/1999/xlink" version="1.1">
  <metadata>
Font name: Hershey Cyrillic
 
-------------------------------------------------------------------
The Hershey Fonts are a set of vector fonts with a liberal license.

USE RESTRICTION:
    This distribution of the Hershey Fonts may be used by anyone for
    any purpose, commercial or otherwise, providing that:
        1. The following acknowledgements must be distributed with
            the font data:
            - The Hershey Fonts were originally created by Dr.
                A. V. Hershey while working at the U. S.
                National Bureau of Standards.
            - The format of the Font data in this distribution
                was originally created by
                    James Hurt
                    Cognition, Inc.
                    900 Technology Park Drive
                    Billerica, MA 01821
                    (mit-eddie!ci-dandelion!hurt)
        2. The font data in this distribution may be converted into
            any other format *EXCEPT* the format distributed by
            the U.S. NTIS where each point is described
            in eight bytes as "xxx yyy:", where xxx and yyy are
            the coordinate values as ASCII numbers.

  </metadata>
  <defs>
    <font horiz-adv-x="500.0" id="HersheyCyrillic">
      <font-face ascent="800.0" cap-height="500.0" descent="-200.0" font-family="Hershey Cyrillic" font-weight="bold" units-per-em="1000" x-height="300.0">
        <font-face-src>
          <font-face-name name="Hershey Cyrillic"/>
        </font-face-src>
      </font-face>
      <missing-glyph horiz-adv-x="500.0"/>
      <glyph glyph-name="space" horiz-adv-x="500.0" unicode=" "/>
      <glyph unicode="A" glyph-name="A" horiz-adv-x="630" d="M 378 662 L 158 0 M 378 662 L 598 0 M 378 567 L 567 0 M 220 189 L 504 189 M 94.5 0 L 284 0 M 472 0 L 662 0" />
      <glyph unicode="B" glyph-name="B" horiz-adv-x="693" d="M 220 662 L 220 0 M 252 662 L 252 0 M 126 662 L 504 662 L 598 630 L 630 598 L 662 536 L 662 472 L 630 410 L 598 378 L 504 346 M 504 662 L 567 630 L 598 598 L 630 536 L 630 472 L 598 410 L 567 378 L 504 346 M 252 346 L 504 346 L 598 315 L 630 284 L 662 220 L 662 126 L 630 63 L 598 31.5 L 504 0 L 126 0 M 504 346 L 567 315 L 598 284 L 630 220 L 630 126 L 598 63 L 567 31.5 L 504 0" />
      <glyph unicode="C" glyph-name="C" horiz-adv-x="662" d="M 598 567 L 630 472 L 630 662 L 598 567 L 536 630 L 441 662 L 378 662 L 284 630 L 220 567 L 189 504 L 158 410 L 158 252 L 189 158 L 220 94.5 L 284 31.5 L 378 0 L 441 0 L 536 31.5 L 598 94.5 L 630 158 M 378 662 L 315 630 L 252 567 L 220 504 L 189 410 L 189 252 L 220 158 L 252 94.5 L 315 31.5 L 378 0" />
      <glyph unicode="D" glyph-name="D" horiz-adv-x="693" d="M 220 662 L 220 0 M 252 662 L 252 0 M 126 662 L 441 662 L 536 630 L 598 567 L 630 504 L 662 410 L 662 252 L 630 158 L 598 94.5 L 536 31.5 L 441 0 L 126 0 M 441 662 L 504 630 L 567 567 L 598 504 L 630 410 L 630 252 L 598 158 L 567 94.5 L 504 31.5 L 441 0" />
      <glyph unicode="E" glyph-name="E" horiz-adv-x="662" d="M 220 662 L 220 0 M 252 662 L 252 0 M 441 472 L 441 220 M 126 662 L 630 662 L 630 472 L 598 662 M 252 346 L 441 346 M 126 0 L 630 0 L 630 189 L 598 0" />
      <glyph unicode="F" glyph-name="F" horiz-adv-x="630" d="M 220 662 L 220 0 M 252 662 L 252 0 M 441 472 L 441 220 M 126 662 L 630 662 L 630 472 L 598 662 M 252 346 L 441 346 M 126 0 L 346 0" />
      <glyph unicode="G" glyph-name="G" horiz-adv-x="724" d="M 598 567 L 630 472 L 630 662 L 598 567 L 536 630 L 441 662 L 378 662 L 284 630 L 220 567 L 189 504 L 158 410 L 158 252 L 189 158 L 220 94.5 L 284 31.5 L 378 0 L 441 0 L 536 31.5 L 598 94.5 M 378 662 L 315 630 L 252 567 L 220 504 L 189 410 L 189 252 L 220 158 L 252 94.5 L 315 31.5 L 378 0 M 598 252 L 598 0 M 630 252 L 630 0 M 504 252 L 724 252" />
      <glyph unicode="H" glyph-name="H" horiz-adv-x="756" d="M 220 662 L 220 0 M 252 662 L 252 0 M 630 662 L 630 0 M 662 662 L 662 0 M 126 662 L 346 662 M 536 662 L 756 662 M 252 346 L 630 346 M 126 0 L 346 0 M 536 0 L 756 0" />
      <glyph unicode="I" glyph-name="I" horiz-adv-x="346" d="M 220 662 L 220 0 M 252 662 L 252 0 M 126 662 L 346 662 M 126 0 L 346 0" />
      <glyph unicode="J" glyph-name="J" horiz-adv-x="472" d="M 378 662 L 378 126 L 346 31.5 L 284 0 L 220 0 L 158 31.5 L 126 94.5 L 126 158 L 158 189 L 189 158 L 158 126 M 346 662 L 346 126 L 315 31.5 L 284 0 M 252 662 L 472 662" />
      <glyph unicode="K" glyph-name="K" horiz-adv-x="693" d="M 220 662 L 220 0 M 252 662 L 252 0 M 662 662 L 252 252 M 410 378 L 662 0 M 378 378 L 630 0 M 126 662 L 346 662 M 536 662 L 724 662 M 126 0 L 346 0 M 536 0 L 724 0" />
      <glyph unicode="L" glyph-name="L" horiz-adv-x="567" d="M 220 662 L 220 0 M 252 662 L 252 0 M 126 662 L 346 662 M 126 0 L 598 0 L 598 189 L 567 0" />
      <glyph unicode="M" glyph-name="M" horiz-adv-x="788" d="M 220 662 L 220 0 M 252 662 L 441 94.5 M 220 662 L 441 0 M 662 662 L 441 0 M 662 662 L 662 0 M 693 662 L 693 0 M 126 662 L 252 662 M 662 662 L 788 662 M 126 0 L 315 0 M 567 0 L 788 0" />
      <glyph unicode="N" glyph-name="N" horiz-adv-x="724" d="M 220 662 L 220 0 M 252 662 L 630 63 M 252 598 L 630 0 M 630 662 L 630 0 M 126 662 L 252 662 M 536 662 L 724 662 M 126 0 L 315 0" />
      <glyph unicode="O" glyph-name="O" horiz-adv-x="693" d="M 378 662 L 284 630 L 220 567 L 189 504 L 158 378 L 158 284 L 189 158 L 220 94.5 L 284 31.5 L 378 0 L 441 0 L 536 31.5 L 598 94.5 L 630 158 L 662 284 L 662 378 L 630 504 L 598 567 L 536 630 L 441 662 L 378 662 M 378 662 L 315 630 L 252 567 L 220 504 L 189 378 L 189 284 L 220 158 L 252 94.5 L 315 31.5 L 378 0 M 441 0 L 504 31.5 L 567 94.5 L 598 158 L 630 284 L 630 378 L 598 504 L 567 567 L 504 630 L 441 662" />
      <glyph unicode="P" glyph-name="P" horiz-adv-x="693" d="M 220 662 L 220 0 M 252 662 L 252 0 M 126 662 L 504 662 L 598 630 L 630 598 L 662 536 L 662 441 L 630 378 L 598 346 L 504 315 L 252 315 M 504 662 L 567 630 L 598 598 L 630 536 L 630 441 L 598 378 L 567 346 L 504 315 M 126 0 L 346 0" />
      <glyph unicode="Q" glyph-name="Q" horiz-adv-x="693" d="M 378 662 L 284 630 L 220 567 L 189 504 L 158 378 L 158 284 L 189 158 L 220 94.5 L 284 31.5 L 378 0 L 441 0 L 536 31.5 L 598 94.5 L 630 158 L 662 284 L 662 378 L 630 504 L 598 567 L 536 630 L 441 662 L 378 662 M 378 662 L 315 630 L 252 567 L 220 504 L 189 378 L 189 284 L 220 158 L 252 94.5 L 315 31.5 L 378 0 M 441 0 L 504 31.5 L 567 94.5 L 598 158 L 630 284 L 630 378 L 598 504 L 567 567 L 504 630 L 441 662 M 284 63 L 284 94.5 L 315 158 L 378 189 L 410 189 L 472 158 L 504 94.5 L 536 -126 L 567 -158 L 630 -158 L 662 -94.5 L 662 -63 M 504 94.5 L 536 -31.5 L 567 -94.5 L 598 -126 L 630 -126 L 662 -94.5" />
      <glyph unicode="R" glyph-name="R" horiz-adv-x="693" d="M 220 662 L 220 0 M 252 662 L 252 0 M 126 662 L 504 662 L 598 630 L 630 598 L 662 536 L 662 472 L 630 410 L 598 378 L 504 346 L 252 346 M 504 662 L 567 630 L 598 598 L 630 536 L 630 472 L 598 410 L 567 378 L 504 346 M 126 0 L 346 0 M 410 346 L 472 315 L 504 284 L 598 63 L 630 31.5 L 662 31.5 L 693 63 M 472 315 L 504 252 L 567 31.5 L 598 0 L 662 0 L 693 63 L 693 94.5" />
      <glyph unicode="S" glyph-name="S" horiz-adv-x="630" d="M 567 567 L 598 662 L 598 472 L 567 567 L 504 630 L 410 662 L 315 662 L 220 630 L 158 567 L 158 504 L 189 441 L 220 410 L 284 378 L 472 315 L 536 284 L 598 220 M 158 504 L 220 441 L 284 410 L 472 346 L 536 315 L 567 284 L 598 220 L 598 94.5 L 536 31.5 L 441 0 L 346 0 L 252 31.5 L 189 94.5 L 158 189 L 158 0 L 189 94.5" />
      <glyph unicode="T" glyph-name="T" horiz-adv-x="598" d="M 346 662 L 346 0 M 378 662 L 378 0 M 158 662 L 126 472 L 126 662 L 598 662 L 598 472 L 567 662 M 252 0 L 472 0" />
      <glyph unicode="U" glyph-name="U" horiz-adv-x="756" d="M 220 662 L 220 189 L 252 94.5 L 315 31.5 L 410 0 L 472 0 L 567 31.5 L 630 94.5 L 662 189 L 662 662 M 252 662 L 252 189 L 284 94.5 L 346 31.5 L 410 0 M 126 662 L 346 662 M 567 662 L 756 662" />
      <glyph unicode="V" glyph-name="V" horiz-adv-x="630" d="M 158 662 L 378 0 M 189 662 L 378 94.5 M 598 662 L 378 0 M 94.5 662 L 284 662 M 472 662 L 662 662" />
      <glyph unicode="W" glyph-name="W" horiz-adv-x="756" d="M 189 662 L 315 0 M 220 662 L 315 158 M 441 662 L 315 0 M 441 662 L 567 0 M 472 662 L 567 158 M 693 662 L 567 0 M 94.5 662 L 315 662 M 598 662 L 788 662" />
      <glyph unicode="X" glyph-name="X" horiz-adv-x="630" d="M 158 662 L 567 0 M 189 662 L 598 0 M 598 662 L 158 0 M 94.5 662 L 284 662 M 472 662 L 662 662 M 94.5 0 L 284 0 M 472 0 L 662 0" />
      <glyph unicode="Y" glyph-name="Y" horiz-adv-x="662" d="M 158 662 L 378 315 L 378 0 M 189 662 L 410 315 L 410 0 M 630 662 L 410 315 M 94.5 662 L 284 662 M 504 662 L 693 662 M 284 0 L 504 0" />
      <glyph unicode="Z" glyph-name="Z" horiz-adv-x="630" d="M 567 662 L 158 0 M 598 662 L 189 0 M 189 662 L 158 472 L 158 662 L 598 662 M 158 0 L 598 0 L 598 189 L 567 0" />
      <glyph d="M333.3 700.0C333.3 700.0 100.0 -0.0 100.0 -0.0M333.3 700.0C333.3 700.0 566.7 -0.0 566.7 -0.0M333.3 600.0C333.3 600.0 533.3 -0.0 533.3 -0.0M166.7 200.0C166.7 200.0 466.7 200.0 466.7 200.0M33.3 -0.0C33.3 -0.0 233.3 -0.0 233.3 -0.0M433.3 -0.0C433.3 -0.0 633.3 -0.0 633.3 -0.0" glyph-name="А" horiz-adv-x="666.7" unicode="А"/>
      <glyph d="M166.7 700.0C166.7 700.0 166.7 -0.0 166.7 -0.0M200.0 700.0C200.0 700.0 200.0 -0.0 200.0 -0.0M66.7 700.0C66.7 700.0 600.0 700.0 600.0 700.0C600.0 700.0 600.0 500.0 600.0 500.0C600.0 500.0 566.7 700.0 566.7 700.0M200.0 366.7C200.0 366.7 466.7 366.7 466.7 366.7C466.7 366.7 566.7 333.3 566.7 333.3C566.7 333.3 600.0 300.0 600.0 300.0C600.0 300.0 633.3 233.3 633.3 233.3C633.3 233.3 633.3 133.3 633.3 133.3C633.3 133.3 600.0 66.7 600.0 66.7C600.0 66.7 566.7 33.3 566.7 33.3C566.7 33.3 466.7 -0.0 466.7 -0.0C466.7 -0.0 66.7 -0.0 66.7 -0.0M466.7 366.7C466.7 366.7 533.3 333.3 533.3 333.3C533.3 333.3 566.7 300.0 566.7 300.0C566.7 300.0 600.0 233.3 600.0 233.3C600.0 233.3 600.0 133.3 600.0 133.3C600.0 133.3 566.7 66.7 566.7 66.7C566.7 66.7 533.3 33.3 533.3 33.3C533.3 33.3 466.7 -0.0 466.7 -0.0" glyph-name="Б" horiz-adv-x="733.3" unicode="Б"/>
      <glyph d="M166.7 700.0C166.7 700.0 166.7 -0.0 166.7 -0.0M200.0 700.0C200.0 700.0 200.0 -0.0 200.0 -0.0M66.7 700.0C66.7 700.0 466.7 700.0 466.7 700.0C466.7 700.0 566.7 666.7 566.7 666.7C566.7 666.7 600.0 633.3 600.0 633.3C600.0 633.3 633.3 566.7 633.3 566.7C633.3 566.7 633.3 500.0 633.3 500.0C633.3 500.0 600.0 433.3 600.0 433.3C600.0 433.3 566.7 400.0 566.7 400.0C566.7 400.0 466.7 366.7 466.7 366.7M466.7 700.0C466.7 700.0 533.3 666.7 533.3 666.7C533.3 666.7 566.7 633.3 566.7 633.3C566.7 633.3 600.0 566.7 600.0 566.7C600.0 566.7 600.0 500.0 600.0 500.0C600.0 500.0 566.7 433.3 566.7 433.3C566.7 433.3 533.3 400.0 533.3 400.0C533.3 400.0 466.7 366.7 466.7 366.7M200.0 366.7C200.0 366.7 466.7 366.7 466.7 366.7C466.7 366.7 566.7 333.3 566.7 333.3C566.7 333.3 600.0 300.0 600.0 300.0C600.0 300.0 633.3 233.3 633.3 233.3C633.3 233.3 633.3 133.3 633.3 133.3C633.3 133.3 600.0 66.7 600.0 66.7C600.0 66.7 566.7 33.3 566.7 33.3C566.7 33.3 466.7 -0.0 466.7 -0.0C466.7 -0.0 66.7 -0.0 66.7 -0.0M466.7 366.7C466.7 366.7 533.3 333.3 533.3 333.3C533.3 333.3 566.7 300.0 566.7 300.0C566.7 300.0 600.0 233.3 600.0 233.3C600.0 233.3 600.0 133.3 600.0 133.3C600.0 133.3 566.7 66.7 566.7 66.7C566.7 66.7 533.3 33.3 533.3 33.3C533.3 33.3 466.7 -0.0 466.7 -0.0" glyph-name="В" horiz-adv-x="733.3" unicode="В"/>
      <glyph d="M166.7 700.0C166.7 700.0 166.7 -0.0 166.7 -0.0M200.0 700.0C200.0 700.0 200.0 -0.0 200.0 -0.0M66.7 700.0C66.7 700.0 566.7 700.0 566.7 700.0C566.7 700.0 566.7 500.0 566.7 500.0C566.7 500.0 533.3 700.0 533.3 700.0M66.7 -0.0C66.7 -0.0 300.0 -0.0 300.0 -0.0" glyph-name="Г" horiz-adv-x="600.0" unicode="Г"/>
      <glyph d="M166.7 700v-700zM200 700v-700zM66.7 700h500v200l-33.4004 -200zM66.7 -0h233.3z" glyph-name="Ґ" horiz-adv-x="600.0" unicode="Ґ"/>
      <glyph d="M266.7 700.0C266.7 700.0 266.7 500.0 266.7 500.0C266.7 500.0 233.3 233.3 233.3 233.3C233.3 233.3 200.0 100.0 200.0 100.0C200.0 100.0 166.7 33.3 166.7 33.3C166.7 33.3 133.3 -0.0 133.3 -0.0M600.0 700.0C600.0 700.0 600.0 -0.0 600.0 -0.0M633.3 700.0C633.3 700.0 633.3 -0.0 633.3 -0.0M166.7 700.0C166.7 700.0 733.3 700.0 733.3 700.0M33.3 -0.0C33.3 -0.0 733.3 -0.0 733.3 -0.0M33.3 -0.0C33.3 -0.0 33.3 -233.3 33.3 -233.3M66.7 -0.0C66.7 -0.0 33.3 -233.3 33.3 -233.3M700.0 -0.0C700.0 -0.0 733.3 -233.3 733.3 -233.3M733.3 -0.0C733.3 -0.0 733.3 -233.3 733.3 -233.3" glyph-name="Д" horiz-adv-x="800.0" unicode="Д"/>
      <glyph d="M166.7 700.0C166.7 700.0 166.7 -0.0 166.7 -0.0M200.0 700.0C200.0 700.0 200.0 -0.0 200.0 -0.0M400.0 500.0C400.0 500.0 400.0 233.3 400.0 233.3M66.7 700.0C66.7 700.0 600.0 700.0 600.0 700.0C600.0 700.0 600.0 500.0 600.0 500.0C600.0 500.0 566.7 700.0 566.7 700.0M200.0 366.7C200.0 366.7 400.0 366.7 400.0 366.7M66.7 -0.0C66.7 -0.0 600.0 -0.0 600.0 -0.0C600.0 -0.0 600.0 200.0 600.0 200.0C600.0 200.0 566.7 -0.0 566.7 -0.0" glyph-name="Е" horiz-adv-x="700.0" unicode="Е"/>
      <glyph d="M588.7 600l33.2998 100v-200l-33.2998 100l-66.7002 66.7002l-100 33.2998h-66.7002l-100 -33.2998l-66.5996 -66.7002l-33.4004 -66.7002l-33.2998 -100v-166.6l33.2998 -100l33.4004 -66.7002l66.5996 -66.7002l100 -33.2998h100l100 33.2998l33.4004 33.4004
l33.2998 66.5996v33.4004l-33.2998 33.2998l-33.4004 -33.2998l33.4004 -33.4004zM355.3 700l-66.5996 -33.2998l-66.7002 -66.7002l-33.2998 -66.7002l-33.4004 -100v-166.6l33.4004 -100l33.2998 -66.7002l66.7002 -66.7002l66.5996 -33.2998zM455.3 366.7h-300z" glyph-name="Є" horiz-adv-x="700.0" unicode="Є"/>
      <glyph d="M500.0 700.0C500.0 700.0 500.0 -0.0 500.0 -0.0M533.3 700.0C533.3 700.0 533.3 -0.0 533.3 -0.0M400.0 700.0C400.0 700.0 633.3 700.0 633.3 700.0M133.3 666.7C133.3 666.7 166.7 633.3 166.7 633.3C166.7 633.3 133.3 600.0 133.3 600.0C133.3 600.0 100.0 633.3 100.0 633.3C100.0 633.3 100.0 666.7 100.0 666.7C100.0 666.7 133.3 700.0 133.3 700.0C133.3 700.0 166.7 700.0 166.7 700.0C166.7 700.0 200.0 666.7 200.0 666.7C200.0 666.7 233.3 600.0 233.3 600.0C233.3 600.0 266.7 466.7 266.7 466.7C266.7 466.7 300.0 400.0 300.0 400.0C300.0 400.0 366.7 366.7 366.7 366.7C366.7 366.7 666.7 366.7 666.7 366.7C666.7 366.7 733.3 400.0 733.3 400.0C733.3 400.0 766.7 466.7 766.7 466.7C766.7 466.7 800.0 600.0 800.0 600.0C800.0 600.0 833.3 666.7 833.3 666.7C833.3 666.7 866.7 700.0 866.7 700.0C866.7 700.0 900.0 700.0 900.0 700.0C900.0 700.0 933.3 666.7 933.3 666.7C933.3 666.7 933.3 633.3 933.3 633.3C933.3 633.3 900.0 600.0 900.0 600.0C900.0 600.0 866.7 633.3 866.7 633.3C866.7 633.3 900.0 666.7 900.0 666.7M366.7 366.7C366.7 366.7 300.0 333.3 300.0 333.3C300.0 333.3 266.7 266.7 266.7 266.7C266.7 266.7 233.3 100.0 233.3 100.0C233.3 100.0 200.0 33.3 200.0 33.3C200.0 33.3 166.7 -0.0 166.7 -0.0M366.7 366.7C366.7 366.7 333.3 333.3 333.3 333.3C333.3 333.3 300.0 266.7 300.0 266.7C300.0 266.7 266.7 100.0 266.7 100.0C266.7 100.0 233.3 33.3 233.3 33.3C233.3 33.3 200.0 -0.0 200.0 -0.0C200.0 -0.0 133.3 -0.0 133.3 -0.0C133.3 -0.0 100.0 33.3 100.0 33.3C100.0 33.3 66.7 100.0 66.7 100.0M666.7 366.7C666.7 366.7 733.3 333.3 733.3 333.3C733.3 333.3 766.7 266.7 766.7 266.7C766.7 266.7 800.0 100.0 800.0 100.0C800.0 100.0 833.3 33.3 833.3 33.3C833.3 33.3 866.7 -0.0 866.7 -0.0M666.7 366.7C666.7 366.7 700.0 333.3 700.0 333.3C700.0 333.3 733.3 266.7 733.3 266.7C733.3 266.7 766.7 100.0 766.7 100.0C766.7 100.0 800.0 33.3 800.0 33.3C800.0 33.3 833.3 -0.0 833.3 -0.0C833.3 -0.0 900.0 -0.0 900.0 -0.0C900.0 -0.0 933.3 33.3 933.3 33.3C933.3 33.3 966.7 100.0 966.7 100.0M400.0 -0.0C400.0 -0.0 633.3 -0.0 633.3 -0.0" glyph-name="Ж" horiz-adv-x="1033.3" unicode="Ж"/>
      <glyph d="M133.3 600.0C133.3 600.0 100.0 700.0 100.0 700.0C100.0 700.0 100.0 500.0 100.0 500.0C100.0 500.0 133.3 600.0 133.3 600.0C133.3 600.0 200.0 666.7 200.0 666.7C200.0 666.7 266.7 700.0 266.7 700.0C266.7 700.0 400.0 700.0 400.0 700.0C400.0 700.0 500.0 666.7 500.0 666.7C500.0 666.7 533.3 600.0 533.3 600.0C533.3 600.0 533.3 500.0 533.3 500.0C533.3 500.0 500.0 433.3 500.0 433.3C500.0 433.3 400.0 400.0 400.0 400.0C400.0 400.0 300.0 400.0 300.0 400.0M400.0 700.0C400.0 700.0 466.7 666.7 466.7 666.7C466.7 666.7 500.0 600.0 500.0 600.0C500.0 600.0 500.0 500.0 500.0 500.0C500.0 500.0 466.7 433.3 466.7 433.3C466.7 433.3 400.0 400.0 400.0 400.0M400.0 400.0C400.0 400.0 466.7 366.7 466.7 366.7C466.7 366.7 533.3 300.0 533.3 300.0C533.3 300.0 566.7 233.3 566.7 233.3C566.7 233.3 566.7 133.3 566.7 133.3C566.7 133.3 533.3 66.7 533.3 66.7C533.3 66.7 500.0 33.3 500.0 33.3C500.0 33.3 400.0 -0.0 400.0 -0.0C400.0 -0.0 233.3 -0.0 233.3 -0.0C233.3 -0.0 166.7 33.3 166.7 33.3C166.7 33.3 133.3 66.7 133.3 66.7C133.3 66.7 100.0 133.3 100.0 133.3C100.0 133.3 100.0 166.7 100.0 166.7C100.0 166.7 133.3 200.0 133.3 200.0C133.3 200.0 166.7 166.7 166.7 166.7C166.7 166.7 133.3 133.3 133.3 133.3M500.0 333.3C500.0 333.3 533.3 233.3 533.3 233.3C533.3 233.3 533.3 133.3 533.3 133.3C533.3 133.3 500.0 66.7 500.0 66.7C500.0 66.7 466.7 33.3 466.7 33.3C466.7 33.3 400.0 -0.0 400.0 -0.0" glyph-name="З" horiz-adv-x="666.7" unicode="З"/>
      <glyph d="M166.7 700.0C166.7 700.0 166.7 -0.0 166.7 -0.0M200.0 700.0C200.0 700.0 200.0 -0.0 200.0 -0.0M600.0 700.0C600.0 700.0 600.0 -0.0 600.0 -0.0M633.3 700.0C633.3 700.0 633.3 -0.0 633.3 -0.0M66.7 700.0C66.7 700.0 300.0 700.0 300.0 700.0M500.0 700.0C500.0 700.0 733.3 700.0 733.3 700.0M600.0 633.3C600.0 633.3 200.0 66.7 200.0 66.7M66.7 -0.0C66.7 -0.0 300.0 -0.0 300.0 -0.0M500.0 -0.0C500.0 -0.0 733.3 -0.0 733.3 -0.0" glyph-name="И" horiz-adv-x="800.0" unicode="И"/>
      <glyph unicode="І" glyph-name="І" horiz-adv-x="346" d="M156 700v-700zM188 700v-700zM62 700h220zM62 0h220z" />
      <glyph unicode="Ї" glyph-name="Ї" horiz-adv-x="346" d="M150 700v-700zM182 700v-700zM56 700h220zM56 0h220zM107 887l-32 -31l32 -32l31 32zM223 887l-32 -31l32 -32l31 32l-31 31z" />
      <glyph d="M301.7 924v33.2998h-33.4004v-33.2998l33.4004 -66.7002l66.5996 -33.2998h66.7002l66.7002 33.2998l33.2998 66.7002zM166.7 700v-700v700zM200 700v-700v700zM600 700v-700v700zM633.3 700v-700v700zM66.7 700h233.3h-233.3zM500 700h233.3h-233.3zM600 633.3
l-400 -566.6zM66.7 -0h233.3h-233.3zM500 -0h233.3h-233.3z" glyph-name="Й" horiz-adv-x="733.3" unicode="Й"/>
      <glyph d="M166.7 700.0C166.7 700.0 166.7 -0.0 166.7 -0.0M200.0 700.0C200.0 700.0 200.0 -0.0 200.0 -0.0M66.7 700.0C66.7 700.0 300.0 700.0 300.0 700.0M200.0 366.7C200.0 366.7 433.3 366.7 433.3 366.7C433.3 366.7 500.0 400.0 500.0 400.0C500.0 400.0 533.3 466.7 533.3 466.7C533.3 466.7 566.7 600.0 566.7 600.0C566.7 600.0 600.0 666.7 600.0 666.7C600.0 666.7 633.3 700.0 633.3 700.0C633.3 700.0 666.7 700.0 666.7 700.0C666.7 700.0 700.0 666.7 700.0 666.7C700.0 666.7 700.0 633.3 700.0 633.3C700.0 633.3 666.7 600.0 666.7 600.0C666.7 600.0 633.3 633.3 633.3 633.3C633.3 633.3 666.7 666.7 666.7 666.7M433.3 366.7C433.3 366.7 500.0 333.3 500.0 333.3C500.0 333.3 533.3 266.7 533.3 266.7C533.3 266.7 566.7 100.0 566.7 100.0C566.7 100.0 600.0 33.3 600.0 33.3C600.0 33.3 633.3 -0.0 633.3 -0.0M433.3 366.7C433.3 366.7 466.7 333.3 466.7 333.3C466.7 333.3 500.0 266.7 500.0 266.7C500.0 266.7 533.3 100.0 533.3 100.0C533.3 100.0 566.7 33.3 566.7 33.3C566.7 33.3 600.0 -0.0 600.0 -0.0C600.0 -0.0 666.7 -0.0 666.7 -0.0C666.7 -0.0 700.0 33.3 700.0 33.3C700.0 33.3 733.3 100.0 733.3 100.0M66.7 -0.0C66.7 -0.0 300.0 -0.0 300.0 -0.0" glyph-name="К" horiz-adv-x="800.0" unicode="К"/>
      <glyph d="M266.7 700.0C266.7 700.0 266.7 500.0 266.7 500.0C266.7 500.0 233.3 233.3 233.3 233.3C233.3 233.3 200.0 100.0 200.0 100.0C200.0 100.0 166.7 33.3 166.7 33.3C166.7 33.3 133.3 -0.0 133.3 -0.0C133.3 -0.0 100.0 -0.0 100.0 -0.0C100.0 -0.0 66.7 33.3 66.7 33.3C66.7 33.3 66.7 66.7 66.7 66.7C66.7 66.7 100.0 100.0 100.0 100.0C100.0 100.0 133.3 66.7 133.3 66.7C133.3 66.7 100.0 33.3 100.0 33.3M633.3 700.0C633.3 700.0 633.3 -0.0 633.3 -0.0M666.7 700.0C666.7 700.0 666.7 -0.0 666.7 -0.0M166.7 700.0C166.7 700.0 766.7 700.0 766.7 700.0M533.3 -0.0C533.3 -0.0 766.7 -0.0 766.7 -0.0" glyph-name="Л" horiz-adv-x="833.3" unicode="Л"/>
      <glyph d="M166.7 700.0C166.7 700.0 166.7 -0.0 166.7 -0.0M200.0 700.0C200.0 700.0 400.0 100.0 400.0 100.0M166.7 700.0C166.7 700.0 400.0 -0.0 400.0 -0.0M633.3 700.0C633.3 700.0 400.0 -0.0 400.0 -0.0M633.3 700.0C633.3 700.0 633.3 -0.0 633.3 -0.0M666.7 700.0C666.7 700.0 666.7 -0.0 666.7 -0.0M66.7 700.0C66.7 700.0 200.0 700.0 200.0 700.0M633.3 700.0C633.3 700.0 766.7 700.0 766.7 700.0M66.7 -0.0C66.7 -0.0 266.7 -0.0 266.7 -0.0M533.3 -0.0C533.3 -0.0 766.7 -0.0 766.7 -0.0" glyph-name="М" horiz-adv-x="833.3" unicode="М"/>
      <glyph d="M166.7 700.0C166.7 700.0 166.7 -0.0 166.7 -0.0M200.0 700.0C200.0 700.0 200.0 -0.0 200.0 -0.0M600.0 700.0C600.0 700.0 600.0 -0.0 600.0 -0.0M633.3 700.0C633.3 700.0 633.3 -0.0 633.3 -0.0M66.7 700.0C66.7 700.0 300.0 700.0 300.0 700.0M500.0 700.0C500.0 700.0 733.3 700.0 733.3 700.0M200.0 366.7C200.0 366.7 600.0 366.7 600.0 366.7M66.7 -0.0C66.7 -0.0 300.0 -0.0 300.0 -0.0M500.0 -0.0C500.0 -0.0 733.3 -0.0 733.3 -0.0" glyph-name="Н" horiz-adv-x="800.0" unicode="Н"/>
      <glyph d="M333.3 700.0C333.3 700.0 233.3 666.7 233.3 666.7C233.3 666.7 166.7 600.0 166.7 600.0C166.7 600.0 133.3 533.3 133.3 533.3C133.3 533.3 100.0 400.0 100.0 400.0C100.0 400.0 100.0 300.0 100.0 300.0C100.0 300.0 133.3 166.7 133.3 166.7C133.3 166.7 166.7 100.0 166.7 100.0C166.7 100.0 233.3 33.3 233.3 33.3C233.3 33.3 333.3 -0.0 333.3 -0.0C333.3 -0.0 400.0 -0.0 400.0 -0.0C400.0 -0.0 500.0 33.3 500.0 33.3C500.0 33.3 566.7 100.0 566.7 100.0C566.7 100.0 600.0 166.7 600.0 166.7C600.0 166.7 633.3 300.0 633.3 300.0C633.3 300.0 633.3 400.0 633.3 400.0C633.3 400.0 600.0 533.3 600.0 533.3C600.0 533.3 566.7 600.0 566.7 600.0C566.7 600.0 500.0 666.7 500.0 666.7C500.0 666.7 400.0 700.0 400.0 700.0C400.0 700.0 333.3 700.0 333.3 700.0M333.3 700.0C333.3 700.0 266.7 666.7 266.7 666.7C266.7 666.7 200.0 600.0 200.0 600.0C200.0 600.0 166.7 533.3 166.7 533.3C166.7 533.3 133.3 400.0 133.3 400.0C133.3 400.0 133.3 300.0 133.3 300.0C133.3 300.0 166.7 166.7 166.7 166.7C166.7 166.7 200.0 100.0 200.0 100.0C200.0 100.0 266.7 33.3 266.7 33.3C266.7 33.3 333.3 -0.0 333.3 -0.0M400.0 -0.0C400.0 -0.0 466.7 33.3 466.7 33.3C466.7 33.3 533.3 100.0 533.3 100.0C533.3 100.0 566.7 166.7 566.7 166.7C566.7 166.7 600.0 300.0 600.0 300.0C600.0 300.0 600.0 400.0 600.0 400.0C600.0 400.0 566.7 533.3 566.7 533.3C566.7 533.3 533.3 600.0 533.3 600.0C533.3 600.0 466.7 666.7 466.7 666.7C466.7 666.7 400.0 700.0 400.0 700.0" glyph-name="О" horiz-adv-x="733.3" unicode="О"/>
      <glyph d="M166.7 700.0C166.7 700.0 166.7 -0.0 166.7 -0.0M200.0 700.0C200.0 700.0 200.0 -0.0 200.0 -0.0M600.0 700.0C600.0 700.0 600.0 -0.0 600.0 -0.0M633.3 700.0C633.3 700.0 633.3 -0.0 633.3 -0.0M66.7 700.0C66.7 700.0 733.3 700.0 733.3 700.0M66.7 -0.0C66.7 -0.0 300.0 -0.0 300.0 -0.0M500.0 -0.0C500.0 -0.0 733.3 -0.0 733.3 -0.0" glyph-name="П" horiz-adv-x="800.0" unicode="П"/>
      <glyph d="M166.7 700.0C166.7 700.0 166.7 -0.0 166.7 -0.0M200.0 700.0C200.0 700.0 200.0 -0.0 200.0 -0.0M66.7 700.0C66.7 700.0 466.7 700.0 466.7 700.0C466.7 700.0 566.7 666.7 566.7 666.7C566.7 666.7 600.0 633.3 600.0 633.3C600.0 633.3 633.3 566.7 633.3 566.7C633.3 566.7 633.3 466.7 633.3 466.7C633.3 466.7 600.0 400.0 600.0 400.0C600.0 400.0 566.7 366.7 566.7 366.7C566.7 366.7 466.7 333.3 466.7 333.3C466.7 333.3 200.0 333.3 200.0 333.3M466.7 700.0C466.7 700.0 533.3 666.7 533.3 666.7C533.3 666.7 566.7 633.3 566.7 633.3C566.7 633.3 600.0 566.7 600.0 566.7C600.0 566.7 600.0 466.7 600.0 466.7C600.0 466.7 566.7 400.0 566.7 400.0C566.7 400.0 533.3 366.7 533.3 366.7C533.3 366.7 466.7 333.3 466.7 333.3M66.7 -0.0C66.7 -0.0 300.0 -0.0 300.0 -0.0" glyph-name="Р" horiz-adv-x="733.3" unicode="Р"/>
      <glyph d="M566.7 600.0C566.7 600.0 600.0 500.0 600.0 500.0C600.0 500.0 600.0 700.0 600.0 700.0C600.0 700.0 566.7 600.0 566.7 600.0C566.7 600.0 500.0 666.7 500.0 666.7C500.0 666.7 400.0 700.0 400.0 700.0C400.0 700.0 333.3 700.0 333.3 700.0C333.3 700.0 233.3 666.7 233.3 666.7C233.3 666.7 166.7 600.0 166.7 600.0C166.7 600.0 133.3 533.3 133.3 533.3C133.3 533.3 100.0 433.3 100.0 433.3C100.0 433.3 100.0 266.7 100.0 266.7C100.0 266.7 133.3 166.7 133.3 166.7C133.3 166.7 166.7 100.0 166.7 100.0C166.7 100.0 233.3 33.3 233.3 33.3C233.3 33.3 333.3 -0.0 333.3 -0.0C333.3 -0.0 400.0 -0.0 400.0 -0.0C400.0 -0.0 500.0 33.3 500.0 33.3C500.0 33.3 566.7 100.0 566.7 100.0C566.7 100.0 600.0 166.7 600.0 166.7M333.3 700.0C333.3 700.0 266.7 666.7 266.7 666.7C266.7 666.7 200.0 600.0 200.0 600.0C200.0 600.0 166.7 533.3 166.7 533.3C166.7 533.3 133.3 433.3 133.3 433.3C133.3 433.3 133.3 266.7 133.3 266.7C133.3 266.7 166.7 166.7 166.7 166.7C166.7 166.7 200.0 100.0 200.0 100.0C200.0 100.0 266.7 33.3 266.7 33.3C266.7 33.3 333.3 -0.0 333.3 -0.0" glyph-name="С" horiz-adv-x="700.0" unicode="С"/>
      <glyph d="M300.0 700.0C300.0 700.0 300.0 -0.0 300.0 -0.0M333.3 700.0C333.3 700.0 333.3 -0.0 333.3 -0.0M100.0 700.0C100.0 700.0 66.7 500.0 66.7 500.0C66.7 500.0 66.7 700.0 66.7 700.0C66.7 700.0 566.7 700.0 566.7 700.0C566.7 700.0 566.7 500.0 566.7 500.0C566.7 500.0 533.3 700.0 533.3 700.0M200.0 -0.0C200.0 -0.0 433.3 -0.0 433.3 -0.0" glyph-name="Т" horiz-adv-x="633.3" unicode="Т"/>
      <glyph d="M100.0 700.0C100.0 700.0 333.3 166.7 333.3 166.7M133.3 700.0C133.3 700.0 366.7 166.7 366.7 166.7M600.0 700.0C600.0 700.0 366.7 166.7 366.7 166.7C366.7 166.7 300.0 66.7 300.0 66.7C300.0 66.7 266.7 33.3 266.7 33.3C266.7 33.3 200.0 -0.0 200.0 -0.0C200.0 -0.0 166.7 -0.0 166.7 -0.0C166.7 -0.0 133.3 33.3 133.3 33.3C133.3 33.3 133.3 66.7 133.3 66.7C133.3 66.7 166.7 100.0 166.7 100.0C166.7 100.0 200.0 66.7 200.0 66.7C200.0 66.7 166.7 33.3 166.7 33.3M33.3 700.0C33.3 700.0 233.3 700.0 233.3 700.0M466.7 700.0C466.7 700.0 666.7 700.0 666.7 700.0" glyph-name="У" horiz-adv-x="700.0" unicode="У"/>
      <glyph d="M400.0 700.0C400.0 700.0 400.0 -0.0 400.0 -0.0M433.3 700.0C433.3 700.0 433.3 -0.0 433.3 -0.0M300.0 700.0C300.0 700.0 533.3 700.0 533.3 700.0M333.3 600.0C333.3 600.0 200.0 566.7 200.0 566.7C200.0 566.7 133.3 500.0 133.3 500.0C133.3 500.0 100.0 400.0 100.0 400.0C100.0 400.0 100.0 300.0 100.0 300.0C100.0 300.0 133.3 200.0 133.3 200.0C133.3 200.0 200.0 133.3 200.0 133.3C200.0 133.3 333.3 100.0 333.3 100.0C333.3 100.0 500.0 100.0 500.0 100.0C500.0 100.0 633.3 133.3 633.3 133.3C633.3 133.3 700.0 200.0 700.0 200.0C700.0 200.0 733.3 300.0 733.3 300.0C733.3 300.0 733.3 400.0 733.3 400.0C733.3 400.0 700.0 500.0 700.0 500.0C700.0 500.0 633.3 566.7 633.3 566.7C633.3 566.7 500.0 600.0 500.0 600.0C500.0 600.0 333.3 600.0 333.3 600.0M333.3 600.0C333.3 600.0 233.3 566.7 233.3 566.7C233.3 566.7 166.7 500.0 166.7 500.0C166.7 500.0 133.3 400.0 133.3 400.0C133.3 400.0 133.3 300.0 133.3 300.0C133.3 300.0 166.7 200.0 166.7 200.0C166.7 200.0 233.3 133.3 233.3 133.3C233.3 133.3 333.3 100.0 333.3 100.0M500.0 100.0C500.0 100.0 600.0 133.3 600.0 133.3C600.0 133.3 666.7 200.0 666.7 200.0C666.7 200.0 700.0 300.0 700.0 300.0C700.0 300.0 700.0 400.0 700.0 400.0C700.0 400.0 666.7 500.0 666.7 500.0C666.7 500.0 600.0 566.7 600.0 566.7C600.0 566.7 500.0 600.0 500.0 600.0M300.0 -0.0C300.0 -0.0 533.3 -0.0 533.3 -0.0" glyph-name="Ф" horiz-adv-x="833.3" unicode="Ф"/>
      <glyph d="M100.0 700.0C100.0 700.0 533.3 -0.0 533.3 -0.0M133.3 700.0C133.3 700.0 566.7 -0.0 566.7 -0.0M566.7 700.0C566.7 700.0 100.0 -0.0 100.0 -0.0M33.3 700.0C33.3 700.0 233.3 700.0 233.3 700.0M433.3 700.0C433.3 700.0 633.3 700.0 633.3 700.0M33.3 -0.0C33.3 -0.0 233.3 -0.0 233.3 -0.0M433.3 -0.0C433.3 -0.0 633.3 -0.0 633.3 -0.0" glyph-name="Х" horiz-adv-x="666.7" unicode="Х"/>
      <glyph d="M166.7 700.0C166.7 700.0 166.7 -0.0 166.7 -0.0M200.0 700.0C200.0 700.0 200.0 -0.0 200.0 -0.0M600.0 700.0C600.0 700.0 600.0 -0.0 600.0 -0.0M633.3 700.0C633.3 700.0 633.3 -0.0 633.3 -0.0M66.7 700.0C66.7 700.0 300.0 700.0 300.0 700.0M500.0 700.0C500.0 700.0 733.3 700.0 733.3 700.0M66.7 -0.0C66.7 -0.0 733.3 -0.0 733.3 -0.0M700.0 -0.0C700.0 -0.0 733.3 -233.3 733.3 -233.3M733.3 -0.0C733.3 -0.0 733.3 -233.3 733.3 -233.3" glyph-name="Ц" horiz-adv-x="800.0" unicode="Ц"/>
      <glyph d="M166.7 700.0C166.7 700.0 166.7 333.3 166.7 333.3C166.7 333.3 200.0 266.7 200.0 266.7C200.0 266.7 300.0 233.3 300.0 233.3C300.0 233.3 400.0 233.3 400.0 233.3C400.0 233.3 500.0 266.7 500.0 266.7C500.0 266.7 566.7 333.3 566.7 333.3M200.0 700.0C200.0 700.0 200.0 333.3 200.0 333.3C200.0 333.3 233.3 266.7 233.3 266.7C233.3 266.7 300.0 233.3 300.0 233.3M566.7 700.0C566.7 700.0 566.7 -0.0 566.7 -0.0M600.0 700.0C600.0 700.0 600.0 -0.0 600.0 -0.0M66.7 700.0C66.7 700.0 300.0 700.0 300.0 700.0M466.7 700.0C466.7 700.0 700.0 700.0 700.0 700.0M466.7 -0.0C466.7 -0.0 700.0 -0.0 700.0 -0.0" glyph-name="Ч" unicode="Ч" horiz-adv-x="800" />
      <glyph d="M166.7 700.0C166.7 700.0 166.7 -0.0 166.7 -0.0M200.0 700.0C200.0 700.0 200.0 -0.0 200.0 -0.0M533.3 700.0C533.3 700.0 533.3 -0.0 533.3 -0.0M566.7 700.0C566.7 700.0 566.7 -0.0 566.7 -0.0M900.0 700.0C900.0 700.0 900.0 -0.0 900.0 -0.0M933.3 700.0C933.3 700.0 933.3 -0.0 933.3 -0.0M66.7 700.0C66.7 700.0 300.0 700.0 300.0 700.0M433.3 700.0C433.3 700.0 666.7 700.0 666.7 700.0M800.0 700.0C800.0 700.0 1033.3 700.0 1033.3 700.0M66.7 -0.0C66.7 -0.0 1033.3 -0.0 1033.3 -0.0" glyph-name="Ш" horiz-adv-x="1100.0" unicode="Ш"/>
      <glyph d="M166.7 700.0C166.7 700.0 166.7 -0.0 166.7 -0.0M200.0 700.0C200.0 700.0 200.0 -0.0 200.0 -0.0M533.3 700.0C533.3 700.0 533.3 -0.0 533.3 -0.0M566.7 700.0C566.7 700.0 566.7 -0.0 566.7 -0.0M900.0 700.0C900.0 700.0 900.0 -0.0 900.0 -0.0M933.3 700.0C933.3 700.0 933.3 -0.0 933.3 -0.0M66.7 700.0C66.7 700.0 300.0 700.0 300.0 700.0M433.3 700.0C433.3 700.0 666.7 700.0 666.7 700.0M800.0 700.0C800.0 700.0 1033.3 700.0 1033.3 700.0M66.7 -0.0C66.7 -0.0 1033.3 -0.0 1033.3 -0.0M1000.0 -0.0C1000.0 -0.0 1033.3 -233.3 1033.3 -233.3M1033.3 -0.0C1033.3 -0.0 1033.3 -233.3 1033.3 -233.3" glyph-name="Щ" horiz-adv-x="1100.0" unicode="Щ"/>
      <glyph d="M166.7 700.0C166.7 700.0 166.7 -0.0 166.7 -0.0M200.0 700.0C200.0 700.0 200.0 -0.0 200.0 -0.0M66.7 700.0C66.7 700.0 300.0 700.0 300.0 700.0M200.0 366.7C200.0 366.7 433.3 366.7 433.3 366.7C433.3 366.7 533.3 333.3 533.3 333.3C533.3 333.3 566.7 300.0 566.7 300.0C566.7 300.0 600.0 233.3 600.0 233.3C600.0 233.3 600.0 133.3 600.0 133.3C600.0 133.3 566.7 66.7 566.7 66.7C566.7 66.7 533.3 33.3 533.3 33.3C533.3 33.3 433.3 -0.0 433.3 -0.0C433.3 -0.0 66.7 -0.0 66.7 -0.0M433.3 366.7C433.3 366.7 500.0 333.3 500.0 333.3C500.0 333.3 533.3 300.0 533.3 300.0C533.3 300.0 566.7 233.3 566.7 233.3C566.7 233.3 566.7 133.3 566.7 133.3C566.7 133.3 533.3 66.7 533.3 66.7C533.3 66.7 500.0 33.3 500.0 33.3C500.0 33.3 433.3 -0.0 433.3 -0.0" glyph-name="Ь" horiz-adv-x="700.0" unicode="Ь"/>
      <glyph d="M166.7 700.0C166.7 700.0 166.7 -0.0 166.7 -0.0M200.0 700.0C200.0 700.0 200.0 -0.0 200.0 -0.0M66.7 700.0C66.7 700.0 300.0 700.0 300.0 700.0M66.7 -0.0C66.7 -0.0 300.0 -0.0 300.0 -0.0M633.3 700.0C633.3 700.0 533.3 666.7 533.3 666.7C533.3 666.7 466.7 600.0 466.7 600.0C466.7 600.0 433.3 533.3 433.3 533.3C433.3 533.3 400.0 400.0 400.0 400.0C400.0 400.0 400.0 300.0 400.0 300.0C400.0 300.0 433.3 166.7 433.3 166.7C433.3 166.7 466.7 100.0 466.7 100.0C466.7 100.0 533.3 33.3 533.3 33.3C533.3 33.3 633.3 -0.0 633.3 -0.0C633.3 -0.0 700.0 -0.0 700.0 -0.0C700.0 -0.0 800.0 33.3 800.0 33.3C800.0 33.3 866.7 100.0 866.7 100.0C866.7 100.0 900.0 166.7 900.0 166.7C900.0 166.7 933.3 300.0 933.3 300.0C933.3 300.0 933.3 400.0 933.3 400.0C933.3 400.0 900.0 533.3 900.0 533.3C900.0 533.3 866.7 600.0 866.7 600.0C866.7 600.0 800.0 666.7 800.0 666.7C800.0 666.7 700.0 700.0 700.0 700.0C700.0 700.0 633.3 700.0 633.3 700.0M633.3 700.0C633.3 700.0 566.7 666.7 566.7 666.7C566.7 666.7 500.0 600.0 500.0 600.0C500.0 600.0 466.7 533.3 466.7 533.3C466.7 533.3 433.3 400.0 433.3 400.0C433.3 400.0 433.3 300.0 433.3 300.0C433.3 300.0 466.7 166.7 466.7 166.7C466.7 166.7 500.0 100.0 500.0 100.0C500.0 100.0 566.7 33.3 566.7 33.3C566.7 33.3 633.3 -0.0 633.3 -0.0M700.0 -0.0C700.0 -0.0 766.7 33.3 766.7 33.3C766.7 33.3 833.3 100.0 833.3 100.0C833.3 100.0 866.7 166.7 866.7 166.7C866.7 166.7 900.0 300.0 900.0 300.0C900.0 300.0 900.0 400.0 900.0 400.0C900.0 400.0 866.7 533.3 866.7 533.3C866.7 533.3 833.3 600.0 833.3 600.0C833.3 600.0 766.7 666.7 766.7 666.7C766.7 666.7 700.0 700.0 700.0 700.0M200.0 366.7C200.0 366.7 400.0 366.7 400.0 366.7" glyph-name="Ю" horiz-adv-x="1033.3" unicode="Ю"/>
      <glyph d="M533.3 700.0C533.3 700.0 533.3 -0.0 533.3 -0.0M566.7 700.0C566.7 700.0 566.7 -0.0 566.7 -0.0M666.7 700.0C666.7 700.0 266.7 700.0 266.7 700.0C266.7 700.0 166.7 666.7 166.7 666.7C166.7 666.7 133.3 633.3 133.3 633.3C133.3 633.3 100.0 566.7 100.0 566.7C100.0 566.7 100.0 500.0 100.0 500.0C100.0 500.0 133.3 433.3 133.3 433.3C133.3 433.3 166.7 400.0 166.7 400.0C166.7 400.0 266.7 366.7 266.7 366.7C266.7 366.7 533.3 366.7 533.3 366.7M266.7 700.0C266.7 700.0 200.0 666.7 200.0 666.7C200.0 666.7 166.7 633.3 166.7 633.3C166.7 633.3 133.3 566.7 133.3 566.7C133.3 566.7 133.3 500.0 133.3 500.0C133.3 500.0 166.7 433.3 166.7 433.3C166.7 433.3 200.0 400.0 200.0 400.0C200.0 400.0 266.7 366.7 266.7 366.7M366.7 366.7C366.7 366.7 300.0 333.3 300.0 333.3C300.0 333.3 266.7 300.0 266.7 300.0C266.7 300.0 166.7 66.7 166.7 66.7C166.7 66.7 133.3 33.3 133.3 33.3C133.3 33.3 100.0 33.3 100.0 33.3C100.0 33.3 66.7 66.7 66.7 66.7M300.0 333.3C300.0 333.3 266.7 266.7 266.7 266.7C266.7 266.7 200.0 33.3 200.0 33.3C200.0 33.3 166.7 -0.0 166.7 -0.0C166.7 -0.0 100.0 -0.0 100.0 -0.0C100.0 -0.0 66.7 66.7 66.7 66.7C66.7 66.7 66.7 100.0 66.7 100.0M433.3 -0.0C433.3 -0.0 666.7 -0.0 666.7 -0.0" glyph-name="Я" horiz-adv-x="733.3" unicode="Я"/>
      <glyph unicode="a" glyph-name="a" horiz-adv-x="630" d="M 220 378 L 220 346 L 189 346 L 189 378 L 220 410 L 284 441 L 410 441 L 472 410 L 504 378 L 536 315 L 536 94.5 L 567 31.5 L 598 0 M 504 378 L 504 94.5 L 536 31.5 L 598 0 L 630 0 M 504 315 L 472 284 L 284 252 L 189 220 L 158 158 L 158 94.5 L 189 31.5 L 284 0 L 378 0 L 441 31.5 L 504 94.5 M 284 252 L 220 220 L 189 158 L 189 94.5 L 220 31.5 L 284 0" />
      <glyph unicode="b" glyph-name="b" horiz-adv-x="662" d="M 220 662 L 220 0 M 252 662 L 252 0 M 252 346 L 315 410 L 378 441 L 441 441 L 536 410 L 598 346 L 630 252 L 630 189 L 598 94.5 L 536 31.5 L 441 0 L 378 0 L 315 31.5 L 252 94.5 M 441 441 L 504 410 L 567 346 L 598 252 L 598 189 L 567 94.5 L 504 31.5 L 441 0 M 126 662 L 252 662" />
      <glyph unicode="c" glyph-name="c" horiz-adv-x="598" d="M 536 346 L 504 315 L 536 284 L 567 315 L 567 346 L 504 410 L 441 441 L 346 441 L 252 410 L 189 346 L 158 252 L 158 189 L 189 94.5 L 252 31.5 L 346 0 L 410 0 L 504 31.5 L 567 94.5 M 346 441 L 284 410 L 220 346 L 189 252 L 189 189 L 220 94.5 L 284 31.5 L 346 0" />
      <glyph unicode="d" glyph-name="d" horiz-adv-x="662" d="M 536 662 L 536 0 M 567 662 L 567 0 M 536 346 L 472 410 L 410 441 L 346 441 L 252 410 L 189 346 L 158 252 L 158 189 L 189 94.5 L 252 31.5 L 346 0 L 410 0 L 472 31.5 L 536 94.5 M 346 441 L 284 410 L 220 346 L 189 252 L 189 189 L 220 94.5 L 284 31.5 L 346 0 M 441 662 L 567 662 M 536 0 L 662 0" />
      <glyph unicode="e" glyph-name="e" horiz-adv-x="598" d="M 189 252 L 567 252 L 567 315 L 536 378 L 504 410 L 441 441 L 346 441 L 252 410 L 189 346 L 158 252 L 158 189 L 189 94.5 L 252 31.5 L 346 0 L 410 0 L 504 31.5 L 567 94.5 M 536 252 L 536 346 L 504 410 M 346 441 L 284 410 L 220 346 L 189 252 L 189 189 L 220 94.5 L 284 31.5 L 346 0" />
      <glyph unicode="f" glyph-name="f" horiz-adv-x="410" d="M 378 630 L 346 598 L 378 567 L 410 598 L 410 630 L 378 662 L 315 662 L 252 630 L 220 567 L 220 0 M 315 662 L 284 630 L 252 567 L 252 0 M 126 441 L 378 441 M 126 0 L 346 0" />
      <glyph unicode="g" glyph-name="g" horiz-adv-x="598" d="M 315 441 L 252 410 L 220 378 L 189 315 L 189 252 L 220 189 L 252 158 L 315 126 L 378 126 L 441 158 L 472 189 L 504 252 L 504 315 L 472 378 L 441 410 L 378 441 L 315 441 M 252 410 L 220 346 L 220 220 L 252 158 M 441 158 L 472 220 L 472 346 L 441 410 M 472 378 L 504 410 L 567 441 L 567 410 L 504 410 M 220 189 L 189 158 L 158 94.5 L 158 63 L 189 0 L 284 -31.5 L 441 -31.5 L 536 -63 L 567 -94.5 M 158 63 L 189 31.5 L 284 0 L 441 0 L 536 -31.5 L 567 -94.5 L 567 -126 L 536 -189 L 441 -220 L 252 -220 L 158 -189 L 126 -126 L 126 -94.5 L 158 -31.5 L 252 0" />
      <glyph unicode="h" glyph-name="h" horiz-adv-x="693" d="M 220 662 L 220 0 M 252 662 L 252 0 M 252 346 L 315 410 L 410 441 L 472 441 L 567 410 L 598 346 L 598 0 M 472 441 L 536 410 L 567 346 L 567 0 M 126 662 L 252 662 M 126 0 L 346 0 M 472 0 L 693 0" />
      <glyph unicode="i" glyph-name="i" horiz-adv-x="346" d="M 220 662 L 189 630 L 220 598 L 252 630 L 220 662 M 220 441 L 220 0 M 252 441 L 252 0 M 126 441 L 252 441 M 126 0 L 346 0" />
      <glyph unicode="j" glyph-name="j" horiz-adv-x="346" d="M 252 662 L 220 630 L 252 598 L 284 630 L 252 662 M 284 441 L 284 -126 L 252 -189 L 189 -220 L 126 -220 L 94.5 -189 L 94.5 -158 L 126 -126 L 158 -158 L 126 -189 M 252 441 L 252 -126 L 220 -189 L 189 -220 M 158 441 L 284 441" />
      <glyph unicode="k" glyph-name="k" horiz-adv-x="662" d="M 220 662 L 220 0 M 252 662 L 252 0 M 567 441 L 252 126 M 410 252 L 598 0 M 378 252 L 567 0 M 126 662 L 252 662 M 472 441 L 662 441 M 126 0 L 346 0 M 472 0 L 662 0" />
      <glyph unicode="l" glyph-name="l" horiz-adv-x="346" d="M 220 662 L 220 0 M 252 662 L 252 0 M 126 662 L 252 662 M 126 0 L 346 0" />
      <glyph unicode="m" glyph-name="m" horiz-adv-x="1039.5" d="M 220 441 L 220 0 M 252 441 L 252 0 M 252 346 L 315 410 L 410 441 L 472 441 L 567 410 L 598 346 L 598 0 M 472 441 L 536 410 L 567 346 L 567 0 M 598 346 L 662 410 L 756 441 L 819 441 L 914 410 L 945 346 L 945 0 M 819 441 L 882 410 L 914 346 L 914 0 M 126 441 L 252 441 M 126 0 L 346 0 M 472 0 L 693 0 M 819 0 L 1039.5 0" />
      <glyph unicode="n" glyph-name="n" horiz-adv-x="693" d="M 220 441 L 220 0 M 252 441 L 252 0 M 252 346 L 315 410 L 410 441 L 472 441 L 567 410 L 598 346 L 598 0 M 472 441 L 536 410 L 567 346 L 567 0 M 126 441 L 252 441 M 126 0 L 346 0 M 472 0 L 693 0" />
      <glyph unicode="o" glyph-name="o" horiz-adv-x="630" d="M 346 441 L 252 410 L 189 346 L 158 252 L 158 189 L 189 94.5 L 252 31.5 L 346 0 L 410 0 L 504 31.5 L 567 94.5 L 598 189 L 598 252 L 567 346 L 504 410 L 410 441 L 346 441 M 346 441 L 284 410 L 220 346 L 189 252 L 189 189 L 220 94.5 L 284 31.5 L 346 0 M 410 0 L 472 31.5 L 536 94.5 L 567 189 L 567 252 L 536 346 L 472 410 L 410 441" />
      <glyph unicode="p" glyph-name="p" horiz-adv-x="662" d="M 220 441 L 220 -220 M 252 441 L 252 -220 M 252 346 L 315 410 L 378 441 L 441 441 L 536 410 L 598 346 L 630 252 L 630 189 L 598 94.5 L 536 31.5 L 441 0 L 378 0 L 315 31.5 L 252 94.5 M 441 441 L 504 410 L 567 346 L 598 252 L 598 189 L 567 94.5 L 504 31.5 L 441 0 M 126 441 L 252 441 M 126 -220 L 346 -220" />
      <glyph unicode="q" glyph-name="q" horiz-adv-x="630" d="M 536 441 L 536 -220 M 567 441 L 567 -220 M 536 346 L 472 410 L 410 441 L 346 441 L 252 410 L 189 346 L 158 252 L 158 189 L 189 94.5 L 252 31.5 L 346 0 L 410 0 L 472 31.5 L 536 94.5 M 346 441 L 284 410 L 220 346 L 189 252 L 189 189 L 220 94.5 L 284 31.5 L 346 0 M 441 -220 L 662 -220" />
      <glyph unicode="r" glyph-name="r" horiz-adv-x="536" d="M 220 441 L 220 0 M 252 441 L 252 0 M 252 252 L 284 346 L 346 410 L 410 441 L 504 441 L 536 410 L 536 378 L 504 346 L 472 378 L 504 410 M 126 441 L 252 441 M 126 0 L 346 0" />
      <glyph unicode="s" glyph-name="s" horiz-adv-x="536" d="M 472 378 L 504 441 L 504 315 L 472 378 L 441 410 L 378 441 L 252 441 L 189 410 L 158 378 L 158 315 L 189 284 L 252 252 L 410 189 L 472 158 L 504 126 M 158 346 L 189 315 L 252 284 L 410 220 L 472 189 L 504 158 L 504 63 L 472 31.5 L 410 0 L 284 0 L 220 31.5 L 189 63 L 158 126 L 158 0 L 189 63" />
      <glyph unicode="t" glyph-name="t" horiz-adv-x="472" d="M 220 662 L 220 126 L 252 31.5 L 315 0 L 378 0 L 441 31.5 L 472 94.5 M 252 662 L 252 126 L 284 31.5 L 315 0 M 126 441 L 378 441" />
      <glyph unicode="u" glyph-name="u" horiz-adv-x="693" d="M 220 441 L 220 94.5 L 252 31.5 L 346 0 L 410 0 L 504 31.5 L 567 94.5 M 252 441 L 252 94.5 L 284 31.5 L 346 0 M 567 441 L 567 0 M 598 441 L 598 0 M 126 441 L 252 441 M 472 441 L 598 441 M 567 0 L 693 0" />
      <glyph unicode="v" glyph-name="v" horiz-adv-x="567" d="M 158 441 L 346 0 M 189 441 L 346 63 M 536 441 L 346 0 M 94.5 441 L 284 441 M 410 441 L 598 441" />
      <glyph unicode="w" glyph-name="w" horiz-adv-x="756" d="M 189 441 L 315 0 M 220 441 L 315 94.5 M 441 441 L 315 0 M 441 441 L 567 0 M 472 441 L 567 94.5 M 693 441 L 567 0 M 94.5 441 L 315 441 M 598 441 L 788 441" />
      <glyph unicode="x" glyph-name="x" horiz-adv-x="630" d="M 189 441 L 536 0 M 220 441 L 567 0 M 567 441 L 189 0 M 126 441 L 315 441 M 441 441 L 630 441 M 126 0 L 315 0 M 441 0 L 630 0" />
      <glyph unicode="y" glyph-name="y" horiz-adv-x="598" d="M 189 441 L 378 0 M 220 441 L 378 63 M 567 441 L 378 0 L 315 -126 L 252 -189 L 189 -220 L 158 -220 L 126 -189 L 158 -158 L 189 -189 M 126 441 L 315 441 M 441 441 L 630 441" />
      <glyph unicode="z" glyph-name="z" horiz-adv-x="567" d="M 504 441 L 158 0 M 536 441 L 189 0 M 189 441 L 158 315 L 158 441 L 536 441 M 158 0 L 536 0 L 536 126 L 504 0" />
      <glyph d="M166.7 400.0C166.7 400.0 166.7 366.7 166.7 366.7C166.7 366.7 133.3 366.7 133.3 366.7C133.3 366.7 133.3 400.0 133.3 400.0C133.3 400.0 166.7 433.3 166.7 433.3C166.7 433.3 233.3 466.7 233.3 466.7C233.3 466.7 366.7 466.7 366.7 466.7C366.7 466.7 433.3 433.3 433.3 433.3C433.3 433.3 466.7 400.0 466.7 400.0C466.7 400.0 500.0 333.3 500.0 333.3C500.0 333.3 500.0 100.0 500.0 100.0C500.0 100.0 533.3 33.3 533.3 33.3C533.3 33.3 566.7 -0.0 566.7 -0.0M466.7 400.0C466.7 400.0 466.7 100.0 466.7 100.0C466.7 100.0 500.0 33.3 500.0 33.3C500.0 33.3 566.7 -0.0 566.7 -0.0C566.7 -0.0 600.0 -0.0 600.0 -0.0M466.7 333.3C466.7 333.3 433.3 300.0 433.3 300.0C433.3 300.0 233.3 266.7 233.3 266.7C233.3 266.7 133.3 233.3 133.3 233.3C133.3 233.3 100.0 166.7 100.0 166.7C100.0 166.7 100.0 100.0 100.0 100.0C100.0 100.0 133.3 33.3 133.3 33.3C133.3 33.3 233.3 -0.0 233.3 -0.0C233.3 -0.0 333.3 -0.0 333.3 -0.0C333.3 -0.0 400.0 33.3 400.0 33.3C400.0 33.3 466.7 100.0 466.7 100.0M233.3 266.7C233.3 266.7 166.7 233.3 166.7 233.3C166.7 233.3 133.3 166.7 133.3 166.7C133.3 166.7 133.3 100.0 133.3 100.0C133.3 100.0 166.7 33.3 166.7 33.3C166.7 33.3 233.3 -0.0 233.3 -0.0" glyph-name="а" horiz-adv-x="666.7" unicode="а"/>
      <glyph d="M533.3 700.0C533.3 700.0 500.0 666.7 500.0 666.7C500.0 666.7 300.0 600.0 300.0 600.0C300.0 600.0 200.0 533.3 200.0 533.3C200.0 533.3 133.3 433.3 133.3 433.3C133.3 433.3 100.0 333.3 100.0 333.3C100.0 333.3 100.0 200.0 100.0 200.0C100.0 200.0 133.3 100.0 133.3 100.0C133.3 100.0 200.0 33.3 200.0 33.3C200.0 33.3 300.0 -0.0 300.0 -0.0C300.0 -0.0 366.7 -0.0 366.7 -0.0C366.7 -0.0 466.7 33.3 466.7 33.3C466.7 33.3 533.3 100.0 533.3 100.0C533.3 100.0 566.7 200.0 566.7 200.0C566.7 200.0 566.7 266.7 566.7 266.7C566.7 266.7 533.3 366.7 533.3 366.7C533.3 366.7 466.7 433.3 466.7 433.3C466.7 433.3 366.7 466.7 366.7 466.7C366.7 466.7 300.0 466.7 300.0 466.7C300.0 466.7 200.0 433.3 200.0 433.3C200.0 433.3 133.3 366.7 133.3 366.7C133.3 366.7 100.0 266.7 100.0 266.7M533.3 700.0C533.3 700.0 500.0 633.3 500.0 633.3C500.0 633.3 433.3 600.0 433.3 600.0C433.3 600.0 300.0 566.7 300.0 566.7C300.0 566.7 200.0 500.0 200.0 500.0C200.0 500.0 133.3 433.3 133.3 433.3M300.0 466.7C300.0 466.7 233.3 433.3 233.3 433.3C233.3 433.3 166.7 366.7 166.7 366.7C166.7 366.7 133.3 266.7 133.3 266.7C133.3 266.7 133.3 200.0 133.3 200.0C133.3 200.0 166.7 100.0 166.7 100.0C166.7 100.0 233.3 33.3 233.3 33.3C233.3 33.3 300.0 -0.0 300.0 -0.0M366.7 -0.0C366.7 -0.0 433.3 33.3 433.3 33.3C433.3 33.3 500.0 100.0 500.0 100.0C500.0 100.0 533.3 200.0 533.3 200.0C533.3 200.0 533.3 266.7 533.3 266.7C533.3 266.7 500.0 366.7 500.0 366.7C500.0 366.7 433.3 433.3 433.3 433.3C433.3 433.3 366.7 466.7 366.7 466.7" glyph-name="б" horiz-adv-x="666.7" unicode="б"/>
      <glyph d="M166.7 466.7C166.7 466.7 166.7 -0.0 166.7 -0.0M200.0 466.7C200.0 466.7 200.0 -0.0 200.0 -0.0M66.7 466.7C66.7 466.7 433.3 466.7 433.3 466.7C433.3 466.7 533.3 433.3 533.3 433.3C533.3 433.3 566.7 366.7 566.7 366.7C566.7 366.7 566.7 333.3 566.7 333.3C566.7 333.3 533.3 266.7 533.3 266.7C533.3 266.7 433.3 233.3 433.3 233.3M433.3 466.7C433.3 466.7 500.0 433.3 500.0 433.3C500.0 433.3 533.3 366.7 533.3 366.7C533.3 366.7 533.3 333.3 533.3 333.3C533.3 333.3 500.0 266.7 500.0 266.7C500.0 266.7 433.3 233.3 433.3 233.3M200.0 233.3C200.0 233.3 433.3 233.3 433.3 233.3C433.3 233.3 533.3 200.0 533.3 200.0C533.3 200.0 566.7 133.3 566.7 133.3C566.7 133.3 566.7 100.0 566.7 100.0C566.7 100.0 533.3 33.3 533.3 33.3C533.3 33.3 433.3 -0.0 433.3 -0.0C433.3 -0.0 66.7 -0.0 66.7 -0.0M433.3 233.3C433.3 233.3 500.0 200.0 500.0 200.0C500.0 200.0 533.3 133.3 533.3 133.3C533.3 133.3 533.3 100.0 533.3 100.0C533.3 100.0 500.0 33.3 500.0 33.3C500.0 33.3 433.3 -0.0 433.3 -0.0" glyph-name="в" horiz-adv-x="666.7" unicode="в"/>
      <glyph d="M166.7 466.7C166.7 466.7 166.7 -0.0 166.7 -0.0M200.0 466.7C200.0 466.7 200.0 -0.0 200.0 -0.0M66.7 466.7C66.7 466.7 533.3 466.7 533.3 466.7C533.3 466.7 533.3 300.0 533.3 300.0C533.3 300.0 500.0 466.7 500.0 466.7M66.7 -0.0C66.7 -0.0 300.0 -0.0 300.0 -0.0" glyph-name="г" horiz-adv-x="600.0" unicode="г"/>
      <glyph d="M166.7 466.7v-466.7zM200 466.7v-466.7zM66.7 466.7l466.6 0.000195313v166.7l-33.2998 -166.7zM66.7 -0h233.3z" glyph-name="ґ" horiz-adv-x="600.0" unicode="ґ"/>
      <glyph d="M266.7 466.7C266.7 466.7 266.7 333.3 266.7 333.3C266.7 333.3 233.3 133.3 233.3 133.3C233.3 133.3 200.0 33.3 200.0 33.3C200.0 33.3 166.7 -0.0 166.7 -0.0M566.7 466.7C566.7 466.7 566.7 -0.0 566.7 -0.0M600.0 466.7C600.0 466.7 600.0 -0.0 600.0 -0.0M166.7 466.7C166.7 466.7 700.0 466.7 700.0 466.7M100.0 -0.0C100.0 -0.0 66.7 -166.7 66.7 -166.7C66.7 -166.7 66.7 -0.0 66.7 -0.0C66.7 -0.0 700.0 -0.0 700.0 -0.0C700.0 -0.0 700.0 -166.7 700.0 -166.7C700.0 -166.7 666.7 -0.0 666.7 -0.0" glyph-name="д" horiz-adv-x="766.7" unicode="д"/>
      <glyph d="M133.3 266.7C133.3 266.7 533.3 266.7 533.3 266.7C533.3 266.7 533.3 333.3 533.3 333.3C533.3 333.3 500.0 400.0 500.0 400.0C500.0 400.0 466.7 433.3 466.7 433.3C466.7 433.3 400.0 466.7 400.0 466.7C400.0 466.7 300.0 466.7 300.0 466.7C300.0 466.7 200.0 433.3 200.0 433.3C200.0 433.3 133.3 366.7 133.3 366.7C133.3 366.7 100.0 266.7 100.0 266.7C100.0 266.7 100.0 200.0 100.0 200.0C100.0 200.0 133.3 100.0 133.3 100.0C133.3 100.0 200.0 33.3 200.0 33.3C200.0 33.3 300.0 -0.0 300.0 -0.0C300.0 -0.0 366.7 -0.0 366.7 -0.0C366.7 -0.0 466.7 33.3 466.7 33.3C466.7 33.3 533.3 100.0 533.3 100.0M500.0 266.7C500.0 266.7 500.0 366.7 500.0 366.7C500.0 366.7 466.7 433.3 466.7 433.3M300.0 466.7C300.0 466.7 233.3 433.3 233.3 433.3C233.3 433.3 166.7 366.7 166.7 366.7C166.7 366.7 133.3 266.7 133.3 266.7C133.3 266.7 133.3 200.0 133.3 200.0C133.3 200.0 166.7 100.0 166.7 100.0C166.7 100.0 233.3 33.3 233.3 33.3C233.3 33.3 300.0 -0.0 300.0 -0.0" glyph-name="е" horiz-adv-x="633.3" unicode="е"/>
      <glyph d="M433.3 229.7h-300zM499 370l-33.2998 -33.4004l33.2998 -33.2998l33.2998 33.2998v33.4004l-66.5996 66.5996l-66.7002 33.4004h-100l-100 -33.4004l-66.7002 -66.5996l-33.2998 -100v-66.7002l33.2998 -100l66.7002 -66.7002l100 -33.2998h66.7002l100 33.2998
l66.5996 66.7002zM299 470l-66.7002 -33.4004l-66.5996 -66.5996l-33.4004 -100v-66.7002l33.4004 -100l66.5996 -66.7002l66.7002 -33.2998z" glyph-name="є" horiz-adv-x="700.0" unicode="є"/>
      <glyph d="M433.3 466.7C433.3 466.7 433.3 -0.0 433.3 -0.0M466.7 466.7C466.7 466.7 466.7 -0.0 466.7 -0.0M333.3 466.7C333.3 466.7 566.7 466.7 566.7 466.7M166.7 433.3C166.7 433.3 133.3 400.0 133.3 400.0C133.3 400.0 100.0 433.3 100.0 433.3C100.0 433.3 133.3 466.7 133.3 466.7C133.3 466.7 166.7 466.7 166.7 466.7C166.7 466.7 200.0 433.3 200.0 433.3C200.0 433.3 266.7 300.0 266.7 300.0C266.7 300.0 300.0 266.7 300.0 266.7C300.0 266.7 366.7 233.3 366.7 233.3C366.7 233.3 533.3 233.3 533.3 233.3C533.3 233.3 600.0 266.7 600.0 266.7C600.0 266.7 633.3 300.0 633.3 300.0C633.3 300.0 700.0 433.3 700.0 433.3C700.0 433.3 733.3 466.7 733.3 466.7C733.3 466.7 766.7 466.7 766.7 466.7C766.7 466.7 800.0 433.3 800.0 433.3C800.0 433.3 766.7 400.0 766.7 400.0C766.7 400.0 733.3 433.3 733.3 433.3M366.7 233.3C366.7 233.3 300.0 200.0 300.0 200.0C300.0 200.0 266.7 166.7 266.7 166.7C266.7 166.7 200.0 33.3 200.0 33.3C200.0 33.3 166.7 -0.0 166.7 -0.0M366.7 233.3C366.7 233.3 300.0 166.7 300.0 166.7C300.0 166.7 233.3 33.3 233.3 33.3C233.3 33.3 200.0 -0.0 200.0 -0.0C200.0 -0.0 133.3 -0.0 133.3 -0.0C133.3 -0.0 100.0 33.3 100.0 33.3C100.0 33.3 66.7 100.0 66.7 100.0M533.3 233.3C533.3 233.3 600.0 200.0 600.0 200.0C600.0 200.0 633.3 166.7 633.3 166.7C633.3 166.7 700.0 33.3 700.0 33.3C700.0 33.3 733.3 -0.0 733.3 -0.0M533.3 233.3C533.3 233.3 600.0 166.7 600.0 166.7C600.0 166.7 666.7 33.3 666.7 33.3C666.7 33.3 700.0 -0.0 700.0 -0.0C700.0 -0.0 766.7 -0.0 766.7 -0.0C766.7 -0.0 800.0 33.3 800.0 33.3C800.0 33.3 833.3 100.0 833.3 100.0M333.3 -0.0C333.3 -0.0 566.7 -0.0 566.7 -0.0" glyph-name="ж" horiz-adv-x="900.0" unicode="ж"/>
      <glyph d="M133.3 400.0C133.3 400.0 100.0 466.7 100.0 466.7C100.0 466.7 100.0 333.3 100.0 333.3C100.0 333.3 133.3 400.0 133.3 400.0C133.3 400.0 166.7 433.3 166.7 433.3C166.7 433.3 233.3 466.7 233.3 466.7C233.3 466.7 366.7 466.7 366.7 466.7C366.7 466.7 466.7 433.3 466.7 433.3C466.7 433.3 500.0 366.7 500.0 366.7C500.0 366.7 500.0 333.3 500.0 333.3C500.0 333.3 466.7 266.7 466.7 266.7C466.7 266.7 366.7 233.3 366.7 233.3M366.7 466.7C366.7 466.7 433.3 433.3 433.3 433.3C433.3 433.3 466.7 366.7 466.7 366.7C466.7 366.7 466.7 333.3 466.7 333.3C466.7 333.3 433.3 266.7 433.3 266.7C433.3 266.7 366.7 233.3 366.7 233.3M266.7 233.3C266.7 233.3 366.7 233.3 366.7 233.3C366.7 233.3 466.7 200.0 466.7 200.0C466.7 200.0 500.0 133.3 500.0 133.3C500.0 133.3 500.0 100.0 500.0 100.0C500.0 100.0 466.7 33.3 466.7 33.3C466.7 33.3 366.7 -0.0 366.7 -0.0C366.7 -0.0 233.3 -0.0 233.3 -0.0C233.3 -0.0 133.3 33.3 133.3 33.3C133.3 33.3 100.0 100.0 100.0 100.0C100.0 100.0 100.0 133.3 100.0 133.3C100.0 133.3 133.3 166.7 133.3 166.7C133.3 166.7 166.7 133.3 166.7 133.3C166.7 133.3 133.3 100.0 133.3 100.0M366.7 233.3C366.7 233.3 433.3 200.0 433.3 200.0C433.3 200.0 466.7 133.3 466.7 133.3C466.7 133.3 466.7 100.0 466.7 100.0C466.7 100.0 433.3 33.3 433.3 33.3C433.3 33.3 366.7 -0.0 366.7 -0.0" glyph-name="з" horiz-adv-x="600.0" unicode="з"/>
      <glyph d="M166.7 466.7C166.7 466.7 166.7 -0.0 166.7 -0.0M200.0 466.7C200.0 466.7 200.0 -0.0 200.0 -0.0M533.3 466.7C533.3 466.7 533.3 -0.0 533.3 -0.0M566.7 466.7C566.7 466.7 566.7 -0.0 566.7 -0.0M66.7 466.7C66.7 466.7 300.0 466.7 300.0 466.7M433.3 466.7C433.3 466.7 666.7 466.7 666.7 466.7M66.7 -0.0C66.7 -0.0 300.0 -0.0 300.0 -0.0M433.3 -0.0C433.3 -0.0 666.7 -0.0 666.7 -0.0M533.3 433.3C533.3 433.3 200.0 33.3 200.0 33.3" glyph-name="и" horiz-adv-x="733.3" unicode="и"/>
      <glyph unicode="і" glyph-name="і" horiz-adv-x="346" d="M170 665l-31 -32l31 -32l32 32zM152 467v-465zM184 2l1 465h-127zM58 2h220z" />
      <glyph unicode="ї" glyph-name="ї" horiz-adv-x="346" d="M157 467v-467zM189 467v-467zM63 467h126zM63 0h220zM95 653l-31 -31l31 -31l32 31zM229 653l-31 -31l31 -31l32 31l-32 31z" />
      <glyph d="M166.7 466.7C166.7 466.7 166.7 -0.0 166.7 -0.0M200.0 466.7C200.0 466.7 200.0 -0.0 200.0 -0.0M533.3 466.7C533.3 466.7 533.3 -0.0 533.3 -0.0M566.7 466.7C566.7 466.7 566.7 -0.0 566.7 -0.0M66.7 466.7C66.7 466.7 300.0 466.7 300.0 466.7M433.3 466.7C433.3 466.7 666.7 466.7 666.7 466.7M66.7 -0.0C66.7 -0.0 300.0 -0.0 300.0 -0.0M433.3 -0.0C433.3 -0.0 666.7 -0.0 666.7 -0.0M533.3 433.3C533.3 433.3 200.0 33.3 200.0 33.3M266.7 666.7C266.7 666.7 266.7 700.0 266.7 700.0C266.7 700.0 233.3 700.0 233.3 700.0C233.3 700.0 233.3 666.7 233.3 666.7C233.3 666.7 266.7 600.0 266.7 600.0C266.7 600.0 333.3 566.7 333.3 566.7C333.3 566.7 400.0 566.7 400.0 566.7C400.0 566.7 466.7 600.0 466.7 600.0C466.7 600.0 500.0 666.7 500.0 666.7" glyph-name="й" horiz-adv-x="733.3" unicode="й"/>
      <glyph d="M166.7 466.7C166.7 466.7 166.7 -0.0 166.7 -0.0M200.0 466.7C200.0 466.7 200.0 -0.0 200.0 -0.0M66.7 466.7C66.7 466.7 300.0 466.7 300.0 466.7M200.0 233.3C200.0 233.3 266.7 233.3 266.7 233.3C266.7 233.3 366.7 266.7 366.7 266.7C366.7 266.7 400.0 300.0 400.0 300.0C400.0 300.0 466.7 433.3 466.7 433.3C466.7 433.3 500.0 466.7 500.0 466.7C500.0 466.7 533.3 466.7 533.3 466.7C533.3 466.7 566.7 433.3 566.7 433.3C566.7 433.3 533.3 400.0 533.3 400.0C533.3 400.0 500.0 433.3 500.0 433.3M266.7 233.3C266.7 233.3 366.7 200.0 366.7 200.0C366.7 200.0 400.0 166.7 400.0 166.7C400.0 166.7 466.7 33.3 466.7 33.3C466.7 33.3 500.0 -0.0 500.0 -0.0M266.7 233.3C266.7 233.3 333.3 200.0 333.3 200.0C333.3 200.0 366.7 166.7 366.7 166.7C366.7 166.7 433.3 33.3 433.3 33.3C433.3 33.3 466.7 -0.0 466.7 -0.0C466.7 -0.0 533.3 -0.0 533.3 -0.0C533.3 -0.0 566.7 33.3 566.7 33.3C566.7 33.3 600.0 100.0 600.0 100.0M66.7 -0.0C66.7 -0.0 300.0 -0.0 300.0 -0.0" glyph-name="к" horiz-adv-x="666.7" unicode="к"/>
      <glyph d="M233.3 466.7C233.3 466.7 233.3 333.3 233.3 333.3C233.3 333.3 200.0 133.3 200.0 133.3C200.0 133.3 166.7 33.3 166.7 33.3C166.7 33.3 133.3 -0.0 133.3 -0.0C133.3 -0.0 100.0 -0.0 100.0 -0.0C100.0 -0.0 66.7 33.3 66.7 33.3C66.7 33.3 100.0 66.7 100.0 66.7C100.0 66.7 133.3 33.3 133.3 33.3M533.3 466.7C533.3 466.7 533.3 -0.0 533.3 -0.0M566.7 466.7C566.7 466.7 566.7 -0.0 566.7 -0.0M133.3 466.7C133.3 466.7 666.7 466.7 666.7 466.7M433.3 -0.0C433.3 -0.0 666.7 -0.0 666.7 -0.0" glyph-name="л" horiz-adv-x="733.3" unicode="л"/>
      <glyph d="M166.7 466.7C166.7 466.7 166.7 -0.0 166.7 -0.0M166.7 466.7C166.7 466.7 366.7 -0.0 366.7 -0.0M200.0 466.7C200.0 466.7 366.7 66.7 366.7 66.7M566.7 466.7C566.7 466.7 366.7 -0.0 366.7 -0.0M566.7 466.7C566.7 466.7 566.7 -0.0 566.7 -0.0M600.0 466.7C600.0 466.7 600.0 -0.0 600.0 -0.0M66.7 466.7C66.7 466.7 200.0 466.7 200.0 466.7M566.7 466.7C566.7 466.7 700.0 466.7 700.0 466.7M66.7 -0.0C66.7 -0.0 266.7 -0.0 266.7 -0.0M466.7 -0.0C466.7 -0.0 700.0 -0.0 700.0 -0.0" glyph-name="м" horiz-adv-x="766.7" unicode="м"/>
      <glyph d="M166.7 466.7C166.7 466.7 166.7 -0.0 166.7 -0.0M200.0 466.7C200.0 466.7 200.0 -0.0 200.0 -0.0M533.3 466.7C533.3 466.7 533.3 -0.0 533.3 -0.0M566.7 466.7C566.7 466.7 566.7 -0.0 566.7 -0.0M66.7 466.7C66.7 466.7 300.0 466.7 300.0 466.7M433.3 466.7C433.3 466.7 666.7 466.7 666.7 466.7M200.0 233.3C200.0 233.3 533.3 233.3 533.3 233.3M66.7 -0.0C66.7 -0.0 300.0 -0.0 300.0 -0.0M433.3 -0.0C433.3 -0.0 666.7 -0.0 666.7 -0.0" glyph-name="н" horiz-adv-x="733.3" unicode="н"/>
      <glyph d="M300.0 466.7C300.0 466.7 200.0 433.3 200.0 433.3C200.0 433.3 133.3 366.7 133.3 366.7C133.3 366.7 100.0 266.7 100.0 266.7C100.0 266.7 100.0 200.0 100.0 200.0C100.0 200.0 133.3 100.0 133.3 100.0C133.3 100.0 200.0 33.3 200.0 33.3C200.0 33.3 300.0 -0.0 300.0 -0.0C300.0 -0.0 366.7 -0.0 366.7 -0.0C366.7 -0.0 466.7 33.3 466.7 33.3C466.7 33.3 533.3 100.0 533.3 100.0C533.3 100.0 566.7 200.0 566.7 200.0C566.7 200.0 566.7 266.7 566.7 266.7C566.7 266.7 533.3 366.7 533.3 366.7C533.3 366.7 466.7 433.3 466.7 433.3C466.7 433.3 366.7 466.7 366.7 466.7C366.7 466.7 300.0 466.7 300.0 466.7M300.0 466.7C300.0 466.7 233.3 433.3 233.3 433.3C233.3 433.3 166.7 366.7 166.7 366.7C166.7 366.7 133.3 266.7 133.3 266.7C133.3 266.7 133.3 200.0 133.3 200.0C133.3 200.0 166.7 100.0 166.7 100.0C166.7 100.0 233.3 33.3 233.3 33.3C233.3 33.3 300.0 -0.0 300.0 -0.0M366.7 -0.0C366.7 -0.0 433.3 33.3 433.3 33.3C433.3 33.3 500.0 100.0 500.0 100.0C500.0 100.0 533.3 200.0 533.3 200.0C533.3 200.0 533.3 266.7 533.3 266.7C533.3 266.7 500.0 366.7 500.0 366.7C500.0 366.7 433.3 433.3 433.3 433.3C433.3 433.3 366.7 466.7 366.7 466.7" glyph-name="о" horiz-adv-x="666.7" unicode="о"/>
      <glyph d="M166.7 466.7C166.7 466.7 166.7 -0.0 166.7 -0.0M200.0 466.7C200.0 466.7 200.0 -0.0 200.0 -0.0M533.3 466.7C533.3 466.7 533.3 -0.0 533.3 -0.0M566.7 466.7C566.7 466.7 566.7 -0.0 566.7 -0.0M66.7 466.7C66.7 466.7 666.7 466.7 666.7 466.7M66.7 -0.0C66.7 -0.0 300.0 -0.0 300.0 -0.0M433.3 -0.0C433.3 -0.0 666.7 -0.0 666.7 -0.0" glyph-name="п" horiz-adv-x="733.3" unicode="п"/>
      <glyph d="M166.7 466.7C166.7 466.7 166.7 -233.3 166.7 -233.3M200.0 466.7C200.0 466.7 200.0 -233.3 200.0 -233.3M200.0 366.7C200.0 366.7 266.7 433.3 266.7 433.3C266.7 433.3 333.3 466.7 333.3 466.7C333.3 466.7 400.0 466.7 400.0 466.7C400.0 466.7 500.0 433.3 500.0 433.3C500.0 433.3 566.7 366.7 566.7 366.7C566.7 366.7 600.0 266.7 600.0 266.7C600.0 266.7 600.0 200.0 600.0 200.0C600.0 200.0 566.7 100.0 566.7 100.0C566.7 100.0 500.0 33.3 500.0 33.3C500.0 33.3 400.0 -0.0 400.0 -0.0C400.0 -0.0 333.3 -0.0 333.3 -0.0C333.3 -0.0 266.7 33.3 266.7 33.3C266.7 33.3 200.0 100.0 200.0 100.0M400.0 466.7C400.0 466.7 466.7 433.3 466.7 433.3C466.7 433.3 533.3 366.7 533.3 366.7C533.3 366.7 566.7 266.7 566.7 266.7C566.7 266.7 566.7 200.0 566.7 200.0C566.7 200.0 533.3 100.0 533.3 100.0C533.3 100.0 466.7 33.3 466.7 33.3C466.7 33.3 400.0 -0.0 400.0 -0.0M66.7 466.7C66.7 466.7 200.0 466.7 200.0 466.7M66.7 -233.3C66.7 -233.3 300.0 -233.3 300.0 -233.3" glyph-name="р" horiz-adv-x="700.0" unicode="р"/>
      <glyph d="M500.0 366.7C500.0 366.7 466.7 333.3 466.7 333.3C466.7 333.3 500.0 300.0 500.0 300.0C500.0 300.0 533.3 333.3 533.3 333.3C533.3 333.3 533.3 366.7 533.3 366.7C533.3 366.7 466.7 433.3 466.7 433.3C466.7 433.3 400.0 466.7 400.0 466.7C400.0 466.7 300.0 466.7 300.0 466.7C300.0 466.7 200.0 433.3 200.0 433.3C200.0 433.3 133.3 366.7 133.3 366.7C133.3 366.7 100.0 266.7 100.0 266.7C100.0 266.7 100.0 200.0 100.0 200.0C100.0 200.0 133.3 100.0 133.3 100.0C133.3 100.0 200.0 33.3 200.0 33.3C200.0 33.3 300.0 -0.0 300.0 -0.0C300.0 -0.0 366.7 -0.0 366.7 -0.0C366.7 -0.0 466.7 33.3 466.7 33.3C466.7 33.3 533.3 100.0 533.3 100.0M300.0 466.7C300.0 466.7 233.3 433.3 233.3 433.3C233.3 433.3 166.7 366.7 166.7 366.7C166.7 366.7 133.3 266.7 133.3 266.7C133.3 266.7 133.3 200.0 133.3 200.0C133.3 200.0 166.7 100.0 166.7 100.0C166.7 100.0 233.3 33.3 233.3 33.3C233.3 33.3 300.0 -0.0 300.0 -0.0" glyph-name="с" horiz-adv-x="633.3" unicode="с"/>
      <glyph d="M300.0 466.7C300.0 466.7 300.0 -0.0 300.0 -0.0M333.3 466.7C333.3 466.7 333.3 -0.0 333.3 -0.0M133.3 466.7C133.3 466.7 100.0 300.0 100.0 300.0C100.0 300.0 100.0 466.7 100.0 466.7C100.0 466.7 533.3 466.7 533.3 466.7C533.3 466.7 533.3 300.0 533.3 300.0C533.3 300.0 500.0 466.7 500.0 466.7M200.0 -0.0C200.0 -0.0 433.3 -0.0 433.3 -0.0" glyph-name="т" horiz-adv-x="633.3" unicode="т"/>
      <glyph d="M100.0 466.7C100.0 466.7 300.0 -0.0 300.0 -0.0M133.3 466.7C133.3 466.7 300.0 66.7 300.0 66.7M500.0 466.7C500.0 466.7 300.0 -0.0 300.0 -0.0C300.0 -0.0 233.3 -133.3 233.3 -133.3C233.3 -133.3 166.7 -200.0 166.7 -200.0C166.7 -200.0 100.0 -233.3 100.0 -233.3C100.0 -233.3 66.7 -233.3 66.7 -233.3C66.7 -233.3 33.3 -200.0 33.3 -200.0C33.3 -200.0 66.7 -166.7 66.7 -166.7C66.7 -166.7 100.0 -200.0 100.0 -200.0M33.3 466.7C33.3 466.7 233.3 466.7 233.3 466.7M366.7 466.7C366.7 466.7 566.7 466.7 566.7 466.7" glyph-name="у" horiz-adv-x="600.0" unicode="у"/>
      <glyph d="M333.3 700.0C333.3 700.0 333.3 -233.3 333.3 -233.3M366.7 700.0C366.7 700.0 366.7 -233.3 366.7 -233.3M233.3 700.0C233.3 700.0 366.7 700.0 366.7 700.0M333.3 366.7C333.3 366.7 300.0 433.3 300.0 433.3C300.0 433.3 266.7 466.7 266.7 466.7C266.7 466.7 200.0 466.7 200.0 466.7C200.0 466.7 133.3 433.3 133.3 433.3C133.3 433.3 100.0 333.3 100.0 333.3C100.0 333.3 100.0 133.3 100.0 133.3C100.0 133.3 133.3 33.3 133.3 33.3C133.3 33.3 200.0 -0.0 200.0 -0.0C200.0 -0.0 266.7 -0.0 266.7 -0.0C266.7 -0.0 300.0 33.3 300.0 33.3C300.0 33.3 333.3 100.0 333.3 100.0M200.0 466.7C200.0 466.7 166.7 433.3 166.7 433.3C166.7 433.3 133.3 333.3 133.3 333.3C133.3 333.3 133.3 133.3 133.3 133.3C133.3 133.3 166.7 33.3 166.7 33.3C166.7 33.3 200.0 -0.0 200.0 -0.0M500.0 466.7C500.0 466.7 533.3 433.3 533.3 433.3C533.3 433.3 566.7 333.3 566.7 333.3C566.7 333.3 566.7 133.3 566.7 133.3C566.7 133.3 533.3 33.3 533.3 33.3C533.3 33.3 500.0 -0.0 500.0 -0.0M366.7 366.7C366.7 366.7 400.0 433.3 400.0 433.3C400.0 433.3 433.3 466.7 433.3 466.7C433.3 466.7 500.0 466.7 500.0 466.7C500.0 466.7 566.7 433.3 566.7 433.3C566.7 433.3 600.0 333.3 600.0 333.3C600.0 333.3 600.0 133.3 600.0 133.3C600.0 133.3 566.7 33.3 566.7 33.3C566.7 33.3 500.0 -0.0 500.0 -0.0C500.0 -0.0 433.3 -0.0 433.3 -0.0C433.3 -0.0 400.0 33.3 400.0 33.3C400.0 33.3 366.7 100.0 366.7 100.0M233.3 -233.3C233.3 -233.3 466.7 -233.3 466.7 -233.3" glyph-name="ф" horiz-adv-x="700.0" unicode="ф"/>
      <glyph d="M133.3 466.7C133.3 466.7 500.0 -0.0 500.0 -0.0M166.7 466.7C166.7 466.7 533.3 -0.0 533.3 -0.0M533.3 466.7C533.3 466.7 133.3 -0.0 133.3 -0.0M66.7 466.7C66.7 466.7 266.7 466.7 266.7 466.7M400.0 466.7C400.0 466.7 600.0 466.7 600.0 466.7M66.7 -0.0C66.7 -0.0 266.7 -0.0 266.7 -0.0M400.0 -0.0C400.0 -0.0 600.0 -0.0 600.0 -0.0" glyph-name="х" horiz-adv-x="666.7" unicode="х"/>
      <glyph d="M166.7 466.7C166.7 466.7 166.7 -0.0 166.7 -0.0M200.0 466.7C200.0 466.7 200.0 -0.0 200.0 -0.0M533.3 466.7C533.3 466.7 533.3 -0.0 533.3 -0.0M566.7 466.7C566.7 466.7 566.7 -0.0 566.7 -0.0M66.7 466.7C66.7 466.7 300.0 466.7 300.0 466.7M433.3 466.7C433.3 466.7 666.7 466.7 666.7 466.7M66.7 -0.0C66.7 -0.0 666.7 -0.0 666.7 -0.0C666.7 -0.0 666.7 -166.7 666.7 -166.7C666.7 -166.7 633.3 -0.0 633.3 -0.0" glyph-name="ц" horiz-adv-x="733.3" unicode="ц"/>
      <glyph d="M167 467v-243.688l33.2998 -44.6221l100 -22.3779h100l100 22.3779l66.7002 44.6221zM201 467l-0.700195 -243.688l33.2998 -44.6221l66.7002 -22.3779zM567 467v-467zM600 467l0.299805 -467zM67 467h233zM467 467h234zM467 0h233.3z" glyph-name="ч" horiz-adv-x="766.7" unicode="ч"/>
      <glyph d="M166.7 466.7C166.7 466.7 166.7 -0.0 166.7 -0.0M200.0 466.7C200.0 466.7 200.0 -0.0 200.0 -0.0M500.0 466.7C500.0 466.7 500.0 -0.0 500.0 -0.0M533.3 466.7C533.3 466.7 533.3 -0.0 533.3 -0.0M833.3 466.7C833.3 466.7 833.3 -0.0 833.3 -0.0M866.7 466.7C866.7 466.7 866.7 -0.0 866.7 -0.0M66.7 466.7C66.7 466.7 300.0 466.7 300.0 466.7M400.0 466.7C400.0 466.7 633.3 466.7 633.3 466.7M733.3 466.7C733.3 466.7 966.7 466.7 966.7 466.7M66.7 -0.0C66.7 -0.0 966.7 -0.0 966.7 -0.0" glyph-name="ш" horiz-adv-x="1033.3" unicode="ш"/>
      <glyph d="M166.7 466.7C166.7 466.7 166.7 -0.0 166.7 -0.0M200.0 466.7C200.0 466.7 200.0 -0.0 200.0 -0.0M500.0 466.7C500.0 466.7 500.0 -0.0 500.0 -0.0M533.3 466.7C533.3 466.7 533.3 -0.0 533.3 -0.0M833.3 466.7C833.3 466.7 833.3 -0.0 833.3 -0.0M866.7 466.7C866.7 466.7 866.7 -0.0 866.7 -0.0M66.7 466.7C66.7 466.7 300.0 466.7 300.0 466.7M400.0 466.7C400.0 466.7 633.3 466.7 633.3 466.7M733.3 466.7C733.3 466.7 966.7 466.7 966.7 466.7M66.7 -0.0C66.7 -0.0 966.7 -0.0 966.7 -0.0C966.7 -0.0 966.7 -166.7 966.7 -166.7C966.7 -166.7 933.3 -0.0 933.3 -0.0" glyph-name="щ" horiz-adv-x="1033.3" unicode="щ"/>
      <glyph d="M166.7 466.7C166.7 466.7 166.7 -0.0 166.7 -0.0M200.0 466.7C200.0 466.7 200.0 -0.0 200.0 -0.0M66.7 466.7C66.7 466.7 300.0 466.7 300.0 466.7M200.0 233.3C200.0 233.3 333.3 233.3 333.3 233.3C333.3 233.3 433.3 200.0 433.3 200.0C433.3 200.0 466.7 133.3 466.7 133.3C466.7 133.3 466.7 100.0 466.7 100.0C466.7 100.0 433.3 33.3 433.3 33.3C433.3 33.3 333.3 -0.0 333.3 -0.0C333.3 -0.0 66.7 -0.0 66.7 -0.0M333.3 233.3C333.3 233.3 400.0 200.0 400.0 200.0C400.0 200.0 433.3 133.3 433.3 133.3C433.3 133.3 433.3 100.0 433.3 100.0C433.3 100.0 400.0 33.3 400.0 33.3C400.0 33.3 333.3 -0.0 333.3 -0.0" glyph-name="ь" horiz-adv-x="566.7" unicode="ь"/>
      <glyph d="M166.7 466.7C166.7 466.7 166.7 -0.0 166.7 -0.0M200.0 466.7C200.0 466.7 200.0 -0.0 200.0 -0.0M66.7 466.7C66.7 466.7 300.0 466.7 300.0 466.7M66.7 -0.0C66.7 -0.0 300.0 -0.0 300.0 -0.0M600.0 466.7C600.0 466.7 500.0 433.3 500.0 433.3C500.0 433.3 433.3 366.7 433.3 366.7C433.3 366.7 400.0 266.7 400.0 266.7C400.0 266.7 400.0 200.0 400.0 200.0C400.0 200.0 433.3 100.0 433.3 100.0C433.3 100.0 500.0 33.3 500.0 33.3C500.0 33.3 600.0 -0.0 600.0 -0.0C600.0 -0.0 666.7 -0.0 666.7 -0.0C666.7 -0.0 766.7 33.3 766.7 33.3C766.7 33.3 833.3 100.0 833.3 100.0C833.3 100.0 866.7 200.0 866.7 200.0C866.7 200.0 866.7 266.7 866.7 266.7C866.7 266.7 833.3 366.7 833.3 366.7C833.3 366.7 766.7 433.3 766.7 433.3C766.7 433.3 666.7 466.7 666.7 466.7C666.7 466.7 600.0 466.7 600.0 466.7M600.0 466.7C600.0 466.7 533.3 433.3 533.3 433.3C533.3 433.3 466.7 366.7 466.7 366.7C466.7 366.7 433.3 266.7 433.3 266.7C433.3 266.7 433.3 200.0 433.3 200.0C433.3 200.0 466.7 100.0 466.7 100.0C466.7 100.0 533.3 33.3 533.3 33.3C533.3 33.3 600.0 -0.0 600.0 -0.0M666.7 -0.0C666.7 -0.0 733.3 33.3 733.3 33.3C733.3 33.3 800.0 100.0 800.0 100.0C800.0 100.0 833.3 200.0 833.3 200.0C833.3 200.0 833.3 266.7 833.3 266.7C833.3 266.7 800.0 366.7 800.0 366.7C800.0 366.7 733.3 433.3 733.3 433.3C733.3 433.3 666.7 466.7 666.7 466.7M200.0 233.3C200.0 233.3 400.0 233.3 400.0 233.3" glyph-name="ю" horiz-adv-x="966.7" unicode="ю"/>
      <glyph d="M500.0 466.7C500.0 466.7 500.0 -0.0 500.0 -0.0M533.3 466.7C533.3 466.7 533.3 -0.0 533.3 -0.0M633.3 466.7C633.3 466.7 266.7 466.7 266.7 466.7C266.7 466.7 166.7 433.3 166.7 433.3C166.7 433.3 133.3 366.7 133.3 366.7C133.3 366.7 133.3 333.3 133.3 333.3C133.3 333.3 166.7 266.7 166.7 266.7C166.7 266.7 266.7 233.3 266.7 233.3C266.7 233.3 500.0 233.3 500.0 233.3M266.7 466.7C266.7 466.7 200.0 433.3 200.0 433.3C200.0 433.3 166.7 366.7 166.7 366.7C166.7 366.7 166.7 333.3 166.7 333.3C166.7 333.3 200.0 266.7 200.0 266.7C200.0 266.7 266.7 233.3 266.7 233.3M433.3 233.3C433.3 233.3 333.3 200.0 333.3 200.0C333.3 200.0 300.0 166.7 300.0 166.7C300.0 166.7 233.3 33.3 233.3 33.3C233.3 33.3 200.0 -0.0 200.0 -0.0M433.3 233.3C433.3 233.3 366.7 200.0 366.7 200.0C366.7 200.0 333.3 166.7 333.3 166.7C333.3 166.7 266.7 33.3 266.7 33.3C266.7 33.3 233.3 -0.0 233.3 -0.0C233.3 -0.0 166.7 -0.0 166.7 -0.0C166.7 -0.0 133.3 33.3 133.3 33.3C133.3 33.3 100.0 100.0 100.0 100.0M400.0 -0.0C400.0 -0.0 633.3 -0.0 633.3 -0.0" glyph-name="я" horiz-adv-x="700.0" unicode="я"/>
      <glyph d="M300.0 700.0C300.0 700.0 200.0 666.7 200.0 666.7C200.0 666.7 133.3 566.7 133.3 566.7C133.3 566.7 100.0 400.0 100.0 400.0C100.0 400.0 100.0 300.0 100.0 300.0C100.0 300.0 133.3 133.3 133.3 133.3C133.3 133.3 200.0 33.3 200.0 33.3C200.0 33.3 300.0 -0.0 300.0 -0.0C300.0 -0.0 366.7 -0.0 366.7 -0.0C366.7 -0.0 466.7 33.3 466.7 33.3C466.7 33.3 533.3 133.3 533.3 133.3C533.3 133.3 566.7 300.0 566.7 300.0C566.7 300.0 566.7 400.0 566.7 400.0C566.7 400.0 533.3 566.7 533.3 566.7C533.3 566.7 466.7 666.7 466.7 666.7C466.7 666.7 366.7 700.0 366.7 700.0C366.7 700.0 300.0 700.0 300.0 700.0M300.0 700.0C300.0 700.0 233.3 666.7 233.3 666.7C233.3 666.7 200.0 633.3 200.0 633.3C200.0 633.3 166.7 566.7 166.7 566.7C166.7 566.7 133.3 400.0 133.3 400.0C133.3 400.0 133.3 300.0 133.3 300.0C133.3 300.0 166.7 133.3 166.7 133.3C166.7 133.3 200.0 66.7 200.0 66.7C200.0 66.7 233.3 33.3 233.3 33.3C233.3 33.3 300.0 -0.0 300.0 -0.0M366.7 -0.0C366.7 -0.0 433.3 33.3 433.3 33.3C433.3 33.3 466.7 66.7 466.7 66.7C466.7 66.7 500.0 133.3 500.0 133.3C500.0 133.3 533.3 300.0 533.3 300.0C533.3 300.0 533.3 400.0 533.3 400.0C533.3 400.0 500.0 566.7 500.0 566.7C500.0 566.7 466.7 633.3 466.7 633.3C466.7 633.3 433.3 666.7 433.3 666.7C433.3 666.7 366.7 700.0 366.7 700.0" glyph-name="0" horiz-adv-x="666.7" unicode="0"/>
      <glyph d="M200.0 566.7C200.0 566.7 266.7 600.0 266.7 600.0C266.7 600.0 366.7 700.0 366.7 700.0C366.7 700.0 366.7 -0.0 366.7 -0.0M333.3 666.7C333.3 666.7 333.3 -0.0 333.3 -0.0M200.0 -0.0C200.0 -0.0 500.0 -0.0 500.0 -0.0" glyph-name="1" horiz-adv-x="666.7" unicode="1"/>
      <glyph d="M133.3 566.7C133.3 566.7 166.7 533.3 166.7 533.3C166.7 533.3 133.3 500.0 133.3 500.0C133.3 500.0 100.0 533.3 100.0 533.3C100.0 533.3 100.0 566.7 100.0 566.7C100.0 566.7 133.3 633.3 133.3 633.3C133.3 633.3 166.7 666.7 166.7 666.7C166.7 666.7 266.7 700.0 266.7 700.0C266.7 700.0 400.0 700.0 400.0 700.0C400.0 700.0 500.0 666.7 500.0 666.7C500.0 666.7 533.3 633.3 533.3 633.3C533.3 633.3 566.7 566.7 566.7 566.7C566.7 566.7 566.7 500.0 566.7 500.0C566.7 500.0 533.3 433.3 533.3 433.3C533.3 433.3 433.3 366.7 433.3 366.7C433.3 366.7 266.7 300.0 266.7 300.0C266.7 300.0 200.0 266.7 200.0 266.7C200.0 266.7 133.3 200.0 133.3 200.0C133.3 200.0 100.0 100.0 100.0 100.0C100.0 100.0 100.0 -0.0 100.0 -0.0M400.0 700.0C400.0 700.0 466.7 666.7 466.7 666.7C466.7 666.7 500.0 633.3 500.0 633.3C500.0 633.3 533.3 566.7 533.3 566.7C533.3 566.7 533.3 500.0 533.3 500.0C533.3 500.0 500.0 433.3 500.0 433.3C500.0 433.3 400.0 366.7 400.0 366.7C400.0 366.7 266.7 300.0 266.7 300.0M100.0 66.7C100.0 66.7 133.3 100.0 133.3 100.0C133.3 100.0 200.0 100.0 200.0 100.0C200.0 100.0 366.7 33.3 366.7 33.3C366.7 33.3 466.7 33.3 466.7 33.3C466.7 33.3 533.3 66.7 533.3 66.7C533.3 66.7 566.7 100.0 566.7 100.0M200.0 100.0C200.0 100.0 366.7 -0.0 366.7 -0.0C366.7 -0.0 500.0 -0.0 500.0 -0.0C500.0 -0.0 533.3 33.3 533.3 33.3C533.3 33.3 566.7 100.0 566.7 100.0C566.7 100.0 566.7 166.7 566.7 166.7" glyph-name="2" horiz-adv-x="666.7" unicode="2"/>
      <glyph d="M133.3 566.7C133.3 566.7 166.7 533.3 166.7 533.3C166.7 533.3 133.3 500.0 133.3 500.0C133.3 500.0 100.0 533.3 100.0 533.3C100.0 533.3 100.0 566.7 100.0 566.7C100.0 566.7 133.3 633.3 133.3 633.3C133.3 633.3 166.7 666.7 166.7 666.7C166.7 666.7 266.7 700.0 266.7 700.0C266.7 700.0 400.0 700.0 400.0 700.0C400.0 700.0 500.0 666.7 500.0 666.7C500.0 666.7 533.3 600.0 533.3 600.0C533.3 600.0 533.3 500.0 533.3 500.0C533.3 500.0 500.0 433.3 500.0 433.3C500.0 433.3 400.0 400.0 400.0 400.0C400.0 400.0 300.0 400.0 300.0 400.0M400.0 700.0C400.0 700.0 466.7 666.7 466.7 666.7C466.7 666.7 500.0 600.0 500.0 600.0C500.0 600.0 500.0 500.0 500.0 500.0C500.0 500.0 466.7 433.3 466.7 433.3C466.7 433.3 400.0 400.0 400.0 400.0M400.0 400.0C400.0 400.0 466.7 366.7 466.7 366.7C466.7 366.7 533.3 300.0 533.3 300.0C533.3 300.0 566.7 233.3 566.7 233.3C566.7 233.3 566.7 133.3 566.7 133.3C566.7 133.3 533.3 66.7 533.3 66.7C533.3 66.7 500.0 33.3 500.0 33.3C500.0 33.3 400.0 -0.0 400.0 -0.0C400.0 -0.0 266.7 -0.0 266.7 -0.0C266.7 -0.0 166.7 33.3 166.7 33.3C166.7 33.3 133.3 66.7 133.3 66.7C133.3 66.7 100.0 133.3 100.0 133.3C100.0 133.3 100.0 166.7 100.0 166.7C100.0 166.7 133.3 200.0 133.3 200.0C133.3 200.0 166.7 166.7 166.7 166.7C166.7 166.7 133.3 133.3 133.3 133.3M500.0 333.3C500.0 333.3 533.3 233.3 533.3 233.3C533.3 233.3 533.3 133.3 533.3 133.3C533.3 133.3 500.0 66.7 500.0 66.7C500.0 66.7 466.7 33.3 466.7 33.3C466.7 33.3 400.0 -0.0 400.0 -0.0" glyph-name="3" horiz-adv-x="666.7" unicode="3"/>
      <glyph d="M166.7 700.0C166.7 700.0 100.0 366.7 100.0 366.7M100.0 366.7C100.0 366.7 166.7 433.3 166.7 433.3C166.7 433.3 266.7 466.7 266.7 466.7C266.7 466.7 366.7 466.7 366.7 466.7C366.7 466.7 466.7 433.3 466.7 433.3C466.7 433.3 533.3 366.7 533.3 366.7C533.3 366.7 566.7 266.7 566.7 266.7C566.7 266.7 566.7 200.0 566.7 200.0C566.7 200.0 533.3 100.0 533.3 100.0C533.3 100.0 466.7 33.3 466.7 33.3C466.7 33.3 366.7 -0.0 366.7 -0.0C366.7 -0.0 266.7 -0.0 266.7 -0.0C266.7 -0.0 166.7 33.3 166.7 33.3C166.7 33.3 133.3 66.7 133.3 66.7C133.3 66.7 100.0 133.3 100.0 133.3C100.0 133.3 100.0 166.7 100.0 166.7C100.0 166.7 133.3 200.0 133.3 200.0C133.3 200.0 166.7 166.7 166.7 166.7C166.7 166.7 133.3 133.3 133.3 133.3M366.7 466.7C366.7 466.7 433.3 433.3 433.3 433.3C433.3 433.3 500.0 366.7 500.0 366.7C500.0 366.7 533.3 266.7 533.3 266.7C533.3 266.7 533.3 200.0 533.3 200.0C533.3 200.0 500.0 100.0 500.0 100.0C500.0 100.0 433.3 33.3 433.3 33.3C433.3 33.3 366.7 -0.0 366.7 -0.0M166.7 700.0C166.7 700.0 500.0 700.0 500.0 700.0M166.7 666.7C166.7 666.7 333.3 666.7 333.3 666.7C333.3 666.7 500.0 700.0 500.0 700.0" glyph-name="5" horiz-adv-x="666.7" unicode="5"/>
      <glyph d="M400.0 633.3C400.0 633.3 400.0 -0.0 400.0 -0.0M433.3 700.0C433.3 700.0 433.3 -0.0 433.3 -0.0M433.3 700.0C433.3 700.0 66.7 200.0 66.7 200.0C66.7 200.0 600.0 200.0 600.0 200.0M300.0 -0.0C300.0 -0.0 533.3 -0.0 533.3 -0.0" glyph-name="4" horiz-adv-x="666.7" unicode="4"/>
      <glyph d="M500.0 600.0C500.0 600.0 466.7 566.7 466.7 566.7C466.7 566.7 500.0 533.3 500.0 533.3C500.0 533.3 533.3 566.7 533.3 566.7C533.3 566.7 533.3 600.0 533.3 600.0C533.3 600.0 500.0 666.7 500.0 666.7C500.0 666.7 433.3 700.0 433.3 700.0C433.3 700.0 333.3 700.0 333.3 700.0C333.3 700.0 233.3 666.7 233.3 666.7C233.3 666.7 166.7 600.0 166.7 600.0C166.7 600.0 133.3 533.3 133.3 533.3C133.3 533.3 100.0 400.0 100.0 400.0C100.0 400.0 100.0 200.0 100.0 200.0C100.0 200.0 133.3 100.0 133.3 100.0C133.3 100.0 200.0 33.3 200.0 33.3C200.0 33.3 300.0 -0.0 300.0 -0.0C300.0 -0.0 366.7 -0.0 366.7 -0.0C366.7 -0.0 466.7 33.3 466.7 33.3C466.7 33.3 533.3 100.0 533.3 100.0C533.3 100.0 566.7 200.0 566.7 200.0C566.7 200.0 566.7 233.3 566.7 233.3C566.7 233.3 533.3 333.3 533.3 333.3C533.3 333.3 466.7 400.0 466.7 400.0C466.7 400.0 366.7 433.3 366.7 433.3C366.7 433.3 333.3 433.3 333.3 433.3C333.3 433.3 233.3 400.0 233.3 400.0C233.3 400.0 166.7 333.3 166.7 333.3C166.7 333.3 133.3 233.3 133.3 233.3M333.3 700.0C333.3 700.0 266.7 666.7 266.7 666.7C266.7 666.7 200.0 600.0 200.0 600.0C200.0 600.0 166.7 533.3 166.7 533.3C166.7 533.3 133.3 400.0 133.3 400.0C133.3 400.0 133.3 200.0 133.3 200.0C133.3 200.0 166.7 100.0 166.7 100.0C166.7 100.0 233.3 33.3 233.3 33.3C233.3 33.3 300.0 -0.0 300.0 -0.0M366.7 -0.0C366.7 -0.0 433.3 33.3 433.3 33.3C433.3 33.3 500.0 100.0 500.0 100.0C500.0 100.0 533.3 200.0 533.3 200.0C533.3 200.0 533.3 233.3 533.3 233.3C533.3 233.3 500.0 333.3 500.0 333.3C500.0 333.3 433.3 400.0 433.3 400.0C433.3 400.0 366.7 433.3 366.7 433.3" glyph-name="6" horiz-adv-x="666.7" unicode="6"/>
      <glyph d="M100.0 700.0C100.0 700.0 100.0 500.0 100.0 500.0M100.0 566.7C100.0 566.7 133.3 633.3 133.3 633.3C133.3 633.3 200.0 700.0 200.0 700.0C200.0 700.0 266.7 700.0 266.7 700.0C266.7 700.0 433.3 600.0 433.3 600.0C433.3 600.0 500.0 600.0 500.0 600.0C500.0 600.0 533.3 633.3 533.3 633.3C533.3 633.3 566.7 700.0 566.7 700.0M133.3 633.3C133.3 633.3 200.0 666.7 200.0 666.7C200.0 666.7 266.7 666.7 266.7 666.7C266.7 666.7 433.3 600.0 433.3 600.0M566.7 700.0C566.7 700.0 566.7 600.0 566.7 600.0C566.7 600.0 533.3 500.0 533.3 500.0C533.3 500.0 400.0 333.3 400.0 333.3C400.0 333.3 366.7 266.7 366.7 266.7C366.7 266.7 333.3 166.7 333.3 166.7C333.3 166.7 333.3 -0.0 333.3 -0.0M533.3 500.0C533.3 500.0 366.7 333.3 366.7 333.3C366.7 333.3 333.3 266.7 333.3 266.7C333.3 266.7 300.0 166.7 300.0 166.7C300.0 166.7 300.0 -0.0 300.0 -0.0" glyph-name="7" horiz-adv-x="666.7" unicode="7"/>
      <glyph d="M266.7 700.0C266.7 700.0 166.7 666.7 166.7 666.7C166.7 666.7 133.3 600.0 133.3 600.0C133.3 600.0 133.3 500.0 133.3 500.0C133.3 500.0 166.7 433.3 166.7 433.3C166.7 433.3 266.7 400.0 266.7 400.0C266.7 400.0 400.0 400.0 400.0 400.0C400.0 400.0 500.0 433.3 500.0 433.3C500.0 433.3 533.3 500.0 533.3 500.0C533.3 500.0 533.3 600.0 533.3 600.0C533.3 600.0 500.0 666.7 500.0 666.7C500.0 666.7 400.0 700.0 400.0 700.0C400.0 700.0 266.7 700.0 266.7 700.0M266.7 700.0C266.7 700.0 200.0 666.7 200.0 666.7C200.0 666.7 166.7 600.0 166.7 600.0C166.7 600.0 166.7 500.0 166.7 500.0C166.7 500.0 200.0 433.3 200.0 433.3C200.0 433.3 266.7 400.0 266.7 400.0M400.0 400.0C400.0 400.0 466.7 433.3 466.7 433.3C466.7 433.3 500.0 500.0 500.0 500.0C500.0 500.0 500.0 600.0 500.0 600.0C500.0 600.0 466.7 666.7 466.7 666.7C466.7 666.7 400.0 700.0 400.0 700.0M266.7 400.0C266.7 400.0 166.7 366.7 166.7 366.7C166.7 366.7 133.3 333.3 133.3 333.3C133.3 333.3 100.0 266.7 100.0 266.7C100.0 266.7 100.0 133.3 100.0 133.3C100.0 133.3 133.3 66.7 133.3 66.7C133.3 66.7 166.7 33.3 166.7 33.3C166.7 33.3 266.7 -0.0 266.7 -0.0C266.7 -0.0 400.0 -0.0 400.0 -0.0C400.0 -0.0 500.0 33.3 500.0 33.3C500.0 33.3 533.3 66.7 533.3 66.7C533.3 66.7 566.7 133.3 566.7 133.3C566.7 133.3 566.7 266.7 566.7 266.7C566.7 266.7 533.3 333.3 533.3 333.3C533.3 333.3 500.0 366.7 500.0 366.7C500.0 366.7 400.0 400.0 400.0 400.0M266.7 400.0C266.7 400.0 200.0 366.7 200.0 366.7C200.0 366.7 166.7 333.3 166.7 333.3C166.7 333.3 133.3 266.7 133.3 266.7C133.3 266.7 133.3 133.3 133.3 133.3C133.3 133.3 166.7 66.7 166.7 66.7C166.7 66.7 200.0 33.3 200.0 33.3C200.0 33.3 266.7 -0.0 266.7 -0.0M400.0 -0.0C400.0 -0.0 466.7 33.3 466.7 33.3C466.7 33.3 500.0 66.7 500.0 66.7C500.0 66.7 533.3 133.3 533.3 133.3C533.3 133.3 533.3 266.7 533.3 266.7C533.3 266.7 500.0 333.3 500.0 333.3C500.0 333.3 466.7 366.7 466.7 366.7C466.7 366.7 400.0 400.0 400.0 400.0" glyph-name="8" horiz-adv-x="666.7" unicode="8"/>
      <glyph d="M533.3 466.7C533.3 466.7 500.0 366.7 500.0 366.7C500.0 366.7 433.3 300.0 433.3 300.0C433.3 300.0 333.3 266.7 333.3 266.7C333.3 266.7 300.0 266.7 300.0 266.7C300.0 266.7 200.0 300.0 200.0 300.0C200.0 300.0 133.3 366.7 133.3 366.7C133.3 366.7 100.0 466.7 100.0 466.7C100.0 466.7 100.0 500.0 100.0 500.0C100.0 500.0 133.3 600.0 133.3 600.0C133.3 600.0 200.0 666.7 200.0 666.7C200.0 666.7 300.0 700.0 300.0 700.0C300.0 700.0 366.7 700.0 366.7 700.0C366.7 700.0 466.7 666.7 466.7 666.7C466.7 666.7 533.3 600.0 533.3 600.0C533.3 600.0 566.7 500.0 566.7 500.0C566.7 500.0 566.7 300.0 566.7 300.0C566.7 300.0 533.3 166.7 533.3 166.7C533.3 166.7 500.0 100.0 500.0 100.0C500.0 100.0 433.3 33.3 433.3 33.3C433.3 33.3 333.3 -0.0 333.3 -0.0C333.3 -0.0 233.3 -0.0 233.3 -0.0C233.3 -0.0 166.7 33.3 166.7 33.3C166.7 33.3 133.3 100.0 133.3 100.0C133.3 100.0 133.3 133.3 133.3 133.3C133.3 133.3 166.7 166.7 166.7 166.7C166.7 166.7 200.0 133.3 200.0 133.3C200.0 133.3 166.7 100.0 166.7 100.0M300.0 266.7C300.0 266.7 233.3 300.0 233.3 300.0C233.3 300.0 166.7 366.7 166.7 366.7C166.7 366.7 133.3 466.7 133.3 466.7C133.3 466.7 133.3 500.0 133.3 500.0C133.3 500.0 166.7 600.0 166.7 600.0C166.7 600.0 233.3 666.7 233.3 666.7C233.3 666.7 300.0 700.0 300.0 700.0M366.7 700.0C366.7 700.0 433.3 666.7 433.3 666.7C433.3 666.7 500.0 600.0 500.0 600.0C500.0 600.0 533.3 500.0 533.3 500.0C533.3 500.0 533.3 300.0 533.3 300.0C533.3 300.0 500.0 166.7 500.0 166.7C500.0 166.7 466.7 100.0 466.7 100.0C466.7 100.0 400.0 33.3 400.0 33.3C400.0 33.3 333.3 -0.0 333.3 -0.0" glyph-name="9" horiz-adv-x="666.7" unicode="9"/>
      <glyph d="M333.3 833.3C333.3 833.3 266.7 766.7 266.7 766.7C266.7 766.7 200.0 666.7 200.0 666.7C200.0 666.7 133.3 533.3 133.3 533.3C133.3 533.3 100.0 366.7 100.0 366.7C100.0 366.7 100.0 233.3 100.0 233.3C100.0 233.3 133.3 66.7 133.3 66.7C133.3 66.7 200.0 -66.7 200.0 -66.7C200.0 -66.7 266.7 -166.7 266.7 -166.7C266.7 -166.7 333.3 -233.3 333.3 -233.3C333.3 -233.3 366.7 -233.3 366.7 -233.3M333.3 833.3C333.3 833.3 366.7 833.3 366.7 833.3C366.7 833.3 300.0 766.7 300.0 766.7C300.0 766.7 233.3 666.7 233.3 666.7C233.3 666.7 166.7 533.3 166.7 533.3C166.7 533.3 133.3 366.7 133.3 366.7C133.3 366.7 133.3 233.3 133.3 233.3C133.3 233.3 166.7 66.7 166.7 66.7C166.7 66.7 233.3 -66.7 233.3 -66.7C233.3 -66.7 300.0 -166.7 300.0 -166.7C300.0 -166.7 366.7 -233.3 366.7 -233.3" glyph-name="(" horiz-adv-x="466.7" unicode="("/>
      <glyph d="M100.0 833.3C100.0 833.3 166.7 766.7 166.7 766.7C166.7 766.7 233.3 666.7 233.3 666.7C233.3 666.7 300.0 533.3 300.0 533.3C300.0 533.3 333.3 366.7 333.3 366.7C333.3 366.7 333.3 233.3 333.3 233.3C333.3 233.3 300.0 66.7 300.0 66.7C300.0 66.7 233.3 -66.7 233.3 -66.7C233.3 -66.7 166.7 -166.7 166.7 -166.7C166.7 -166.7 100.0 -233.3 100.0 -233.3C100.0 -233.3 133.3 -233.3 133.3 -233.3M100.0 833.3C100.0 833.3 133.3 833.3 133.3 833.3C133.3 833.3 200.0 766.7 200.0 766.7C200.0 766.7 266.7 666.7 266.7 666.7C266.7 666.7 333.3 533.3 333.3 533.3C333.3 533.3 366.7 366.7 366.7 366.7C366.7 366.7 366.7 233.3 366.7 233.3C366.7 233.3 333.3 66.7 333.3 66.7C333.3 66.7 266.7 -66.7 266.7 -66.7C266.7 -66.7 200.0 -166.7 200.0 -166.7C200.0 -166.7 133.3 -233.3 133.3 -233.3" glyph-name=")" horiz-adv-x="466.7" unicode=")"/>
      <glyph d="M166.7 133.3C166.7 133.3 133.3 100.0 133.3 100.0C133.3 100.0 100.0 133.3 100.0 133.3C100.0 133.3 133.3 166.7 133.3 166.7C133.3 166.7 166.7 133.3 166.7 133.3C166.7 133.3 166.7 66.7 166.7 66.7C166.7 66.7 100.0 -0.0 100.0 -0.0" glyph-name="," horiz-adv-x="266.7" unicode=","/>
      <glyph d="M0.0 700.0C0.0 700.0 466.7 -100.0 466.7 -100.0" glyph-name="\" horiz-adv-x="466.7" unicode="\"/>
      <glyph d="M600.0 433.3C600.0 433.3 566.7 500.0 566.7 500.0C566.7 500.0 500.0 533.3 500.0 533.3C500.0 533.3 400.0 533.3 400.0 533.3C400.0 533.3 333.3 500.0 333.3 500.0C333.3 500.0 300.0 466.7 300.0 466.7C300.0 466.7 266.7 366.7 266.7 366.7C266.7 366.7 266.7 266.7 266.7 266.7C266.7 266.7 300.0 200.0 300.0 200.0C300.0 200.0 366.7 166.7 366.7 166.7C366.7 166.7 466.7 166.7 466.7 166.7C466.7 166.7 533.3 200.0 533.3 200.0C533.3 200.0 566.7 266.7 566.7 266.7M400.0 533.3C400.0 533.3 333.3 466.7 333.3 466.7C333.3 466.7 300.0 366.7 300.0 366.7C300.0 366.7 300.0 266.7 300.0 266.7C300.0 266.7 333.3 200.0 333.3 200.0C333.3 200.0 366.7 166.7 366.7 166.7M600.0 533.3C600.0 533.3 566.7 266.7 566.7 266.7C566.7 266.7 566.7 200.0 566.7 200.0C566.7 200.0 633.3 166.7 633.3 166.7C633.3 166.7 700.0 166.7 700.0 166.7C700.0 166.7 766.7 233.3 766.7 233.3C766.7 233.3 800.0 333.3 800.0 333.3C800.0 333.3 800.0 400.0 800.0 400.0C800.0 400.0 766.7 500.0 766.7 500.0C766.7 500.0 733.3 566.7 733.3 566.7C733.3 566.7 666.7 633.3 666.7 633.3C666.7 633.3 600.0 666.7 600.0 666.7C600.0 666.7 500.0 700.0 500.0 700.0C500.0 700.0 400.0 700.0 400.0 700.0C400.0 700.0 300.0 666.7 300.0 666.7C300.0 666.7 233.3 633.3 233.3 633.3C233.3 633.3 166.7 566.7 166.7 566.7C166.7 566.7 133.3 500.0 133.3 500.0C133.3 500.0 100.0 400.0 100.0 400.0C100.0 400.0 100.0 300.0 100.0 300.0C100.0 300.0 133.3 200.0 133.3 200.0C133.3 200.0 166.7 133.3 166.7 133.3C166.7 133.3 233.3 66.7 233.3 66.7C233.3 66.7 300.0 33.3 300.0 33.3C300.0 33.3 400.0 -0.0 400.0 -0.0C400.0 -0.0 500.0 -0.0 500.0 -0.0C500.0 -0.0 600.0 33.3 600.0 33.3C600.0 33.3 666.7 66.7 666.7 66.7C666.7 66.7 700.0 100.0 700.0 100.0M633.3 533.3C633.3 533.3 600.0 266.7 600.0 266.7C600.0 266.7 600.0 200.0 600.0 200.0C600.0 200.0 633.3 166.7 633.3 166.7" glyph-name="@" horiz-adv-x="900.0" unicode="@"/>
<glyph d="M133.3 400.0C133.3 400.0 733.3 400.0 733.3 400.0M133.3 200.0C133.3 200.0 733.3 200.0 733.3 200.0" glyph-name="=" horiz-adv-x="866.7" unicode="="/>
      <glyph d="M133.3 566.7C133.3 566.7 166.7 533.3 166.7 533.3C166.7 533.3 133.3 500.0 133.3 500.0C133.3 500.0 100.0 533.3 100.0 533.3C100.0 533.3 100.0 566.7 100.0 566.7C100.0 566.7 133.3 633.3 133.3 633.3C133.3 633.3 166.7 666.7 166.7 666.7C166.7 666.7 233.3 700.0 233.3 700.0C233.3 700.0 333.3 700.0 333.3 700.0C333.3 700.0 433.3 666.7 433.3 666.7C433.3 666.7 466.7 633.3 466.7 633.3C466.7 633.3 500.0 566.7 500.0 566.7C500.0 566.7 500.0 500.0 500.0 500.0C500.0 500.0 466.7 433.3 466.7 433.3C466.7 433.3 433.3 400.0 433.3 400.0C433.3 400.0 300.0 333.3 300.0 333.3C300.0 333.3 300.0 233.3 300.0 233.3M333.3 700.0C333.3 700.0 400.0 666.7 400.0 666.7C400.0 666.7 433.3 633.3 433.3 633.3C433.3 633.3 466.7 566.7 466.7 566.7C466.7 566.7 466.7 500.0 466.7 500.0C466.7 500.0 433.3 433.3 433.3 433.3C433.3 433.3 366.7 366.7 366.7 366.7M300.0 66.7C300.0 66.7 266.7 33.3 266.7 33.3C266.7 33.3 300.0 -0.0 300.0 -0.0C300.0 -0.0 333.3 33.3 333.3 33.3C333.3 33.3 300.0 66.7 300.0 66.7" glyph-name="?" horiz-adv-x="600.0" unicode="?"/>
      <glyph d="M366.7 833.3C366.7 833.3 133.3 -233.3 133.3 -233.3M566.7 833.3C566.7 833.3 333.3 -233.3 333.3 -233.3M133.3 400.0C133.3 400.0 600.0 400.0 600.0 400.0M100.0 200.0C100.0 200.0 566.7 200.0 566.7 200.0" glyph-name="#" horiz-adv-x="700.0" unicode="#"/>
      <glyph d="M133.3 700.0C133.3 700.0 100.0 466.7 100.0 466.7M166.7 700.0C166.7 700.0 100.0 466.7 100.0 466.7" glyph-name="'" horiz-adv-x="266.7" unicode="'"/>
      <glyph d="M666.7 833.3C666.7 833.3 66.7 -233.3 66.7 -233.3" glyph-name="/" horiz-adv-x="733.3" unicode="/"/>
      <glyph d="M133.3 400.0C133.3 400.0 100.0 366.7 100.0 366.7C100.0 366.7 133.3 333.3 133.3 333.3C133.3 333.3 166.7 366.7 166.7 366.7C166.7 366.7 133.3 400.0 133.3 400.0M166.7 133.3C166.7 133.3 133.3 100.0 133.3 100.0C133.3 100.0 100.0 133.3 100.0 133.3C100.0 133.3 133.3 166.7 133.3 166.7C133.3 166.7 166.7 133.3 166.7 133.3C166.7 133.3 166.7 66.7 166.7 66.7C166.7 66.7 100.0 -0.0 100.0 -0.0" glyph-name=";" horiz-adv-x="266.7" unicode=";"/>
      <glyph d="M133.3 700.0C133.3 700.0 100.0 466.7 100.0 466.7M166.7 700.0C166.7 700.0 100.0 466.7 100.0 466.7M400.0 700.0C400.0 700.0 366.7 466.7 366.7 466.7M433.3 700.0C433.3 700.0 366.7 466.7 366.7 466.7" glyph-name="&quot;" horiz-adv-x="533.3" unicode="&quot;"/>
      <glyph d="M133.3 400.0C133.3 400.0 100.0 366.7 100.0 366.7C100.0 366.7 133.3 333.3 133.3 333.3C133.3 333.3 166.7 366.7 166.7 366.7C166.7 366.7 133.3 400.0 133.3 400.0M133.3 166.7C133.3 166.7 100.0 133.3 100.0 133.3C100.0 133.3 133.3 100.0 133.3 100.0C133.3 100.0 166.7 133.3 166.7 133.3C166.7 133.3 133.3 166.7 133.3 166.7" glyph-name=":" horiz-adv-x="266.7" unicode=":"/>
      <glyph d="M666.7 600.0C666.7 600.0 133.3 300.0 133.3 300.0C133.3 300.0 666.7 -0.0 666.7 -0.0" glyph-name="&lt;" horiz-adv-x="800.0" unicode="&lt;"/>
      <glyph d="M133.3 600.0C133.3 600.0 666.7 300.0 666.7 300.0C666.7 300.0 133.3 -0.0 133.3 -0.0" glyph-name="&gt;" horiz-adv-x="800.0" unicode="&gt;"/>
      <glyph d="M133.3 300.0C133.3 300.0 733.3 300.0 733.3 300.0" glyph-name="-" horiz-adv-x="866.7" unicode="-"/>
      <glyph d="M166.7 700.0C166.7 700.0 133.3 633.3 133.3 633.3C133.3 633.3 166.7 233.3 166.7 233.3C166.7 233.3 200.0 633.3 200.0 633.3C200.0 633.3 166.7 700.0 166.7 700.0M166.7 633.3C166.7 633.3 166.7 433.3 166.7 433.3M166.7 66.7C166.7 66.7 133.3 33.3 133.3 33.3C133.3 33.3 166.7 -0.0 166.7 -0.0C166.7 -0.0 200.0 33.3 200.0 33.3C200.0 33.3 166.7 66.7 166.7 66.7" glyph-name="!" horiz-adv-x="333.3" unicode="!"/>
      <glyph d="M433.3 600.0C433.3 600.0 433.3 -0.0 433.3 -0.0M133.3 300.0C133.3 300.0 733.3 300.0 733.3 300.0" glyph-name="+" horiz-adv-x="866.7" unicode="+"/>
      <glyph d="M266.7 500.0C266.7 500.0 266.7 100.0 266.7 100.0M100.0 400.0C100.0 400.0 433.3 200.0 433.3 200.0M433.3 400.0C433.3 400.0 100.0 200.0 100.0 200.0" glyph-name="*" horiz-adv-x="533.3" unicode="*"/>
      <glyph d="M133.3 166.7C133.3 166.7 100.0 133.3 100.0 133.3C100.0 133.3 133.3 100.0 133.3 100.0C133.3 100.0 166.7 133.3 166.7 133.3C166.7 133.3 133.3 166.7 133.3 166.7" glyph-name="." horiz-adv-x="266.7" unicode="."/>
      <glyph d="M100.0 200.0C100.0 200.0 100.0 266.7 100.0 266.7C100.0 266.7 133.3 366.7 133.3 366.7C133.3 366.7 200.0 400.0 200.0 400.0C200.0 400.0 266.7 400.0 266.7 400.0C266.7 400.0 333.3 366.7 333.3 366.7C333.3 366.7 466.7 266.7 466.7 266.7C466.7 266.7 533.3 233.3 533.3 233.3C533.3 233.3 600.0 233.3 600.0 233.3C600.0 233.3 666.7 266.7 666.7 266.7C666.7 266.7 700.0 333.3 700.0 333.3M100.0 266.7C100.0 266.7 133.3 333.3 133.3 333.3C133.3 333.3 200.0 366.7 200.0 366.7C200.0 366.7 266.7 366.7 266.7 366.7C266.7 366.7 333.3 333.3 333.3 333.3C333.3 333.3 466.7 233.3 466.7 233.3C466.7 233.3 533.3 200.0 533.3 200.0C533.3 200.0 600.0 200.0 600.0 200.0C600.0 200.0 666.7 233.3 666.7 233.3C666.7 233.3 700.0 333.3 700.0 333.3C700.0 333.3 700.0 400.0 700.0 400.0" glyph-name="tildeoperator" horiz-adv-x="800.0" unicode="&#x223C;"/>
      <glyph unicode="$" glyph-name="dollar" horiz-adv-x="630" d="M 315 788 L 315 -126 M 441 788 L 441 -126 M 567 567 L 536 536 L 567 504 L 598 536 L 598 567 L 536 630 L 441 662 L 315 662 L 220 630 L 158 567 L 158 504 L 189 441 L 220 410 L 284 378 L 472 315 L 536 284 L 598 220 M 158 504 L 220 441 L 284 410 L 472 346 L 536 315 L 567 284 L 598 220 L 598 94.5 L 536 31.5 L 441 0 L 315 0 L 220 31.5 L 158 94.5 L 158 126 L 189 158 L 220 126 L 189 94.5" />
      <glyph unicode="%" glyph-name="percent" horiz-adv-x="756" d="M 724 662 L 158 0 M 315 662 L 378 598 L 378 536 L 346 472 L 284 441 L 220 441 L 158 504 L 158 567 L 189 630 L 252 662 L 315 662 L 378 630 L 472 598 L 567 598 L 662 630 L 724 662 M 598 220 L 536 189 L 504 126 L 504 63 L 567 0 L 630 0 L 693 31.5 L 724 94.5 L 724 158 L 662 220 L 598 220" />
      <glyph unicode="&amp;" glyph-name="ampersand" horiz-adv-x="788" d="M 724 410 L 693 378 L 724 346 L 756 378 L 756 410 L 724 441 L 693 441 L 662 410 L 630 346 L 567 189 L 504 94.5 L 441 31.5 L 378 0 L 284 0 L 189 31.5 L 158 94.5 L 158 189 L 189 252 L 378 378 L 441 441 L 472 504 L 472 567 L 441 630 L 378 662 L 315 630 L 284 567 L 284 504 L 315 410 L 378 315 L 536 94.5 L 598 31.5 L 693 0 L 724 0 L 756 31.5 L 756 63 M 284 0 L 220 31.5 L 189 94.5 L 189 189 L 220 252 L 284 315 M 284 504 L 315 441 L 567 94.5 L 630 31.5 L 693 0" />
      <glyph unicode="&apos;" glyph-name="quotesingle" horiz-adv-x="252" d="M 189 662 L 158 441 M 220 662 L 158 441" />
      <glyph unicode="[" glyph-name="bracketleft" horiz-adv-x="441" d="M 189 788 L 189 -220 M 220 788 L 220 -220 M 189 788 L 410 788 M 189 -220 L 410 -220" />
      <glyph unicode="]" glyph-name="bracketright" horiz-adv-x="441" d="M 346 788 L 346 -220 M 378 788 L 378 -220 M 158 788 L 378 788 M 158 -220 L 378 -220" />
      <glyph unicode="^" glyph-name="asciicircum" horiz-adv-x="693" d="M 158 220 L 410 378 L 662 220 M 158 220 L 410 346 L 662 220" />
      <glyph unicode="`" glyph-name="grave" horiz-adv-x="378" d="M 189 662 L 346 472 M 189 662 L 158 630 L 346 472" />
      <glyph unicode="{" glyph-name="braceleft" horiz-adv-x="441" d="M 346 788 L 284 756 L 252 724 L 220 662 L 220 598 L 252 536 L 284 504 L 315 441 L 315 378 L 252 315 M 284 756 L 252 693 L 252 630 L 284 567 L 315 536 L 346 472 L 346 410 L 315 346 L 189 284 L 315 220 L 346 158 L 346 94.5 L 315 31.5 L 284 0 L 252 -63 L 252 -126 L 284 -189 M 252 252 L 315 189 L 315 126 L 284 63 L 252 31.5 L 220 -31.5 L 220 -94.5 L 252 -158 L 284 -189 L 346 -220" />
      <glyph unicode="|" glyph-name="bar" horiz-adv-x="252" d="M 189 788 L 189 -220" />
      <glyph unicode="}" glyph-name="braceright" horiz-adv-x="441" d="M 220 788 L 284 756 L 315 724 L 346 662 L 346 598 L 315 536 L 284 504 L 252 441 L 252 378 L 315 315 M 284 756 L 315 693 L 315 630 L 284 567 L 252 536 L 220 472 L 220 410 L 252 346 L 378 284 L 252 220 L 220 158 L 220 94.5 L 252 31.5 L 284 0 L 315 -63 L 315 -126 L 284 -189 M 315 252 L 252 189 L 252 126 L 284 63 L 315 31.5 L 346 -31.5 L 346 -94.5 L 315 -158 L 284 -189 L 220 -220" />
      <glyph unicode="&#xa0;" glyph-name="nbspace" horiz-adv-x="378" />
      <glyph unicode="&#xa2;" glyph-name="cent" horiz-adv-x="151" d="M 536 346 L 504 315 L 536 284 L 567 315 L 567 346 L 504 410 L 441 441 L 346 441 L 252 410 L 189 346 L 158 252 L 158 189 L 189 94.5 L 252 31.5 L 346 0 L 410 0 L 504 31.5 L 567 94.5 M 346 441 L 284 410 L 220 346 L 189 252 L 189 189 L 220 94.5 L 284 31.5 L 346 0 M 340 510 L 340 -94.5" />
      <glyph unicode="&#xa5;" glyph-name="yen" horiz-adv-x="662" d="M 158 662 L 378 315 L 378 0 M 189 662 L 410 315 L 410 0 M 630 662 L 410 315 M 94.5 662 L 284 662 M 504 662 L 693 662 M 284 0 L 504 0 M 227 170 L 567 170 M 227 246 L 567 246" />
      <glyph unicode="&#xa6;" glyph-name="brokenbar" horiz-adv-x="75.6" d="M 227 236 L 227 -66.1 M 227 709 L 227 406" />
      <glyph unicode="&#xa9;" glyph-name="copyright" horiz-adv-x="693" d="M 378 662 L 315 630 L 252 567 L 220 504 L 189 410 L 189 252 L 220 158 L 252 94.5 L 315 31.5 L 378 0 L 504 0 L 567 31.5 L 630 94.5 L 662 158 L 693 252 L 693 410 L 662 504 L 630 567 L 567 630 L 504 662 L 378 662 M 410 630 L 315 598 L 252 504 L 220 410 L 220 252 L 252 158 L 315 63 L 410 31.5 L 472 31.5 L 567 63 L 630 158 L 662 252 L 662 410 L 630 504 L 567 598 L 472 630 L 410 630 M 551 410 L 536 441 L 504 472 L 472 488 L 410 488 L 378 472 L 346 441 L 331 410 L 315 362 L 315 284 L 331 236 L 346 205 L 378 173 L 410 158 L 472 158 L 504 173 L 536 205 L 551 236 M 551 410 L 536 410 L 520 441 L 504 457 L 472 472 L 410 472 L 378 457 L 346 410 L 331 362 L 331 284 L 346 236 L 378 189 L 410 173 L 472 173 L 504 189 L 520 205 L 536 236 L 551 236" />
      <glyph unicode="&#xab;" glyph-name="guillemotleft" horiz-adv-x="454" d="M 277 454 L 75.6 227 L 277 0 M 403 454 L 202 227 L 403 0" />
      <glyph unicode="&#xae;" glyph-name="registered" horiz-adv-x="693" d="M 378 662 L 315 630 L 252 567 L 220 504 L 189 410 L 189 252 L 220 158 L 252 94.5 L 315 31.5 L 378 0 L 504 0 L 567 31.5 L 630 94.5 L 662 158 L 693 252 L 693 410 L 662 504 L 630 567 L 567 630 L 504 662 L 378 662 M 410 630 L 315 598 L 252 504 L 220 410 L 220 252 L 252 158 L 315 63 L 410 31.5 L 472 31.5 L 567 63 L 630 158 L 662 252 L 662 410 L 630 504 L 567 598 L 472 630 L 410 630 M 331 488 L 331 158 M 346 472 L 346 158 L 331 158 M 331 488 L 457 488 L 504 472 L 520 457 L 536 425 L 536 378 L 520 346 L 504 331 L 457 315 L 346 315 M 346 472 L 457 472 L 504 457 L 520 425 L 520 378 L 504 346 L 457 331 L 346 331 M 425 315 L 520 158 L 536 158 M 441 315 L 536 158" />
      <glyph unicode="&#xb0;" glyph-name="degree" horiz-adv-x="249" d="M 236 765 L 208 756 L 189 737 L 180 718 L 170 680 L 170 652 L 180 614 L 189 595 L 208 576 L 236 567 L 255 567 L 284 576 L 302 595 L 312 614 L 321 652 L 321 680 L 312 718 L 302 737 L 284 756 L 255 765 L 236 765 M 236 765 L 217 756 L 198 737 L 189 718 L 180 680 L 180 652 L 189 614 L 198 595 L 217 576 L 236 567 M 255 567 L 274 576 L 293 595 L 302 614 L 312 652 L 312 680 L 302 718 L 293 737 L 274 756 L 255 765" />
      <glyph unicode="&#xb1;" glyph-name="plusminus" horiz-adv-x="655" d="M 605 37.8 L 1058.4 37.8 M 832 643 L 832 189 M 605 416 L 1058.4 416" />
      <glyph unicode="&#xbb;" glyph-name="guillemotright" horiz-adv-x="454" d="M 75.6 454 L 277 227 L 75.6 0 M 202 454 L 403 227 L 202 0" />
      <glyph unicode="&#xd7;" glyph-name="multiply" horiz-adv-x="567" d="M 189 441 L 536 0 L 567 0 M 189 441 L 220 441 L 567 0 M 567 441 L 536 441 L 189 0 M 567 441 L 220 0 L 189 0" />
      <glyph unicode="&#xf7;" glyph-name="divide" horiz-adv-x="614" d="M 346 567 L 315 536 L 346 504 L 378 536 L 346 567 M 346 252 L 315 220 L 346 189 L 378 220 L 346 252 M 142 378 L 567 378" />
      <glyph unicode="&#x2013;" glyph-name="endash" horiz-adv-x="614" d="M 142 284 L 567 284" />
      <glyph unicode="&#x2014;" glyph-name="emdash" horiz-adv-x="819" d="M 189 284 L 756 284" />
      <glyph unicode="&#x201c;" glyph-name="quotedblleft" horiz-adv-x="472" d="M 198 709 L 269 539 M 198 709 L 184 680 L 269 539 M 340 709 L 411 539 M 340 709 L 326 680 L 411 539" />
      <glyph unicode="&#x201d;" glyph-name="quotedblright" horiz-adv-x="472" d="M 170 652 L 99.2 482 M 170 652 L 184 624 L 99.2 482 M 312 652 L 241 482 M 312 652 L 326 624 L 241 482" />
      <glyph unicode="&#x2039;" glyph-name="guilsinglleft" horiz-adv-x="302" d="M 277 454 L 75.6 227 L 277 0" />
      <glyph unicode="&#x203a;" glyph-name="guilsinglright" horiz-adv-x="302" d="M 75.6 454 L 277 227 L 75.6 0" />
      <glyph unicode="&#x20ac;" glyph-name="Euro" horiz-adv-x="662" d="M 598 567 L 630 472 L 630 662 L 598 567 L 536 630 L 441 662 L 378 662 L 284 630 L 220 567 L 189 504 L 158 410 L 158 252 L 189 158 L 220 94.5 L 284 31.5 L 378 0 L 441 0 L 536 31.5 L 598 94.5 L 630 158 M 378 662 L 315 630 L 252 567 L 220 504 L 189 410 L 189 252 L 220 158 L 252 94.5 L 315 31.5 L 378 0 M 94.5 227 L 435 227 M 94.5 302 L 435 302" />
    </font>
</defs>
</svg>
