<?xml version="1.0" encoding="UTF-8" standalone="no"?>
<svg
   height="24"
   viewBox="0 0 24 24"
   width="24"
   version="1.1"
   id="svg2"
   sodipodi:docname="duplicate-node.svg"
   inkscape:version="1.4.2 (1:1.4.2+202505120738+ebf0e940d0)"
   xmlns:inkscape="http://www.inkscape.org/namespaces/inkscape"
   xmlns:sodipodi="http://sodipodi.sourceforge.net/DTD/sodipodi-0.dtd"
   xmlns="http://www.w3.org/2000/svg"
   xmlns:svg="http://www.w3.org/2000/svg">
  <defs
     id="defs2" />
  <sodipodi:namedview
     id="namedview2"
     pagecolor="#ffffff"
     bordercolor="#666666"
     borderopacity="1.0"
     inkscape:showpageshadow="2"
     inkscape:pageopacity="0.0"
     inkscape:pagecheckerboard="0"
     inkscape:deskcolor="#d1d1d1"
     inkscape:zoom="24.3125"
     inkscape:cx="12.688946"
     inkscape:cy="11.866324"
     inkscape:window-width="2560"
     inkscape:window-height="1372"
     inkscape:window-x="1920"
     inkscape:window-y="0"
     inkscape:window-maximized="1"
     inkscape:current-layer="svg2" />
  <style
     type="text/css"
     id="current-color-scheme">.ColorScheme-Text{color:#363636;}</style>
  <g
     id="g1">
    <path
       style="fill:#363636;fill-opacity:1;stroke:none;stroke-width:0.409163"
       id="path1"
       sodipodi:type="arc"
       sodipodi:cx="8.7012119"
       sodipodi:cy="8.6638813"
       sodipodi:rx="6.669836"
       sodipodi:ry="6.7312484"
       sodipodi:start="5.673664"
       sodipodi:end="5.6735508"
       sodipodi:arc-type="arc"
       d="M 14.169958,4.8104097 A 6.669836,6.7312484 0 0 1 12.519681,14.182872 6.669836,6.7312484 0 0 1 3.2326817,12.517665 6.669836,6.7312484 0 0 1 4.882433,3.1451088 6.669836,6.7312484 0 0 1 14.169526,4.8097849"
       sodipodi:open="true" />
    <path
       style="fill:#3daee9;fill-opacity:1;stroke:#ffffff;stroke-width:0.483705;stroke-dasharray:none;stroke-opacity:1"
       id="path2"
       sodipodi:type="arc"
       sodipodi:cx="15.337005"
       sodipodi:cy="15.429541"
       sodipodi:rx="6.6630073"
       sodipodi:ry="6.7217288"
       sodipodi:start="5.673664"
       sodipodi:end="5.6735508"
       sodipodi:open="true"
       sodipodi:arc-type="arc"
       d="M 20.800152,11.581519 A 6.6630073,6.7217288 0 0 1 19.151565,20.940726 6.6630073,6.7217288 0 0 1 9.8740733,19.277874 6.6630073,6.7217288 0 0 1 11.522136,9.918573 6.6630073,6.7217288 0 0 1 20.79972,11.580895" />
    <path
       d="m 16.071945,14.796279 h 3.153845 q 0.346154,0 0.567307,0.25 0.25,0.25 0.240385,0.557692 v 0.03846 q 0,0.336538 -0.240385,0.567307 -0.249999,0.240385 -0.567307,0.240385 h -3.153845 v 2.980768 q 0,0.384615 -0.278846,0.663461 -0.278846,0.278846 -0.634615,0.269231 h -0.03846 q -0.384615,0.01923 -0.653846,-0.259616 -0.259615,-0.288461 -0.259615,-0.673076 v -2.980768 h -3.153845 q -0.346154,0 -0.576923,-0.25 -0.230769,-0.25 -0.230769,-0.557692 v -0.03846 q 0,-0.346154 0.230769,-0.557692 0.25,-0.25 0.576923,-0.25 h 3.153845 v -2.951922 q 0,-0.384615 0.269231,-0.644231 0.259615,-0.259615 0.64423,-0.259615 h 0.03846 q 0.384615,0 0.634615,0.278846 0.278846,0.278846 0.278846,0.625 z"
       id="text4"
       style="font-size:19.6923px;line-height:1000;font-family:Dyuthi;-inkscape-font-specification:'Dyuthi, Normal';letter-spacing:0px;word-spacing:0px;fill:#ffffff;stroke-width:0.49231"
       transform="scale(1.0112217,0.9889028)"
       aria-label="+" />
  </g>
</svg>
