<?xml version="1.0" encoding="UTF-8" standalone="no"?>
<!-- Created with Inkscape (http://www.inkscape.org/) -->

<svg
   width="24"
   height="24"
   viewBox="0 0 24 24.000001"
   version="1.1"
   id="svg5"
   inkscape:version="1.2.1 (9c6d41e410, 2022-07-14, custom)"
   sodipodi:docname="view-media-lyrics.svg"
   xmlns:inkscape="http://www.inkscape.org/namespaces/inkscape"
   xmlns:sodipodi="http://sodipodi.sourceforge.net/DTD/sodipodi-0.dtd"
   xmlns="http://www.w3.org/2000/svg"
   xmlns:svg="http://www.w3.org/2000/svg">
  <sodipodi:namedview
     id="namedview7"
     pagecolor="#ffffff"
     bordercolor="#000000"
     borderopacity="0.25"
     inkscape:showpageshadow="2"
     inkscape:pageopacity="0.0"
     inkscape:pagecheckerboard="0"
     inkscape:deskcolor="#d1d1d1"
     inkscape:document-units="px"
     showgrid="false"
     inkscape:zoom="33.708333"
     inkscape:cx="12"
     inkscape:cy="12"
     inkscape:window-width="1920"
     inkscape:window-height="1012"
     inkscape:window-x="0"
     inkscape:window-y="0"
     inkscape:window-maximized="1"
     inkscape:current-layer="svg5"
     showguides="false" />
  <defs
     id="defs2">
    <style
       id="current-color-scheme"
       type="text/css">
      .ColorScheme-Text { color:#363636; }
    </style>
  </defs>
  <path
     id="path285"
     style="opacity:1;fill:currentColor;fill-opacity:1;stroke-width:0.857143"
     class="ColorScheme-Text"
     d="M 3,3 V 4 H 21 V 3 Z m 12,3 v 9.763672 C 14.44994,15.271811 13.737897,14.999928 13,15 c -1.656852,0 -3,1.343148 -3,3 0,1.656852 1.343148,3 3,3 1.656852,0 3,-1.343148 3,-3 v -8 l 5,1.820312 V 9.8203125 C 21,8.7123157 20.107997,7.4950748 19,7.0917969 L 16,6 Z M 3,7 v 1 h 9 V 7 Z m 13,0 3,1.0917969 c 0.553997,0.2016388 1,0.8092829 1,1.3632812 V 10.455078 L 16,9 Z M 3,11 v 1 h 9 v -1 z m 0,4 v 1 h 4 v -1 z m 10,1 c 1.104569,0 2,0.895432 2,2 0,1.104568 -0.895431,2 -2,2 -1.104568,0 -2,-0.895432 -2,-2 0,-1.104568 0.895432,-2 2,-2 z M 3,19 v 1 h 4 v -1 z" />
</svg>
