<?xml version="1.0" encoding="UTF-8" standalone="no"?>
<!-- Created with Inkscape (http://www.inkscape.org/) -->

<svg
   width="64"
   height="64"
   viewBox="0 0 64 64"
   version="1.1"
   id="svg69118"
   inkscape:version="1.2.1 (9c6d41e410, 2022-07-14, custom)"
   sodipodi:docname="dialog-password.svg"
   xmlns:inkscape="http://www.inkscape.org/namespaces/inkscape"
   xmlns:sodipodi="http://sodipodi.sourceforge.net/DTD/sodipodi-0.dtd"
   xmlns:xlink="http://www.w3.org/1999/xlink"
   xmlns="http://www.w3.org/2000/svg"
   xmlns:svg="http://www.w3.org/2000/svg">
  <sodipodi:namedview
     id="namedview69120"
     pagecolor="#ffffff"
     bordercolor="#666666"
     borderopacity="1.0"
     inkscape:pageshadow="2"
     inkscape:pageopacity="0.0"
     inkscape:pagecheckerboard="0"
     inkscape:document-units="px"
     showgrid="false"
     units="px"
     inkscape:zoom="12.921875"
     inkscape:cx="32"
     inkscape:cy="32"
     inkscape:window-width="1920"
     inkscape:window-height="1029"
     inkscape:window-x="0"
     inkscape:window-y="0"
     inkscape:window-maximized="1"
     inkscape:current-layer="svg69118"
     inkscape:showpageshadow="2"
     inkscape:deskcolor="#d1d1d1" />
  <defs
     id="defs69115">
    <linearGradient
       inkscape:collect="always"
       id="linearGradient115183">
      <stop
         style="stop-color:#fedf00;stop-opacity:1;"
         offset="0"
         id="stop115179" />
      <stop
         style="stop-color:#ffbb01;stop-opacity:1"
         offset="1"
         id="stop115181" />
    </linearGradient>
    <linearGradient
       inkscape:collect="always"
       xlink:href="#linearGradient115183"
       id="linearGradient8763"
       x1="16"
       y1="1.0351562"
       x2="16"
       y2="29.9375"
       gradientUnits="userSpaceOnUse"
       gradientTransform="matrix(2,0,0,2.0067577,2e-7,0.9226924)" />
    <linearGradient
       inkscape:collect="always"
       xlink:href="#linearGradient129670"
       id="linearGradient9363"
       gradientUnits="userSpaceOnUse"
       gradientTransform="matrix(2,0,0,2.0067576,9e-7,0.9226902)"
       x1="16"
       y1="1.0351573"
       x2="16"
       y2="29.9375" />
    <linearGradient
       inkscape:collect="always"
       id="linearGradient129670">
      <stop
         style="stop-color:#26ade9;stop-opacity:1;"
         offset="0"
         id="stop129666" />
      <stop
         style="stop-color:#0580d8;stop-opacity:0.99607843"
         offset="1"
         id="stop129668" />
    </linearGradient>
  </defs>
  <path
     id="path5150"
     style="color:#000000;fill:url(#linearGradient8763);fill-opacity:1;stroke-width:2.00338;stroke-linecap:round;stroke-linejoin:round;-inkscape-stroke:none"
     d="M 32,3 C 26.784558,3.36657 23.2767,3.8075344 18.609375,6.9116095 14.160855,9.3782338 9.0936136,8.8724967 6.0039066,8.9497231 4.8978574,8.947667 4.0001089,9.8466926 4,10.956481 v 20.067576 0.0039 C 4.00745,37.426297 8.4455101,44.60082 14.226563,50.523325 19.441586,55.86577 25.811996,60.216335 32,61.000009 38.188002,60.216339 44.558415,55.86577 49.773441,50.523325 55.554493,44.60082 59.992562,37.426297 60,31.027987 v -0.0039 -20.067576 C 59.999894,9.8466926 59.102143,8.947667 57.996095,8.9497231 54.906388,8.8724967 49.839149,9.3743144 45.390626,6.9076901 40.723301,3.8036155 37.215442,3.3665712 32,3 Z"
     sodipodi:nodetypes="cccccscccsccccc" />
  <path
     id="path5150-06"
     style="color:#000000;fill:url(#linearGradient9363);fill-opacity:1;stroke-width:2.00338;stroke-linecap:round;stroke-linejoin:round;-inkscape-stroke:none"
     d="M 32,3 C 31.92015,3.00561 31.848588,3.013875 31.769532,3.019533 V 30.929687 H 60 V 10.957031 C 59.999894,9.8472433 59.102143,8.9471628 57.996095,8.9492185 54.906384,8.8719926 49.839152,9.3728741 45.390626,6.9062497 40.723301,3.8021747 37.215446,3.3665712 32,3 Z M 31.769532,30.929687 H 4 v 0.09375 0.0039 c 0.00745,6.39831 4.4455101,13.573595 10.226563,19.496096 5.150539,5.276387 11.427227,9.584594 17.542969,10.44531 z" />
  <path
     id="path2206"
     style="color:#000000;opacity:0.2;fill:#000000;stroke-width:2;stroke-linecap:round;stroke-linejoin:round"
     d="M 32,3 C 26.784563,3.3665684 23.276694,3.8080371 18.609375,6.9121095 14.160859,9.3787312 9.0936064,8.8719926 6.0039062,8.9492189 4.8978551,8.9471628 4.0001096,9.8472444 4,10.957031 v 20.066406 0.0039 C 4.007559,37.425634 8.4455165,44.600923 14.226563,50.523423 19.441582,55.865861 25.812003,60.216312 32,60.999982 38.187998,60.216331 44.558419,55.865876 49.773438,50.523438 55.554486,44.600938 59.992562,37.425647 60,31.027343 v -0.0039 -20.066406 C 59.999894,9.8472444 59.102143,8.9471628 57.996095,8.9492189 54.906391,8.8719918 49.839145,9.3748251 45.390626,6.908203 40.723305,3.804131 37.215437,3.3665711 32,3 Z m 0,1.0078124 c 5.14127,0.3630916 8.35163,0.7526721 12.837893,3.7363283 a 1.0001,1.0001 0 0 0 0.06641,0.037115 c 4.780467,2.6506823 10.112182,2.0960813 13.066405,2.169922 a 1.0001,1.0001 0 0 0 0.02948,0 c 0.563161,-0.00105 1.003854,0.4333603 1.003907,1.0039063 V 31.02539 c -0.007,5.936748 -4.265783,12.986047 -9.943544,18.802736 C 43.97695,55.03593 37.77967,59.174792 32,59.955079 26.220367,59.174773 20.025003,55.03593 14.941406,49.828126 9.2636515,44.011445 5.005061,36.962164 4.998047,31.02539 V 10.955078 c 5.63e-5,-0.570549 0.4407409,-1.0049529 1.0039063,-1.003906 a 1.0001,1.0001 0 0 0 0.029291,0 C 8.9846336,9.8773533 14.316795,10.43801 19.097656,7.7871094 A 1.0001,1.0001 0 0 0 19.164063,7.74414 C 23.653061,4.7586646 26.854353,4.3710711 32,4.0078124 Z" />
</svg>
