<?xml version="1.0" encoding="UTF-8" standalone="no"?>
<!-- Created with Inkscape (http://www.inkscape.org/) -->

<svg
   width="64"
   height="64"
   viewBox="0 0 64 64"
   version="1.1"
   id="svg5"
   inkscape:version="1.2.1 (9c6d41e410, 2022-07-14, custom)"
   sodipodi:docname="image-missing.svg"
   xmlns:inkscape="http://www.inkscape.org/namespaces/inkscape"
   xmlns:sodipodi="http://sodipodi.sourceforge.net/DTD/sodipodi-0.dtd"
   xmlns:xlink="http://www.w3.org/1999/xlink"
   xmlns="http://www.w3.org/2000/svg"
   xmlns:svg="http://www.w3.org/2000/svg">
  <sodipodi:namedview
     id="namedview7"
     pagecolor="#ffffff"
     bordercolor="#000000"
     borderopacity="0.25"
     inkscape:showpageshadow="2"
     inkscape:pageopacity="0.0"
     inkscape:pagecheckerboard="0"
     inkscape:deskcolor="#d1d1d1"
     inkscape:document-units="px"
     showgrid="false"
     inkscape:zoom="12.65625"
     inkscape:cx="32"
     inkscape:cy="32"
     inkscape:window-width="1920"
     inkscape:window-height="1012"
     inkscape:window-x="0"
     inkscape:window-y="0"
     inkscape:window-maximized="1"
     inkscape:current-layer="svg5"
     showguides="false" />
  <defs
     id="defs2">
    <linearGradient
       inkscape:collect="always"
       xlink:href="#linearGradient1407"
       id="linearGradient2220"
       x1="11.816092"
       y1="11.699429"
       x2="19.925652"
       y2="20.53754"
       gradientUnits="userSpaceOnUse"
       gradientTransform="matrix(2.3333333,0,0,2.3333333,-5.3333323,-5.3333321)" />
    <linearGradient
       inkscape:collect="always"
       id="linearGradient1407">
      <stop
         style="stop-color:#e96311;stop-opacity:1;"
         offset="0"
         id="stop1403" />
      <stop
         style="stop-color:#da3f04;stop-opacity:1"
         offset="1"
         id="stop1405" />
    </linearGradient>
  </defs>
  <path
     id="rect3652"
     style="fill:#7d7d7b;stroke-width:3.13877;stroke-linecap:round;stroke-linejoin:round"
     d="M 4.9999999,10 H 58.999999 c 0.554,0 1.000003,0.446 1.000003,1 v 42.000005 c 0,0.554003 -0.446003,1.000002 -1.000003,1.000002 H 4.9999999 C 4.446,54.000007 4,53.554008 4,53.000005 V 11 c 0,-0.554 0.446,-1 0.9999999,-1 z"
     sodipodi:nodetypes="sssssssss" />
  <path
     id="rect855"
     style="fill:#fafafa;stroke-width:3.13877;stroke-linecap:round;stroke-linejoin:round"
     d="M 5.0000002,11.000001 H 58.999999 v 42 H 5.0000002 Z"
     sodipodi:nodetypes="ccccc" />
  <path
     id="path597"
     style="fill:url(#linearGradient2220);fill-opacity:1;stroke-width:4.66666"
     d="M 32 18 C 24.268029 18 17.999999 24.268029 18 32 C 18 39.73197 24.26803 46 32 46 C 39.73197 46 46 39.73197 46 32 C 46.000001 24.268029 39.731971 18 32 18 z M 32 21 C 34.496031 21 36.796681 21.833465 38.642578 23.234375 L 23.234375 38.642578 C 21.833465 36.796681 21 34.496031 21 32 C 20.999999 25.924879 25.924879 21 32 21 z M 40.765625 25.357422 C 42.166535 27.203319 43 29.503969 43 32 C 43 38.07512 38.07512 43 32 43 C 29.503969 43 27.203319 42.166535 25.357422 40.765625 L 40.765625 25.357422 z " />
</svg>
