<?xml version="1.0" encoding="UTF-8" standalone="no"?>
<!-- Created with Inkscape (http://www.inkscape.org/) -->

<svg
   width="64"
   height="64"
   viewBox="0 0 16.933333 16.933333"
   version="1.1"
   id="svg5"
   inkscape:version="1.2.1 (9c6d41e410, 2022-07-14)"
   sodipodi:docname="weather-many-clouds.svg"
   xmlns:inkscape="http://www.inkscape.org/namespaces/inkscape"
   xmlns:sodipodi="http://sodipodi.sourceforge.net/DTD/sodipodi-0.dtd"
   xmlns:xlink="http://www.w3.org/1999/xlink"
   xmlns="http://www.w3.org/2000/svg"
   xmlns:svg="http://www.w3.org/2000/svg">
  <sodipodi:namedview
     id="namedview7"
     pagecolor="#ffffff"
     bordercolor="#666666"
     borderopacity="1.0"
     inkscape:pageshadow="2"
     inkscape:pageopacity="0.0"
     inkscape:pagecheckerboard="0"
     inkscape:document-units="px"
     showgrid="false"
     units="px"
     height="48px"
     inkscape:zoom="12.375"
     inkscape:cx="32"
     inkscape:cy="32"
     inkscape:window-width="1920"
     inkscape:window-height="1007"
     inkscape:window-x="0"
     inkscape:window-y="0"
     inkscape:window-maximized="1"
     inkscape:current-layer="svg5"
     inkscape:lockguides="true"
     inkscape:showpageshadow="2"
     inkscape:deskcolor="#d1d1d1" />
  <defs
     id="defs2">
    <linearGradient
       inkscape:collect="always"
       xlink:href="#linearGradient1964"
       id="linearGradient1368"
       x1="60"
       y1="58.999996"
       x2="20.857794"
       y2="39.388199"
       gradientUnits="userSpaceOnUse"
       gradientTransform="matrix(0.26458334,0,0,0.26458334,-1.8520833,-2.9104166)" />
    <linearGradient
       inkscape:collect="always"
       id="linearGradient1468">
      <stop
         style="stop-color:#d6eeff;stop-opacity:1"
         offset="0"
         id="stop1464" />
      <stop
         style="stop-color:#ebf6ff;stop-opacity:1"
         offset="0.46016201"
         id="stop4677" />
      <stop
         style="stop-color:#e4f1f5;stop-opacity:1"
         offset="0.59705883"
         id="stop4225" />
      <stop
         style="stop-color:#d9e8f1;stop-opacity:1;"
         offset="0.73483342"
         id="stop4611" />
      <stop
         style="stop-color:#bdd8f0;stop-opacity:1"
         offset="1"
         id="stop1466" />
    </linearGradient>
    <linearGradient
       inkscape:collect="always"
       id="linearGradient1964">
      <stop
         style="stop-color:#ebf6ff;stop-opacity:1"
         offset="0.46016201"
         id="stop1956" />
      <stop
         style="stop-color:#bdd8f0;stop-opacity:1"
         offset="1"
         id="stop1962" />
    </linearGradient>
    <linearGradient
       inkscape:collect="always"
       xlink:href="#linearGradient1468"
       id="linearGradient7441"
       x1="1.0583333"
       y1="1.5875"
       x2="7.9375"
       y2="6.3499999"
       gradientUnits="userSpaceOnUse"
       gradientTransform="matrix(2,0,0,2,-0.79374997,0.5291666)" />
    <linearGradient
       inkscape:collect="always"
       xlink:href="#linearGradient1468"
       id="linearGradient1141"
       x1="3.7041667"
       y1="3.7041664"
       x2="8.2020826"
       y2="6.614583"
       gradientUnits="userSpaceOnUse"
       gradientTransform="matrix(2,0,0,2,-0.79374903,-3.9687499)" />
  </defs>
  <path
     d="M 11.1125,3.7041666 C 9.8088836,3.7051962 8.6649613,4.5729554 8.3126705,5.828068 7.3531453,5.9081272 6.6150101,6.7100575 6.6145831,7.6729167 c 0,1.0228772 0.829206,1.8520832 1.8520832,1.8520832 h 4.7625007 c 1.315128,-2e-7 2.38125,-1.066122 2.38125,-2.38125 C 15.610145,5.8798176 14.622435,4.8363038 13.360425,4.766634 12.807711,4.0941272 11.982993,3.704329 11.1125,3.7041666 Z"
     style="opacity:0.2;fill:#000000;fill-opacity:1;stroke-width:0.926042;stroke-linecap:round;stroke-linejoin:round"
     id="path4269" />
  <path
     id="path379"
     style="fill:url(#linearGradient1141);fill-opacity:1;stroke-width:0.926042;stroke-linecap:round;stroke-linejoin:round"
     d="M 11.1125,3.4395833 C 9.8088836,3.4406133 8.6649615,4.3083721 8.3126707,5.5634847 7.3531455,5.6435437 6.6150103,6.4454741 6.6145833,7.4083333 c 0,1.0228772 0.829206,1.8520832 1.8520832,1.8520832 h 4.7625005 c 1.315128,-2e-7 2.381249,-1.066122 2.381249,-2.38125 C 15.610144,5.6152343 14.622435,4.5717205 13.360425,4.5020507 12.807712,3.8295439 11.982993,3.4397457 11.1125,3.4395833 Z"
     sodipodi:nodetypes="cccccccc" />
  <path
     id="path1143"
     style="fill:#9abad5;fill-opacity:1;stroke-width:1.30256;stroke-linecap:round;stroke-linejoin:round"
     d="m 10.847917,3.9687501 c -1.1882103,8.604e-4 -2.2252831,0.8056118 -2.5211747,1.9563904 -0.027958,-0.00157 -0.055954,-0.00242 -0.083954,-0.00254 -0.8992328,0 -1.6282052,0.7289724 -1.6282052,1.6282054 0,0.8992328 0.7289724,1.628205 1.6282052,1.628205 h 4.8846157 c 1.079079,0 1.953846,-0.874767 1.953846,-1.9538462 0,-1.0790794 -0.874767,-1.9538462 -1.953846,-1.9538462 -0.0076,3.794e-4 -0.01526,8.032e-4 -0.02289,0.00127 C 12.639383,4.4659177 11.779075,3.9688397 10.847917,3.9687501 Z"
     sodipodi:nodetypes="cccsccsccc" />
  <path
     d="M 8.2020831,3.96875 C 6.1416649,3.9701588 4.3158094,5.2963856 3.6772948,7.255371 2.2900221,7.6265413 1.3246075,8.8826822 1.3229166,10.31875 c 0,1.753504 1.421496,3.175 3.175,3.175 h 7.6729164 c 1.89963,0 3.439584,-1.539954 3.439584,-3.439584 C 15.609936,8.2730508 14.249829,6.7869339 12.475724,6.6290526 11.674525,5.000345 10.017189,3.9686683 8.2020831,3.96875 Z"
     style="opacity:0.2;fill:#000000;fill-opacity:1;stroke-width:1.27001;stroke-linecap:round;stroke-linejoin:round"
     id="path4304" />
  <path
     id="path5944"
     style="opacity:1;fill:url(#linearGradient7441);fill-opacity:1;stroke-width:1.27;stroke-linecap:round;stroke-linejoin:round"
     d="M 8.2020832,3.7041666 C 6.141665,3.7055754 4.3158094,5.0318022 3.6772948,6.9907876 2.2900222,7.361958 1.3246076,8.6180988 1.3229166,10.054166 c 0,1.753505 1.421496,3.175001 3.175,3.175001 h 7.6729164 c 1.89963,0 3.439584,-1.539954 3.439584,-3.439584 C 15.609935,8.0084674 14.249829,6.5223504 12.475724,6.3644692 11.674525,4.7357616 10.017189,3.7040848 8.2020832,3.7041666 Z"
     sodipodi:nodetypes="cccccccc" />
  <path
     id="path852"
     style="fill:url(#linearGradient1368);fill-opacity:1;stroke-width:0.246944"
     d="m 8.2020836,5.2916666 c -1.63923,5.9e-4 -3.083133,1.078525 -3.5496546,2.649967 -1.2703568,0.05878 -2.2703308,1.1054 -2.2711792,2.3771154 0,1.315129 1.0661218,2.381251 2.38125,2.381251 h 6.6145832 c 1.465792,0 2.645834,-1.180041 2.645834,-2.645834 0,-1.4070534 -1.087476,-2.5507426 -2.471167,-2.6401486 C 10.939762,6.1181576 9.6351857,5.2915766 8.2020836,5.2916666 Z"
     sodipodi:nodetypes="cccccscc" />
</svg>
