<?xml version="1.0" encoding="UTF-8" standalone="no"?>
<!-- Created with Inkscape (http://www.inkscape.org/) -->

<svg
   width="64"
   height="64"
   viewBox="0 0 64 64"
   version="1.1"
   id="svg5"
   inkscape:version="1.2.1 (9c6d41e410, 2022-07-14, custom)"
   sodipodi:docname="weather-few-clouds-night.svg"
   xmlns:inkscape="http://www.inkscape.org/namespaces/inkscape"
   xmlns:sodipodi="http://sodipodi.sourceforge.net/DTD/sodipodi-0.dtd"
   xmlns:xlink="http://www.w3.org/1999/xlink"
   xmlns="http://www.w3.org/2000/svg"
   xmlns:svg="http://www.w3.org/2000/svg">
  <sodipodi:namedview
     id="namedview7"
     pagecolor="#ffffff"
     bordercolor="#666666"
     borderopacity="1.0"
     inkscape:pageshadow="2"
     inkscape:pageopacity="0.0"
     inkscape:pagecheckerboard="0"
     inkscape:document-units="px"
     showgrid="false"
     units="px"
     height="48px"
     inkscape:zoom="12.921875"
     inkscape:cx="32"
     inkscape:cy="32"
     inkscape:window-width="1920"
     inkscape:window-height="1029"
     inkscape:window-x="0"
     inkscape:window-y="0"
     inkscape:window-maximized="1"
     inkscape:current-layer="svg5"
     inkscape:lockguides="true"
     inkscape:showpageshadow="2"
     inkscape:deskcolor="#d1d1d1" />
  <defs
     id="defs2">
    <linearGradient
       inkscape:collect="always"
       id="linearGradient1014">
      <stop
         style="stop-color:#ffde4a;stop-opacity:1"
         offset="0"
         id="stop1010" />
      <stop
         style="stop-color:#feb315;stop-opacity:1"
         offset="1"
         id="stop1012" />
    </linearGradient>
    <linearGradient
       inkscape:collect="always"
       xlink:href="#linearGradient1014"
       id="linearGradient1016"
       x1="9.3874187"
       y1="6.625165"
       x2="4.6441574"
       y2="15.119643"
       gradientUnits="userSpaceOnUse"
       gradientTransform="matrix(-3.2582134,0,0,3.2582134,59.586203,4.4137929)" />
    <linearGradient
       inkscape:collect="always"
       xlink:href="#linearGradient1964"
       id="linearGradient1952"
       x1="7.6729164"
       y1="5.5562501"
       x2="4.5532098"
       y2="4.7661171"
       gradientUnits="userSpaceOnUse"
       gradientTransform="matrix(7.5590546,0,0,7.5590546,-23.999999,-23.999999)" />
    <linearGradient
       inkscape:collect="always"
       id="linearGradient1964">
      <stop
         style="stop-color:#ebf6ff;stop-opacity:1"
         offset="0.46016201"
         id="stop1956" />
      <stop
         style="stop-color:#bdd8f0;stop-opacity:1"
         offset="1"
         id="stop1962" />
    </linearGradient>
    <linearGradient
       inkscape:collect="always"
       xlink:href="#linearGradient1468"
       id="linearGradient1141"
       x1="3.7041667"
       y1="3.7041664"
       x2="8.2020826"
       y2="6.614583"
       gradientUnits="userSpaceOnUse"
       gradientTransform="matrix(7.5590546,0,0,7.5590546,-23.999999,-23.999999)" />
    <linearGradient
       inkscape:collect="always"
       id="linearGradient1468">
      <stop
         style="stop-color:#d6eeff;stop-opacity:1"
         offset="0"
         id="stop1464" />
      <stop
         style="stop-color:#ebf6ff;stop-opacity:1"
         offset="0.46016201"
         id="stop4677" />
      <stop
         style="stop-color:#e4f1f5;stop-opacity:1"
         offset="0.59705883"
         id="stop4225" />
      <stop
         style="stop-color:#d9e8f1;stop-opacity:1;"
         offset="0.73483342"
         id="stop4611" />
      <stop
         style="stop-color:#bdd8f0;stop-opacity:1"
         offset="1"
         id="stop1466" />
    </linearGradient>
  </defs>
  <path
     id="path850"
     style="fill:url(#linearGradient1016);fill-opacity:1;stroke-width:9.74733;stroke-linecap:round;stroke-linejoin:round;stroke-dasharray:116.968, 9.74733"
     d="M 41.951895,9.0851418 A 24.999999,24.999999 0 0 1 57,32 24.999999,24.999999 0 0 1 32.000002,57 24.999999,24.999999 0 0 1 9.085141,41.951895 a 24.999999,24.999999 0 0 0 9.951895,2.085142 24.999999,24.999999 0 0 0 25.000001,-25 24.999999,24.999999 0 0 0 -2.085142,-9.9518952 z" />
  <path
     id="path379"
     style="fill:url(#linearGradient1141);fill-opacity:1;stroke-width:3.5;stroke-linecap:round;stroke-linejoin:round"
     d="M 20.999997,4 C 16.072943,4.0038929 11.74946,7.2836111 10.417968,12.027343 6.7914161,12.329928 4.0016139,15.360847 4,18.999997 c 0,3.865993 3.1340069,6.999997 6.999999,6.999997 0,0 16.999988,-3e-6 17.99999,0 4.970559,-3e-6 8.999995,-4.029435 8.999995,-8.999994 -10e-4,-4.777068 -3.734103,-8.7210564 -8.503901,-8.9843753 C 27.40709,5.4738668 24.290043,4.0006138 20.999997,4 Z"
     sodipodi:nodetypes="cccccccc" />
  <path
     id="path1143"
     style="fill:url(#linearGradient1952);fill-opacity:1;stroke-width:3.99999;stroke-linecap:round;stroke-linejoin:round"
     d="m 20.999997,8.0000002 c -3.648833,0.00264 -6.833541,2.4739258 -7.742185,6.0078138 -0.08586,-0.0049 -0.171825,-0.0076 -0.25781,-0.0079 -2.761423,0 -4.9999996,2.238575 -4.9999996,4.999999 0,2.761423 2.2385766,4.999994 4.9999996,4.999994 h 14.999993 c 3.31371,0 5.999996,-2.68629 5.999996,-5.999997 0,-3.313706 -2.686286,-5.999997 -5.999996,-5.999997 -0.02343,0.0012 -0.04687,0.0025 -0.0703,0.0039 -1.42835,-2.4770274 -4.070239,-4.0034871 -6.929698,-4.0037622 z"
     sodipodi:nodetypes="cccsccsccc" />
</svg>
