<?xml version="1.0" encoding="UTF-8" standalone="no"?>
<!-- Created with Inkscape (http://www.inkscape.org/) -->

<svg
   width="64"
   height="64"
   viewBox="0 0 64 64.000002"
   version="1.1"
   id="svg5"
   inkscape:version="1.2.1 (9c6d41e410, 2022-07-14, custom)"
   sodipodi:docname="system-switch-user.svg"
   xmlns:inkscape="http://www.inkscape.org/namespaces/inkscape"
   xmlns:sodipodi="http://sodipodi.sourceforge.net/DTD/sodipodi-0.dtd"
   xmlns:xlink="http://www.w3.org/1999/xlink"
   xmlns="http://www.w3.org/2000/svg"
   xmlns:svg="http://www.w3.org/2000/svg">
  <sodipodi:namedview
     id="namedview7"
     pagecolor="#ffffff"
     bordercolor="#000000"
     borderopacity="0.25"
     inkscape:showpageshadow="2"
     inkscape:pageopacity="0.0"
     inkscape:pagecheckerboard="0"
     inkscape:deskcolor="#d1d1d1"
     inkscape:document-units="px"
     showgrid="false"
     inkscape:zoom="9.1371454"
     inkscape:cx="34.146332"
     inkscape:cy="36.827694"
     inkscape:window-width="1920"
     inkscape:window-height="1029"
     inkscape:window-x="0"
     inkscape:window-y="0"
     inkscape:window-maximized="1"
     inkscape:current-layer="svg5" />
  <defs
     id="defs2">
    <linearGradient
       inkscape:collect="always"
       id="linearGradient1299">
      <stop
         style="stop-color:#2cc899;stop-opacity:1;"
         offset="0"
         id="stop1295" />
      <stop
         style="stop-color:#358970;stop-opacity:1;"
         offset="1"
         id="stop1297" />
    </linearGradient>
    <linearGradient
       inkscape:collect="always"
       xlink:href="#linearGradient1299"
       id="linearGradient2645"
       x1="61.731014"
       y1="5"
       x2="61.731014"
       y2="59"
       gradientUnits="userSpaceOnUse" />
  </defs>
  <path
     id="rect1166"
     style="fill:url(#linearGradient2645);stroke-width:2;stroke-linecap:round;fill-opacity:1"
     d="M 18 5 C 17.897618 5 17.795315 5.00515 17.693359 5.015625 C 17.648449 5.020155 17.604839 5.0286793 17.560547 5.0351562 C 17.512997 5.0422062 17.465207 5.0472956 17.417969 5.0566406 C 17.355289 5.0688896 17.293613 5.0854995 17.232422 5.1015625 C 17.199892 5.1101825 17.167056 5.1172151 17.134766 5.1269531 C 16.949589 5.1822721 16.77354 5.2556371 16.605469 5.34375 C 16.310206 5.498544 16.04495 5.7012719 15.818359 5.9414062 L 3.1503906 18.609375 C 1.9751828 19.784583 1.9751828 21.676356 3.1503906 22.851562 C 4.3255974 24.02677 6.2173703 24.02677 7.3925781 22.851562 L 15 15.246094 L 15 56 C 15 57.661996 16.338004 59 18 59 C 19.661996 59 21 57.661996 21 56 L 21 15.246094 L 28.607422 22.851562 C 29.78263 24.02677 31.674403 24.026771 32.849609 22.851562 C 34.024818 21.676356 34.024817 19.784583 32.849609 18.609375 L 20.181641 5.9414062 C 19.95505 5.7012719 19.689794 5.498544 19.394531 5.34375 C 19.22646 5.2556371 19.050415 5.1822721 18.865234 5.1269531 C 18.833294 5.1174131 18.799968 5.1100625 18.767578 5.1015625 C 18.706388 5.0854995 18.644708 5.0688896 18.582031 5.0566406 C 18.535221 5.0474906 18.487021 5.0421132 18.439453 5.0351562 C 18.395173 5.0285963 18.351123 5.020194 18.306641 5.015625 C 18.205549 5.0054193 18.103875 5 18 5 z M 46 5 C 44.338004 5 43 6.3380037 43 8 L 43 48.753906 L 35.392578 41.148438 C 34.21737 39.97323 32.325597 39.97323 31.150391 41.148438 C 29.975183 42.323644 29.975183 44.215417 31.150391 45.390625 L 43.818359 58.058594 C 44.04495 58.298728 44.310206 58.501456 44.605469 58.65625 C 44.77354 58.744363 44.949589 58.817727 45.134766 58.873047 C 45.167056 58.882787 45.199892 58.889838 45.232422 58.898438 C 45.293613 58.914497 45.355289 58.931109 45.417969 58.943359 C 45.465207 58.952699 45.512997 58.957844 45.560547 58.964844 C 45.604839 58.971324 45.648449 58.979875 45.693359 58.984375 C 45.795315 58.994805 45.897618 59 46 59 C 46.103875 59 46.205549 58.994585 46.306641 58.984375 C 46.351123 58.979805 46.395173 58.971444 46.439453 58.964844 C 46.487021 58.957894 46.535221 58.952459 46.582031 58.943359 C 46.644708 58.931109 46.706388 58.914497 46.767578 58.898438 C 46.799968 58.889938 46.833294 58.882547 46.865234 58.873047 C 47.050415 58.817728 47.22646 58.74436 47.394531 58.65625 C 47.689794 58.501456 47.95505 58.298728 48.181641 58.058594 L 60.849609 45.390625 C 62.024817 44.215417 62.024818 42.323644 60.849609 41.148438 C 59.674403 39.973229 57.78263 39.97323 56.607422 41.148438 L 49 48.753906 L 49 8 C 49 6.3380037 47.661996 5 46 5 z " />
</svg>
