<?xml version="1.0" encoding="UTF-8" standalone="no"?>
<!-- Created with Inkscape (http://www.inkscape.org/) -->

<svg
   width="22"
   height="22"
   viewBox="0 0 22 22"
   version="1.1"
   id="svg5"
   inkscape:version="1.2.1 (9c6d41e410, 2022-07-14, custom)"
   sodipodi:docname="emblem-added.svg"
   xmlns:inkscape="http://www.inkscape.org/namespaces/inkscape"
   xmlns:sodipodi="http://sodipodi.sourceforge.net/DTD/sodipodi-0.dtd"
   xmlns="http://www.w3.org/2000/svg"
   xmlns:svg="http://www.w3.org/2000/svg">
  <sodipodi:namedview
     id="namedview7"
     pagecolor="#ffffff"
     bordercolor="#666666"
     borderopacity="1.0"
     inkscape:pageshadow="2"
     inkscape:pageopacity="0.0"
     inkscape:pagecheckerboard="0"
     inkscape:document-units="px"
     showgrid="false"
     units="px"
     height="22px"
     showguides="false"
     inkscape:zoom="36.818182"
     inkscape:cx="10.98642"
     inkscape:cy="11"
     inkscape:window-width="1920"
     inkscape:window-height="1012"
     inkscape:window-x="0"
     inkscape:window-y="0"
     inkscape:window-maximized="1"
     inkscape:current-layer="svg5"
     inkscape:showpageshadow="2"
     inkscape:deskcolor="#d1d1d1" />
  <defs
     id="defs2" />
  <rect
     style="fill:#4d4d4d;fill-opacity:1;stroke-width:0.404292;stroke-linejoin:round"
     id="rect858"
     height="18"
     x="2"
     y="2"
     width="18"
     ry="2" />
  <path
     id="rect964"
     style="fill:#7e7e7e;fill-opacity:1;stroke-width:0.999999;stroke-linejoin:round"
     d="m 4,3.0000001 h 14 c 0.554,0 1,0.446 1,0.9999999 v 14 c 0,0.554 -0.446,1 -1,1 H 4 C 3.4460001,19 3.0000001,18.554 3.0000001,18 V 4 c 0,-0.5539999 0.446,-0.9999999 0.9999999,-0.9999999 z" />
  <path
     id="rect1751"
     style="fill:#ffffff;stroke-width:2;stroke-linecap:round;stroke-linejoin:round"
     d="m 11,5.0000003 c -0.553999,0 -1,0.4460005 -1,0.9999998 V 10 H 6.0000001 c -0.5539993,0 -0.9999998,0.446001 -0.9999998,1 0,0.554 0.4460005,1 0.9999998,1 H 10 v 4 c 0,0.554 0.446001,1.000001 1,1.000001 0.554,0 1,-0.446001 1,-1.000001 v -4 h 4 c 0.554,0 1.000001,-0.446 1.000001,-1 C 17.000001,10.446001 16.554,10 16,10 H 12 V 6.0000001 C 12,5.4460008 11.554,5.0000003 11,5.0000003 Z" />
</svg>
