<?xml version="1.0" encoding="UTF-8" standalone="no"?>
<!-- Created with Inkscape (http://www.inkscape.org/) -->

<svg
   width="22"
   height="22"
   viewBox="0 0 22 22.000001"
   version="1.1"
   id="svg5"
   inkscape:version="1.2.1 (9c6d41e410, 2022-07-14, custom)"
   sodipodi:docname="emblem-locked.svg"
   xmlns:inkscape="http://www.inkscape.org/namespaces/inkscape"
   xmlns:sodipodi="http://sodipodi.sourceforge.net/DTD/sodipodi-0.dtd"
   xmlns:xlink="http://www.w3.org/1999/xlink"
   xmlns="http://www.w3.org/2000/svg"
   xmlns:svg="http://www.w3.org/2000/svg">
  <sodipodi:namedview
     id="namedview7"
     pagecolor="#ffffff"
     bordercolor="#000000"
     borderopacity="0.25"
     inkscape:showpageshadow="2"
     inkscape:pageopacity="0.0"
     inkscape:pagecheckerboard="0"
     inkscape:deskcolor="#d1d1d1"
     inkscape:document-units="px"
     showgrid="false"
     inkscape:zoom="36.818182"
     inkscape:cx="10.98642"
     inkscape:cy="11"
     inkscape:window-width="1920"
     inkscape:window-height="1012"
     inkscape:window-x="0"
     inkscape:window-y="0"
     inkscape:window-maximized="1"
     inkscape:current-layer="svg5" />
  <defs
     id="defs2">
    <linearGradient
       inkscape:collect="always"
       id="linearGradient4736">
      <stop
         style="stop-color:#e69a10;stop-opacity:1;"
         offset="0"
         id="stop4732" />
      <stop
         style="stop-color:#ffd283;stop-opacity:1;"
         offset="1"
         id="stop4734" />
    </linearGradient>
    <linearGradient
       inkscape:collect="always"
       xlink:href="#linearGradient2292"
       id="linearGradient2600"
       x1="16"
       y1="17"
       x2="6"
       y2="1"
       gradientUnits="userSpaceOnUse" />
    <linearGradient
       inkscape:collect="always"
       xlink:href="#linearGradient4736"
       id="linearGradient4730"
       x1="14.999781"
       y1="21"
       x2="6.9997807"
       y2="9.000001"
       gradientUnits="userSpaceOnUse"
       gradientTransform="translate(1.0002201)" />
    <linearGradient
       inkscape:collect="always"
       id="linearGradient2292">
      <stop
         style="stop-color:#9e670a;stop-opacity:1;"
         offset="0"
         id="stop2288" />
      <stop
         style="stop-color:#e3cb9f;stop-opacity:1;"
         offset="1"
         id="stop2290" />
    </linearGradient>
  </defs>
  <path
     id="rect899"
     style="opacity:1;fill:url(#linearGradient2600);fill-opacity:1;stroke-width:2;stroke-linecap:round"
     d="M 11,1 C 8.2300028,1 6,3.2300028 6,6 v 6 c 0,2.769997 2.2300028,5 5,5 2.769997,0 5,-2.230003 5,-5 V 6 C 16,3.2300028 13.769997,1 11,1 Z m 0,2 c 1.661998,0 3,1.3380017 3,3 v 6 c 0,1.661998 -1.338002,3 -3,3 C 9.3380017,15 8,13.661998 8,12 V 6 C 8,4.3380017 9.3380017,3 11,3 Z"
     sodipodi:nodetypes="ssssssssssssss" />
  <rect
     style="opacity:1;fill:url(#linearGradient4730);fill-opacity:1;stroke-width:2;stroke-linecap:round"
     id="rect789"
     width="14"
     height="12"
     x="4"
     y="9.000001"
     ry="1" />
  <path
     id="rect1645"
     style="opacity:0.1;fill:#000000"
     d="m 5,9.000001 c -0.5539994,0 -1,0.4460006 -1,1 v 1 h 14 v -1 c 0,-0.5539994 -0.446001,-1 -1,-1 z m -1,10 v 1 c 0,0.553999 0.4460006,1 1,1 h 12 c 0.553999,0 1,-0.446001 1,-1 v -1 z" />
</svg>
