<?xml version="1.0" encoding="UTF-8" standalone="no"?>
<!-- Created with Inkscape (http://www.inkscape.org/) -->

<svg
   width="8"
   height="8"
   viewBox="0 0 8 8"
   version="1.1"
   id="svg5"
   inkscape:version="1.2.1 (9c6d41e410, 2022-07-14, custom)"
   sodipodi:docname="emblem-unlocked.svg"
   xmlns:inkscape="http://www.inkscape.org/namespaces/inkscape"
   xmlns:sodipodi="http://sodipodi.sourceforge.net/DTD/sodipodi-0.dtd"
   xmlns:xlink="http://www.w3.org/1999/xlink"
   xmlns="http://www.w3.org/2000/svg"
   xmlns:svg="http://www.w3.org/2000/svg">
  <sodipodi:namedview
     id="namedview7"
     pagecolor="#ffffff"
     bordercolor="#666666"
     borderopacity="1.0"
     inkscape:pageshadow="2"
     inkscape:pageopacity="0.0"
     inkscape:pagecheckerboard="0"
     inkscape:document-units="px"
     showgrid="false"
     units="px"
     height="64px"
     inkscape:zoom="101.25"
     inkscape:cx="3.7333333"
     inkscape:cy="4"
     inkscape:window-width="1920"
     inkscape:window-height="1012"
     inkscape:window-x="0"
     inkscape:window-y="0"
     inkscape:window-maximized="1"
     inkscape:current-layer="svg5"
     inkscape:showpageshadow="2"
     inkscape:deskcolor="#d1d1d1"
     showguides="false" />
  <defs
     id="defs2">
    <linearGradient
       inkscape:collect="always"
       id="linearGradient2292">
      <stop
         style="stop-color:#9e670a;stop-opacity:1;"
         offset="0"
         id="stop2288" />
      <stop
         style="stop-color:#e3cb9f;stop-opacity:1;"
         offset="1"
         id="stop2290" />
    </linearGradient>
    <linearGradient
       inkscape:collect="always"
       xlink:href="#linearGradient2292"
       id="linearGradient940"
       x1="12"
       y1="14"
       x2="4"
       y2="0"
       gradientUnits="userSpaceOnUse"
       gradientTransform="scale(0.5)" />
    <linearGradient
       inkscape:collect="always"
       id="linearGradient4736">
      <stop
         style="stop-color:#e69a10;stop-opacity:1;"
         offset="0"
         id="stop4732" />
      <stop
         style="stop-color:#ffd283;stop-opacity:1;"
         offset="1"
         id="stop4734" />
    </linearGradient>
    <linearGradient
       inkscape:collect="always"
       xlink:href="#linearGradient4736"
       id="linearGradient1337"
       x1="12.999969"
       y1="15.999999"
       x2="7.9999695"
       y2="5.999999"
       gradientUnits="userSpaceOnUse"
       gradientTransform="matrix(0.5,0,0,0.5,0.5000152,5e-7)" />
  </defs>
  <path
     id="rect376"
     style="fill:url(#linearGradient940);fill-opacity:1;stroke-width:0.5"
     d="M 4 0 C 2.8920022 0 2 0.89200218 2 2 L 3 2 C 3 1.4460011 3.4460011 1 4 1 C 4.5539989 1 5 1.4460011 5 2 L 5 5 C 5 5.5539989 4.5539989 6 4 6 C 3.4460011 6 3 5.5539989 3 5 L 3 4.7988281 L 2 4.7988281 L 2 5 C 2 6.1079979 2.8920022 7 4 7 C 5.1079979 7 6 6.1079979 6 5 L 6 2 C 6 0.89200218 5.1079979 0 4 0 z " />
  <rect
     style="fill:url(#linearGradient1337);fill-opacity:1;stroke-width:0.5"
     id="rect378"
     width="6"
     height="5"
     x="1"
     y="3"
     ry="1" />
  <path
     id="rect1645"
     style="opacity:0.1;fill:#000000"
     d="M 2,3 C 1.4460006,3 1,3.446001 1,4 H 7 C 7,3.446001 6.553999,3 6,3 Z M 1,7.000001 c 0,0.553999 0.4460006,1 1,1 h 4 c 0.553999,0 1,-0.446001 1,-1 z"
     sodipodi:nodetypes="sccsscsscc" />
</svg>
