<?xml version="1.0" encoding="UTF-8" standalone="no"?>
<!-- Created with Inkscape (http://www.inkscape.org/) -->

<svg
   width="16"
   height="16"
   viewBox="0 0 16 16"
   version="1.1"
   id="svg5"
   inkscape:version="1.2.1 (9c6d41e410, 2022-07-14, custom)"
   sodipodi:docname="emblem-unreadable.svg"
   xmlns:inkscape="http://www.inkscape.org/namespaces/inkscape"
   xmlns:sodipodi="http://sodipodi.sourceforge.net/DTD/sodipodi-0.dtd"
   xmlns:xlink="http://www.w3.org/1999/xlink"
   xmlns="http://www.w3.org/2000/svg"
   xmlns:svg="http://www.w3.org/2000/svg">
  <sodipodi:namedview
     id="namedview7"
     pagecolor="#ffffff"
     bordercolor="#666666"
     borderopacity="1.0"
     inkscape:pageshadow="2"
     inkscape:pageopacity="0.0"
     inkscape:pagecheckerboard="0"
     inkscape:document-units="px"
     showgrid="false"
     units="px"
     height="22px"
     showguides="false"
     inkscape:zoom="51.25"
     inkscape:cx="5.9707317"
     inkscape:cy="8.0097561"
     inkscape:window-width="1920"
     inkscape:window-height="1029"
     inkscape:window-x="0"
     inkscape:window-y="0"
     inkscape:window-maximized="1"
     inkscape:current-layer="svg5"
     inkscape:showpageshadow="2"
     inkscape:deskcolor="#d1d1d1" />
  <defs
     id="defs2">
    <linearGradient
       inkscape:collect="always"
       xlink:href="#linearGradient8163"
       id="linearGradient8165"
       x1="5.7449827"
       y1="8.3089285"
       x2="5.7449827"
       y2="19.347616"
       gradientUnits="userSpaceOnUse"
       gradientTransform="matrix(1.2729203,0,0,1.4494477,1.5752387,-12.043357)" />
    <linearGradient
       inkscape:collect="always"
       id="linearGradient8163">
      <stop
         style="stop-color:#e8ebf1;stop-opacity:1;"
         offset="0"
         id="stop8159" />
      <stop
         style="stop-color:#c6cfdd;stop-opacity:1"
         offset="1"
         id="stop8161" />
    </linearGradient>
    <linearGradient
       inkscape:collect="always"
       xlink:href="#linearGradient2733"
       id="linearGradient1062"
       x1="2.1115689"
       y1="2.7119792"
       x2="3.7554185"
       y2="2.7119792"
       gradientUnits="userSpaceOnUse"
       gradientTransform="matrix(2.6725297,2.6725297,-2.6725297,2.6725297,8.0000009,-7.5563502)" />
    <linearGradient
       inkscape:collect="always"
       id="linearGradient2733">
      <stop
         style="stop-color:#ed6767;stop-opacity:1"
         offset="0"
         id="stop2729" />
      <stop
         style="stop-color:#d40101;stop-opacity:1"
         offset="1"
         id="stop2731" />
    </linearGradient>
  </defs>
  <rect
     style="fill:url(#linearGradient8165);fill-opacity:1;stroke-width:0.35939;stroke-linejoin:round"
     id="rect858"
     height="16"
     x="0"
     y="0"
     width="16"
     ry="2" />
  <path
     id="rect964"
     style="fill:#ffffff;stroke-width:0.999999;stroke-linejoin:round"
     d="m 2,1.0000002 h 12 c 0.554,0 1,0.446 1,0.9999999 V 14 c 0,0.554 -0.446,1 -1,1 H 2 C 1.4460001,15 1.0000001,14.554 1.0000001,14 V 2.0000001 c 0,-0.5539999 0.446,-0.9999999 0.9999999,-0.9999999 z"
     sodipodi:nodetypes="sssssssss" />
  <path
     id="rect853"
     style="fill:url(#linearGradient1062);fill-opacity:1;stroke-width:0.999999;stroke-linejoin:round"
     d="m 12.242331,3.7576701 c -0.293802,-0.2938015 -0.766859,-0.2938019 -1.06066,0 L 8.0000005,6.93934 4.8183302,3.7576701 c -0.2938016,-0.2938015 -0.7668571,-0.2938015 -1.0606601,0 -0.2938015,0.2938016 -0.2938019,0.7668585 0,1.0606601 l 3.1816702,3.18167 -3.1816702,3.1816708 c -0.2938015,0.293801 -0.2938015,0.766857 0,1.06066 0.2938016,0.293801 0.7668585,0.293801 1.0606601,0 L 8.0000005,9.0606604 11.181671,12.242331 c 0.293801,0.293801 0.766857,0.293801 1.06066,0 0.293801,-0.293802 0.293801,-0.766859 0,-1.06066 L 9.0606608,8.0000002 12.242331,4.8183302 c 0.293801,-0.2938016 0.293801,-0.7668571 0,-1.0606601 z"
     sodipodi:nodetypes="sscssscssscssscss" />
</svg>
