<?xml version="1.0" encoding="UTF-8" standalone="no"?>
<!-- Created with Inkscape (http://www.inkscape.org/) -->

<svg
   width="16"
   height="16"
   viewBox="0 0 16 16"
   version="1.1"
   id="svg5"
   inkscape:version="1.2.1 (9c6d41e410, 2022-07-14, custom)"
   sodipodi:docname="emblem-synchronizing.svg"
   xmlns:inkscape="http://www.inkscape.org/namespaces/inkscape"
   xmlns:sodipodi="http://sodipodi.sourceforge.net/DTD/sodipodi-0.dtd"
   xmlns:xlink="http://www.w3.org/1999/xlink"
   xmlns="http://www.w3.org/2000/svg"
   xmlns:svg="http://www.w3.org/2000/svg">
  <sodipodi:namedview
     id="namedview7"
     pagecolor="#ffffff"
     bordercolor="#666666"
     borderopacity="1.0"
     inkscape:pageshadow="2"
     inkscape:pageopacity="0.0"
     inkscape:pagecheckerboard="0"
     inkscape:document-units="px"
     showgrid="false"
     units="px"
     height="22px"
     showguides="false"
     inkscape:zoom="50.5625"
     inkscape:cx="7.9901112"
     inkscape:cy="8"
     inkscape:window-width="1920"
     inkscape:window-height="1012"
     inkscape:window-x="0"
     inkscape:window-y="0"
     inkscape:window-maximized="1"
     inkscape:current-layer="svg5"
     inkscape:showpageshadow="2"
     inkscape:deskcolor="#d1d1d1" />
  <defs
     id="defs2">
    <linearGradient
       inkscape:collect="always"
       id="linearGradient8163">
      <stop
         style="stop-color:#e8ebf1;stop-opacity:1;"
         offset="0"
         id="stop8159" />
      <stop
         style="stop-color:#c6cfdd;stop-opacity:1"
         offset="1"
         id="stop8161" />
    </linearGradient>
    <linearGradient
       inkscape:collect="always"
       xlink:href="#linearGradient8163"
       id="linearGradient1812"
       x1="8"
       y1="0"
       x2="8"
       y2="16"
       gradientUnits="userSpaceOnUse" />
    <linearGradient
       inkscape:collect="always"
       id="linearGradient2733">
      <stop
         style="stop-color:#1b9de2;stop-opacity:1;"
         offset="0"
         id="stop2729" />
      <stop
         style="stop-color:#0178d4;stop-opacity:1"
         offset="1"
         id="stop2731" />
    </linearGradient>
    <linearGradient
       inkscape:collect="always"
       xlink:href="#linearGradient2733"
       id="linearGradient3769"
       x1="3"
       y1="3.0009999"
       x2="13"
       y2="12.999919"
       gradientUnits="userSpaceOnUse" />
  </defs>
  <circle
     style="opacity:1;fill:url(#linearGradient1812);fill-opacity:1;stroke-linecap:round;stroke-linejoin:round"
     id="path1226"
     cx="8"
     cy="8"
     r="8" />
  <circle
     style="opacity:1;fill:#ffffff;fill-opacity:1;stroke-width:1.00363;stroke-linecap:round;stroke-linejoin:round"
     id="path396"
     cx="8"
     cy="8"
     r="7" />
  <path
     id="path1393"
     style="color:#000000;fill:url(#linearGradient3769);stroke:none;stroke-linecap:round;-inkscape-stroke:none;fill-opacity:1"
     d="M 7.9023436,3.0019981 C 6.1753896,3.0361146 4.5559726,3.9653596 3.6699217,5.5000449 3.5315516,5.739473 3.6138092,6.0457512 3.8535154,6.1836387 4.092507,6.3206797 4.3973225,6.2385805 4.535156,6.0000449 5.3768105,4.5422567 7.0375767,3.7682883 8.6953123,4.0605919 10.24944,4.3346264 11.483951,5.4908685 11.873047,7.0000449 H 9.4999997 c -0.276999,0 -0.4999999,0.2230006 -0.4999999,0.5 0,0.2769995 0.2230009,0.5 0.4999999,0.5 H 12.5 c 0.01731,0 0.03393,-2.522e-4 0.05078,-0.00195 C 12.803521,7.9725779 13,7.7597319 13,7.5000449 V 4.500045 c 0,-0.2769994 -0.223,-0.5 -0.5,-0.5 -0.277,0 -0.5,0.2230006 -0.5,0.5 V 5.001998 C 11.254218,4.0075849 10.147518,3.3016292 8.8691404,3.0762168 8.545959,3.0192312 8.2221498,2.9956802 7.9023436,3.0019981 Z M 3.4999998,8.0000449 c -0.01731,0 -0.033931,2.052e-4 -0.050781,0.00195 C 3.196478,8.0275149 3,8.2403549 3,8.5000418 v 3.0000002 c 0,0.276999 0.2230003,0.5 0.5,0.5 0.2769996,0 0.5,-0.223001 0.5,-0.5 v -0.501953 c 0.7457816,0.994413 1.8524825,1.700369 3.1308594,1.925781 2.0683613,0.364708 4.1490846,-0.604942 5.1992186,-2.423828 0.13837,-0.239428 0.05611,-0.5457065 -0.183594,-0.6835939 C 11.907492,9.6794106 11.602677,9.7615101 11.464844,10.000045 10.62319,11.457834 8.9624229,12.231802 7.3046873,11.939498 5.7499296,11.665352 4.5155197,10.510122 4.1269529,9.000045 h 2.3730469 c 0.2769999,0 0.5,-0.2230007 0.5,-0.5000001 0,-0.2769998 -0.2230002,-0.5 -0.5,-0.5 z"
     sodipodi:nodetypes="scccscsssscsssscssscsssscscccscssss" />
</svg>
