<?xml version="1.0" encoding="UTF-8" standalone="no"?>
<!-- Created with Inkscape (http://www.inkscape.org/) -->

<svg
   width="16"
   height="16"
   viewBox="0 0 16 16"
   version="1.1"
   id="svg423"
   inkscape:version="1.2.1 (9c6d41e410, 2022-07-14, custom)"
   sodipodi:docname="audio-volume-muted-blocking-symbolic.svg"
   xmlns:inkscape="http://www.inkscape.org/namespaces/inkscape"
   xmlns:sodipodi="http://sodipodi.sourceforge.net/DTD/sodipodi-0.dtd"
   xmlns="http://www.w3.org/2000/svg"
   xmlns:svg="http://www.w3.org/2000/svg">
  <sodipodi:namedview
     id="namedview425"
     pagecolor="#ffffff"
     bordercolor="#000000"
     borderopacity="0.25"
     inkscape:showpageshadow="2"
     inkscape:pageopacity="0.0"
     inkscape:pagecheckerboard="0"
     inkscape:deskcolor="#d1d1d1"
     inkscape:document-units="px"
     showgrid="false"
     inkscape:zoom="50.5625"
     inkscape:cx="8"
     inkscape:cy="8"
     inkscape:window-width="1920"
     inkscape:window-height="1012"
     inkscape:window-x="0"
     inkscape:window-y="0"
     inkscape:window-maximized="1"
     inkscape:current-layer="svg423" />
  <defs
     id="defs420" />
  <path
     id="path408"
     class="error"
     style="fill:#d33636;fill-opacity:1;stroke-width:2.001;stroke-linecap:round;stroke-linejoin:round;-inkscape-stroke:none;paint-order:normal"
     d="M 5.9863281 2.7089844 C 5.7273022 2.7127935 5.4779826 2.8165087 5.2929688 3.0019531 L 3.296875 5 L 2 5 C 0.90930436 5 0 5.9093044 0 7 L 0 9 C 0 10.090696 0.90930436 11 2 11 L 3.296875 11 L 5.2929688 12.998047 C 5.9229623 13.627545 6.9996217 13.181612 7 12.291016 L 7 3.7089844 C 6.9999742 3.3045808 6.7564011 2.9399911 6.3828125 2.7851562 C 6.2918414 2.7471435 6.195752 2.7227914 6.0976562 2.7128906 C 6.0604095 2.7092706 6.0233322 2.7084444 5.9863281 2.7089844 z M 6 3.7109375 L 6 12.289062 L 3.7109375 10 L 2 10 C 1.4460024 10 1 9.5539973 1 9 L 1 7 C 1 6.4460024 1.4460024 6 2 6 L 3.7109375 6 L 6 3.7109375 z M 9.8789062 5.0898438 C 9.7510968 5.0898438 9.6233247 5.1383941 9.5253906 5.2363281 C 9.3295223 5.4321964 9.329523 5.7474906 9.5253906 5.9433594 L 11.585938 8.0039062 L 9.5253906 10.064453 C 9.3295317 10.260331 9.3295221 10.575617 9.5253906 10.771484 C 9.721259 10.967353 10.036563 10.967363 10.232422 10.771484 L 12.292969 8.7109375 L 14.353516 10.771484 C 14.549384 10.967353 14.864678 10.967353 15.060547 10.771484 C 15.256415 10.575617 15.256415 10.26032 15.060547 10.064453 L 13 8.0039062 L 15.060547 5.9433594 C 15.256424 5.7475009 15.256415 5.4321965 15.060547 5.2363281 C 14.864678 5.0404598 14.549392 5.0404697 14.353516 5.2363281 L 12.292969 7.296875 L 10.232422 5.2363281 C 10.134487 5.1383941 10.006716 5.0898438 9.8789062 5.0898438 z " />
</svg>
