<?xml version="1.0" encoding="UTF-8" standalone="no"?>
<!-- Created with Inkscape (http://www.inkscape.org/) -->

<svg
   width="16"
   height="16"
   viewBox="0 0 16 16"
   version="1.1"
   id="svg423"
   inkscape:version="1.2.1 (9c6d41e410, 2022-07-14, custom)"
   sodipodi:docname="audio-volume-overamplified-symbolic.svg"
   xmlns:inkscape="http://www.inkscape.org/namespaces/inkscape"
   xmlns:sodipodi="http://sodipodi.sourceforge.net/DTD/sodipodi-0.dtd"
   xmlns="http://www.w3.org/2000/svg"
   xmlns:svg="http://www.w3.org/2000/svg">
  <sodipodi:namedview
     id="namedview425"
     pagecolor="#ffffff"
     bordercolor="#000000"
     borderopacity="0.25"
     inkscape:showpageshadow="2"
     inkscape:pageopacity="0.0"
     inkscape:pagecheckerboard="0"
     inkscape:deskcolor="#d1d1d1"
     inkscape:document-units="px"
     showgrid="false"
     inkscape:zoom="50.5625"
     inkscape:cx="7.84178"
     inkscape:cy="8"
     inkscape:window-width="1920"
     inkscape:window-height="1012"
     inkscape:window-x="0"
     inkscape:window-y="0"
     inkscape:window-maximized="1"
     inkscape:current-layer="svg423" />
  <defs
     id="defs420" />
  <path
     id="path408"
     style="fill:#363636;fill-opacity:1;stroke-width:2.001;stroke-linecap:round;stroke-linejoin:round;paint-order:normal"
     d="M 15.5 1 C 15.223 1 15 1.2230006 15 1.5 L 15 14.5 C 15 14.777 15.223 15 15.5 15 C 15.777 15 16 14.777 16 14.5 L 16 1.5 C 16 1.2230006 15.777 1 15.5 1 z M 5.9863281 2.7089844 C 5.7273022 2.7127935 5.4779826 2.8165087 5.2929688 3.0019531 L 3.296875 5 L 2 5 C 0.90930436 5 0 5.9093044 0 7 L 0 9 C 0 10.090696 0.90930436 11 2 11 L 3.296875 11 L 5.2929688 12.998047 C 5.9229623 13.627545 6.9996217 13.181612 7 12.291016 L 7 3.7089844 C 6.9999742 3.3045808 6.7564011 2.9399911 6.3828125 2.7851562 C 6.2918414 2.7471435 6.195752 2.7227914 6.0976562 2.7128906 C 6.0604095 2.7092706 6.0233322 2.7084444 5.9863281 2.7089844 z M 12.5 3 C 12.223 3 12 3.2230006 12 3.5 L 12 12.5 C 12 12.777 12.223 13 12.5 13 C 12.777 13 13 12.777 13 12.5 L 13 3.5 C 13 3.2230006 12.777 3 12.5 3 z M 6 3.7109375 L 6 12.289062 L 3.7109375 10 L 2 10 C 1.4460024 10 1 9.5539973 1 9 L 1 7 C 1 6.4460024 1.4460024 6 2 6 L 3.7109375 6 L 6 3.7109375 z M 9.5 5 C 9.2230006 5 9 5.2230006 9 5.5 L 9 10.5 C 9 10.777 9.2230006 11 9.5 11 C 9.7769994 11 10 10.777 10 10.5 L 10 5.5 C 10 5.2230006 9.7769994 5 9.5 5 z " />
</svg>
