<?xml version="1.0" encoding="UTF-8" standalone="no"?>
<!-- Created with Inkscape (http://www.inkscape.org/) -->

<svg
   width="16"
   height="16"
   viewBox="0 0 16 16"
   version="1.1"
   id="svg423"
   inkscape:version="1.2.1 (9c6d41e410, 2022-07-14, custom)"
   sodipodi:docname="audio-volume-medium-symbolic.svg"
   xmlns:inkscape="http://www.inkscape.org/namespaces/inkscape"
   xmlns:sodipodi="http://sodipodi.sourceforge.net/DTD/sodipodi-0.dtd"
   xmlns="http://www.w3.org/2000/svg"
   xmlns:svg="http://www.w3.org/2000/svg">
  <sodipodi:namedview
     id="namedview425"
     pagecolor="#ffffff"
     bordercolor="#000000"
     borderopacity="0.25"
     inkscape:showpageshadow="2"
     inkscape:pageopacity="0.0"
     inkscape:pagecheckerboard="0"
     inkscape:deskcolor="#d1d1d1"
     inkscape:document-units="px"
     showgrid="false"
     inkscape:zoom="50.5625"
     inkscape:cx="8"
     inkscape:cy="8"
     inkscape:window-width="1920"
     inkscape:window-height="1012"
     inkscape:window-x="0"
     inkscape:window-y="0"
     inkscape:window-maximized="1"
     inkscape:current-layer="svg423" />
  <defs
     id="defs420" />
  <path
     d="M 5.9863281,2.7087813 C 5.7273013,2.7125904 5.4779832,2.816305 5.2929688,3.00175 L 3.296875,4.9997969 H 2 c -1.09069891,0 -2,0.9093011 -2,2 v 2 c 0,1.0906991 0.90930109,2.0000001 2,2.0000001 h 1.296875 l 1.9960938,1.998047 C 5.9229644,13.627345 6.9996217,13.181412 7,12.290813 V 3.7087813 C 6.9999742,3.3043765 6.7564023,2.9397883 6.3828125,2.7849531 6.2918411,2.7469401 6.195752,2.7225883 6.0976562,2.7126875 c -0.037247,-0.00362 -0.074324,-0.00445 -0.1113281,-0.00391 z m 4.6093749,0.1953125 c -0.127944,0 -0.255889,0.048879 -0.353515,0.1464843 -0.195211,0.1952532 -0.195211,0.5117781 0,0.7070313 C 11.367586,4.8828083 11.9998,6.4083985 12,7.9997969 11.9935,9.588295 11.356708,11.108014 10.230469,12.228313 c -0.197067,0.194919 -0.197917,0.512956 -0.002,0.708984 0.194919,0.197067 0.512956,0.197917 0.708984,0.002 C 12.251799,11.631951 12.9931,9.855348 13,8.00175 V 7.9998 C 12.99972,6.1435988 12.261917,4.3629768 10.949219,3.0505781 10.851592,2.9529728 10.723647,2.9040938 10.595703,2.9040938 Z M 6,3.71 v 8.58 L 3.71,9.999797 H 2 c -0.5539994,0 -1,-0.446001 -1,-1.0000001 v -2 c 0,-0.5539994 0.4460006,-1 1,-1 H 3.71 Z M 8.4746094,5.0251875 C 8.342008,5.0252052 8.2148482,5.0778995 8.1210938,5.1716719 7.925883,5.3669251 7.925883,5.68345 8.1210938,5.8787031 8.6838632,6.4413526 8.99988,7.2039977 9,7.9997969 8.99673,8.7938961 8.6781838,9.554932 8.1152344,10.115031 c -0.1952108,0.195254 -0.1952108,0.511778 0,0.707032 0.1952531,0.19521 0.5117781,0.19521 0.7070312,0 C 9.5731249,10.074913 9.9963,9.060949 10,8.00175 V 7.9998 C 9.9998398,6.939198 9.5781942,5.9215712 8.828125,5.1716719 8.7343706,5.0778997 8.6072107,5.0252052 8.4746094,5.0251875 Z"
     style="fill:#363636;stroke-width:2.001;stroke-linecap:round;stroke-linejoin:round;-inkscape-stroke:none;paint-order:normal"
     id="path408"
     sodipodi:nodetypes="cccssssccccccccscccccccssscccssssccccccccccscc" />
  <path
     d="m 12.716797,0.78299999 c -0.127944,0 -0.255889,0.048879 -0.353516,0.1464844 -0.195211,0.19525321 -0.195211,0.51177811 0,0.70703131 C 14.05128,3.324214 14.9997,5.6127993 15,7.9997969 c -0.0097,2.3828981 -0.964679,4.6632521 -2.654297,6.3437501 -0.197066,0.194919 -0.197917,0.512956 -0.002,0.708984 0.194919,0.197067 0.512956,0.197917 0.708984,0.002 C 14.930332,13.187086 15.9898,10.649847 16,8.00175 V 7.9998 C 15.999599,5.3479996 14.945611,2.8043825 13.070312,0.92948439 12.972686,0.83187899 12.844741,0.78299999 12.716797,0.78299999 Z"
     style="fill:#363636;stroke-width:2.001;stroke-linecap:round;stroke-linejoin:round;-inkscape-stroke:none;paint-order:normal;opacity:0.2"
     id="path586" />
</svg>
