<?xml version="1.0" encoding="UTF-8" standalone="no"?>
<!-- Created with Inkscape (http://www.inkscape.org/) -->

<svg
   width="16"
   height="16"
   viewBox="0 0 16 16"
   version="1.1"
   id="svg423"
   inkscape:version="1.2.1 (9c6d41e410, 2022-07-14, custom)"
   sodipodi:docname="audio-volume-low-symbolic.svg"
   xmlns:inkscape="http://www.inkscape.org/namespaces/inkscape"
   xmlns:sodipodi="http://sodipodi.sourceforge.net/DTD/sodipodi-0.dtd"
   xmlns="http://www.w3.org/2000/svg"
   xmlns:svg="http://www.w3.org/2000/svg">
  <sodipodi:namedview
     id="namedview425"
     pagecolor="#ffffff"
     bordercolor="#000000"
     borderopacity="0.25"
     inkscape:showpageshadow="2"
     inkscape:pageopacity="0.0"
     inkscape:pagecheckerboard="0"
     inkscape:deskcolor="#d1d1d1"
     inkscape:document-units="px"
     showgrid="false"
     inkscape:zoom="50.5625"
     inkscape:cx="8"
     inkscape:cy="8"
     inkscape:window-width="1920"
     inkscape:window-height="1012"
     inkscape:window-x="0"
     inkscape:window-y="0"
     inkscape:window-maximized="1"
     inkscape:current-layer="svg423" />
  <defs
     id="defs420" />
  <path
     d="M 5.9863281,2.7087813 C 5.7273013,2.7125904 5.4779832,2.816305 5.2929688,3.00175 L 3.296875,4.9997969 H 2 c -1.09069891,0 -2,0.9093011 -2,2 v 2 c 0,1.0906991 0.90930109,2.0000001 2,2.0000001 h 1.296875 l 1.9960938,1.998047 C 5.9229644,13.627345 6.9996217,13.181412 7,12.290813 V 3.7087813 C 6.9999742,3.3043765 6.7564023,2.9397883 6.3828125,2.7849531 6.2918411,2.7469401 6.195752,2.7225883 6.0976562,2.7126875 6.0604092,2.7090675 6.0233322,2.7082375 5.9863281,2.7087775 Z M 6,3.71 v 8.58 L 3.71,9.999797 H 2 c -0.5539994,0 -1,-0.446001 -1,-1.0000001 v -2 c 0,-0.5539994 0.4460006,-1 1,-1 H 3.71 Z M 8.4746094,5.0251875 C 8.342008,5.0252052 8.2148482,5.0778995 8.1210938,5.1716719 7.925883,5.3669251 7.925883,5.68345 8.1210938,5.8787031 8.6838632,6.4413526 8.99988,7.2039977 9,7.9997969 8.99673,8.7938961 8.6781838,9.554932 8.1152344,10.115031 c -0.1952108,0.195254 -0.1952108,0.511778 0,0.707032 0.1952531,0.19521 0.5117781,0.19521 0.7070312,0 C 9.5731249,10.074913 9.9963,9.060949 10,8.00175 V 7.9998 C 9.9998398,6.939198 9.5781942,5.9215712 8.828125,5.1716719 8.7343706,5.0778997 8.6072107,5.0252052 8.4746094,5.0251875 Z"
     style="fill:#363636;stroke-width:2.001;stroke-linecap:round;stroke-linejoin:round;-inkscape-stroke:none;paint-order:normal"
     id="path408"
     sodipodi:nodetypes="cccsssscccccccccccssssccccccccccscc" />
  <path
     id="path586"
     style="fill:#363636;stroke-width:2.001;stroke-linecap:round;stroke-linejoin:round;-inkscape-stroke:none;paint-order:normal;opacity:0.2"
     d="M 12.716797 0.78320312 C 12.588853 0.78320312 12.460908 0.8320822 12.363281 0.9296875 C 12.16807 1.1249405 12.16807 1.4414657 12.363281 1.6367188 C 14.051279 3.3244154 14.9997 5.6130048 15 8 C 14.9903 10.382896 14.035319 12.663254 12.345703 14.34375 C 12.148637 14.538669 12.147833 14.856707 12.34375 15.052734 C 12.538669 15.249801 12.856707 15.250604 13.052734 15.054688 C 14.930377 13.187244 15.9898 10.650047 16 8.0019531 L 16 8 C 15.999599 5.3482023 14.94561 2.8045837 13.070312 0.9296875 C 12.972687 0.8320822 12.844741 0.78320313 12.716797 0.78320312 z M 10.595703 2.9042969 C 10.467759 2.9042969 10.339813 2.953176 10.242188 3.0507812 C 10.046977 3.2460343 10.046977 3.5625595 10.242188 3.7578125 C 11.367584 4.8830103 11.9998 6.4086032 12 8 C 11.9935 9.588496 11.356707 11.108219 10.230469 12.228516 C 10.033402 12.423435 10.032599 12.741472 10.228516 12.9375 C 10.423434 13.134567 10.741472 13.13537 10.9375 12.939453 C 12.251845 11.632109 12.9931 9.8555488 13 8.0019531 L 13 8 C 12.99972 6.1438007 12.261915 4.3631786 10.949219 3.0507812 C 10.851592 2.953176 10.723647 2.9042969 10.595703 2.9042969 z " />
</svg>
