<?xml version="1.0" encoding="UTF-8" standalone="no"?>
<!-- Created with Inkscape (http://www.inkscape.org/) -->

<svg
   width="16"
   height="16"
   viewBox="0 0 16 16"
   version="1.1"
   id="svg5"
   sodipodi:docname="battery-level-40-charging-symbolic.svg"
   inkscape:version="1.2.1 (9c6d41e410, 2022-07-14, custom)"
   xmlns:inkscape="http://www.inkscape.org/namespaces/inkscape"
   xmlns:sodipodi="http://sodipodi.sourceforge.net/DTD/sodipodi-0.dtd"
   xmlns="http://www.w3.org/2000/svg"
   xmlns:svg="http://www.w3.org/2000/svg">
  <sodipodi:namedview
     id="namedview7"
     pagecolor="#ffffff"
     bordercolor="#666666"
     borderopacity="1.0"
     inkscape:showpageshadow="2"
     inkscape:pageopacity="0.0"
     inkscape:pagecheckerboard="0"
     inkscape:deskcolor="#d1d1d1"
     inkscape:document-units="px"
     showgrid="false"
     inkscape:zoom="50.5625"
     inkscape:cx="8"
     inkscape:cy="8.0197775"
     inkscape:window-width="1920"
     inkscape:window-height="1012"
     inkscape:window-x="0"
     inkscape:window-y="0"
     inkscape:window-maximized="1"
     inkscape:current-layer="svg5" />
  <defs
     id="defs2" />
  <path
     d="M 2.0000003,-3.6656e-4 V 2.9996334 h 2 l -2,4 v -3 H 2.7e-7 Z M 4.9980472,3 C 4.9986907,3.1550984 4.9632518,3.3082209 4.8945315,3.4472656 L 4.6171878,4 H 12 c 0.553997,0 1,0.4460024 1,1 v 6 c 0,0.553996 -0.446003,1 -1,1 H 2.0000003 c -0.5539964,0 -1,-0.446004 -1,-1 V 7 5 H 2.7e-7 v 6 c 0,1.107996 0.89200413,2 2.00000003,2 H 12 c 1.107996,0 2,-0.892004 2,-2 v -1 c 1.107997,0 2,-0.8920037 2,-2.0000001 0,-1.1079967 -0.892003,-2 -2,-2 V 5 C 14,3.8920044 13.107996,3 12,3 Z M 4.1171878,5 2.8945315,7.4472656 C 2.723461,7.7837711 2.3774917,7.9952807 2.0000003,7.9941406 V 11 H 6 V 5 Z"
     style="fill:#363636;stroke:none;stroke-width:2;stroke-linecap:round;stroke-linejoin:round;-inkscape-stroke:none"
     id="path712"
     sodipodi:nodetypes="ccccccccccsssssscccsssscscsscccccccc" />
</svg>
