<?xml version="1.0" encoding="UTF-8" standalone="no"?>
<!-- Created with Inkscape (http://www.inkscape.org/) -->

<svg
   width="22"
   height="22"
   viewBox="0 0 22 22.000001"
   version="1.1"
   id="svg5"
   inkscape:version="1.2.1 (9c6d41e410, 2022-07-14, custom)"
   sodipodi:docname="system-reboot.svg"
   xmlns:inkscape="http://www.inkscape.org/namespaces/inkscape"
   xmlns:sodipodi="http://sodipodi.sourceforge.net/DTD/sodipodi-0.dtd"
   xmlns:xlink="http://www.w3.org/1999/xlink"
   xmlns="http://www.w3.org/2000/svg"
   xmlns:svg="http://www.w3.org/2000/svg">
  <sodipodi:namedview
     id="namedview7"
     pagecolor="#ffffff"
     bordercolor="#000000"
     borderopacity="0.25"
     inkscape:showpageshadow="2"
     inkscape:pageopacity="0.0"
     inkscape:pagecheckerboard="0"
     inkscape:deskcolor="#d1d1d1"
     inkscape:document-units="px"
     showgrid="false"
     inkscape:zoom="37.590909"
     inkscape:cx="10.986699"
     inkscape:cy="11"
     inkscape:window-width="1920"
     inkscape:window-height="1029"
     inkscape:window-x="0"
     inkscape:window-y="0"
     inkscape:window-maximized="1"
     inkscape:current-layer="svg5" />
  <defs
     id="defs2">
    <linearGradient
       inkscape:collect="always"
       id="linearGradient6074">
      <stop
         style="stop-color:#459b11;stop-opacity:1;"
         offset="0"
         id="stop6070" />
      <stop
         style="stop-color:#7bc630;stop-opacity:1;"
         offset="1"
         id="stop6072" />
    </linearGradient>
    <linearGradient
       inkscape:collect="always"
       xlink:href="#linearGradient6074"
       id="linearGradient6076"
       x1="15.572827"
       y1="17.563978"
       x2="6.6501532"
       y2="4.2860041"
       gradientUnits="userSpaceOnUse" />
  </defs>
  <path
     id="path3705"
     style="color:#000000;fill:url(#linearGradient6076);stroke-linecap:round;-inkscape-stroke:none;stroke:none;fill-opacity:1"
     d="M 11.132812 3.0019531 C 10.981299 2.9993556 10.829669 3.0017643 10.677734 3.0078125 C 9.8674166 3.0400695 9.0529533 3.195147 8.2636719 3.4824219 C 5.4056946 4.5226405 3.4094363 7.0877227 3.0566406 10.056641 L 1.8789062 8.8789062 C 1.4871698 8.4871698 0.85658057 8.4871695 0.46484375 8.8789062 C 0.073107642 9.2706423 0.073107002 9.901232 0.46484375 10.292969 L 3.2929688 13.121094 C 3.6847054 13.51283 4.3152942 13.51283 4.7070312 13.121094 L 7.5351562 10.292969 C 7.9268932 9.901232 7.9268929 9.2706432 7.5351562 8.8789062 C 7.1434199 8.4871696 6.51283 8.4871707 6.1210938 8.8789062 L 5.1035156 9.8964844 C 5.4870073 7.8366167 6.9262657 6.0969119 8.9472656 5.3613281 C 11.320763 4.497446 13.972136 5.2076858 15.595703 7.1425781 A 1 1 0 0 0 17.005859 7.265625 A 1 1 0 0 0 17.128906 5.8574219 C 15.610437 4.0477804 13.405517 3.0409165 11.132812 3.0019531 z M 18 8.5839844 C 17.744381 8.5839846 17.488838 8.6830379 17.292969 8.8789062 L 14.464844 11.707031 C 14.073107 12.098768 14.073107 12.729357 14.464844 13.121094 C 14.856579 13.51283 15.487171 13.512829 15.878906 13.121094 L 16.896484 12.103516 C 16.512993 14.163383 15.073735 15.903088 13.052734 16.638672 C 10.679238 17.502554 8.0278644 16.792314 6.4042969 14.857422 A 1 1 0 0 0 4.9941406 14.734375 A 1 1 0 0 0 4.8710938 16.142578 C 6.4907946 18.072862 8.8913107 19.088959 11.322266 18.992188 C 12.132584 18.959928 12.947047 18.804853 13.736328 18.517578 C 16.594306 17.477359 18.590564 14.912277 18.943359 11.943359 L 20.121094 13.121094 C 20.51283 13.51283 21.14342 13.51283 21.535156 13.121094 C 21.926892 12.729358 21.926893 12.098768 21.535156 11.707031 L 18.707031 8.8789062 C 18.511163 8.6830379 18.255619 8.5839841 18 8.5839844 z " />
</svg>
