<?xml version="1.0" encoding="UTF-8" standalone="no"?>
<!-- Created with Inkscape (http://www.inkscape.org/) -->

<svg
   width="16"
   height="16"
   viewBox="0 0 16 16"
   version="1.1"
   id="svg427"
   inkscape:version="1.2.1 (9c6d41e410, 2022-07-14, custom)"
   sodipodi:docname="network-wireless-signal-ok-symbolic.svg"
   xmlns:inkscape="http://www.inkscape.org/namespaces/inkscape"
   xmlns:sodipodi="http://sodipodi.sourceforge.net/DTD/sodipodi-0.dtd"
   xmlns="http://www.w3.org/2000/svg"
   xmlns:svg="http://www.w3.org/2000/svg">
  <sodipodi:namedview
     id="namedview429"
     pagecolor="#ffffff"
     bordercolor="#000000"
     borderopacity="0.25"
     inkscape:showpageshadow="2"
     inkscape:pageopacity="0.0"
     inkscape:pagecheckerboard="0"
     inkscape:deskcolor="#d1d1d1"
     inkscape:document-units="px"
     showgrid="false"
     inkscape:zoom="50.125"
     inkscape:cx="8"
     inkscape:cy="8"
     inkscape:window-width="1920"
     inkscape:window-height="1011"
     inkscape:window-x="0"
     inkscape:window-y="0"
     inkscape:window-maximized="1"
     inkscape:current-layer="svg427" />
  <defs
     id="defs424" />
  <path
     id="path344"
     style="fill:#363636;stroke-width:1.06586;stroke-linejoin:round"
     d="M 8 8 C 6.9290089 8 5.9378391 8.5724937 5.4023438 9.5 C 5.2636462 9.7389158 5.344987 10.045036 5.5839844 10.183594 C 5.8234118 10.321964 6.1296911 10.239704 6.2675781 10 C 6.6252432 9.380504 7.2846698 9 8 9 C 8.7153293 9 9.3747562 9.380504 9.7324219 10 C 9.8703087 10.239706 10.176588 10.321964 10.416016 10.183594 C 10.655012 10.045036 10.736354 9.7389158 10.597656 9.5 C 10.062162 8.5724937 9.0709909 8 8 8 z M 8 11 C 7.4477832 10.999713 7.0006097 11.447784 7 12 C 6.9997126 12.552851 7.4471488 13.000288 8 13 C 8.5522165 12.99939 9.0002873 12.552216 9 12 C 8.9993911 11.448418 8.5515825 11.000609 8 11 z " />
  <path
     d="M 8,2 C 4.7854206,2 1.8123674,3.7160928 0.20507794,6.5 0.06670804,6.7394278 0.14896594,7.0457064 0.3886717,7.1835938 0.6280994,7.3219636 0.9343781,7.2397058 1.0722654,7 2.5017243,4.5241046 5.1410821,3 8,3 10.858917,3 13.498277,4.5241048 14.927734,7 15.065621,7.2397062 15.3719,7.3219638 15.611328,7.1835938 15.851034,7.0457065 15.933292,6.7394278 15.794922,6.5 14.187631,3.716093 11.214579,2 8,2 Z M 8,5 C 5.8572141,5 3.87608,6.1442933 2.8046873,8 2.6659898,8.238916 2.7473303,8.5450372 2.9863279,8.6835942 3.2257557,8.8219642 3.5320343,8.7397042 3.6699217,8.5000002 4.5634837,6.9523049 6.2128756,6 8,6 c 1.7871244,0 3.436516,0.9523051 4.330078,2.5000002 0.137887,0.239706 0.444166,0.321964 0.683594,0.183594 C 13.252669,8.5450362 13.33401,8.2389159 13.195312,8 12.123921,6.1442935 10.142786,5 8,5 Z"
     style="opacity:0.2;fill:#363636;stroke:none;stroke-linecap:round;stroke-linejoin:round"
     id="path377"
     sodipodi:nodetypes="scccscccsscccscccs" />
</svg>
