<?xml version="1.0" encoding="UTF-8" standalone="no"?>
<!-- Created with Inkscape (http://www.inkscape.org/) -->

<svg
   width="24"
   height="24"
   viewBox="0 0 24 24.000002"
   version="1.1"
   id="svg5"
   inkscape:version="1.2.1 (9c6d41e410, 2022-07-14, custom)"
   sodipodi:docname="folder-new.svg"
   xmlns:inkscape="http://www.inkscape.org/namespaces/inkscape"
   xmlns:sodipodi="http://sodipodi.sourceforge.net/DTD/sodipodi-0.dtd"
   xmlns="http://www.w3.org/2000/svg"
   xmlns:svg="http://www.w3.org/2000/svg">
  <sodipodi:namedview
     id="namedview7"
     pagecolor="#ffffff"
     bordercolor="#000000"
     borderopacity="0.25"
     inkscape:showpageshadow="2"
     inkscape:pageopacity="0.0"
     inkscape:pagecheckerboard="0"
     inkscape:deskcolor="#d1d1d1"
     inkscape:document-units="px"
     showgrid="false"
     inkscape:zoom="33.708333"
     inkscape:cx="11.169345"
     inkscape:cy="12"
     inkscape:window-width="1920"
     inkscape:window-height="1012"
     inkscape:window-x="0"
     inkscape:window-y="0"
     inkscape:window-maximized="1"
     inkscape:current-layer="svg5" />
  <defs
     id="defs2">
    <style
       id="current-color-scheme"
       type="text/css">
         .ColorScheme-Text {
         color:#363636;}
      </style>
  </defs>
  <path
     id="path347"
     style="fill:currentColor;stroke-width:1.5;stroke-linecap:round;stroke-linejoin:round;paint-order:stroke fill markers"
     class="ColorScheme-Text"
     d="M 5 4 C 3.8920033 4 3 4.8920033 3 6 L 3 18 C 3 19.107997 3.8920033 20 5 20 L 13.267578 20 A 5.5 5.5 0 0 1 12.613281 19 L 5 19 C 4.4460018 19 4 18.553997 4 18 L 4 9 L 10 9 L 12 7 L 19 7 C 19.553997 7 20 7.4460018 20 8 L 20 11.603516 A 5.5 5.5 0 0 1 21 12.257812 L 21 8 C 21 6.8920033 20.107997 6 19 6 L 12 6 L 10 4 L 5 4 z M 5 5 L 9.5859375 5 L 11.082031 6.5039062 L 9.5859375 8 L 4 8 L 4 6 C 4 5.4460018 4.4460018 5 5 5 z M 17.5 12 A 4.5 4.5 0 0 0 13 16.5 A 4.5 4.5 0 0 0 17.5 21 A 4.5 4.5 0 0 0 22 16.5 A 4.5 4.5 0 0 0 17.5 12 z M 17.5 14 C 17.777 14 18 14.223 18 14.5 L 18 16 L 19.5 16 C 19.777 16 20 16.223 20 16.5 C 20 16.777 19.777 17 19.5 17 L 18 17 L 18 18.5 C 18 18.777 17.777 19 17.5 19 C 17.223 19 17 18.777 17 18.5 L 17 17 L 15.5 17 C 15.223 17 15 16.777 15 16.5 C 15 16.223 15.223 16 15.5 16 L 17 16 L 17 14.5 C 17 14.223 17.223 14 17.5 14 z " />
</svg>
