<?xml version="1.0" encoding="UTF-8" standalone="no"?>
<!-- Created with Inkscape (http://www.inkscape.org/) -->

<svg
   width="24"
   height="24"
   viewBox="0 0 24 24"
   version="1.1"
   id="svg5"
   inkscape:version="1.2.1 (9c6d41e410, 2022-07-14, custom)"
   sodipodi:docname="im-user.svg"
   xmlns:inkscape="http://www.inkscape.org/namespaces/inkscape"
   xmlns:sodipodi="http://sodipodi.sourceforge.net/DTD/sodipodi-0.dtd"
   xmlns="http://www.w3.org/2000/svg"
   xmlns:svg="http://www.w3.org/2000/svg">
  <sodipodi:namedview
     id="namedview7"
     pagecolor="#ffffff"
     bordercolor="#666666"
     borderopacity="1.0"
     inkscape:pageshadow="2"
     inkscape:pageopacity="0.0"
     inkscape:pagecheckerboard="0"
     inkscape:document-units="px"
     showgrid="false"
     units="px"
     height="64px"
     inkscape:lockguides="false"
     inkscape:zoom="33.708333"
     inkscape:cx="12.029666"
     inkscape:cy="12.029666"
     inkscape:window-width="1920"
     inkscape:window-height="1012"
     inkscape:window-x="0"
     inkscape:window-y="0"
     inkscape:window-maximized="1"
     inkscape:current-layer="svg5"
     inkscape:showpageshadow="2"
     inkscape:deskcolor="#d1d1d1" />
  <defs
     id="defs2">
    <style
       id="current-color-scheme"
       type="text/css">
      .ColorScheme-Text { color:#363636; }
    </style>
  </defs>
  <path
     d="M 12,3 C 9.790861,3 8,4.790861 8,7 c 0,2.209139 1.790861,4 4,4 2.209139,0 4,-1.790861 4,-4 0,-2.209139 -1.790861,-4 -4,-4 z m 0,1 c 1.656854,0 3,1.3431458 3,3 0,1.6568542 -1.343146,3 -3,3 C 10.343146,10 9,8.6568542 9,7 9,5.3431458 10.343146,4 12,4 Z m -4,9 c -1.661997,0 -3,1.338004 -3,3 v 1 c 0,1.999997 2.581731,4 7,4 4.41827,0 7,-2.000003 7,-4 v -1 c 0,-1.661996 -1.338004,-3 -3,-3 z m 0,1 h 8 c 1.125294,0 2,0.874706 2,2 v 1 c 0,0.569711 -0.37725,1.278782 -1.373047,1.902344 C 15.631156,19.525903 14.058245,20 12,20 9.9417557,20 8.368844,19.525903 7.373047,18.902344 6.37725,18.278782 6,17.569711 6,17 v -1 c 0,-1.125294 0.874706,-2 2,-2 z"
     style="fill:currentColor;fill-opacity:1;stroke-width:1.34768;stroke-linecap:round;stroke-linejoin:round"
     class="ColorScheme-Text"
     id="path5563" />
</svg>
