<?xml version="1.0" encoding="UTF-8" standalone="no"?>
<!-- Created with Inkscape (http://www.inkscape.org/) -->

<svg
   width="24"
   height="24"
   viewBox="0 0 24 24.000001"
   version="1.1"
   id="svg5"
   inkscape:version="1.2.1 (9c6d41e410, 2022-07-14, custom)"
   sodipodi:docname="filename-filetype-amarok.svg"
   xmlns:inkscape="http://www.inkscape.org/namespaces/inkscape"
   xmlns:sodipodi="http://sodipodi.sourceforge.net/DTD/sodipodi-0.dtd"
   xmlns="http://www.w3.org/2000/svg"
   xmlns:svg="http://www.w3.org/2000/svg">
  <sodipodi:namedview
     id="namedview7"
     pagecolor="#ffffff"
     bordercolor="#000000"
     borderopacity="0.25"
     inkscape:showpageshadow="2"
     inkscape:pageopacity="0.0"
     inkscape:pagecheckerboard="0"
     inkscape:deskcolor="#d1d1d1"
     inkscape:document-units="px"
     showgrid="false"
     inkscape:zoom="33.708333"
     inkscape:cx="11.985167"
     inkscape:cy="12"
     inkscape:window-width="1920"
     inkscape:window-height="1012"
     inkscape:window-x="0"
     inkscape:window-y="0"
     inkscape:window-maximized="1"
     inkscape:current-layer="svg5" />
  <defs
     id="defs2">
    <style
       id="current-color-scheme"
       type="text/css">
      .ColorScheme-Text { color:#363636; }
    </style>
  </defs>
  <path
     id="path285"
     style="opacity:1;fill:currentColor;fill-opacity:1;stroke-width:0.857143"
     class="ColorScheme-Text"
     d="M 13,2 V 15.355469 C 12.267038,14.524543 11.19511,14 10,14 c -2.2091346,0 -4,1.790864 -4,4 0,2.209134 1.7908654,4 4,4 2.209135,0 4,-1.790866 4,-4 V 7 l 6,2.8203125 v -3 C 20,5.7123169 19.107996,4.4950744 18,4.0917969 L 14,2 Z m 1,1 4,2.0917969 c 0.553996,0.2016386 1,0.8092836 1,1.3632812 v 2 L 14,6 Z m -4,12 c 1.656852,0 3,1.343147 3,3 0,1.656851 -1.343148,3 -3,3 -1.6568526,0 -3,-1.343149 -3,-3 0,-1.656853 1.3431474,-3 3,-3 z" />
</svg>
