<?xml version="1.0" encoding="UTF-8" standalone="no"?>
<!-- Created with Inkscape (http://www.inkscape.org/) -->

<svg
   width="24"
   height="24"
   viewBox="0 0 24 24"
   version="1.1"
   id="svg5"
   inkscape:version="1.2.1 (9c6d41e410, 2022-07-14, custom)"
   sodipodi:docname="window-maximize.svg"
   xmlns:inkscape="http://www.inkscape.org/namespaces/inkscape"
   xmlns:sodipodi="http://sodipodi.sourceforge.net/DTD/sodipodi-0.dtd"
   xmlns="http://www.w3.org/2000/svg"
   xmlns:svg="http://www.w3.org/2000/svg">
  <sodipodi:namedview
     id="namedview7"
     pagecolor="#ffffff"
     bordercolor="#666666"
     borderopacity="1.0"
     inkscape:showpageshadow="2"
     inkscape:pageopacity="0.0"
     inkscape:pagecheckerboard="0"
     inkscape:deskcolor="#d1d1d1"
     inkscape:document-units="px"
     showgrid="false"
     inkscape:zoom="33.708333"
     inkscape:cx="12"
     inkscape:cy="12"
     inkscape:window-width="1920"
     inkscape:window-height="1012"
     inkscape:window-x="0"
     inkscape:window-y="0"
     inkscape:window-maximized="1"
     inkscape:current-layer="svg5" />
  <defs
     id="defs2">
    <style
       id="current-color-scheme"
       type="text/css">
      .ColorScheme-Text { color:#363636; }
    </style>
  </defs>
  <path
     id="rect436"
     style="fill:currentColor;stroke-width:2;stroke-linecap:round;stroke-linejoin:round"
     d="M 9,6 C 7.3380017,6 6,7.3380017 6,9 v 6 c 0,1.661998 1.3380017,3 3,3 h 6 c 1.661998,0 3,-1.338002 3,-3 V 9 C 18,7.3380017 16.661998,6 15,6 Z m 0,1 h 6 c 1.107997,0 2,0.8920023 2,2 v 6 c 0,1.107997 -0.892003,2 -2,2 H 9 C 7.8920023,17 7,16.107997 7,15 V 9 C 7,7.8920023 7.8920023,7 9,7 Z"
     class="ColorScheme-Text" />
</svg>
