<?xml version="1.0" encoding="UTF-8" standalone="no"?>
<svg
   viewBox="0 0 22 22"
   version="1.1"
   id="svg1"
   sodipodi:docname="duplicate-node.svg"
   inkscape:version="1.4.2 (1:1.4.2+202505120738+ebf0e940d0)"
   xmlns:inkscape="http://www.inkscape.org/namespaces/inkscape"
   xmlns:sodipodi="http://sodipodi.sourceforge.net/DTD/sodipodi-0.dtd"
   xmlns="http://www.w3.org/2000/svg"
   xmlns:svg="http://www.w3.org/2000/svg">
  <defs
     id="defs1" />
  <sodipodi:namedview
     id="namedview1"
     pagecolor="#ffffff"
     bordercolor="#666666"
     borderopacity="1.0"
     inkscape:showpageshadow="2"
     inkscape:pageopacity="0.0"
     inkscape:pagecheckerboard="0"
     inkscape:deskcolor="#d1d1d1"
     inkscape:zoom="37.508801"
     inkscape:cx="12.063835"
     inkscape:cy="10.090965"
     inkscape:window-width="2560"
     inkscape:window-height="1372"
     inkscape:window-x="1920"
     inkscape:window-y="0"
     inkscape:window-maximized="1"
     inkscape:current-layer="svg1" />
  <g
     id="g1">
    <path
       style="fill:#4d4d4d;fill-opacity:1;stroke:none;stroke-width:0.400316"
       id="path1-6"
       sodipodi:type="arc"
       sodipodi:cx="7.6141458"
       sodipodi:cy="7.7414594"
       sodipodi:rx="6.5984111"
       sodipodi:ry="6.5130472"
       sodipodi:start="5.673664"
       sodipodi:end="5.6735508"
       sodipodi:arc-type="arc"
       d="M 13.024329,4.0129024 A 6.5984111,6.5130472 0 0 1 11.391724,13.081546 6.5984111,6.5130472 0 0 1 2.2041762,11.470319 6.5984111,6.5130472 0 0 1 3.8362608,2.4015843 6.5984111,6.5130472 0 0 1 13.023902,4.012298"
       sodipodi:open="true" />
    <path
       style="fill:#3daee9;fill-opacity:1;stroke:#ffffff;stroke-width:0.473247;stroke-dasharray:none;stroke-opacity:1"
       id="path2"
       sodipodi:type="arc"
       sodipodi:cx="14.178876"
       sodipodi:cy="14.287802"
       sodipodi:rx="6.5916553"
       sodipodi:ry="6.5038357"
       sodipodi:start="5.673664"
       sodipodi:end="5.6735508"
       sodipodi:open="true"
       sodipodi:arc-type="arc"
       d="M 19.58352,10.564518 A 6.5916553,6.5038357 0 0 1 17.952587,19.620335 6.5916553,6.5038357 0 0 1 8.7744454,18.011387 6.5916553,6.5038357 0 0 1 10.404859,8.9554789 6.5916553,6.5038357 0 0 1 19.583093,10.563915" />
    <path
       d="m 14.752409,13.820335 h 3.085651 q 0.338669,0 0.555041,0.244594 0.244594,0.244594 0.235186,0.545633 v 0.03763 q 0,0.329262 -0.235186,0.555041 -0.244595,0.235187 -0.555041,0.235187 h -3.085651 v 2.916316 q 0,0.376299 -0.272816,0.649115 -0.272817,0.272817 -0.620893,0.26341 H 13.82107 Q 13.444771,19.286076 13.181362,19.013259 12.92736,18.731035 12.92736,18.354736 V 15.43842 H 9.8417095 q -0.338669,0 -0.5644483,-0.244594 -0.2257793,-0.244595 -0.2257793,-0.545634 v -0.03763 q 0,-0.338668 0.2257793,-0.545633 0.2445942,-0.244594 0.5644483,-0.244594 H 12.92736 v -2.888094 q 0,-0.376298 0.263409,-0.6303 0.254002,-0.254002 0.630301,-0.254002 h 0.03763 q 0.376298,0 0.620893,0.272817 0.272816,0.272816 0.272816,0.611485 z"
       id="text4"
       style="font-size:19.2665px;line-height:1000;font-family:Dyuthi;-inkscape-font-specification:'Dyuthi, Normal';letter-spacing:0px;word-spacing:0px;fill:#ffffff;stroke-width:0.481665"
       transform="scale(1.0225021,0.97799314)"
       aria-label="+" />
  </g>
</svg>
