<?xml version="1.0" encoding="UTF-8" standalone="no"?>
<svg
   height="24"
   viewBox="0 0 24 24"
   width="24"
   version="1.1"
   id="svg2"
   sodipodi:docname="duplicate-node.svg"
   inkscape:version="1.4.2 (1:1.4.2+202505120738+ebf0e940d0)"
   xmlns:inkscape="http://www.inkscape.org/namespaces/inkscape"
   xmlns:sodipodi="http://sodipodi.sourceforge.net/DTD/sodipodi-0.dtd"
   xmlns="http://www.w3.org/2000/svg"
   xmlns:svg="http://www.w3.org/2000/svg">
  <defs
     id="defs2" />
  <sodipodi:namedview
     id="namedview2"
     pagecolor="#ffffff"
     bordercolor="#666666"
     borderopacity="1.0"
     inkscape:showpageshadow="2"
     inkscape:pageopacity="0.0"
     inkscape:pagecheckerboard="0"
     inkscape:deskcolor="#d1d1d1"
     inkscape:zoom="48.625"
     inkscape:cx="14.899743"
     inkscape:cy="8.2982005"
     inkscape:window-width="2560"
     inkscape:window-height="1372"
     inkscape:window-x="1920"
     inkscape:window-y="0"
     inkscape:window-maximized="1"
     inkscape:current-layer="g2" />
  <style
     type="text/css"
     id="current-color-scheme">.ColorScheme-Text{color:#dedede;}</style>
  <g
     id="g2"
     transform="matrix(1.6013938,0,0,1.5854168,-0.88804331,-0.79134411)">
    <g
       id="g1">
      <path
         style="fill:#dedede;fill-opacity:1;stroke:none;stroke-width:0.281754"
         id="path1"
         sodipodi:type="arc"
         sodipodi:cx="5.664825"
         sodipodi:cy="5.6300697"
         sodipodi:rx="4.5825572"
         sodipodi:ry="4.6456957"
         sodipodi:start="5.673664"
         sodipodi:end="5.6735508"
         sodipodi:arc-type="arc"
         d="M 9.4221651,2.9705249 A 4.5825572,4.6456957 0 0 1 8.2883309,9.4391033 4.5825572,4.6456957 0 0 1 1.9076333,8.2898301 4.5825572,4.6456957 0 0 1 3.0411064,1.8211867 4.5825572,4.6456957 0 0 1 9.4218681,2.9700938"
         sodipodi:open="true" />
      <path
         style="fill:#3daee9;fill-opacity:1;stroke:#ffffff;stroke-width:0.333085;stroke-dasharray:none;stroke-opacity:1"
         id="path2"
         sodipodi:type="arc"
         sodipodi:cx="10.223992"
         sodipodi:cy="10.299515"
         sodipodi:rx="4.5778651"
         sodipodi:ry="4.6391253"
         sodipodi:start="5.673664"
         sodipodi:end="5.6735508"
         sodipodi:open="true"
         sodipodi:arc-type="arc"
         d="M 13.977485,7.6437313 A 4.5778651,4.6391253 0 0 1 12.844812,14.103161 4.5778651,4.6391253 0 0 1 6.4706477,12.955514 4.5778651,4.6391253 0 0 1 7.6029602,6.4960186 4.5778651,4.6391253 0 0 1 13.977189,7.6433008" />
      <path
         d="m 10.756679,9.8362981 h 2.171767 q 0.238364,0 0.390653,0.1721519 0.172152,0.172153 0.165531,0.384032 v 0.02649 q 0,0.231744 -0.165531,0.390653 -0.172152,0.165531 -0.390653,0.165531 h -2.171767 v 2.052585 q 0,0.264849 -0.192016,0.456865 -0.192016,0.192016 -0.437002,0.185395 h -0.02648 Q 9.8363265,13.683239 9.6509317,13.491223 9.4721582,13.292585 9.4721582,13.027736 V 10.975151 H 7.3003915 q -0.2383647,0 -0.3972744,-0.172152 -0.1589098,-0.172152 -0.1589098,-0.384032 v -0.02649 q 0,-0.238364 0.1589098,-0.384032 Q 7.0752693,9.8362981 7.3003915,9.8362981 H 9.4721582 V 7.8035773 q 0,-0.2648496 0.1853948,-0.4436231 0.1787735,-0.1787734 0.443623,-0.1787734 h 0.02648 q 0.26485,0 0.437002,0.1920159 0.192016,0.192016 0.192016,0.4303806 z"
         id="text4"
         style="font-size:13.5603px;line-height:1000;font-family:Dyuthi;-inkscape-font-specification:'Dyuthi, Normal';letter-spacing:0px;word-spacing:0px;fill:#ffffff;stroke-width:0.33901"
         transform="scale(1.0089396,0.99113958)"
         aria-label="+" />
    </g>
  </g>
</svg>
