<svg id="Capa_1" enable-background="new 0 0 512 512" height="512" viewBox="0 0 512 512" width="512" xmlns="http://www.w3.org/2000/svg"><g><g><path d="m502.681 198.27v68.85l-2.48 1.68-24.29 16.48-58.97-40-58.97 40-58.97-40-58.97 40-58.96-40-58.97 40-26.76-18.15v-219.75c0-22.03 17.85-39.88 39.87-39.88h176.7c15.88 0 67.31 43.85 112.77 90.03 41.48 42.15 78 86.24 78 100.74z" fill="#ddeafb"/><path d="m475.911 332.15 26.77-18.16v150.63c0 22.03-17.85 39.88-39.87 39.88h-327.6c-18.82 0-34.59-13.04-38.78-30.58l-.16-22.8-.93-135.78v-1.34l26.76 18.15 58.97-40 58.96 40 58.97-40 58.97 40 58.97-40z" fill="#ddeafb"/><path d="m502.681 198.27v68.85l-2.48 1.68c-15.77-94.08-100.61-101.12-129.94-130.45l54.42-40.82c41.48 42.15 78 86.24 78 100.74z" fill="#cbe2ff"/><path d="m311.906 7.5h-97.57c.11 0 .22.01.34.01 119.72 3 125.26 100.52 157.15 132.41l40.82-54.42c-42.15-41.48-86.24-78-100.74-78z" fill="#cbe2ff"/><path d="m502.681 198.276v16.868c0-35.514-28.798-64.312-64.312-64.312h-39.143c-22.019 0-39.877-17.858-39.877-39.877v-39.143c0-35.514-28.798-64.312-64.312-64.312h16.868c30.373 0 59.512 12.068 80.989 33.545l76.242 76.242c21.476 21.476 33.545 50.615 33.545 80.989z" fill="#bed8fb"/><circle cx="96.445" cy="141.864" fill="#dd636e" r="87.126"/><path d="m107.749 228.264c-3.7.48-7.48.73-11.31.73-48.12 0-87.12-39.01-87.12-87.13 0-48.11 39-87.12 87.12-87.12 3.83 0 7.61.25 11.31.73-42.78 5.54-75.82 42.11-75.82 86.39 0 44.29 33.04 80.86 75.82 86.4z" fill="#da4a54"/></g><g><path d="m510.181 198.276c0-32.598-12.693-63.244-35.741-86.292l-76.242-76.242c-23.05-23.049-53.695-35.742-86.293-35.742h-.006-176.7c-26.12 0-47.37 21.255-47.37 47.38v.257c-48.153 4.369-86.01 44.956-86.01 94.223 0 49.273 37.856 89.864 86.01 94.233v31.027c0 2.486 1.232 4.811 3.29 6.207l26.769 18.16c2.543 1.725 5.88 1.724 8.421 0l54.761-37.144 54.749 37.144c2.543 1.725 5.88 1.724 8.421 0l54.76-37.144 54.76 37.144c2.541 1.725 5.879 1.724 8.42 0l54.761-37.144 54.76 37.144c1.271.862 2.74 1.293 4.21 1.293s2.939-.431 4.21-1.293l26.76-18.15c2.058-1.396 3.29-3.721 3.29-6.207zm-122.591-151.928 76.242 76.242c12.185 12.184 21.069 26.788 26.205 42.729-13.069-13.549-31.401-21.988-51.669-21.988h-39.143c-17.853 0-32.377-14.524-32.377-32.377v-39.142c0-20.268-8.438-38.599-21.987-51.669 15.942 5.137 30.545 14.021 42.729 26.205zm88.319 229.87-54.76-37.144c-2.541-1.724-5.879-1.724-8.42 0l-54.761 37.144-54.76-37.144c-2.541-1.724-5.879-1.724-8.42 0l-54.76 37.144-54.749-37.144c-2.543-1.725-5.88-1.724-8.421 0l-54.761 37.144-19.27-13.072v-26.876c49.21-3.293 88.24-44.375 88.24-94.41 0-29.062-13.078-56.098-35.881-74.177-3.244-2.573-7.963-2.029-10.536 1.218-2.573 3.246-2.028 7.963 1.218 10.536 19.191 15.217 30.199 37.969 30.199 62.423 0 43.908-35.718 79.63-79.62 79.63-43.908 0-79.63-35.722-79.63-79.63 0-43.903 35.722-79.62 79.63-79.62 7.619 0 15.133 1.069 22.331 3.177 3.979 1.166 8.142-1.115 9.306-5.089 1.165-3.975-1.114-8.141-5.089-9.306-6.547-1.918-13.307-3.107-20.168-3.564v-.078c0-17.854 14.521-32.38 32.37-32.38h159.838c31.326 0 56.812 25.486 56.812 56.812v39.143c0 26.124 21.253 47.377 47.377 47.377h39.143c31.171 0 56.551 25.237 56.801 56.35v48.472z"/><path d="m507.608 308.351c-2.641-2.287-6.383-2.434-9.149-.558l-22.55 15.294-54.76-37.144c-2.541-1.725-5.878-1.724-8.421 0l-19.519 13.243c-3.399 2.306-4.586 6.937-2.382 10.403 2.279 3.586 7.05 4.555 10.543 2.187l15.569-10.563 54.76 37.144c2.541 1.725 5.879 1.724 8.42 0l15.05-10.208v136.471c0 17.883-14.497 32.38-32.38 32.38h-327.59c-.462 0-.921-.01-1.379-.029-16.775-.699-29.846-14.883-29.961-31.673l-.941-137.098 14.97 10.156c2.543 1.725 5.88 1.724 8.421 0l54.761-37.144 54.749 37.144c2.543 1.725 5.88 1.724 8.421 0l54.76-37.144 54.76 37.144c2.54 1.724 5.877 1.724 8.419.001l11.172-7.575c3.399-2.304 4.586-6.933 2.384-10.399-2.279-3.587-7.052-4.559-10.543-2.192l-7.221 4.896-54.761-37.145c-2.541-1.724-5.879-1.724-8.42 0l-54.76 37.144-54.749-37.144c-2.543-1.725-5.88-1.724-8.421 0l-54.761 37.144-22.379-15.18c-1.84-1.248-4.138-1.747-6.287-1.175-3.377.899-5.604 3.914-5.604 7.259v1.402l1.09 154.58c0 17.853 14.019 42.029 46.28 42.029h327.6c26.162 0 47.37-21.208 47.37-47.37v-150.416c0-2.225-.879-4.407-2.561-5.864z"/><path d="m131.2 96.501-34.755 34.755-34.756-34.755c-2.93-2.929-7.678-2.929-10.607 0s-2.929 7.677 0 10.606l34.756 34.756-34.756 34.757c-2.929 2.929-2.929 7.677 0 10.606 1.465 1.465 3.385 2.197 5.304 2.197s3.839-.732 5.304-2.197l34.755-34.755 34.755 34.755c1.465 1.465 3.385 2.197 5.304 2.197s3.839-.732 5.304-2.197c2.929-2.929 2.929-7.677 0-10.606l-34.756-34.756 34.756-34.756c2.929-2.929 2.929-7.677 0-10.606-2.93-2.93-7.678-2.93-10.608-.001z"/></g></g></svg>