<svg width="1024" height="1024" viewBox="0 0 1024 1024" fill="none" xmlns="http://www.w3.org/2000/svg">
<g filter="url(#filter0_dii_51_88)">
<mask id="mask0_51_88" style="mask-type:alpha" maskUnits="userSpaceOnUse" x="100" y="100" width="824" height="824">
<path fill-rule="evenodd" clip-rule="evenodd" d="M924 356.627C924 346.845 924.004 337.062 923.944 327.279C923.895 319.038 923.8 310.799 923.576 302.562C923.092 284.609 922.033 266.502 918.84 248.749C915.602 230.741 910.314 213.98 901.981 197.617C893.789 181.534 883.088 166.817 870.32 154.058C857.555 141.299 842.834 130.605 826.746 122.418C810.366 114.083 793.587 108.797 775.558 105.56C757.803 102.372 739.691 101.315 721.738 100.83C713.495 100.607 705.253 100.513 697.008 100.462C687.22 100.402 677.432 100.407 667.644 100.407L553.997 100H468.997L357.361 100.407C347.554 100.407 337.747 100.402 327.94 100.462C319.678 100.513 311.42 100.607 303.161 100.83C285.167 101.315 267.014 102.373 249.217 105.565C231.164 108.801 214.36 114.085 197.958 122.414C181.835 130.602 167.083 141.297 154.291 154.058C141.501 166.816 130.78 181.53 122.573 197.61C114.217 213.981 108.919 230.752 105.673 248.77C102.477 266.516 101.418 284.617 100.931 302.562C100.709 310.8 100.613 319.039 100.563 327.279C100.503 337.063 100 349.216 100 358.999L100.003 469.089L100 554.998L100.508 667.427C100.508 677.223 100.504 687.019 100.563 696.815C100.613 705.067 100.709 713.317 100.932 721.566C101.418 739.542 102.479 757.675 105.678 775.452C108.923 793.484 114.22 810.269 122.569 826.653C130.777 842.759 141.5 857.495 154.291 870.272C167.082 883.049 181.83 893.757 197.95 901.956C214.362 910.302 231.174 915.595 249.238 918.836C267.027 922.029 285.174 923.088 303.161 923.573C311.42 923.796 319.679 923.891 327.941 923.941C337.748 924.001 347.554 923.997 357.361 923.997L470.006 924H555.217L667.644 923.996C677.432 923.996 687.22 924.001 697.008 923.941C705.253 923.891 713.495 923.796 721.738 923.573C739.698 923.087 757.816 922.027 775.579 918.832C793.597 915.591 810.368 910.3 826.739 901.959C842.831 893.761 857.554 883.051 870.32 870.272C883.086 857.497 893.786 842.763 901.978 826.66C910.316 810.268 915.604 793.475 918.844 775.431C922.034 757.661 923.092 739.535 923.577 721.566C923.8 713.316 923.895 705.066 923.944 696.815C924.005 687.019 924 677.223 924 667.427C924 667.427 923.994 556.983 923.994 554.998V468.999C923.994 467.533 924 356.627 924 356.627" fill="white"/>
</mask>
<g mask="url(#mask0_51_88)">
<rect width="1024" height="512" fill="#0057B8"/>
<rect y="512" width="1024" height="512" fill="#FFD700"/>
</g>
</g>
<g filter="url(#filter1_ddii_51_88)">
<rect x="155" y="154" width="716" height="716" rx="130" fill="url(#paint0_linear_51_88)"/>
</g>
<rect x="180" y="179" width="666" height="666" rx="105" stroke="white" stroke-width="6" stroke-dasharray="20 20"/>
<path d="M270 255C262.268 255 256 261.268 256 269V485C256 492.732 262.268 499 270 499H486C493.732 499 500 492.732 500 485V447.599C497.7 447.864 495.365 448 493 448C457.101 448 428 416.66 428 378C428 339.34 457.101 308 493 308C495.365 308 497.7 308.136 500 308.401V269C500 261.268 493.732 255 486 255H270Z" fill="#FFD700"/>
<path d="M430 530C430 555.957 407.167 577 379 577C350.833 577 328 555.957 328 530C328 504.043 350.833 483 379 483C407.167 483 430 504.043 430 530Z" fill="#FFD700"/>
<path d="M398.174 509.948L398.442 510.698L399.046 511.217C400.433 512.408 401.686 513.718 402.784 515.126L405.15 513.281C407.625 516.455 409.414 520.099 410.323 524.036L407.399 524.71C407.793 526.416 408 528.185 408 530C408 533.652 407.161 537.126 405.641 540.284L408.344 541.585C404.97 548.595 398.628 554.161 390.756 556.98L389.745 554.156C386.429 555.344 382.805 556 379 556C375.195 556 371.571 555.344 368.255 554.156L367.244 556.98C359.372 554.161 353.03 548.595 349.656 541.585L352.359 540.284C350.839 537.126 350 533.652 350 530C350 528.185 350.207 526.416 350.601 524.71L347.677 524.036C348.586 520.099 350.375 516.455 352.85 513.281L355.216 515.126C356.314 513.718 357.567 512.408 358.954 511.217L359.584 510.676L359.846 509.888C360.548 507.783 361.147 505.787 361.634 503.894L358.728 503.147C359.937 498.446 360.386 494.525 359.954 491.19L362.929 490.805C362.608 488.322 361.859 486.042 360.616 483.961C359.442 481.997 357.876 480.29 355.955 478.784L354.103 481.144C351.523 479.12 348.062 477.39 343.625 475.8L344.637 472.976C342.841 472.333 340.907 471.717 338.832 471.118L338.424 471H338H323.75V474H295.25V471H284V464.3H281V444.9H284V425.5H281V406.1H284V386.7H281V367.3H284V347.9H281V328.5H284V309.1H281V289.7H284V283H290.7V280H310.1V283H329.5V280H348.9V283H368.3V280H387.7V283H407.1V280H426.5V283H445.9V280H465.3V283H472V283.804H475V291.412H472V292.913C469.667 293.574 467.376 294.342 465.13 295.213L466.215 298.01C460.468 300.238 455.03 303.163 449.989 306.69L448.269 304.232C443.066 307.873 438.276 312.128 433.987 316.898L436.217 318.904C432.146 323.432 428.538 328.446 425.476 333.856L422.865 332.379C419.773 337.842 417.221 343.693 415.286 349.847L418.148 350.747C416.337 356.508 415.084 362.547 414.459 368.788L411.474 368.489C411.161 371.614 411 374.787 411 378C411 381.213 411.161 384.386 411.474 387.511L414.459 387.212C415.084 393.453 416.337 399.492 418.148 405.253L415.286 406.153C417.221 412.307 419.773 418.158 422.865 423.621L425.476 422.144C428.538 427.554 432.146 432.568 436.217 437.096L433.987 439.102C438.276 443.872 443.066 448.127 448.269 451.768L449.989 449.31C455.03 452.837 460.468 455.762 466.215 457.99L465.13 460.787C467.376 461.658 469.667 462.426 472 463.087V464.088H475V470.696H472V471H461.375V474H434.125V471H420.5H420.004L419.534 471.16C417.399 471.886 415.424 472.618 413.6 473.361L414.733 476.139C410.11 478.024 406.581 479.951 403.967 482.013L402.109 479.658C400.088 481.252 398.471 482.985 397.265 484.904C395.968 486.969 395.198 489.17 394.865 491.508L397.835 491.93C397.36 495.265 397.935 499.028 399.194 503.406L396.311 504.235C396.835 506.057 397.466 507.96 398.174 509.948Z" stroke="#34363F" stroke-width="6" stroke-dasharray="20 20"/>
<path d="M256 755C256 762.732 262.268 769 270 769L486 769C493.732 769 500 762.732 500 755L500 539C500 531.268 493.732 525 486 525L448.599 525C448.864 527.3 449 529.635 449 532C449 567.899 417.66 597 379 597C340.34 597 309 567.899 309 532C309 529.635 309.136 527.3 309.401 525L270 525C262.268 525 256 531.268 256 539L256 755Z" fill="#43AB3A"/>
<path d="M531 595C556.957 595 578 617.833 578 646C578 674.167 556.957 697 531 697C505.043 697 484 674.167 484 646C484 617.833 505.043 595 531 595Z" fill="#43AB3A"/>
<path d="M510.948 626.826L511.698 626.558L512.217 625.954C513.408 624.567 514.718 623.314 516.126 622.216L514.281 619.85C517.455 617.375 521.099 615.586 525.036 614.677L525.71 617.601C527.416 617.207 529.185 617 531 617C534.652 617 538.126 617.839 541.284 619.359L542.585 616.655C549.595 620.03 555.161 626.372 557.98 634.244L555.156 635.255C556.344 638.571 557 642.195 557 646C557 649.805 556.344 653.429 555.156 656.745L557.98 657.756C555.161 665.628 549.595 671.97 542.585 675.344L541.284 672.641C538.126 674.161 534.652 675 531 675C529.185 675 527.416 674.793 525.71 674.399L525.036 677.323C521.099 676.414 517.455 674.625 514.281 672.15L516.126 669.784C514.718 668.686 513.408 667.433 512.217 666.046L511.676 665.416L510.888 665.154C508.783 664.452 506.787 663.853 504.894 663.366L504.147 666.272C499.446 665.063 495.525 664.614 492.19 665.046L491.805 662.071C489.322 662.392 487.042 663.141 484.961 664.384C482.997 665.558 481.29 667.124 479.784 669.045L482.144 670.897C480.12 673.477 478.39 676.938 476.8 681.375L473.976 680.363C473.333 682.159 472.717 684.093 472.118 686.168L472 686.576L472 687L472 701.25L475 701.25L475 729.75L472 729.75L472 741L465.3 741L465.3 744L445.9 744L445.9 741L426.5 741L426.5 744L407.1 744L407.1 741L387.7 741L387.7 744L368.3 744L368.3 741L348.9 741L348.9 744L329.5 744L329.5 741L310.1 741L310.1 744L290.7 744L290.7 741L284 741L284 734.3L281 734.3L281 714.9L284 714.9L284 695.5L281 695.5L281 676.1L284 676.1L284 656.7L281 656.7L281 637.3L284 637.3L284 617.9L281 617.9L281 598.5L284 598.5L284 579.1L281 579.1L281 559.7L284 559.7L284 553L284.804 553L284.804 550L292.412 550L292.412 553L293.913 553C294.574 555.333 295.342 557.624 296.213 559.87L299.01 558.785C301.238 564.532 304.163 569.97 307.69 575.011L305.232 576.731C308.873 581.934 313.128 586.724 317.898 591.013L319.904 588.783C324.432 592.854 329.446 596.462 334.856 599.524L333.379 602.135C338.842 605.227 344.693 607.779 350.847 609.714L351.747 606.852C357.508 608.663 363.547 609.916 369.788 610.541L369.489 613.526C372.614 613.839 375.787 614 379 614C382.213 614 385.386 613.839 388.511 613.526L388.212 610.541C394.453 609.916 400.492 608.663 406.253 606.852L407.153 609.714C413.307 607.779 419.158 605.227 424.621 602.135L423.144 599.524C428.554 596.462 433.568 592.854 438.096 588.783L440.102 591.013C444.872 586.724 449.127 581.934 452.768 576.731L450.31 575.011C453.837 569.97 456.762 564.532 458.99 558.785L461.787 559.87C462.658 557.624 463.426 555.332 464.087 553L465.088 553L465.088 550L471.696 550L471.696 553L472 553L472 563.625L475 563.625L475 590.875L472 590.875L472 604.5L472 604.996L472.16 605.466C472.886 607.601 473.618 609.576 474.361 611.4L477.139 610.267C479.024 614.89 480.951 618.419 483.013 621.033L480.658 622.891C482.252 624.912 483.985 626.529 485.904 627.735C487.969 629.032 490.17 629.802 492.508 630.135L492.93 627.165C496.265 627.639 500.028 627.065 504.406 625.806L505.235 628.689C507.057 628.165 508.96 627.534 510.948 626.826Z" stroke="#34363F" stroke-width="6" stroke-dasharray="20 20"/>
<path d="M754 768C761.732 768 768 761.732 768 754L768 538C768 530.268 761.732 524 754 524L538 524C530.268 524 524 530.268 524 538L524 575.401C526.3 575.136 528.635 575 531 575C566.899 575 596 606.34 596 645C596 683.66 566.899 715 531 715C528.635 715 526.3 714.864 524 714.599L524 754C524 761.732 530.268 768 538 768L754 768Z" fill="#CD1003"/>
<path d="M594 493C594 467.043 616.834 446 645 446C673.167 446 696 467.043 696 493C696 518.957 673.167 540 645 540C616.834 540 594 518.957 594 493Z" fill="#CD1003"/>
<path d="M625.826 513.052L625.559 512.302L624.954 511.783C623.567 510.592 622.314 509.282 621.216 507.874L618.85 509.719C616.375 506.545 614.586 502.901 613.677 498.964L616.601 498.29C616.207 496.584 616 494.815 616 493C616 489.348 616.839 485.874 618.359 482.716L615.656 481.415C619.03 474.405 625.372 468.839 633.244 466.02L634.255 468.844C637.571 467.656 641.195 467 645 467C648.805 467 652.429 467.656 655.745 468.844L656.756 466.02C664.628 468.839 670.97 474.405 674.345 481.415L671.641 482.716C673.161 485.873 674 489.348 674 493C674 494.815 673.793 496.584 673.399 498.29L676.323 498.964C675.414 502.901 673.625 506.545 671.15 509.719L668.784 507.874C667.686 509.282 666.433 510.592 665.046 511.783L664.416 512.324L664.154 513.112C663.452 515.217 662.853 517.213 662.366 519.106L665.272 519.853C664.063 524.554 663.614 528.475 664.046 531.81L661.071 532.195C661.392 534.678 662.141 536.958 663.384 539.039C664.558 541.003 666.124 542.71 668.045 544.216L669.897 541.856C672.477 543.88 675.938 545.61 680.375 547.2L679.363 550.024C681.159 550.667 683.093 551.283 685.168 551.882L685.576 552L686 552L700.25 552L700.25 549L728.75 549L728.75 552L740 552L740 558.7L743 558.7L743 578.1L740 578.1L740 597.5L743 597.5L743 616.9L740 616.9L740 636.3L743 636.3L743 655.7L740 655.7L740 675.1L743 675.1L743 694.5L740 694.5L740 713.9L743 713.9L743 733.3L740 733.3L740 740L733.3 740L733.3 743L713.9 743L713.9 740L694.5 740L694.5 743L675.1 743L675.1 740L655.7 740L655.7 743L636.3 743L636.3 740L616.9 740L616.9 743L597.5 743L597.5 740L578.1 740L578.1 743L558.7 743L558.7 740L552 740L552 739.196L549 739.196L549 731.588L552 731.588L552 730.087C554.333 729.426 556.624 728.658 558.87 727.787L557.785 724.99C563.532 722.762 568.97 719.837 574.011 716.31L575.731 718.768C580.934 715.127 585.724 710.872 590.013 706.102L587.783 704.096C591.854 699.568 595.462 694.554 598.524 689.144L601.135 690.621C604.227 685.158 606.779 679.307 608.714 673.153L605.852 672.253C607.663 666.492 608.916 660.453 609.541 654.212L612.526 654.511C612.84 651.386 613 648.213 613 645C613 641.787 612.84 638.614 612.526 635.489L609.541 635.788C608.916 629.547 607.663 623.508 605.852 617.747L608.714 616.847C606.779 610.693 604.227 604.842 601.135 599.379L598.524 600.856C595.462 595.446 591.854 590.432 587.783 585.904L590.014 583.898C585.724 579.128 580.934 574.873 575.731 571.232L574.011 573.69C568.97 570.163 563.532 567.238 557.785 565.01L558.87 562.213C556.624 561.342 554.333 560.574 552 559.913L552 558.912L549 558.912L549 552.304L552 552.304L552 552L562.625 552L562.625 549L589.875 549L589.875 552L603.5 552L603.996 552L604.466 551.84C606.601 551.114 608.576 550.382 610.4 549.639L609.267 546.861C613.89 544.976 617.419 543.049 620.033 540.987L621.891 543.342C623.912 541.748 625.529 540.015 626.735 538.096C628.032 536.031 628.802 533.83 629.135 531.492L626.165 531.07C626.64 527.735 626.065 523.972 624.806 519.594L627.689 518.765C627.165 516.943 626.534 515.04 625.826 513.052Z" stroke="#34363F" stroke-width="6" stroke-dasharray="20 20"/>
<path d="M768 269C768 261.268 761.732 255 754 255L538 255C530.268 255 524 261.268 524 269L524 485C524 492.732 530.268 499 538 499L575.401 499C575.136 496.7 575 494.365 575 492C575 456.101 606.34 427 645 427C683.66 427 715 456.101 715 492C715 494.365 714.864 496.7 714.599 499L754 499C761.732 499 768 492.732 768 485L768 269Z" fill="#4AADD7"/>
<path d="M493 429C467.043 429 446 406.167 446 378C446 349.833 467.043 327 493 327C518.957 327 540 349.833 540 378C540 406.167 518.957 429 493 429Z" fill="#4AADD7"/>
<path d="M513.052 397.174L512.302 397.442L511.783 398.046C510.592 399.433 509.282 400.686 507.874 401.784L509.719 404.15C506.545 406.625 502.901 408.414 498.964 409.323L498.29 406.399C496.584 406.793 494.815 407 493 407C489.348 407 485.874 406.161 482.716 404.641L481.415 407.344C474.405 403.97 468.839 397.628 466.02 389.756L468.844 388.745C467.656 385.429 467 381.805 467 378C467 374.195 467.656 370.571 468.844 367.255L466.02 366.244C468.839 358.372 474.405 352.03 481.415 348.656L482.716 351.359C485.874 349.839 489.348 349 493 349C494.815 349 496.584 349.207 498.29 349.601L498.964 346.677C502.901 347.586 506.545 349.375 509.719 351.85L507.874 354.216C509.282 355.314 510.592 356.567 511.783 357.954L512.324 358.584L513.112 358.846C515.217 359.548 517.213 360.147 519.106 360.634L519.853 357.728C524.554 358.937 528.475 359.386 531.81 358.954L532.195 361.929C534.678 361.608 536.958 360.859 539.039 359.616C541.003 358.442 542.71 356.876 544.216 354.955L541.856 353.103C543.88 350.523 545.61 347.062 547.2 342.625L550.024 343.637C550.667 341.841 551.283 339.907 551.882 337.832L552 337.424L552 337L552 322.75L549 322.75L549 294.25L552 294.25L552 283L558.7 283L558.7 280L578.1 280L578.1 283L597.5 283L597.5 280L616.9 280L616.9 283L636.3 283L636.3 280L655.7 280L655.7 283L675.1 283L675.1 280L694.5 280L694.5 283L713.9 283L713.9 280L733.3 280L733.3 283L740 283L740 289.7L743 289.7L743 309.1L740 309.1L740 328.5L743 328.5L743 347.9L740 347.9L740 367.3L743 367.3L743 386.7L740 386.7L740 406.1L743 406.1L743 425.5L740 425.5L740 444.9L743 444.9L743 464.3L740 464.3L740 471L739.196 471L739.196 474L731.588 474L731.588 471L730.087 471C729.426 468.667 728.658 466.376 727.787 464.13L724.99 465.215C722.762 459.468 719.837 454.03 716.31 448.989L718.768 447.269C715.127 442.066 710.872 437.276 706.102 432.987L704.096 435.217C699.568 431.146 694.554 427.538 689.144 424.476L690.621 421.865C685.158 418.773 679.307 416.221 673.153 414.286L672.253 417.148C666.492 415.337 660.453 414.084 654.212 413.459L654.511 410.474C651.386 410.161 648.213 410 645 410C641.787 410 638.614 410.161 635.489 410.474L635.788 413.459C629.547 414.084 623.508 415.337 617.747 417.148L616.847 414.286C610.693 416.221 604.842 418.773 599.379 421.865L600.856 424.476C595.446 427.538 590.432 431.146 585.904 435.217L583.898 432.987C579.128 437.276 574.873 442.066 571.232 447.269L573.69 448.989C570.163 454.03 567.238 459.468 565.01 465.215L562.213 464.13C561.342 466.376 560.574 468.667 559.913 471L558.912 471L558.912 474L552.304 474L552.304 471L552 471L552 460.375L549 460.375L549 433.125L552 433.125L552 419.5L552 419.004L551.84 418.534C551.114 416.399 550.382 414.424 549.639 412.6L546.861 413.733C544.976 409.11 543.049 405.581 540.987 402.967L543.342 401.109C541.748 399.088 540.015 397.471 538.096 396.265C536.031 394.968 533.83 394.198 531.492 393.865L531.07 396.835C527.735 396.36 523.972 396.935 519.594 398.194L518.765 395.311C516.943 395.835 515.04 396.466 513.052 397.174Z" stroke="#34363F" stroke-width="6" stroke-dasharray="20 20"/>
<defs>
<filter id="filter0_dii_51_88" x="80" y="94" width="864" height="864" filterUnits="userSpaceOnUse" color-interpolation-filters="sRGB">
<feFlood flood-opacity="0" result="BackgroundImageFix"/>
<feColorMatrix in="SourceAlpha" type="matrix" values="0 0 0 0 0 0 0 0 0 0 0 0 0 0 0 0 0 0 127 0" result="hardAlpha"/>
<feOffset dy="14"/>
<feGaussianBlur stdDeviation="10"/>
<feColorMatrix type="matrix" values="0 0 0 0 0 0 0 0 0 0 0 0 0 0 0 0 0 0 0.25 0"/>
<feBlend mode="normal" in2="BackgroundImageFix" result="effect1_dropShadow_51_88"/>
<feBlend mode="normal" in="SourceGraphic" in2="effect1_dropShadow_51_88" result="shape"/>
<feColorMatrix in="SourceAlpha" type="matrix" values="0 0 0 0 0 0 0 0 0 0 0 0 0 0 0 0 0 0 127 0" result="hardAlpha"/>
<feOffset dy="4"/>
<feGaussianBlur stdDeviation="1"/>
<feComposite in2="hardAlpha" operator="arithmetic" k2="-1" k3="1"/>
<feColorMatrix type="matrix" values="0 0 0 0 1 0 0 0 0 1 0 0 0 0 1 0 0 0 0.44 0"/>
<feBlend mode="normal" in2="shape" result="effect2_innerShadow_51_88"/>
<feColorMatrix in="SourceAlpha" type="matrix" values="0 0 0 0 0 0 0 0 0 0 0 0 0 0 0 0 0 0 127 0" result="hardAlpha"/>
<feOffset dy="-3"/>
<feGaussianBlur stdDeviation="2"/>
<feComposite in2="hardAlpha" operator="arithmetic" k2="-1" k3="1"/>
<feColorMatrix type="matrix" values="0 0 0 0 0 0 0 0 0 0 0 0 0 0 0 0 0 0 0.25 0"/>
<feBlend mode="normal" in2="effect2_innerShadow_51_88" result="effect3_innerShadow_51_88"/>
</filter>
<filter id="filter1_ddii_51_88" x="152" y="149" width="722" height="727" filterUnits="userSpaceOnUse" color-interpolation-filters="sRGB">
<feFlood flood-opacity="0" result="BackgroundImageFix"/>
<feColorMatrix in="SourceAlpha" type="matrix" values="0 0 0 0 0 0 0 0 0 0 0 0 0 0 0 0 0 0 127 0" result="hardAlpha"/>
<feOffset dy="4"/>
<feGaussianBlur stdDeviation="1"/>
<feColorMatrix type="matrix" values="0 0 0 0 1 0 0 0 0 1 0 0 0 0 1 0 0 0 0.37 0"/>
<feBlend mode="normal" in2="BackgroundImageFix" result="effect1_dropShadow_51_88"/>
<feColorMatrix in="SourceAlpha" type="matrix" values="0 0 0 0 0 0 0 0 0 0 0 0 0 0 0 0 0 0 127 0" result="hardAlpha"/>
<feOffset dy="-2"/>
<feGaussianBlur stdDeviation="1.5"/>
<feColorMatrix type="matrix" values="0 0 0 0 0 0 0 0 0 0 0 0 0 0 0 0 0 0 0.59 0"/>
<feBlend mode="normal" in2="effect1_dropShadow_51_88" result="effect2_dropShadow_51_88"/>
<feBlend mode="normal" in="SourceGraphic" in2="effect2_dropShadow_51_88" result="shape"/>
<feColorMatrix in="SourceAlpha" type="matrix" values="0 0 0 0 0 0 0 0 0 0 0 0 0 0 0 0 0 0 127 0" result="hardAlpha"/>
<feOffset dy="5"/>
<feGaussianBlur stdDeviation="10.5"/>
<feComposite in2="hardAlpha" operator="arithmetic" k2="-1" k3="1"/>
<feColorMatrix type="matrix" values="0 0 0 0 0 0 0 0 0 0 0 0 0 0 0 0 0 0 0.23 0"/>
<feBlend mode="normal" in2="shape" result="effect3_innerShadow_51_88"/>
<feColorMatrix in="SourceAlpha" type="matrix" values="0 0 0 0 0 0 0 0 0 0 0 0 0 0 0 0 0 0 127 0" result="hardAlpha"/>
<feOffset dy="5"/>
<feGaussianBlur stdDeviation="2"/>
<feComposite in2="hardAlpha" operator="arithmetic" k2="-1" k3="1"/>
<feColorMatrix type="matrix" values="0 0 0 0 0 0 0 0 0 0 0 0 0 0 0 0 0 0 0.07 0"/>
<feBlend mode="normal" in2="effect3_innerShadow_51_88" result="effect4_innerShadow_51_88"/>
</filter>
<linearGradient id="paint0_linear_51_88" x1="513" y1="154" x2="513" y2="870" gradientUnits="userSpaceOnUse">
<stop stop-color="#3A3D47"/>
<stop offset="1" stop-color="#23242B"/>
</linearGradient>
</defs>
</svg>
