<?xml version="1.0" encoding="iso-8859-1"?>
<!-- Uploaded to: SVG Repo, www.svgrepo.com, Generator: SVG Repo Mixer Tools -->
<svg height="800px" width="800px" version="1.1" id="Layer_1" xmlns="http://www.w3.org/2000/svg" xmlns:xlink="http://www.w3.org/1999/xlink" 
	 viewBox="0 0 511.882 511.882" xml:space="preserve">
<path style="fill:#CCD1D9;" d="M474.551,31.993c0-5.89-4.779-10.654-10.652-10.654c5.873,0,10.652-4.78,10.652-10.669
	c0-5.89-4.779-10.67-10.652-10.67H122.64v490.56h341.258c5.873,0,10.652-4.78,10.652-10.67c0-5.889-4.779-10.653-10.652-10.653
	c5.873,0,10.652-4.78,10.652-10.67c0-5.889-4.779-10.669-10.652-10.669c5.873,0,10.652-4.765,10.652-10.654
	c0-5.889-4.779-10.669-10.652-10.669c5.873,0,10.652-4.78,10.652-10.67c0-5.889-4.779-10.653-10.652-10.653
	c5.873,0,10.652-4.78,10.652-10.67c0-5.889-4.779-10.669-10.652-10.669c5.873,0,10.652-4.765,10.652-10.654
	c0-5.889-4.779-10.669-10.652-10.669c5.873,0,10.652-4.78,10.652-10.669c0-5.89-4.779-10.654-10.652-10.654
	c5.873,0,10.652-4.78,10.652-10.67c0-5.889-4.779-10.669-10.652-10.669c5.873,0,10.652-4.765,10.652-10.653
	c0-5.89-4.779-10.67-10.652-10.67c5.873,0,10.652-4.78,10.652-10.67c0-5.889-4.779-10.653-10.652-10.653
	c5.873,0,10.652-4.78,10.652-10.669c0-5.89-4.779-10.67-10.652-10.67c5.873,0,10.652-4.765,10.652-10.654
	s-4.779-10.669-10.652-10.669c5.873,0,10.652-4.78,10.652-10.669s-4.779-10.654-10.652-10.654c5.873,0,10.652-4.78,10.652-10.669
	s-4.779-10.669-10.652-10.669c5.873,0,10.652-4.765,10.652-10.654s-4.779-10.669-10.652-10.669c5.873,0,10.652-4.78,10.652-10.669
	c0-5.89-4.779-10.654-10.652-10.654c5.873,0,10.652-4.78,10.652-10.669c0-5.89-4.779-10.67-10.652-10.67
	c5.873,0,10.652-4.765,10.652-10.653c0-5.89-4.779-10.67-10.652-10.67c5.873,0,10.652-4.78,10.652-10.669
	c0-5.89-4.779-10.654-10.652-10.654c5.873,0,10.652-4.78,10.652-10.669c0-5.89-4.779-10.67-10.652-10.67
	c5.873,0,10.652-4.765,10.652-10.653c0-5.89-4.779-10.67-10.652-10.67C469.771,42.662,474.551,37.881,474.551,31.993z"/>
<path style="fill:#E6E9ED;" d="M37.332,42.662v426.574c0,23.557,38.194,42.646,85.309,42.646s85.309-19.09,85.309-42.646V42.662
	H37.332z"/>
<path style="fill:#F5F7FA;" d="M207.949,42.662C207.949,19.105,169.755,0,122.64,0S37.332,19.105,37.332,42.662
	c0,23.558,38.194,42.662,85.309,42.662S207.949,66.219,207.949,42.662z"/>
<path style="fill:#434A54;" d="M133.309,42.662c0,5.89-4.78,10.67-10.669,10.67s-10.669-4.78-10.669-10.67
	c0-5.889,4.78-10.669,10.669-10.669S133.309,36.773,133.309,42.662z"/>
</svg>