<svg width="1024" height="1024" viewBox="0 0 1024 1024" fill="none" xmlns="http://www.w3.org/2000/svg">
<g filter="url(#filter0_dii_28_51)">
<mask id="mask0_28_51" style="mask-type:alpha" maskUnits="userSpaceOnUse" x="100" y="100" width="824" height="824">
<path fill-rule="evenodd" clip-rule="evenodd" d="M924 356.627C924 346.845 924.004 337.062 923.944 327.279C923.895 319.038 923.8 310.799 923.576 302.562C923.092 284.609 922.033 266.502 918.84 248.749C915.602 230.741 910.314 213.98 901.981 197.617C893.789 181.534 883.088 166.817 870.32 154.058C857.555 141.299 842.834 130.605 826.746 122.418C810.366 114.083 793.587 108.797 775.558 105.56C757.803 102.372 739.691 101.315 721.738 100.83C713.495 100.607 705.253 100.513 697.008 100.462C687.22 100.402 677.432 100.407 667.644 100.407L553.997 100H468.997L357.361 100.407C347.554 100.407 337.747 100.402 327.94 100.462C319.678 100.513 311.42 100.607 303.161 100.83C285.167 101.315 267.014 102.373 249.217 105.565C231.164 108.801 214.36 114.085 197.958 122.414C181.835 130.602 167.083 141.297 154.291 154.058C141.501 166.816 130.78 181.53 122.573 197.61C114.217 213.981 108.919 230.752 105.673 248.77C102.477 266.516 101.418 284.617 100.931 302.562C100.709 310.8 100.613 319.039 100.563 327.279C100.503 337.063 100 349.216 100 358.999L100.003 469.089L100 554.998L100.508 667.427C100.508 677.223 100.504 687.019 100.563 696.815C100.613 705.067 100.709 713.317 100.932 721.566C101.418 739.542 102.479 757.675 105.678 775.452C108.923 793.484 114.22 810.269 122.569 826.653C130.777 842.759 141.5 857.495 154.291 870.272C167.082 883.049 181.83 893.757 197.95 901.956C214.362 910.302 231.174 915.595 249.238 918.836C267.027 922.029 285.174 923.088 303.161 923.573C311.42 923.796 319.679 923.891 327.941 923.941C337.748 924.001 347.554 923.997 357.361 923.997L470.006 924H555.217L667.644 923.996C677.432 923.996 687.22 924.001 697.008 923.941C705.253 923.891 713.495 923.796 721.738 923.573C739.698 923.087 757.816 922.027 775.579 918.832C793.597 915.591 810.368 910.3 826.739 901.959C842.831 893.761 857.554 883.051 870.32 870.272C883.086 857.497 893.786 842.763 901.978 826.66C910.316 810.268 915.604 793.475 918.844 775.431C922.034 757.661 923.092 739.535 923.577 721.566C923.8 713.316 923.895 705.066 923.944 696.815C924.005 687.019 924 677.223 924 667.427C924 667.427 923.994 556.983 923.994 554.998V468.999C923.994 467.533 924 356.627 924 356.627" fill="white"/>
</mask>
<g mask="url(#mask0_28_51)">
<rect width="1024" height="512" fill="#0057B8"/>
<rect y="512" width="1024" height="512" fill="#FFD700"/>
</g>
</g>
<g filter="url(#filter1_ddii_28_51)">
<rect x="155" y="154" width="716" height="716" rx="130" fill="url(#paint0_linear_28_51)"/>
</g>
<rect x="180" y="179" width="666" height="666" rx="105" stroke="white" stroke-width="6" stroke-dasharray="20 20"/>
<g filter="url(#filter2_d_28_51)">
<path d="M666.658 356.193C666.658 336.279 666.266 319.242 665.482 305.09C664.694 290.937 663.773 279.083 662.729 269.514C661.679 259.949 660.762 252.217 659.976 246.321C659.188 240.425 658.796 235.903 658.796 232.758C658.796 228.827 660.825 225.554 664.891 222.931C668.952 220.315 673.864 219 679.632 219C692.998 219 702.825 221.69 709.115 227.059C715.405 232.433 719.728 241.015 722.087 252.808C723.131 257.79 724.112 263.096 725.035 268.728C725.948 274.366 726.735 280.853 727.393 288.187C728.045 295.525 728.571 303.849 728.966 313.149C729.358 322.454 729.555 333.264 729.555 345.58C729.555 391.965 727.062 435.538 722.087 476.285C717.105 517.037 710.293 554.45 701.645 588.515C692.998 622.586 682.71 653.052 670.789 679.909C658.859 706.776 646.084 729.44 632.46 747.918C618.832 766.393 604.483 780.541 589.417 790.37C574.344 800.199 559.345 805.111 544.406 805.111C538.638 805.111 532.545 803.933 526.128 801.574C519.704 799.213 513.806 795.347 508.439 789.978C503.065 784.602 498.612 777.465 495.073 768.555C491.536 759.646 489.766 748.507 489.766 735.141V281.897C471.685 284.255 454.585 289.365 438.468 297.227C422.351 305.09 408.329 315.839 396.406 329.461C384.478 343.091 375.043 359.602 368.103 378.991C361.157 398.39 357.687 420.796 357.687 446.211C357.687 462.462 359.388 477.069 362.797 490.041C366.199 503.013 370.265 514.02 374.982 523.061C379.7 532.101 384.417 539.117 389.132 544.092C393.85 549.076 397.517 551.562 400.14 551.562C402.498 551.562 404.72 551.04 406.822 549.99C408.916 548.946 411.01 548.417 413.111 548.417C417.3 548.417 419.401 551.697 419.401 558.246C419.401 566.635 417.497 574.695 413.701 582.42C409.899 590.155 405.115 596.445 399.353 601.29C393.585 606.142 387.296 609.22 380.484 610.528C373.667 611.843 367.378 610.398 361.616 606.202C354.54 601.487 347.005 594.281 339.013 584.584C331.016 574.892 323.682 563.161 316.998 549.401C310.316 535.643 304.812 520.115 300.487 502.82C296.164 485.523 294 466.653 294 446.213C294 417.911 297.403 392.554 304.221 370.148C311.033 347.741 320.141 328.152 331.54 311.379C342.939 294.611 356.238 280.324 371.441 268.531C386.637 256.737 402.624 247.175 419.399 239.834C436.168 232.5 453.205 227.192 470.502 223.915C487.797 220.64 504.308 219 520.033 219C524.219 219 528.287 219.853 532.216 221.556C536.147 223.263 539.55 225.621 542.437 228.632C545.32 231.649 547.679 235.253 549.513 239.442C551.343 243.638 552.266 248.091 552.266 252.808V730.421C552.266 735.667 553.113 738.873 554.822 740.053C556.525 741.231 558.162 741.823 559.737 741.823C563.666 741.823 569.033 738.353 575.853 731.407C582.663 724.465 590.064 713.912 598.061 699.762C606.053 685.61 614.112 667.921 622.237 646.695C630.357 625.466 637.697 600.573 644.252 572.004C650.799 543.445 656.173 511.209 660.368 475.304C664.559 439.399 666.658 399.698 666.658 356.193Z" fill="white"/>
<path d="M543.555 730.227V258.727C544.317 247.976 542.89 242.641 536.055 234.727C529.095 227.895 523.078 227.156 511.055 227.727C462.037 231.775 438.478 239.389 400.055 259.227C344.202 295.729 323.647 326.574 306.055 399.727C300.643 445.834 301.152 471.607 310.555 507.227C322.207 546.172 332.515 564.726 357.555 592.227C370.893 605.293 378.86 605.88 394.055 594.227C406.434 581.975 409.917 573.071 410.555 557.727C405.706 561.11 404.012 560.329 397.555 559.727C383.346 554.401 375.477 543.245 361.555 513.727C352.367 489.729 349.68 475.49 349.555 448.727C349.708 411.961 354.328 380.294 371.055 350.727C385.822 321.411 409.241 302.493 440.055 286.727C461.455 277.871 474.131 274.612 498.055 272.227L498.555 739.227C498.055 751.227 502.555 771.729 514.555 783.727C524.2 793.369 534.528 797.589 552.055 796.227C573.856 791.569 587.651 783.565 610.555 760.727C639.193 726.549 657.718 695.338 674.533 646.727C684.301 620.595 692.983 589.338 701.555 549.727C713.128 488.887 718.158 442.382 719.555 400.727C722.055 348.227 722.107 300.385 714.555 259.227C712.493 246.883 709.362 239.208 704.055 234.52C698.676 229.769 691.061 228.088 680.055 227.727C674.047 228.132 669.897 228.926 667.555 232.227C667.15 236.006 667.87 241.217 669.055 248.727C671.324 263.797 674.709 299.748 675.055 349.727C675.601 376.802 674.485 408.212 672.055 442.727C664.386 551.671 629.127 669.656 603.555 707.727L603.049 708.48C591.679 725.408 584.666 735.85 574.555 744.227C565.084 752.073 556.939 751.196 552.555 748.727C546.891 745.537 543.555 738.227 543.555 730.227Z" stroke="#919090" stroke-width="6" stroke-dasharray="20 20"/>
</g>
<defs>
<filter id="filter0_dii_28_51" x="80" y="94" width="864" height="864" filterUnits="userSpaceOnUse" color-interpolation-filters="sRGB">
<feFlood flood-opacity="0" result="BackgroundImageFix"/>
<feColorMatrix in="SourceAlpha" type="matrix" values="0 0 0 0 0 0 0 0 0 0 0 0 0 0 0 0 0 0 127 0" result="hardAlpha"/>
<feOffset dy="14"/>
<feGaussianBlur stdDeviation="10"/>
<feColorMatrix type="matrix" values="0 0 0 0 0 0 0 0 0 0 0 0 0 0 0 0 0 0 0.25 0"/>
<feBlend mode="normal" in2="BackgroundImageFix" result="effect1_dropShadow_28_51"/>
<feBlend mode="normal" in="SourceGraphic" in2="effect1_dropShadow_28_51" result="shape"/>
<feColorMatrix in="SourceAlpha" type="matrix" values="0 0 0 0 0 0 0 0 0 0 0 0 0 0 0 0 0 0 127 0" result="hardAlpha"/>
<feOffset dy="4"/>
<feGaussianBlur stdDeviation="1"/>
<feComposite in2="hardAlpha" operator="arithmetic" k2="-1" k3="1"/>
<feColorMatrix type="matrix" values="0 0 0 0 1 0 0 0 0 1 0 0 0 0 1 0 0 0 0.44 0"/>
<feBlend mode="normal" in2="shape" result="effect2_innerShadow_28_51"/>
<feColorMatrix in="SourceAlpha" type="matrix" values="0 0 0 0 0 0 0 0 0 0 0 0 0 0 0 0 0 0 127 0" result="hardAlpha"/>
<feOffset dy="-3"/>
<feGaussianBlur stdDeviation="2"/>
<feComposite in2="hardAlpha" operator="arithmetic" k2="-1" k3="1"/>
<feColorMatrix type="matrix" values="0 0 0 0 0 0 0 0 0 0 0 0 0 0 0 0 0 0 0.25 0"/>
<feBlend mode="normal" in2="effect2_innerShadow_28_51" result="effect3_innerShadow_28_51"/>
</filter>
<filter id="filter1_ddii_28_51" x="152" y="149" width="722" height="727" filterUnits="userSpaceOnUse" color-interpolation-filters="sRGB">
<feFlood flood-opacity="0" result="BackgroundImageFix"/>
<feColorMatrix in="SourceAlpha" type="matrix" values="0 0 0 0 0 0 0 0 0 0 0 0 0 0 0 0 0 0 127 0" result="hardAlpha"/>
<feOffset dy="4"/>
<feGaussianBlur stdDeviation="1"/>
<feColorMatrix type="matrix" values="0 0 0 0 1 0 0 0 0 1 0 0 0 0 1 0 0 0 0.37 0"/>
<feBlend mode="normal" in2="BackgroundImageFix" result="effect1_dropShadow_28_51"/>
<feColorMatrix in="SourceAlpha" type="matrix" values="0 0 0 0 0 0 0 0 0 0 0 0 0 0 0 0 0 0 127 0" result="hardAlpha"/>
<feOffset dy="-2"/>
<feGaussianBlur stdDeviation="1.5"/>
<feColorMatrix type="matrix" values="0 0 0 0 0 0 0 0 0 0 0 0 0 0 0 0 0 0 0.59 0"/>
<feBlend mode="normal" in2="effect1_dropShadow_28_51" result="effect2_dropShadow_28_51"/>
<feBlend mode="normal" in="SourceGraphic" in2="effect2_dropShadow_28_51" result="shape"/>
<feColorMatrix in="SourceAlpha" type="matrix" values="0 0 0 0 0 0 0 0 0 0 0 0 0 0 0 0 0 0 127 0" result="hardAlpha"/>
<feOffset dy="5"/>
<feGaussianBlur stdDeviation="10.5"/>
<feComposite in2="hardAlpha" operator="arithmetic" k2="-1" k3="1"/>
<feColorMatrix type="matrix" values="0 0 0 0 0 0 0 0 0 0 0 0 0 0 0 0 0 0 0.23 0"/>
<feBlend mode="normal" in2="shape" result="effect3_innerShadow_28_51"/>
<feColorMatrix in="SourceAlpha" type="matrix" values="0 0 0 0 0 0 0 0 0 0 0 0 0 0 0 0 0 0 127 0" result="hardAlpha"/>
<feOffset dy="5"/>
<feGaussianBlur stdDeviation="2"/>
<feComposite in2="hardAlpha" operator="arithmetic" k2="-1" k3="1"/>
<feColorMatrix type="matrix" values="0 0 0 0 0 0 0 0 0 0 0 0 0 0 0 0 0 0 0.07 0"/>
<feBlend mode="normal" in2="effect3_innerShadow_28_51" result="effect4_innerShadow_28_51"/>
</filter>
<filter id="filter2_d_28_51" x="252.927" y="195.896" width="517.702" height="668.258" filterUnits="userSpaceOnUse" color-interpolation-filters="sRGB">
<feFlood flood-opacity="0" result="BackgroundImageFix"/>
<feColorMatrix in="SourceAlpha" type="matrix" values="0 0 0 0 0 0 0 0 0 0 0 0 0 0 0 0 0 0 127 0" result="hardAlpha"/>
<feOffset dy="17.9696"/>
<feGaussianBlur stdDeviation="20.5367"/>
<feColorMatrix type="matrix" values="0 0 0 0 0 0 0 0 0 0 0 0 0 0 0 0 0 0 1 0"/>
<feBlend mode="normal" in2="BackgroundImageFix" result="effect1_dropShadow_28_51"/>
<feBlend mode="normal" in="SourceGraphic" in2="effect1_dropShadow_28_51" result="shape"/>
</filter>
<linearGradient id="paint0_linear_28_51" x1="513" y1="154" x2="513" y2="870" gradientUnits="userSpaceOnUse">
<stop stop-color="#3A3D47"/>
<stop offset="1" stop-color="#23242B"/>
</linearGradient>
</defs>
</svg>
