<?xml version="1.0" encoding="UTF-8" standalone="no"?>
<!-- Uploaded to: SVG Repo, www.svgrepo.com, Generator: SVG Repo Mixer Tools -->

<svg
   fill="#000000"
   version="1.1"
   id="Capa_1"
   width="800px"
   height="800px"
   viewBox="0 0 592.381 592.381"
   xml:space="preserve"
   sodipodi:docname="expand2-disabled.svg"
   inkscape:version="1.3 (1:1.3+202307231459+0e150ed6c4)"
   xmlns:inkscape="http://www.inkscape.org/namespaces/inkscape"
   xmlns:sodipodi="http://sodipodi.sourceforge.net/DTD/sodipodi-0.dtd"
   xmlns="http://www.w3.org/2000/svg"
   xmlns:svg="http://www.w3.org/2000/svg"><defs
   id="defs4">&#10;	&#10;&#10;		&#10;	&#10;			&#10;			&#10;		</defs><sodipodi:namedview
   id="namedview4"
   pagecolor="#ffffff"
   bordercolor="#666666"
   borderopacity="1.0"
   inkscape:showpageshadow="2"
   inkscape:pageopacity="0.0"
   inkscape:pagecheckerboard="0"
   inkscape:deskcolor="#d1d1d1"
   inkscape:zoom="0.58125"
   inkscape:cx="190.96774"
   inkscape:cy="295.91398"
   inkscape:window-width="1920"
   inkscape:window-height="1172"
   inkscape:window-x="0"
   inkscape:window-y="240"
   inkscape:window-maximized="1"
   inkscape:current-layer="Capa_1" />&#10;<path
   d="m 534.82665,591.881 c -0.051,0 -0.12305,0 -0.18107,0 -0.019,0 -0.038,0 -0.057,0 -2.26285,-0.01 -4.10754,-0.169 -5.29798,-0.287 L 374.4467,576.221 c -11.86644,-1.178 -22.97059,-5.748 -32.11401,-13.217 -8.46616,-6.916 -14.89757,-16.042 -18.59795,-26.394 -3.70039,-10.352 -4.51169,-21.485 -2.34788,-32.199 2.33687,-11.569 8.029,-22.14 16.46215,-30.568 l 9.31549,-9.312 -219.37501,-219.295 -9.31548,9.312 c -11.37826,11.375 -26.45089,17.639 -42.440868,17.639 -14.372372,0 -28.308582,-5.133 -39.241669,-14.453 C 24.968053,247.652 17.6033,233.528 16.056722,217.963 L 0.67597228,63.157 C 0.55792815,61.971 0.40086944,60.132 0.3908657,57.881 0.32884251,42.574 6.2470549,28.172 17.056095,17.323 27.866137,6.475 42.249513,0.5 57.557236,0.5 h 0.01701 c 0.011,0 0.02101,0 0.03301,0 2.457919,0.002 4.460668,0.183 5.752151,0.318 L 217.47702,16.987 c 11.82642,1.241 22.88055,5.854 31.96795,13.337 8.41814,6.934 14.80453,16.062 18.4659,26.398 3.66237,10.335 4.44766,21.446 2.27185,32.131 -2.34888,11.534 -8.034,22.072 -16.44215,30.478 l -8.52318,8.519 219.377,219.294 8.52219,-8.519 c 11.37925,-11.374 26.45089,-17.639 42.44187,-17.639 14.31635,0 28.20954,5.097 39.12162,14.353 11.79841,10.008 19.19217,24.049 20.81878,39.536 l 16.17605,154.067 c 0.13605,1.294 0.31412,3.285 0.31812,5.728 0.017,15.271 -5.92222,29.635 -16.72525,40.446 -10.80204,10.811 -25.16441,16.765 -40.44112,16.765 z m 14.22732,-58.467 -16.17605,-154.066 c -1.00237,-9.553 -9.02037,-15.521 -17.31847,-15.521 -4.2796,0 -8.63423,1.588 -12.13854,5.091 l -28.00347,27.993 c -2.98912,2.987 -6.90558,4.48 -10.82305,4.48 -3.91746,0 -7.83492,-1.493 -10.82304,-4.48 L 195.43478,138.669 c -5.97824,-5.975 -5.97824,-15.662 0,-21.637 L 223.43724,89.04 c 10.29785,-10.294 4.05152,-27.926 -10.4349,-29.446 L 58.87873,43.424 c -0.434163,-0.045 -0.870326,-0.083 -1.306489,-0.083 -0.005,0 -0.011,0 -0.01701,0 -7.909957,0 -14.341361,6.448 -14.309349,14.363 0.002,0.408 0.03501,0.815 0.07603,1.221 l 15.379749,154.807 c 0.954357,9.602 8.999365,15.617 17.329479,15.617 4.276598,0 8.632226,-1.587 12.137537,-5.092 l 28.796763,-28.786 c 2.98812,-2.988 6.90559,-4.481 10.82205,-4.481 3.91746,0 7.83393,1.494 10.82304,4.481 l 258.33658,258.241 c 5.97723,5.976 5.97723,15.663 0,21.638 l -28.79677,28.786 c -10.33086,10.326 -4.0085,28.012 10.52894,29.455 l 154.86789,15.374 c 0.40515,0.04 0.8133,0.074 1.22146,0.076 0.02,0 0.04,0 0.059,0 7.89695,0 14.31835,-6.426 14.30935,-14.321 -10e-4,-0.437 -0.038,-0.872 -0.083,-1.306 z"
   id="path1"
   style="fill:#dedede;fill-opacity:1;stroke:#dedede;stroke-width:1.00019;stroke-opacity:1" /><path
   d="m 534.58756,592.381 h 0.24009 c 15.40976,0 29.89718,-6.006 40.79525,-16.911 10.89607,-10.906 16.88731,-25.396 16.87031,-40.801 -0.003,-2.474 -0.18507,-4.482 -0.32112,-5.778 L 575.99704,374.823 c -1.63961,-15.616 -9.0944,-29.774 -20.99185,-39.865 -11.00211,-9.332 -25.01035,-14.472 -39.44574,-14.472 -16.12403,0 -31.32271,6.316 -42.796,17.785 l -8.16906,8.165 -218.66874,-218.586 8.16906,-8.166 c 8.47816,-8.475 14.21031,-19.102 16.57819,-30.731 2.19282,-10.774 1.40053,-21.978 -2.29085,-32.398 C 264.69067,46.135 258.25226,36.931 249.76309,29.938 240.59866,22.391 229.45249,17.74 217.52804,16.489 L 63.410424,0.321 C 62.108937,0.184 60.091183,0.002 57.606254,0 42.115463,0 27.606039,6.027 16.700963,16.971 5.7988873,27.914 -0.17234484,42.444 -0.11032166,57.884 c 0.0100037,2.285 0.1690632,4.132 0.28710733,5.324 L 15.557535,218.014 c 1.560584,15.694 8.984359,29.936 20.907816,40.102 11.024121,9.397 25.074373,14.572 39.565791,14.572 16.123027,0 31.321708,-6.316 42.793998,-17.786 l 8.96235,-8.959 218.67074,218.587 -8.96235,8.959 c -8.50218,8.498 -14.24132,19.156 -16.5982,30.823 -2.18182,10.803 -1.36351,22.029 2.36788,32.466 3.7314,10.437 10.21482,19.64 18.75201,26.612 9.21945,7.531 20.41663,12.141 32.38111,13.328 l 154.84288,15.373 c 1.20545,0.12 3.07115,0.28 5.346,0.29 z M 515.55945,321.486 c 14.1983,0 27.97645,5.055 38.7985,14.233 11.69937,9.925 19.03111,23.849 20.64472,39.207 l 16.17504,154.068 c 0.13305,1.274 0.31212,3.249 0.31512,5.677 0.017,15.137 -5.87119,29.375 -16.5782,40.092 -10.709,10.717 -24.94532,16.618 -40.08698,16.618 h -0.18107 l -0.057,0.5 0.002,-0.5 c -2.23183,-0.01 -4.06552,-0.167 -5.25096,-0.284 L 374.49671,575.724 c -11.76739,-1.168 -22.77951,-5.7 -31.8469,-13.106 -8.39614,-6.858 -14.77352,-15.91 -18.4439,-26.175 -3.66937,-10.266 -4.47467,-21.308 -2.32887,-31.933 2.31787,-11.473 7.96298,-21.955 16.32511,-30.313 l 9.66961,-9.666 -220.08227,-220.002 -9.66961,9.666 c -11.28422,11.28 -26.23081,17.493 -42.086738,17.493 -14.252328,0 -28.073494,-5.09 -38.916547,-14.333 -11.725384,-9.998 -19.028114,-24.004 -20.561687,-39.44 L 1.1741585,63.109 C 1.0581151,61.938 0.90205679,60.122 0.89205305,57.88 0.83103024,42.708 6.6982235,28.43 17.412229,17.677 28.126234,6.923 42.383563,1 57.557236,1 c 2.485929,0.002 4.46967,0.181 5.749149,0.315 L 217.425,17.484 c 11.72738,1.231 22.69048,5.805 31.70085,13.226 8.35012,6.877 14.68249,15.93 18.31284,26.179 3.63236,10.25 4.41165,21.268 2.25385,31.865 -2.32787,11.436 -7.96698,21.888 -16.3051,30.224 l -8.87632,8.873 220.08327,220 8.87632,-8.872 c 11.28522,-11.281 26.23181,-17.493 42.08874,-17.493 z m 19.20618,228.055 c 4.0145,0 7.73389,-1.544 10.53493,-4.347 2.80105,-2.803 4.34063,-6.523 4.33562,-10.476 0,-0.479 -0.043,-0.954 -0.086,-1.356 L 533.37411,379.296 c -0.95536,-9.104 -8.61322,-15.969 -17.81366,-15.969 -4.67775,0 -9.11541,1.86 -12.49467,5.237 l -28.00347,27.993 c -2.79605,2.795 -6.51444,4.334 -10.46892,4.334 -3.95547,0 -7.67286,-1.539 -10.46991,-4.334 L 195.78691,138.315 c -2.79705,-2.795 -4.33662,-6.512 -4.33662,-10.465 0,-3.953 1.53957,-7.67 4.33662,-10.465 l 28.00247,-27.993 c 4.90183,-4.9 6.50943,-12.002 4.19356,-18.534 -2.31386,-6.532 -8.035,-11.039 -14.93058,-11.763 L 58.928748,42.926 c -0.42916,-0.045 -0.891333,-0.086 -1.356507,-0.086 -3.979487,0 -7.70388,1.549 -10.506927,4.362 -2.802048,2.812 -4.336622,6.543 -4.319615,10.503 0.002,0.424 0.03601,0.848 0.07903,1.269 l 15.38075,154.806 c 1.036387,10.436 9.958723,16.067 17.826664,16.067 4.676748,0 9.112406,-1.86 12.490669,-5.238 l 28.796768,-28.786 c 2.79604,-2.795 6.51443,-4.335 10.46891,-4.335 3.95448,0 7.67287,1.54 10.46991,4.335 l 258.33657,258.241 c 2.79605,2.796 4.33663,6.513 4.33663,10.466 0,3.953 -1.54058,7.67 -4.33663,10.465 l -28.79676,28.786 c -4.91784,4.915 -6.51844,12.034 -4.17856,18.58 2.33987,6.546 8.09202,11.039 15.01161,11.726 l 154.86589,15.375 c 0.42116,0.042 0.84532,0.077 1.26848,0.079 z M 515.56145,364.327 c 7.38576,0 15.7909,5.282 16.81828,15.072 l 16.17705,154.067 c 0.039,0.377 0.08,0.821 0.08,1.255 0.004,3.685 -1.43153,7.153 -4.04351,9.767 -2.61198,2.614 -6.08027,4.054 -9.76565,4.054 -0.44817,-0.002 -0.84132,-0.035 -1.23046,-0.074 L 378.7323,533.093 c -6.53044,-0.648 -11.96047,-4.889 -14.1683,-11.066 -2.20882,-6.179 -0.69726,-12.898 3.94348,-17.537 l 28.79676,-28.786 c 2.98512,-2.984 4.62973,-6.951 4.62973,-11.172 0,-4.221 -1.64461,-8.188 -4.62973,-11.173 L 138.96767,195.118 c -2.98512,-2.984 -6.9556,-4.628 -11.17718,-4.628 -4.22258,0 -8.19106,1.644 -11.17618,4.628 l -28.796762,28.786 c -3.189193,3.189 -7.374757,4.945 -11.783405,4.945 -7.428777,0 -15.852926,-5.315 -16.832293,-15.166 L 43.823102,58.876 c -0.04001,-0.391 -0.07203,-0.782 -0.07403,-1.174 -0.01501,-3.692 1.415529,-7.17 4.028506,-9.793 2.612977,-2.623 6.086275,-4.068 9.779656,-4.068 0.438163,0 0.868324,0.039 1.271475,0.081 L 212.95133,60.091 c 6.50743,0.683 11.90645,4.937 14.09126,11.102 2.18482,6.166 0.66825,12.869 -3.95848,17.494 l -28.00246,27.993 c -2.98512,2.984 -4.62974,6.952 -4.62974,11.172 0,4.22 1.64462,8.188 4.62974,11.172 l 258.33657,258.242 c 2.98511,2.983 6.9546,4.627 11.17717,4.627 4.22158,0 8.19107,-1.644 11.17618,-4.627 l 28.00347,-27.993 c 3.19019,-3.188 7.37576,-4.944 11.78541,-4.944 h 0.001 z"
   id="path2"
   style="stroke-width:1.00019;stroke:#dedede;stroke-opacity:1" />&#10;<path
   id="path4"
   style="opacity:1;fill:none;fill-opacity:1;stroke:none;stroke-width:8.4733;stroke-opacity:1"
   d="m 60.438568,45.503133 c 10.616118,0.164293 31.564099,2.476253 75.812902,7.134316 77.98276,8.209228 80.79858,8.597319 84.88135,11.710227 5.20394,3.967756 7.19359,10.203688 5.36612,16.819798 -0.97038,3.513109 -5.72779,9.221114 -18.48122,22.173796 -14.98616,15.22031 -17.26115,18.08134 -17.84752,22.45147 -0.43297,3.22683 0.0286,6.32865 1.29632,8.7194 3.36369,6.34376 264.83562,266.51941 268.81527,267.48258 7.86518,1.90358 11.17834,-0.06 27.09391,-16.05619 8.39901,-8.44154 17.16842,-16.53394 19.48673,-17.98258 8.06407,-5.03895 18.5397,-2.4382 22.71884,5.64035 1.3446,2.59919 4.49901,27.84946 10.12025,81.0243 4.49136,42.48659 8.16985,78.88278 8.17578,80.87967 0.007,2.43966 -1.40998,5.0511 -4.32155,7.96157 -2.64948,2.64849 -5.58913,4.3315 -7.56523,4.3315 -1.77746,0 -38.10715,-3.43123 -80.73341,-7.62459 -51.8907,-5.10474 -78.87461,-8.25662 -81.65357,-9.53797 -5.21165,-2.40305 -9.22021,-8.83907 -9.22614,-14.81387 -0.006,-5.95869 3.78256,-10.99728 20.97692,-27.89946 17.65762,-17.35757 19.93365,-21.83062 15.42415,-30.31903 C 399.77333,455.70637 339.70072,395.0007 267.28376,322.69724 177.2365,232.79106 134.50465,190.96776 132.1021,190.38628 c -7.83019,-1.89512 -11.20435,0.0805 -26.45878,15.49215 -18.254552,18.44271 -23.143812,22.15802 -29.15992,22.1521 -5.679784,-0.006 -12.142233,-3.80591 -14.621194,-8.59792 -1.269954,-2.45488 -4.437607,-29.53154 -9.848261,-84.16264 l -7.977563,-80.542701 2.583954,-3.476767 c 2.918375,-3.928116 3.20212,-5.911661 13.818232,-5.747369 z" /></svg>
