<?xml version="1.0" encoding="UTF-8" standalone="no"?>
<!-- Uploaded to: SVG Repo, www.svgrepo.com, Generator: SVG Repo Mixer Tools -->

<svg
   fill="#000000"
   version="1.1"
   id="Capa_1"
   width="800px"
   height="800px"
   viewBox="0 0 592.381 592.381"
   xml:space="preserve"
   sodipodi:docname="expand2-hover.svg"
   inkscape:version="1.3.2 (1:1.3.2+202311252150+091e20ef0f)"
   inkscape:export-filename="expand2-hover@2x.png"
   inkscape:export-xdpi="7.6799998"
   inkscape:export-ydpi="7.6799998"
   xmlns:inkscape="http://www.inkscape.org/namespaces/inkscape"
   xmlns:sodipodi="http://sodipodi.sourceforge.net/DTD/sodipodi-0.dtd"
   xmlns="http://www.w3.org/2000/svg"
   xmlns:svg="http://www.w3.org/2000/svg"><defs
   id="defs4">
	

		
	
			
			
		</defs><sodipodi:namedview
   id="namedview4"
   pagecolor="#ffffff"
   bordercolor="#666666"
   borderopacity="1.0"
   inkscape:showpageshadow="2"
   inkscape:pageopacity="0.0"
   inkscape:pagecheckerboard="0"
   inkscape:deskcolor="#d1d1d1"
   inkscape:zoom="0.58125"
   inkscape:cx="190.96774"
   inkscape:cy="295.91398"
   inkscape:window-width="2560"
   inkscape:window-height="1372"
   inkscape:window-x="1920"
   inkscape:window-y="0"
   inkscape:window-maximized="1"
   inkscape:current-layer="Capa_1" />
<path
   d="m 534.15509,591.881 c -0.0509,0 -0.1227,0 -0.18056,0 -0.0189,0 -0.0379,0 -0.0569,0 -2.25648,-0.01 -4.09598,-0.169 -5.28307,-0.287 L 374.22647,576.221 c -11.83304,-1.178 -22.90594,-5.748 -32.02363,-13.217 -8.44234,-6.916 -14.85564,-16.042 -18.54561,-26.394 -3.68997,-10.352 -4.49899,-21.485 -2.34127,-32.199 2.33029,-11.569 8.0064,-22.14 16.41582,-30.568 l 9.28927,-9.312 -218.75765,-219.295 -9.28927,9.312 c -11.34623,11.375 -26.376446,17.639 -42.321425,17.639 -14.331927,0 -28.228917,-5.133 -39.131237,-14.453 -11.790147,-10.082 -19.134174,-24.206 -20.6764,-39.771 L 1.5076026,63.157 C 1.3898907,61.971 1.2332739,60.132 1.2232984,57.881 1.1614497,42.574 7.0630072,28.172 17.841629,17.323 28.621249,6.475 42.964149,0.5 58.228792,0.5 h 0.01696 c 0.01097,0 0.02095,0 0.03292,0 2.451002,0.002 4.448115,0.183 5.735963,0.318 L 217.69853,16.987 c 11.79314,1.241 22.81617,5.854 31.87799,13.337 8.39446,6.934 14.76287,16.062 18.41394,26.398 3.65206,10.335 4.43514,21.446 2.26545,32.131 -2.34227,11.534 -8.01139,22.072 -16.39587,30.478 l -8.4992,8.519 218.75964,219.294 8.4982,-8.519 c 11.34723,-11.374 26.37645,-17.639 42.32243,-17.639 14.27606,0 28.13016,5.097 39.01153,14.353 11.76521,10.008 19.13816,24.049 20.76019,39.536 l 16.13053,154.067 c 0.13567,1.294 0.31323,3.285 0.31722,5.728 0.017,15.271 -5.90555,29.635 -16.67818,40.446 -10.77164,10.811 -25.09359,16.765 -40.32731,16.765 z m 14.18728,-58.467 -16.13053,-154.066 c -0.99955,-9.553 -8.99498,-15.521 -17.26973,-15.521 -4.26756,0 -8.60993,1.588 -12.10438,5.091 l -27.92466,27.993 c -2.98071,2.987 -6.88615,4.48 -10.79259,4.48 -3.90644,0 -7.81288,-1.493 -10.79259,-4.48 L 195.71832,138.669 c -5.96141,-5.975 -5.96141,-15.662 0,-21.637 L 223.64199,89.04 C 233.91086,78.746 227.6821,61.114 213.23645,59.594 L 59.546567,43.424 c -0.43294,-0.045 -0.867876,-0.083 -1.302811,-0.083 -0.005,0 -0.01097,0 -0.01696,0 -7.887697,0 -14.301002,6.448 -14.26908,14.363 0.002,0.408 0.03491,0.815 0.07581,1.221 L 59.37,213.732 c 0.951671,9.602 8.974038,15.617 17.28071,15.617 4.264563,0 8.607934,-1.587 12.10338,-5.092 l 28.71573,-28.786 c 2.9797,-2.988 6.88614,-4.481 10.79159,-4.481 3.90644,0 7.81188,1.494 10.79258,4.481 l 257.60957,258.241 c 5.96042,5.976 5.96042,15.663 0,21.638 l -28.71572,28.786 c -10.30179,10.326 -3.99722,28.012 10.4993,29.455 l 154.43207,15.374 c 0.40401,0.04 0.81102,0.074 1.21802,0.076 0.0199,0 0.0399,0 0.0589,0 7.87472,0 14.27805,-6.426 14.26908,-14.321 -10e-4,-0.437 -0.0379,-0.872 -0.0828,-1.306 z"
   id="path1"
   style="fill:#dedede;fill-opacity:1;stroke:none;stroke-width:0.998779;stroke-opacity:1" /><path
   d="m 533.91667,592.381 h 0.23942 c 15.36639,0 29.81304,-6.006 40.68044,-16.911 10.86541,-10.906 16.83979,-25.396 16.82283,-40.801 -0.003,-2.474 -0.18455,-4.482 -0.32022,-5.778 L 575.20962,374.823 c -1.635,-15.616 -9.06881,-29.774 -20.93278,-39.865 -10.97115,-9.332 -24.93996,-14.472 -39.33473,-14.472 -16.07866,0 -31.23457,6.316 -42.67557,17.785 l -8.14606,8.165 -218.05337,-218.586 8.14606,-8.166 c 8.45431,-8.475 14.17032,-19.102 16.53155,-30.731 2.18664,-10.774 1.39658,-21.978 -2.28441,-32.398 -3.681,-10.42 -10.10128,-19.624 -18.56657,-26.617 C 240.75511,22.391 229.64031,17.74 217.74941,16.489 L 64.065509,0.321 C 62.767685,0.184 60.755609,0.002 58.277673,0 42.830476,0 28.361884,6.027 17.487496,16.971 6.6161009,27.914 0.66167279,42.444 0.72352143,57.884 c 0.009976,2.285 0.16858743,4.132 0.28629937,5.324 L 16.347286,218.014 c 1.556192,15.694 8.959075,29.936 20.848978,40.102 10.993097,9.397 25.00381,14.572 39.454446,14.572 16.077654,0 31.23356,-6.316 42.67357,-17.786 l 8.93713,-8.959 218.05536,218.587 -8.93713,8.959 c -8.47825,8.498 -14.20124,19.156 -16.55149,30.823 -2.17568,10.803 -1.35967,22.029 2.36122,32.466 3.7209,10.437 10.18607,19.64 18.69924,26.612 9.1935,7.531 20.35918,12.141 32.28998,13.328 l 154.40713,15.373 c 1.20206,0.12 3.0625,0.28 5.33095,0.29 z M 514.94211,321.486 c 14.15835,0 27.89772,5.055 38.68931,14.233 11.66645,9.925 18.97756,23.849 20.58662,39.207 l 16.12953,154.068 c 0.13268,1.274 0.31124,3.249 0.31423,5.677 0.017,15.137 -5.85467,29.375 -16.53154,40.092 -10.67887,10.717 -24.87513,16.618 -39.97417,16.618 h -0.18056 l -0.0569,0.5 0.002,-0.5 c -2.22555,-0.01 -4.05408,-0.167 -5.23618,-0.284 l -154.4081,-15.373 c -11.73428,-1.168 -22.71541,-5.7 -31.75728,-13.106 -8.37251,-6.858 -14.73195,-15.91 -18.39199,-26.175 -3.65905,-10.266 -4.46208,-21.308 -2.32232,-31.933 2.31134,-11.473 7.94057,-21.955 16.27916,-30.313 l 9.6424,-9.666 -219.46292,-220.002 -9.6424,9.666 c -11.25246,11.28 -26.156989,17.493 -41.968295,17.493 -14.21222,0 -27.994491,-5.09 -38.80703,-14.333 C 26.153289,247.357 18.87111,233.351 17.341852,217.915 L 2.0043868,63.109 C 1.88867,61.938 1.7330509,60.122 1.7230753,57.88 1.6622242,42.708 7.5129062,28.43 18.19676,17.677 28.880614,6.923 43.097821,1 58.228792,1 c 2.478934,0.002 4.457093,0.181 5.73297,0.315 L 217.64666,17.484 c 11.69438,1.231 22.62663,5.805 31.61164,13.226 8.32662,6.877 14.64117,15.93 18.26131,26.179 3.62213,10.25 4.39923,21.268 2.2475,31.865 -2.32132,11.436 -7.94456,21.888 -16.25921,30.224 l -8.85134,8.873 219.46392,220 8.85134,-8.872 c 11.25346,-11.281 26.15798,-17.493 41.97029,-17.493 z m 19.15213,228.055 c 4.0032,0 7.71212,-1.544 10.50529,-4.347 2.79316,-2.803 4.32841,-6.523 4.32342,-10.476 0,-0.479 -0.0429,-0.954 -0.0858,-1.356 L 532.70663,379.296 c -0.95267,-9.104 -8.58898,-15.969 -17.76353,-15.969 -4.66458,0 -9.08975,1.86 -12.4595,5.237 l -27.92467,27.993 c -2.78817,2.795 -6.4961,4.334 -10.43945,4.334 -3.94435,0 -7.65127,-1.539 -10.44045,-4.334 L 196.06946,138.315 c -2.78917,-2.795 -4.32441,-6.512 -4.32441,-10.465 0,-3.953 1.53524,-7.67 4.32441,-10.465 l 27.92367,-27.993 c 4.88804,-4.9 6.49111,-12.002 4.18176,-18.534 -2.30735,-6.532 -8.01239,-11.039 -14.88856,-11.763 L 59.596445,42.926 c -0.427952,-0.045 -0.888824,-0.086 -1.352689,-0.086 -3.968289,0 -7.6822,1.549 -10.47736,4.362 -2.794162,2.812 -4.324417,6.543 -4.307458,10.503 0.002,0.424 0.03591,0.848 0.07881,1.269 L 58.87521,213.78 c 1.033471,10.436 9.930698,16.067 17.776497,16.067 4.663587,0 9.086763,-1.86 12.455519,-5.238 l 28.715724,-28.786 c 2.78818,-2.795 6.4961,-4.335 10.43945,-4.335 3.94335,0 7.65128,1.54 10.44045,4.335 l 257.60957,258.241 c 2.78818,2.796 4.32442,6.513 4.32442,10.466 0,3.953 -1.53624,7.67 -4.32442,10.465 l -28.71572,28.786 c -4.904,4.915 -6.5001,12.034 -4.16681,18.58 2.33329,6.546 8.06926,11.039 14.96937,11.726 l 154.43007,15.375 c 0.41997,0.042 0.84294,0.077 1.26491,0.079 z M 514.9441,364.327 c 7.36498,0 15.74647,5.282 16.77096,15.072 l 16.13152,154.067 c 0.0389,0.377 0.0798,0.821 0.0798,1.255 0.004,3.685 -1.42751,7.153 -4.03214,9.767 -2.60462,2.614 -6.06316,4.054 -9.73816,4.054 -0.44691,-0.002 -0.83895,-0.035 -1.227,-0.074 L 378.50001,533.093 c -6.51206,-0.648 -11.92681,-4.889 -14.12842,-11.066 -2.20261,-6.179 -0.6953,-12.898 3.93237,-17.537 l 28.71573,-28.786 c 2.97672,-2.984 4.6167,-6.951 4.6167,-11.172 0,-4.221 -1.63998,-8.188 -4.6167,-11.173 L 139.41012,195.118 c -2.97671,-2.984 -6.93602,-4.628 -11.14572,-4.628 -4.2107,0 -8.16801,1.644 -11.14473,4.628 l -28.715723,28.786 c -3.180218,3.189 -7.354003,4.945 -11.750245,4.945 -7.407871,0 -15.808313,-5.315 -16.784923,-15.166 L 44.533308,58.876 c -0.0399,-0.391 -0.07182,-0.782 -0.07382,-1.174 -0.01496,-3.692 1.411546,-7.17 4.017169,-9.793 2.605624,-2.623 6.069148,-4.068 9.752134,-4.068 0.436931,0 0.865881,0.039 1.267898,0.081 L 213.18558,60.091 c 6.48912,0.683 11.87294,4.937 14.05161,11.102 2.17867,6.166 0.66637,12.869 -3.94734,17.494 l -27.92367,27.993 c -2.97671,2.984 -4.6167,6.952 -4.6167,11.172 0,4.22 1.63999,8.188 4.6167,11.172 l 257.60957,258.242 c 2.97672,2.983 6.93503,4.627 11.14573,4.627 4.20969,0 8.16801,-1.644 11.14472,-4.627 l 27.92466,-27.993 c 3.18122,-3.188 7.35501,-4.944 11.75224,-4.944 h 0.001 z"
   id="path2"
   style="stroke-width:0.998779;fill:#dedede;fill-opacity:1;stroke:#dedede;stroke-opacity:1" />
<path
   id="path4"
   style="opacity:1;fill:#7ed63e;fill-opacity:1;stroke:#dedede;stroke-width:8.46137;stroke-opacity:1"
   d="m 61.102016,45.503133 c 10.586243,0.164293 31.475273,2.476253 75.599554,7.134316 77.76331,8.209228 80.5712,8.597319 84.64247,11.710227 5.18931,3.967756 7.17335,10.203688 5.35102,16.819798 -0.96765,3.513109 -5.71166,9.221114 -18.4292,22.173796 -14.94399,15.22031 -17.21257,18.08134 -17.7973,22.45147 -0.43175,3.22683 0.0286,6.32865 1.29267,8.7194 3.35422,6.34376 264.09034,266.51941 268.05878,267.48258 7.84305,1.90358 11.14689,-0.06 27.01767,-16.05619 8.37537,-8.44154 17.1201,-16.53394 19.43188,-17.98258 8.04138,-5.03895 18.48753,-2.4382 22.65491,5.64035 1.34081,2.59919 4.48635,27.84946 10.09177,81.0243 4.47872,42.48659 8.14686,78.88278 8.15277,80.87967 0.007,2.43966 -1.40601,5.0511 -4.30938,7.96157 -2.64203,2.64849 -5.57341,4.3315 -7.54394,4.3315 -1.77246,0 -37.99991,-3.43123 -80.50622,-7.62459 -51.74467,-5.10474 -78.65264,-8.25662 -81.42378,-9.53797 -5.19698,-2.40305 -9.19426,-8.83907 -9.20017,-14.81387 -0.006,-5.95869 3.7719,-10.99728 20.91788,-27.89946 17.60793,-17.35757 19.87755,-21.83062 15.38075,-30.31903 C 399.48183,455.70637 339.57828,395.0007 267.36511,322.69724 177.57125,232.79106 134.95966,190.96776 132.56387,190.38628 c -7.80815,-1.89512 -11.17281,0.0805 -26.38432,15.49215 -18.203177,18.44271 -23.078677,22.15802 -29.077855,22.1521 -5.6638,-0.006 -12.108063,-3.80591 -14.580047,-8.59792 -1.26638,-2.45488 -4.425119,-29.53154 -9.820546,-84.16264 l -7.955114,-80.542701 2.576683,-3.476767 c 2.910162,-3.928116 3.193109,-5.911661 13.779345,-5.747369 z" /></svg>
