<?xml version="1.0" encoding="UTF-8" standalone="no"?>
<svg
   viewBox="0 0 16 16"
   version="1.1"
   id="svg1"
   sodipodi:docname="remove-image.svg"
   inkscape:version="1.3 (1:1.3+202307231459+0e150ed6c4)"
   inkscape:export-filename="../../dark/16x16/remove-image@2x.png"
   inkscape:export-xdpi="255.63474"
   inkscape:export-ydpi="255.63474"
   xmlns:inkscape="http://www.inkscape.org/namespaces/inkscape"
   xmlns:sodipodi="http://sodipodi.sourceforge.net/DTD/sodipodi-0.dtd"
   xmlns="http://www.w3.org/2000/svg"
   xmlns:svg="http://www.w3.org/2000/svg">
  <sodipodi:namedview
     id="namedview1"
     pagecolor="#ffffff"
     bordercolor="#666666"
     borderopacity="1.0"
     inkscape:showpageshadow="2"
     inkscape:pageopacity="0.0"
     inkscape:pagecheckerboard="0"
     inkscape:deskcolor="#d1d1d1"
     inkscape:zoom="70.625"
     inkscape:cx="8"
     inkscape:cy="8"
     inkscape:window-width="2560"
     inkscape:window-height="1372"
     inkscape:window-x="1920"
     inkscape:window-y="0"
     inkscape:window-maximized="1"
     inkscape:current-layer="svg1" />
  <defs
     id="defs3051">
    <style
       type="text/css"
       id="current-color-scheme">&#10;      .ColorScheme-Text {&#10;        color:#dedede;&#10;      }&#10;      </style>
  </defs>
  <path
     class="ColorScheme-NegativeText"
     d="m 11.510012,8.9932557 c -1.384654,0 -2.5071341,1.1224793 -2.5071341,2.5071343 0,1.384654 1.1224801,2.507134 2.5071341,2.507134 1.384654,0 2.507134,-1.12248 2.507134,-2.507134 0,-1.384655 -1.12248,-2.5071343 -2.507134,-2.5071343 z m -1.193396,0.716324 1.193396,1.1933953 1.193396,-1.1933953 0.5974,0.5974003 -1.193396,1.193395 1.193396,1.193396 -0.5974,0.5974 -1.193396,-1.193396 -1.193396,1.193396 -0.5973998,-0.5974 1.1933958,-1.193396 -1.1933958,-1.193395 z"
     fill="currentColor"
     id="path2"
     style="color:#da4453;stroke-width:0.716324" />
  <path
     style="fill:currentColor;fill-opacity:1;stroke:none"
     d="M 2,2 V 13.28125 14 H 8 V 10 L 7.65625,10.34375 6.3125,9 H 6.28125 L 3,12.28125 V 3 h 10 v 5 h 1 V 2 Z M 6,4 C 4.8954305,4 4,4.8954305 4,6 4,7.1045695 4.8954305,8 6,8 7.1045695,8 8,7.1045695 8,6 8,4.8954305 7.1045695,4 6,4 Z"
     class="ColorScheme-Text"
     id="path1"
     sodipodi:nodetypes="cccccccccccccccsssss" />
</svg>
