<?xml version="1.0" encoding="UTF-8" standalone="no"?>
<svg
   viewBox="0 0 22 22"
   version="1.1"
   id="svg2"
   sodipodi:docname="snap-nodes-rotation-center.svg"
   width="22"
   height="22"
   inkscape:version="1.3.2 (1:1.3.2+202311252150+091e20ef0f)"
   xmlns:inkscape="http://www.inkscape.org/namespaces/inkscape"
   xmlns:sodipodi="http://sodipodi.sourceforge.net/DTD/sodipodi-0.dtd"
   xmlns="http://www.w3.org/2000/svg"
   xmlns:svg="http://www.w3.org/2000/svg">
  <sodipodi:namedview
     id="namedview2"
     pagecolor="#ffffff"
     bordercolor="#666666"
     borderopacity="1.0"
     inkscape:showpageshadow="2"
     inkscape:pageopacity="0.0"
     inkscape:pagecheckerboard="0"
     inkscape:deskcolor="#d1d1d1"
     inkscape:zoom="17.65625"
     inkscape:cx="26.336283"
     inkscape:cy="13.876106"
     inkscape:window-width="2560"
     inkscape:window-height="1372"
     inkscape:window-x="1920"
     inkscape:window-y="0"
     inkscape:window-maximized="1"
     inkscape:current-layer="svg2" />
  <defs
     id="defs3051">
    <style
       type="text/css"
       id="current-color-scheme">
      .ColorScheme-Text {
        color:#dedede;
      }
      .ColorScheme-Highlight {
        color:#3daee9;
      }
      </style>
  </defs>
  <path
     style="fill:currentColor;fill-opacity:1;stroke:none;stroke-width:1.64467"
     d="m 12.056929,1.671875 -1.162831,1.1628309 2.666159,2.6661594 H 6.8402509 v 1.644667 h 6.7200061 l -2.666159,2.6661594 1.162831,1.1628313 4.651324,-4.6513242 -3.090175,-3.090175 z M 4.3732505,7.1455323 c -0.4539281,0 -0.8223335,0.3684054 -0.8223335,0.8223335 0,0.4539281 0.3684054,0.8223335 0.8223335,0.8223335 0.4539281,0 0.8223335,-0.3684054 0.8223335,-0.8223335 0,-0.4539281 -0.3684054,-0.8223335 -0.8223335,-0.8223335 z m -1.644667,4.9340007 c -0.4539281,0 -0.8223335,0.368406 -0.8223335,0.822334 0,0.453928 0.3684054,0.822333 0.8223335,0.822333 0.4539281,0 0.8223335,-0.368405 0.8223335,-0.822333 0,-0.453928 -0.3684054,-0.822334 -0.8223335,-0.822334 z m 1.644667,4.934001 c -0.4539281,0 -0.8223335,0.368406 -0.8223335,0.822334 0,0.453928 0.3684054,0.822333 0.8223335,0.822333 0.4539281,0 0.8223335,-0.368405 0.8223335,-0.822333 0,-0.453928 -0.3684054,-0.822334 -0.8223335,-0.822334 z m 4.9340009,1.644667 c -0.4539281,0 -0.8223335,0.368406 -0.8223335,0.822334 0,0.453928 0.3684054,0.822333 0.8223335,0.822333 0.4539281,0 0.8223336,-0.368405 0.8223336,-0.822333 0,-0.453928 -0.3684055,-0.822334 -0.8223336,-0.822334 z"
     class="ColorScheme-Text"
     id="path1" />
  <path
     style="fill:currentColor;fill-opacity:1;stroke:none;stroke-width:1.64467"
     d="m 15.217773,12.079533 a 3.289334,3.289334 0 0 0 -3.289334,3.289334 3.289334,3.289334 0 0 0 3.289334,3.289334 3.289334,3.289334 0 0 0 3.289334,-3.289334 3.289334,3.289334 0 0 0 -3.289334,-3.289334 m 0,1.644667 a 1.644667,1.644667 0 0 1 1.644667,1.644667 1.644667,1.644667 0 0 1 -1.644667,1.644667 1.644667,1.644667 0 0 1 -1.644667,-1.644667 1.644667,1.644667 0 0 1 1.644667,-1.644667"
     class="ColorScheme-Highlight"
     id="path2" />
</svg>
