<?xml version="1.0" encoding="UTF-8" standalone="no"?>
<!-- Created with Inkscape (http://www.inkscape.org/) -->

<svg
   width="16"
   height="16"
   viewBox="0 0 16 16.000001"
   version="1.1"
   id="svg5"
   inkscape:version="1.2.1 (9c6d41e410, 2022-07-14, custom)"
   sodipodi:docname="emblem-documents-symbolic.svg"
   xmlns:inkscape="http://www.inkscape.org/namespaces/inkscape"
   xmlns:sodipodi="http://sodipodi.sourceforge.net/DTD/sodipodi-0.dtd"
   xmlns="http://www.w3.org/2000/svg"
   xmlns:svg="http://www.w3.org/2000/svg">
  <sodipodi:namedview
     id="namedview7"
     pagecolor="#ffffff"
     bordercolor="#000000"
     borderopacity="0.25"
     inkscape:showpageshadow="2"
     inkscape:pageopacity="0.0"
     inkscape:pagecheckerboard="0"
     inkscape:deskcolor="#d1d1d1"
     inkscape:document-units="px"
     showgrid="false"
     inkscape:zoom="50.625"
     inkscape:cx="7.2395062"
     inkscape:cy="8"
     inkscape:window-width="1920"
     inkscape:window-height="1012"
     inkscape:window-x="0"
     inkscape:window-y="0"
     inkscape:window-maximized="1"
     inkscape:current-layer="svg5" />
  <defs
     id="defs2" />
  <path
     id="rect2849"
     style="opacity:1;fill:#363636;fill-opacity:1"
     d="M 4 0 C 2.8920033 0 2 0.89200333 2 2 L 2 14 C 2 15.107997 2.8920033 16 4 16 L 12 16 C 13.107997 16 14 15.107997 14 14 L 14 6 L 14 5 L 9 0 L 8 0 L 4 0 z M 4 1 L 8 1 L 8 4 C 8 5.1079978 8.8920022 6 10 6 L 13 6 L 13 14 C 13 14.553997 12.553997 15 12 15 L 4 15 C 3.4460018 15 3 14.553997 3 14 L 3 2 C 3 1.4460018 3.4460018 1 4 1 z M 9 1.5 L 12.5 5 L 10 5 C 9.4460012 5 9 4.5539989 9 4 L 9 1.5 z " />
</svg>
