<?xml version="1.0" encoding="UTF-8" standalone="no"?>
<svg
   xmlns:dc="http://purl.org/dc/elements/1.1/"
   xmlns:cc="http://creativecommons.org/ns#"
   xmlns:rdf="http://www.w3.org/1999/02/22-rdf-syntax-ns#"
   xmlns:svg="http://www.w3.org/2000/svg"
   xmlns="http://www.w3.org/2000/svg"
   xmlns:sodipodi="http://sodipodi.sourceforge.net/DTD/sodipodi-0.dtd"
   xmlns:inkscape="http://www.inkscape.org/namespaces/inkscape"
   version="1.1"
   width="10mm"
   height="5.5999999mm"
   id="svg2"
   sodipodi:docname="icon_scissors_horizontal.svg"
   inkscape:version="1.0.1 (3bc2e813f5, 2020-09-07)">
  <metadata
     id="metadata11">
    <rdf:RDF>
      <cc:Work
         rdf:about="">
        <dc:format>image/svg+xml</dc:format>
        <dc:type
           rdf:resource="http://purl.org/dc/dcmitype/StillImage" />
        <dc:title />
      </cc:Work>
    </rdf:RDF>
  </metadata>
  <sodipodi:namedview
     pagecolor="#ffffff"
     bordercolor="#666666"
     borderopacity="1"
     objecttolerance="10"
     gridtolerance="10"
     guidetolerance="10"
     inkscape:pageopacity="0"
     inkscape:pageshadow="2"
     inkscape:window-width="1845"
     inkscape:window-height="1016"
     id="namedview9"
     showgrid="false"
     inkscape:zoom="4"
     inkscape:cx="-13.069473"
     inkscape:cy="57.804097"
     inkscape:window-x="75"
     inkscape:window-y="27"
     inkscape:window-maximized="1"
     inkscape:current-layer="g4593"
     inkscape:document-rotation="0"
     units="mm" />
  <defs
     id="defs4">
    <marker
       refX="0"
       refY="0"
       orient="auto"
       id="Scissors"
       style="overflow:visible">
      <path
         d="M 9.0898857,-3.6061018 C 8.1198849,-4.7769976 6.3697607,-4.7358294 5.0623558,-4.2327734 l -8.2124046,3.0779029 c -2.3882933,-1.3067135 -4.7482873,-0.9325372 -4.7482873,-1.5687873 0,-0.4973164 0.4566662,-0.3883222 0.3883068,-1.6831941 -0.065635,-1.2432767 -1.3635771,-2.1630796 -2.5903987,-2.0816435 -1.227271,-0.00735 -2.499439,0.9331613 -2.510341,2.2300611 -0.09143,1.3063864 1.007209,2.5196896 2.306764,2.6052316 1.5223406,0.2266616 4.218258,-0.6955566 5.482945,1.57086006 -0.9422847,1.73825774 -2.6140244,1.74307674 -4.1255107,1.65607034 -1.2548743,-0.072235 -2.7620933,0.2873979 -3.3606483,1.5208605 -0.578367,1.1820862 -0.0112,2.8646022 1.316749,3.226412 1.3401912,0.4918277 3.1806689,-0.129711 3.4993722,-1.6707242 0.2456585,-1.187823 -0.5953659,-1.7459574 -0.2725074,-2.1771537 0.2436135,-0.32536 1.7907806,-0.1368452 4.5471053,-1.3748244 L 5.6763468,4.2330688 C 6.8000164,4.5467672 8.1730685,4.5362646 9.1684433,3.4313614 l -9.22008423,-3.48508362 z m -18.3078016,-1.900504 c 1.294559,0.7227998 1.1888392,2.6835702 -0.1564272,3.0632889 -1.2165179,0.423661 -2.7710269,-0.7589694 -2.3831779,-2.0774648 0.227148,-1.0818519 1.653387,-1.480632 2.5396051,-0.9858241 z m 0.056264,8.0173649 c 1.3508301,0.4988648 1.1214429,2.7844356 -0.2522207,3.091609 -0.9110594,0.3163391 -2.2135494,-0.1387976 -2.3056964,-1.2121394 -0.177609,-1.305055 1.356085,-2.4841482 2.5579171,-1.8794696 z"
         id="schere"
         style="marker-start:none" />
    </marker>
  </defs>
  <g
     transform="matrix(0.88916115,0.40113698,-0.40113698,0.88916115,416.60041,-888.00877)"
     id="layer1">
    <g
       transform="matrix(4.2610846,-1.2351263,1.2351263,4.2610846,-1337.7659,-2994.9736)"
       id="g4593">
      <path
         d="m 35.464624,949.91014 c 0.230465,0.52643 0.870608,0.69376 1.398007,0.64716 l 3.304293,-0.26293 c 0.731614,0.72349 1.628019,0.83334 1.561751,1.06451 -0.0518,0.18068 -0.206363,0.0935 -0.316383,0.57109 -0.105643,0.45854 0.270125,0.92791 0.724333,1.02609 0.445128,0.1305 1.005282,-0.0787 1.144322,-0.54876 0.169277,-0.46512 -0.103509,-1.02036 -0.566757,-1.18679 -0.529488,-0.2409 -1.605018,-0.18663 -1.828451,-1.14178 0.523391,-0.5334 1.131267,-0.36105 1.671359,-0.172 0.448397,0.15694 1.033456,0.18325 1.379387,-0.20254 0.333251,-0.36924 0.302424,-1.0396 -0.142367,-1.30936 -0.435692,-0.31827 -1.169106,-0.28414 -1.445396,0.24254 -0.212966,0.40597 0.03447,0.69635 -0.127746,0.81938 -0.122393,0.0928 -0.664876,-0.13679 -1.795242,0.0259 l -1.329919,-0.94598 c -0.313891,0.0425 -0.891164,0.12806 -1.114904,0.15904 l 1.174988,0.87587 -3.691276,0.33854 z m 6.453633,2.59727 c -0.395055,-0.39744 -0.15243,-1.09881 0.375877,-1.09666 0.486113,-0.0272 0.927723,0.56435 0.649487,1.00299 -0.195206,0.3694 -0.754918,0.36575 -1.025364,0.0937 z m 0.814577,-2.91872 c -0.438826,-0.32194 -0.11744,-1.12844 0.413631,-1.09697 0.363954,-0.02 0.789772,0.28097 0.711461,0.68053 -0.0714,0.49265 -0.751419,0.7613 -1.125092,0.41644 z"
         id="path4599"
         style="fill:#c8c8c8;fill-opacity:1;stroke-width:0.377953;marker-start:none"
         sodipodi:nodetypes="cccscccccccccccccccccccccccc" />
    </g>
  </g>
</svg>
