<?xml version="1.0" encoding="UTF-8" standalone="no"?>
<svg
   xmlns:dc="http://purl.org/dc/elements/1.1/"
   xmlns:cc="http://creativecommons.org/ns#"
   xmlns:rdf="http://www.w3.org/1999/02/22-rdf-syntax-ns#"
   xmlns:svg="http://www.w3.org/2000/svg"
   xmlns="http://www.w3.org/2000/svg"
   xmlns:sodipodi="http://sodipodi.sourceforge.net/DTD/sodipodi-0.dtd"
   xmlns:inkscape="http://www.inkscape.org/namespaces/inkscape"
   width="128"
   height="128"
   viewBox="0 0 33.866666 33.866668"
   version="1.1"
   id="svg8"
   sodipodi:docname="icon_properties.svg"
   inkscape:export-filename="/home/ronan/Desktop/icon_properties@2x.png"
   inkscape:export-xdpi="96"
   inkscape:export-ydpi="96"
   inkscape:version="1.0.1 (3bc2e813f5, 2020-09-07)">
  <defs
     id="defs2" />
  <sodipodi:namedview
     id="base"
     pagecolor="#ffffff"
     bordercolor="#666666"
     borderopacity="1.0"
     inkscape:pageopacity="0.0"
     inkscape:pageshadow="2"
     inkscape:zoom="2.8"
     inkscape:cx="-11.795691"
     inkscape:cy="86.412865"
     inkscape:document-units="px"
     inkscape:current-layer="layer1"
     showgrid="false"
     units="px"
     inkscape:window-width="1513"
     inkscape:window-height="752"
     inkscape:window-x="374"
     inkscape:window-y="117"
     inkscape:window-maximized="0"
     inkscape:document-rotation="0"
     inkscape:snap-global="false" />
  <metadata
     id="metadata5">
    <rdf:RDF>
      <cc:Work
         rdf:about="">
        <dc:format>image/svg+xml</dc:format>
        <dc:type
           rdf:resource="http://purl.org/dc/dcmitype/StillImage" />
        <dc:title></dc:title>
      </cc:Work>
    </rdf:RDF>
  </metadata>
  <g
     inkscape:label="Ebene 1"
     inkscape:groupmode="layer"
     id="layer1"
     transform="translate(0,-263.13332)">
    <rect
       style="fill:#ffffff;fill-opacity:1;stroke:#000000;stroke-width:1.05013126;stroke-miterlimit:4;stroke-dasharray:none;stroke-opacity:1"
       id="rect815"
       width="25.9415"
       height="32.816536"
       x="3.9646497"
       y="263.65839" />
    <path
       style="fill:none;stroke:#000000;stroke-width:1.17405;stroke-linecap:butt;stroke-linejoin:miter;stroke-miterlimit:4;stroke-dasharray:none;stroke-opacity:1"
       d="m 7.5406885,268.48285 18.5207075,0.002"
       id="path860"
       sodipodi:nodetypes="cc" />
    <path
       style="fill:none;stroke:#000000;stroke-width:1.17405;stroke-linecap:butt;stroke-linejoin:miter;stroke-miterlimit:4;stroke-dasharray:none;stroke-opacity:1"
       d="m 7.5406885,272.18701 18.5207075,0.002"
       id="path860-3"
       sodipodi:nodetypes="cc" />
    <path
       style="fill:none;stroke:#000000;stroke-width:1.17405;stroke-linecap:butt;stroke-linejoin:miter;stroke-miterlimit:4;stroke-dasharray:none;stroke-opacity:1"
       d="m 7.5406885,275.89118 18.5207075,0.002"
       id="path860-3-6"
       sodipodi:nodetypes="cc" />
    <path
       style="fill:none;stroke:#000000;stroke-width:1.17405;stroke-linecap:butt;stroke-linejoin:miter;stroke-miterlimit:4;stroke-dasharray:none;stroke-opacity:1"
       d="m 7.5406885,279.59535 18.5207075,0.002"
       id="path860-3-6-7"
       sodipodi:nodetypes="cc" />
    <path
       style="fill:none;stroke:#000000;stroke-width:1.17217;stroke-linecap:butt;stroke-linejoin:miter;stroke-miterlimit:4;stroke-dasharray:none;stroke-opacity:1"
       d="m 7.5406884,283.29857 9.5248736,0.004"
       id="path860-3-6-7-3"
       sodipodi:nodetypes="cc" />
  </g>
  <g
     inkscape:groupmode="layer"
     id="layer2"
     inkscape:label="Ebene 2">
    <rect
       style="fill:#ffb000;fill-opacity:1;stroke:#000000;stroke-width:0.0239823;stroke-linejoin:miter;stroke-miterlimit:4;stroke-dasharray:none;stroke-opacity:1"
       id="rect1541"
       width="11.755722"
       height="4.0580931"
       x="-3.0312908"
       y="33.013405"
       transform="matrix(0.7043678,-0.70983519,0.65609625,0.75467723,0,0)" />
    <rect
       style="fill:#ff6ac5;fill-opacity:1;stroke:#000000;stroke-width:0.0246373;stroke-linejoin:miter;stroke-miterlimit:4;stroke-dasharray:none;stroke-opacity:1"
       id="rect1558"
       width="4.095542"
       height="2.2526591"
       x="32.814873"
       y="-5.8033538"
       transform="matrix(0.769894,0.63817178,-0.72322028,0.69061743,0,0)" />
    <path
       sodipodi:type="star"
       style="fill:#ecb05c;fill-opacity:0.585054;stroke:#000000;stroke-width:0.0256646;stroke-linejoin:miter;stroke-miterlimit:4;stroke-dasharray:none;stroke-opacity:1"
       id="path1560"
       sodipodi:sides="3"
       sodipodi:cx="20.110312"
       sodipodi:cy="29.040583"
       sodipodi:r1="2.4221137"
       sodipodi:r2="1.2110568"
       sodipodi:arg1="0.14292279"
       sodipodi:arg2="1.1901203"
       inkscape:flatsided="true"
       inkscape:rounded="0"
       inkscape:randomized="0"
       d="m 22.507729,29.385581 -3.894903,1.558727 0.597554,-4.152449 z"
       inkscape:transform-center-x="-0.30927552"
       inkscape:transform-center-y="-0.31760931"
       transform="rotate(7.0152373,14.907215,26.753104)" />
    <path
       d="m 32.521685,18.700663 -1.915051,-1.950856 c -0.255301,-0.259946 -0.59531,-0.403311 -0.95729,-0.403442 -2.56e-4,0 -3.42e-4,0 -5.98e-4,0 -0.361979,0 -0.701754,0.143149 -0.95682,0.402964 l -9.764404,9.946229 c -0.08,0.08341 -0.112911,0.202146 -0.136638,0.276461 l -1.255006,4.474487 c -0.045,0.160609 -0.001,0.333424 0.114791,0.451418 0.08588,0.08748 0.201256,0.13476 0.319213,0.13476 0.04147,0 0.08319,-0.006 0.124067,-0.01771 l 4.390169,-1.277678 c 0.01304,-0.0036 0.207012,-0.0718 0.273863,-0.139906 l 9.764295,-9.946361 c 0.255302,-0.259934 0.3957,-0.60627 0.395582,-0.975236 -8.4e-5,-0.368726 -0.140868,-0.715075 -0.396169,-0.975129 z m -13.894462,12.202626 0.842858,-3.004847 2.107026,2.146289 z m 3.81154,-1.281375 -2.553598,-2.601189 7.848656,-7.994895 2.553599,2.601177 z m 9.445081,-9.621087 -0.957994,0.975978 -2.553716,-2.601308 0.958113,-0.975847 c 0.0846,-0.08616 0.197733,-0.133564 0.318508,-0.133564 h 2.57e-4 c 0.121012,0 0.234388,0.04763 0.319214,0.134042 l 1.91517,1.950856 c 0.175995,0.179278 0.176231,0.470805 5.11e-4,0.649843 z m 0,0"
       id="path953"
       style="fill:#000000;fill-opacity:1;stroke-width:0.0304305;stroke-miterlimit:4;stroke-dasharray:none" />
  </g>
</svg>
