<?xml version="1.0" encoding="UTF-8" standalone="no"?>
<svg
   xmlns:dc="http://purl.org/dc/elements/1.1/"
   xmlns:cc="http://creativecommons.org/ns#"
   xmlns:rdf="http://www.w3.org/1999/02/22-rdf-syntax-ns#"
   xmlns:svg="http://www.w3.org/2000/svg"
   xmlns="http://www.w3.org/2000/svg"
   xmlns:sodipodi="http://sodipodi.sourceforge.net/DTD/sodipodi-0.dtd"
   xmlns:inkscape="http://www.inkscape.org/namespaces/inkscape"
   version="1.1"
   width="5.5999999mm"
   height="10mm"
   id="svg2"
   sodipodi:docname="icon_scissors_vertical.svg"
   inkscape:version="1.0.1 (3bc2e813f5, 2020-09-07)">
  <metadata
     id="metadata11">
    <rdf:RDF>
      <cc:Work
         rdf:about="">
        <dc:format>image/svg+xml</dc:format>
        <dc:type
           rdf:resource="http://purl.org/dc/dcmitype/StillImage" />
        <dc:title />
      </cc:Work>
    </rdf:RDF>
  </metadata>
  <sodipodi:namedview
     pagecolor="#ffffff"
     bordercolor="#666666"
     borderopacity="1"
     objecttolerance="10"
     gridtolerance="10"
     guidetolerance="10"
     inkscape:pageopacity="0"
     inkscape:pageshadow="2"
     inkscape:window-width="1845"
     inkscape:window-height="1016"
     id="namedview9"
     showgrid="false"
     inkscape:zoom="4"
     inkscape:cx="-13.069473"
     inkscape:cy="50.393713"
     inkscape:window-x="75"
     inkscape:window-y="27"
     inkscape:window-maximized="1"
     inkscape:current-layer="g4593"
     inkscape:document-rotation="0"
     units="mm" />
  <defs
     id="defs4">
    <marker
       refX="0"
       refY="0"
       orient="auto"
       id="Scissors"
       style="overflow:visible">
      <path
         d="M 9.0898857,-3.6061018 C 8.1198849,-4.7769976 6.3697607,-4.7358294 5.0623558,-4.2327734 l -8.2124046,3.0779029 c -2.3882933,-1.3067135 -4.7482873,-0.9325372 -4.7482873,-1.5687873 0,-0.4973164 0.4566662,-0.3883222 0.3883068,-1.6831941 -0.065635,-1.2432767 -1.3635771,-2.1630796 -2.5903987,-2.0816435 -1.227271,-0.00735 -2.499439,0.9331613 -2.510341,2.2300611 -0.09143,1.3063864 1.007209,2.5196896 2.306764,2.6052316 1.5223406,0.2266616 4.218258,-0.6955566 5.482945,1.57086006 -0.9422847,1.73825774 -2.6140244,1.74307674 -4.1255107,1.65607034 -1.2548743,-0.072235 -2.7620933,0.2873979 -3.3606483,1.5208605 -0.578367,1.1820862 -0.0112,2.8646022 1.316749,3.226412 1.3401912,0.4918277 3.1806689,-0.129711 3.4993722,-1.6707242 0.2456585,-1.187823 -0.5953659,-1.7459574 -0.2725074,-2.1771537 0.2436135,-0.32536 1.7907806,-0.1368452 4.5471053,-1.3748244 L 5.6763468,4.2330688 C 6.8000164,4.5467672 8.1730685,4.5362646 9.1684433,3.4313614 l -9.22008423,-3.48508362 z m -18.3078016,-1.900504 c 1.294559,0.7227998 1.1888392,2.6835702 -0.1564272,3.0632889 -1.2165179,0.423661 -2.7710269,-0.7589694 -2.3831779,-2.0774648 0.227148,-1.0818519 1.653387,-1.480632 2.5396051,-0.9858241 z m 0.056264,8.0173649 c 1.3508301,0.4988648 1.1214429,2.7844356 -0.2522207,3.091609 -0.9110594,0.3163391 -2.2135494,-0.1387976 -2.3056964,-1.2121394 -0.177609,-1.305055 1.356085,-2.4841482 2.5579171,-1.8794696 z"
         id="schere"
         style="marker-start:none" />
    </marker>
  </defs>
  <g
     transform="matrix(0.88916115,0.40113698,-0.40113698,0.88916115,416.60041,-888.00877)"
     id="layer1">
    <g
       transform="matrix(4.2610846,-1.2351263,1.2351263,4.2610846,-1337.7659,-2994.9736)"
       id="g4593">
      <path
         d="m 36.184207,948.95114 c 0.569876,0.0741 0.909488,0.64195 1.012188,1.16134 l 0.671333,3.24604 c 0.899184,0.50018 1.255261,1.33013 1.458678,1.20188 0.158999,-0.10024 0.0321,-0.22428 0.459871,-0.46343 0.410725,-0.22962 0.966427,-6e-5 1.187683,0.40859 0.249732,0.3909 0.205467,0.9872 -0.206972,1.25211 -0.399242,0.29256 -1.008607,0.18588 -1.297908,-0.21237 -0.379329,-0.44103 -0.627899,-1.48884 -1.60743,-1.43634 -0.365808,0.65165 -0.03037,1.1871 0.302112,1.65281 0.276041,0.38663 0.464872,0.94101 0.191168,1.381 -0.261348,0.42319 -0.913595,0.58101 -1.296949,0.22937 -0.427389,-0.32934 -0.599659,-1.04305 -0.171218,-1.45557 0.330248,-0.31797 0.678218,-0.16158 0.751001,-0.35173 0.05492,-0.14347 -0.317221,-0.60012 -0.476999,-1.7309 l -1.280073,-1.01242 c -0.04695,-0.31326 -0.126182,-0.89144 -0.158987,-1.11492 l 1.169432,0.88327 -0.706915,-3.63873 z m 4.297937,5.47019 c -0.492034,-0.26819 -1.097611,0.16084 -0.947845,0.66748 0.109774,0.47433 0.80121,0.73295 1.144574,0.34318 0.300097,-0.29069 0.140107,-0.82706 -0.196729,-1.01066 z m -2.57461,1.59808 c -0.431781,-0.33133 -1.116275,0.20272 -0.937591,0.70381 0.08252,0.35505 0.490562,0.67973 0.8523,0.49284 0.453046,-0.20628 0.52087,-0.93429 0.08529,-1.19665 z"
         id="path4599"
         style="fill:#c8c8c8;fill-opacity:1;stroke-width:0.377954;marker-start:none"
         sodipodi:nodetypes="cccscccccccccccccccccccccccc" />
    </g>
  </g>
</svg>
