<?xml version="1.0" encoding="UTF-8" standalone="no"?>
<svg
   version="1.1"
   viewBox="0 0 22 22"
   id="svg3"
   sodipodi:docname="duplicate-node.svg"
   inkscape:version="1.4.2 (1:1.4.2+202505120738+ebf0e940d0)"
   xmlns:inkscape="http://www.inkscape.org/namespaces/inkscape"
   xmlns:sodipodi="http://sodipodi.sourceforge.net/DTD/sodipodi-0.dtd"
   xmlns="http://www.w3.org/2000/svg"
   xmlns:svg="http://www.w3.org/2000/svg">
  <defs
     id="defs3" />
  <sodipodi:namedview
     id="namedview3"
     pagecolor="#ffffff"
     bordercolor="#666666"
     borderopacity="1.0"
     inkscape:showpageshadow="2"
     inkscape:pageopacity="0.0"
     inkscape:pagecheckerboard="0"
     inkscape:deskcolor="#d1d1d1"
     inkscape:zoom="37.508801"
     inkscape:cx="13.556818"
     inkscape:cy="12.063835"
     inkscape:window-width="2560"
     inkscape:window-height="1372"
     inkscape:window-x="1920"
     inkscape:window-y="0"
     inkscape:window-maximized="1"
     inkscape:current-layer="svg3" />
  <style
     id="current-color-scheme"
     type="text/css">.ColorScheme-Text{color:#363636;}</style>
  <g
     id="g1">
    <path
       style="fill:#363636;fill-opacity:1;stroke:none;stroke-width:0.381297"
       id="path1"
       sodipodi:type="arc"
       sodipodi:cx="7.8001537"
       sodipodi:cy="7.8200307"
       sodipodi:rx="6.2411928"
       sodipodi:ry="6.247097"
       sodipodi:start="5.673664"
       sodipodi:end="5.6735508"
       sodipodi:arc-type="arc"
       d="M 12.917446,4.2437236 A 6.2411928,6.247097 0 0 1 11.373226,12.942063 6.2411928,6.247097 0 0 1 2.6830637,11.396628 6.2411928,6.247097 0 0 1 4.2267922,2.6982011 6.2411928,6.247097 0 0 1 12.917041,4.2431438"
       sodipodi:open="true" />
    <path
       style="fill:#3daee9;fill-opacity:1;stroke:#ffffff;stroke-width:0.450763;stroke-dasharray:none;stroke-opacity:1"
       id="path2"
       sodipodi:type="arc"
       sodipodi:cx="14.009491"
       sodipodi:cy="14.099064"
       sodipodi:rx="6.2348027"
       sodipodi:ry="6.2382622"
       sodipodi:start="5.673664"
       sodipodi:end="5.6735508"
       sodipodi:open="true"
       sodipodi:arc-type="arc"
       d="M 19.121544,10.527815 A 6.2348027,6.2382622 0 0 1 17.578905,19.213852 6.2348027,6.2382622 0 0 1 8.8976401,17.670603 6.2348027,6.2382622 0 0 1 10.439788,8.9844777 6.2348027,6.2382622 0 0 1 19.12114,10.527236" />
    <path
       d="m 14.640668,13.564533 h 2.939044 q 0.322578,0 0.528669,0.232972 0.232973,0.232973 0.224013,0.519709 v 0.03584 q 0,0.313618 -0.224013,0.52867 -0.232973,0.224012 -0.528669,0.224012 h -2.939044 v 2.777755 q 0,0.35842 -0.259854,0.618274 -0.259854,0.259855 -0.591393,0.250894 h -0.03584 q -0.35842,0.01792 -0.609314,-0.241933 -0.241933,-0.268815 -0.241933,-0.627235 V 15.105738 H 9.9632883 q -0.322578,0 -0.5376299,-0.232973 -0.215052,-0.232973 -0.215052,-0.519709 v -0.03584 q 0,-0.322578 0.215052,-0.519709 0.2329729,-0.232972 0.5376299,-0.232972 h 2.9390437 v -2.750874 q 0,-0.358419 0.250894,-0.600353 0.241933,-0.2419334 0.600353,-0.2419334 h 0.03584 q 0.35842,0 0.591393,0.2598544 0.259854,0.259855 0.259854,0.582432 z"
       id="text4"
       style="font-size:18.3511px;line-height:1000;font-family:Dyuthi;-inkscape-font-specification:'Dyuthi, Normal';letter-spacing:0px;word-spacing:0px;fill:#ffffff;stroke-width:0.458781"
       transform="scale(1.0153863,0.98484687)"
       aria-label="+" />
  </g>
</svg>
