<?xml version="1.0" encoding="UTF-8" standalone="no"?>
<!-- Created with Inkscape (http://www.inkscape.org/) -->

<svg
   width="64"
   height="64"
   viewBox="0 0 64 64"
   version="1.1"
   id="svg2112"
   inkscape:version="1.2.1 (9c6d41e410, 2022-07-14, custom)"
   sodipodi:docname="dialog-error.svg"
   xmlns:inkscape="http://www.inkscape.org/namespaces/inkscape"
   xmlns:sodipodi="http://sodipodi.sourceforge.net/DTD/sodipodi-0.dtd"
   xmlns:xlink="http://www.w3.org/1999/xlink"
   xmlns="http://www.w3.org/2000/svg"
   xmlns:svg="http://www.w3.org/2000/svg">
  <sodipodi:namedview
     id="namedview2114"
     pagecolor="#ffffff"
     bordercolor="#000000"
     borderopacity="0.25"
     inkscape:showpageshadow="2"
     inkscape:pageopacity="0.0"
     inkscape:pagecheckerboard="0"
     inkscape:deskcolor="#d1d1d1"
     inkscape:document-units="px"
     showgrid="false"
     inkscape:zoom="12.921875"
     inkscape:cx="31.961306"
     inkscape:cy="32"
     inkscape:window-width="1920"
     inkscape:window-height="1029"
     inkscape:window-x="0"
     inkscape:window-y="0"
     inkscape:window-maximized="1"
     inkscape:current-layer="svg2112" />
  <defs
     id="defs2109">
    <linearGradient
       inkscape:collect="always"
       xlink:href="#linearGradient59376"
       id="linearGradient59378"
       x1="45.787689"
       y1="-43.129013"
       x2="45.870358"
       y2="-13.964334"
       gradientUnits="userSpaceOnUse"
       gradientTransform="matrix(1.9200905,0,0,1.9257821,-55.916508,87.057082)" />
    <linearGradient
       inkscape:collect="always"
       id="linearGradient59376">
      <stop
         style="stop-color:#e96311;stop-opacity:1"
         offset="0"
         id="stop59372" />
      <stop
         style="stop-color:#da3f04;stop-opacity:1"
         offset="1"
         id="stop59374" />
    </linearGradient>
  </defs>
  <circle
     style="fill:url(#linearGradient59378);fill-opacity:1;stroke-width:1.52633;stroke-linecap:round;stroke-linejoin:round"
     id="path55509"
     cx="32"
     cy="32"
     r="28" />
  <path
     id="rect101289"
     style="fill:#ffffff;fill-opacity:1;stroke-width:3;stroke-linecap:round;stroke-linejoin:round"
     d="m 45.364108,18.635892 c -0.391737,-0.391736 -1.022479,-0.391737 -1.414216,0 L 31.999999,30.585785 20.050106,18.635892 c -0.391737,-0.391736 -1.022476,-0.391736 -1.414213,0 -0.391738,0.391737 -0.391738,1.022477 0,1.414213 L 30.585786,32 18.635893,43.949891 c -0.391737,0.391737 -0.391738,1.022481 0,1.414217 0.391737,0.391737 1.022476,0.391737 1.414213,0 L 31.999999,33.414212 43.949892,45.364108 c 0.391737,0.391737 1.022479,0.391737 1.414216,0 0.391737,-0.391736 0.391738,-1.02248 0,-1.414217 L 33.414213,32 45.364108,20.050105 c 0.391737,-0.391737 0.391737,-1.022476 0,-1.414213 z"
     sodipodi:nodetypes="ssccsccssscssscss" />
  <path
     id="path69248"
     style="opacity:0.2;fill:#4d4d4d;fill-opacity:0.996078;stroke-width:3.19896;stroke-linecap:round;stroke-linejoin:round"
     d="M 32 4 C 16.536057 3.9999998 3.9999996 16.536055 4 32 C 4 47.463943 16.536057 60 32 60 C 47.463941 60 60 47.463943 60 32 C 60 16.536055 47.463941 4 32 4 z M 32 5 A 27 27 0 0 1 59 32 A 27 27 0 0 1 32 59 A 27 27 0 0 1 5 32 A 27 27 0 0 1 32 5 z " />
</svg>
