<?xml version="1.0" encoding="UTF-8" standalone="no"?>
<!-- Created with Inkscape (http://www.inkscape.org/) -->

<svg
   width="64"
   height="64"
   viewBox="0 0 64 64"
   version="1.1"
   id="svg2112"
   inkscape:version="1.2.1 (9c6d41e410, 2022-07-14, custom)"
   sodipodi:docname="dialog-information.svg"
   xmlns:inkscape="http://www.inkscape.org/namespaces/inkscape"
   xmlns:sodipodi="http://sodipodi.sourceforge.net/DTD/sodipodi-0.dtd"
   xmlns:xlink="http://www.w3.org/1999/xlink"
   xmlns="http://www.w3.org/2000/svg"
   xmlns:svg="http://www.w3.org/2000/svg">
  <sodipodi:namedview
     id="namedview2114"
     pagecolor="#ffffff"
     bordercolor="#000000"
     borderopacity="0.25"
     inkscape:showpageshadow="2"
     inkscape:pageopacity="0.0"
     inkscape:pagecheckerboard="0"
     inkscape:deskcolor="#d1d1d1"
     inkscape:document-units="px"
     showgrid="false"
     inkscape:zoom="12.921875"
     inkscape:cx="31.961306"
     inkscape:cy="32"
     inkscape:window-width="1920"
     inkscape:window-height="1029"
     inkscape:window-x="0"
     inkscape:window-y="0"
     inkscape:window-maximized="1"
     inkscape:current-layer="svg2112" />
  <defs
     id="defs2109">
    <linearGradient
       inkscape:collect="always"
       xlink:href="#linearGradient59376"
       id="linearGradient59378"
       x1="45.787689"
       y1="-43.129013"
       x2="45.593357"
       y2="-14.11183"
       gradientUnits="userSpaceOnUse"
       gradientTransform="matrix(1.9200905,0,0,1.925782,-55.916504,87.057086)" />
    <linearGradient
       inkscape:collect="always"
       id="linearGradient59376">
      <stop
         style="stop-color:#189ae1;stop-opacity:1;"
         offset="0"
         id="stop59372" />
      <stop
         style="stop-color:#037cd6;stop-opacity:0.99607843"
         offset="1"
         id="stop59374" />
    </linearGradient>
  </defs>
  <ellipse
     style="fill:url(#linearGradient59378);fill-opacity:1;stroke-width:1.52633;stroke-linecap:round;stroke-linejoin:round"
     id="path55509"
     cx="32"
     cy="32"
     rx="28"
     ry="27.999998" />
  <path
     id="path929"
     style="fill:#ffffff;stroke-width:0.425462;stroke-linecap:round;stroke-linejoin:round"
     d="m 32,12 c -1.656855,-10e-7 -3.000001,1.343145 -3,3 -1e-6,1.656855 1.343145,3.000001 3,3 1.656855,1e-6 3.000001,-1.343145 3,-3 10e-7,-1.656855 -1.343145,-3.000001 -3,-3 z m 0,12 c -1.662,0 -3,1.338 -3,3 v 22 c 0,1.662 1.338,3 3,3 1.662,0 3,-1.338 3,-3 V 27 c 0,-1.662 -1.338,-3 -3,-3 z"
     sodipodi:nodetypes="ssssssssssss" />
  <path
     id="path69248"
     style="opacity:0.2;fill:#4d4d4d;fill-opacity:0.996078;stroke-width:3.19896;stroke-linecap:round;stroke-linejoin:round"
     d="M 32 4 C 16.536057 3.9999998 3.9999996 16.536055 4 32 C 4 47.463943 16.536057 60 32 60 C 47.463941 60 60 47.463943 60 32 C 60 16.536055 47.463941 4 32 4 z M 32 5 A 27 27 0 0 1 59 32 A 27 27 0 0 1 32 59 A 27 27 0 0 1 5 32 A 27 27 0 0 1 32 5 z " />
</svg>
