<?xml version="1.0" encoding="UTF-8" standalone="no"?>
<!-- Created with Inkscape (http://www.inkscape.org/) -->

<svg
   width="64"
   height="64"
   viewBox="0 0 64 64.000003"
   version="1.1"
   id="svg5"
   inkscape:version="1.2.1 (9c6d41e410, 2022-07-14, custom)"
   sodipodi:docname="rating-unrated.svg"
   xmlns:inkscape="http://www.inkscape.org/namespaces/inkscape"
   xmlns:sodipodi="http://sodipodi.sourceforge.net/DTD/sodipodi-0.dtd"
   xmlns="http://www.w3.org/2000/svg"
   xmlns:svg="http://www.w3.org/2000/svg">
  <sodipodi:namedview
     id="namedview7"
     pagecolor="#ffffff"
     bordercolor="#000000"
     borderopacity="0.25"
     inkscape:showpageshadow="2"
     inkscape:pageopacity="0.0"
     inkscape:pagecheckerboard="0"
     inkscape:deskcolor="#d1d1d1"
     inkscape:document-units="px"
     showgrid="false"
     showguides="false"
     inkscape:zoom="12.640625"
     inkscape:cx="31.44623"
     inkscape:cy="32.07911"
     inkscape:window-width="1920"
     inkscape:window-height="1012"
     inkscape:window-x="0"
     inkscape:window-y="0"
     inkscape:window-maximized="1"
     inkscape:current-layer="svg5" />
  <defs
     id="defs2" />
  <path
     id="path1003"
     style="color:#000000;opacity:1;fill:#a0a0a0;stroke:none;stroke-width:4.00001;stroke-linecap:round;stroke-linejoin:round;fill-opacity:1"
     d="M 32.367188 5.1308594 A 2.0002 2.0002 0 0 0 30.554688 6.2128906 L 22.716797 21.417969 L 5.7480469 23.580078 A 2.0002 2.0002 0 0 0 4.578125 26.970703 L 16.615234 39.125 L 13.427734 55.929688 A 2.0002 2.0002 0 0 0 16.291016 58.089844 L 31.572266 50.398438 L 46.568359 58.623047 A 2.0002 2.0002 0 0 0 49.507812 56.564453 L 46.914062 39.658203 L 59.369141 27.935547 A 2.0002 2.0002 0 0 0 58.322266 24.505859 L 41.441406 21.746094 L 34.142578 6.2773438 A 2.0002 2.0002 0 0 0 32.367188 5.1308594 z " />
</svg>
