<?xml version="1.0" encoding="UTF-8" standalone="no"?>
<!-- Created with Inkscape (http://www.inkscape.org/) -->

<svg
   width="64"
   height="64"
   viewBox="0 0 64 64"
   version="1.1"
   id="svg69118"
   inkscape:version="1.2.1 (9c6d41e410, 2022-07-14, custom)"
   sodipodi:docname="security-medium.svg"
   xmlns:inkscape="http://www.inkscape.org/namespaces/inkscape"
   xmlns:sodipodi="http://sodipodi.sourceforge.net/DTD/sodipodi-0.dtd"
   xmlns:xlink="http://www.w3.org/1999/xlink"
   xmlns="http://www.w3.org/2000/svg"
   xmlns:svg="http://www.w3.org/2000/svg">
  <sodipodi:namedview
     id="namedview69120"
     pagecolor="#ffffff"
     bordercolor="#666666"
     borderopacity="1.0"
     inkscape:pageshadow="2"
     inkscape:pageopacity="0.0"
     inkscape:pagecheckerboard="0"
     inkscape:document-units="px"
     showgrid="false"
     units="px"
     inkscape:zoom="12.640625"
     inkscape:cx="32"
     inkscape:cy="32"
     inkscape:window-width="1920"
     inkscape:window-height="1012"
     inkscape:window-x="0"
     inkscape:window-y="0"
     inkscape:window-maximized="1"
     inkscape:current-layer="svg69118"
     inkscape:showpageshadow="2"
     inkscape:deskcolor="#d1d1d1" />
  <defs
     id="defs69115">
    <linearGradient
       inkscape:collect="always"
       id="linearGradient1814">
      <stop
         style="stop-color:#fedf00;stop-opacity:1;"
         offset="0"
         id="stop1810" />
      <stop
         style="stop-color:#ffbb01;stop-opacity:1"
         offset="1"
         id="stop1812" />
    </linearGradient>
    <linearGradient
       inkscape:collect="always"
       xlink:href="#linearGradient1814"
       id="linearGradient9056"
       x1="34.001953"
       y1="1.994691"
       x2="34.001953"
       y2="59.994701"
       gradientUnits="userSpaceOnUse"
       gradientTransform="translate(-2.0019533,1.0053045)" />
  </defs>
  <path
     id="path5150"
     style="color:#000000;fill:url(#linearGradient9056);fill-opacity:1;stroke-width:2.00338;stroke-linecap:round;stroke-linejoin:round"
     d="M 32,2.9999955 C 26.784558,3.3665655 23.2767,3.8075299 18.609375,6.911605 14.160855,9.3782293 9.0936136,8.8724922 6.0039066,8.9497186 4.8978574,8.9476625 4.0001089,9.8466881 4,10.956476 v 20.067576 0.0039 C 4.00745,37.426293 8.4455096,44.600815 14.226563,50.52332 19.441586,55.865765 25.811996,60.21633 32,61.000005 38.188002,60.216335 44.558415,55.865765 49.773441,50.52332 55.554493,44.600815 59.992562,37.426293 60,31.027982 v -0.0039 -20.067576 C 59.999894,9.8466881 59.102143,8.9476625 57.996095,8.9497186 54.906388,8.8724922 49.839149,9.3743099 45.390626,6.9076856 40.723301,3.803611 37.215442,3.3665667 32,2.9999955 Z"
     sodipodi:nodetypes="cccccscccsccccc" />
  <path
     id="rect3151"
     style="fill:#1a1a1a;stroke-width:3.99997;stroke-linecap:round;stroke-linejoin:round"
     d="m 32,15.999998 c -1.107995,0 -2,0.892003 -2,2 v 20 c 0,1.107993 0.892001,2.000001 2,2.000001 1.107993,0 2,-0.892001 2,-2.000001 v -20 c 0,-1.107993 -0.892003,-2 -2,-2 z m 0,28.000005 a 1.9999999,1.9999999 0 0 0 -2,2.000003 1.9999999,1.9999999 0 0 0 2,1.999996 1.9999999,1.9999999 0 0 0 2,-1.999996 1.9999999,1.9999999 0 0 0 -2,-2.000003 z" />
  <path
     id="path2206"
     style="color:#000000;opacity:0.2;fill:#000000;stroke-width:2;stroke-linecap:round;stroke-linejoin:round"
     d="M 32,3 C 26.784563,3.3665684 23.276694,3.8080371 18.609375,6.9121095 14.160859,9.3787312 9.0936064,8.8719926 6.0039062,8.9492189 4.8978551,8.9471628 4.0001096,9.8472444 4,10.957031 v 20.066406 0.0039 C 4.007559,37.425634 8.4455165,44.600923 14.226563,50.523423 19.441582,55.865861 25.812003,60.216312 32,60.999982 38.187998,60.216331 44.558419,55.865876 49.773438,50.523438 55.554486,44.600938 59.992562,37.425647 60,31.027343 v -0.0039 -20.066406 C 59.999894,9.8472444 59.102143,8.9471628 57.996095,8.9492189 54.906391,8.8719918 49.839145,9.3748251 45.390626,6.908203 40.723305,3.804131 37.215437,3.3665711 32,3 Z m 0,1.0078124 c 5.14127,0.3630916 8.35163,0.7526721 12.837893,3.7363283 a 1.0001,1.0001 0 0 0 0.06641,0.037115 c 4.780467,2.6506823 10.112182,2.0960813 13.066405,2.169922 a 1.0001,1.0001 0 0 0 0.02948,0 c 0.563161,-0.00105 1.003854,0.4333603 1.003907,1.0039063 V 31.02539 c -0.007,5.936748 -4.265783,12.986047 -9.943544,18.802736 C 43.97695,55.03593 37.77967,59.174792 32,59.955079 26.220367,59.174773 20.025003,55.03593 14.941406,49.828126 9.2636515,44.011445 5.005061,36.962164 4.998047,31.02539 V 10.955078 c 5.63e-5,-0.570549 0.4407409,-1.0049529 1.0039063,-1.003906 a 1.0001,1.0001 0 0 0 0.029291,0 C 8.9846336,9.8773533 14.316795,10.43801 19.097656,7.7871094 A 1.0001,1.0001 0 0 0 19.164063,7.74414 C 23.653061,4.7586646 26.854353,4.3710711 32,4.0078124 Z" />
</svg>
