<?xml version="1.0" encoding="UTF-8" standalone="no"?>
<svg
   height="16"
   width="16"
   version="1.1"
   id="svg8"
   sodipodi:docname="window-restore-symbolic.svg"
   inkscape:version="1.1.1 (3bf5ae0d25, 2021-09-20, custom)"
   xmlns:inkscape="http://www.inkscape.org/namespaces/inkscape"
   xmlns:sodipodi="http://sodipodi.sourceforge.net/DTD/sodipodi-0.dtd"
   xmlns="http://www.w3.org/2000/svg"
   xmlns:svg="http://www.w3.org/2000/svg">
  <defs
     id="defs12" />
  <sodipodi:namedview
     id="namedview10"
     pagecolor="#ffffff"
     bordercolor="#666666"
     borderopacity="1.0"
     inkscape:pageshadow="2"
     inkscape:pageopacity="0.0"
     inkscape:pagecheckerboard="0"
     showgrid="false"
     inkscape:lockguides="false"
     inkscape:zoom="49.6875"
     inkscape:cx="8"
     inkscape:cy="8"
     inkscape:window-width="1920"
     inkscape:window-height="1009"
     inkscape:window-x="0"
     inkscape:window-y="0"
     inkscape:window-maximized="1"
     inkscape:current-layer="svg8" />
  <path
     id="rect958"
     style="fill:#363636;stroke-width:4;stroke-linecap:round;stroke-linejoin:round"
     d="M 8 4 C 7.0995718 4 6.2950745 4.3933686 5.7460938 5.0175781 C 5.8293897 5.0070913 5.9137688 5 6 5 L 9 5 C 10.108 5 11 5.892 11 7 L 11 10 C 11 10.08623 10.992902 10.17061 10.982422 10.253906 C 11.606633 9.7049262 12 8.9004282 12 8 L 12 7 C 12 5.338 10.662 4 9 4 L 8 4 z M 6 6 C 4.892 6 4 6.892 4 8 L 4 10 C 4 11.108 4.892 12 6 12 L 8 12 C 9.108 12 10 11.108 10 10 L 10 8 C 10 6.892 9.108 6 8 6 L 6 6 z M 6 7 L 8 7 C 8.554 7 9 7.446 9 8 L 9 10 C 9 10.554 8.554 11 8 11 L 6 11 C 5.446 11 5 10.554 5 10 L 5 8 C 5 7.446 5.446 7 6 7 z " />
</svg>
