<?xml version="1.0" encoding="UTF-8" standalone="no"?>
<!-- Created with Inkscape (http://www.inkscape.org/) -->

<svg
   width="16"
   height="16"
   viewBox="0 0 16 16"
   version="1.1"
   id="svg423"
   inkscape:version="1.2.1 (9c6d41e410, 2022-07-14, custom)"
   sodipodi:docname="audio-volume-medium-symbolic.svg"
   xmlns:inkscape="http://www.inkscape.org/namespaces/inkscape"
   xmlns:sodipodi="http://sodipodi.sourceforge.net/DTD/sodipodi-0.dtd"
   xmlns="http://www.w3.org/2000/svg"
   xmlns:svg="http://www.w3.org/2000/svg">
  <sodipodi:namedview
     id="namedview425"
     pagecolor="#ffffff"
     bordercolor="#000000"
     borderopacity="0.25"
     inkscape:showpageshadow="2"
     inkscape:pageopacity="0.0"
     inkscape:pagecheckerboard="0"
     inkscape:deskcolor="#d1d1d1"
     inkscape:document-units="px"
     showgrid="false"
     inkscape:zoom="50.5625"
     inkscape:cx="8"
     inkscape:cy="8"
     inkscape:window-width="1920"
     inkscape:window-height="1012"
     inkscape:window-x="0"
     inkscape:window-y="0"
     inkscape:window-maximized="1"
     inkscape:current-layer="svg423" />
  <defs
     id="defs420" />
  <path
     id="path408"
     style="fill:#dedede;stroke-width:2.001;stroke-linecap:round;stroke-linejoin:round;-inkscape-stroke:none;paint-order:normal;fill-opacity:1"
     d="M 5.9863281 2.7089844 C 5.7273016 2.7127935 5.477983 2.8165083 5.2929688 3.0019531 L 3.296875 5 L 2 5 C 0.90930218 5 0 5.9093022 0 7 L 0 9 C 0 10.090698 0.90930218 11 2 11 L 3.296875 11 L 5.2929688 12.998047 C 5.9229637 13.627547 6.9996217 13.181614 7 12.291016 L 7 3.7089844 C 6.9999742 3.30458 6.7564019 2.9399913 6.3828125 2.7851562 C 6.2918412 2.7471433 6.195752 2.7227914 6.0976562 2.7128906 C 6.0604093 2.7092706 6.0233322 2.7084444 5.9863281 2.7089844 z M 10.595703 2.9082031 C 10.467759 2.9082031 10.339812 2.9570823 10.242188 3.0546875 C 10.046977 3.2499404 10.046977 3.5664659 10.242188 3.7617188 C 11.367582 4.8869154 11.9998 6.412511 12 8.0039062 C 11.9935 9.5924007 11.356706 11.112126 10.230469 12.232422 C 10.033402 12.427341 10.032646 12.745378 10.228516 12.941406 C 10.423433 13.138473 10.741472 13.139229 10.9375 12.943359 C 12.251891 11.63597 12.9931 9.8594532 13 8.0058594 L 13 8.0039062 C 12.99972 6.1477057 12.261913 4.3670836 10.949219 3.0546875 C 10.851592 2.9570824 10.723647 2.9082031 10.595703 2.9082031 z M 6 3.7109375 L 6 12.289062 L 3.7109375 10 L 2 10 C 1.4460012 10 1 9.5539985 1 9 L 1 7 C 1 6.4460012 1.4460012 6 2 6 L 3.7109375 6 L 6 3.7109375 z M 8.4746094 5.0253906 C 8.3420081 5.0254083 8.2148481 5.0781027 8.1210938 5.171875 C 7.9258831 5.367128 7.9258831 5.6836533 8.1210938 5.8789062 C 8.6838626 6.4415552 8.99988 7.2042016 9 8 C 8.99673 8.7940984 8.6781832 9.5551359 8.1152344 10.115234 C 7.9200238 10.310488 7.9200238 10.627012 8.1152344 10.822266 C 8.3104873 11.017475 8.6270127 11.017475 8.8222656 10.822266 C 9.5731242 10.075116 9.9963 9.0611511 10 8.0019531 L 10 8 C 9.9998398 6.9393991 9.5781934 5.9217736 8.828125 5.171875 C 8.7343707 5.0781029 8.6072105 5.0254083 8.4746094 5.0253906 z " />
  <path
     id="path586"
     style="opacity:0.2;fill:#dedede;fill-opacity:1;stroke-width:2.001;stroke-linecap:round;stroke-linejoin:round;-inkscape-stroke:none;paint-order:normal"
     d="m 12.716797,0.78710932 c -0.127944,0 -0.255889,0.0488791 -0.353516,0.14648438 -0.195211,0.195253 -0.195211,0.5117782 0,0.7070313 C 14.051279,3.3283216 14.9997,5.616911 15,8.0039062 14.9903,10.386802 14.035319,12.66716 12.345703,14.347656 c -0.197066,0.194919 -0.19787,0.512957 -0.002,0.708984 0.194919,0.197067 0.512957,0.19787 0.708984,0.002 C 14.930377,13.19115 15.9898,10.653953 16,8.0058593 v -0.00195 C 15.999599,5.3521085 14.94561,2.8084899 13.070312,0.9335937 12.972687,0.8359884 12.844741,0.78710933 12.716797,0.78710932 Z"
     sodipodi:nodetypes="scccccccsss" />
</svg>
