<?xml version="1.0" encoding="UTF-8" standalone="no"?>
<!-- Created with Inkscape (http://www.inkscape.org/) -->

<svg
   width="16"
   height="16"
   viewBox="0 0 16 16"
   version="1.1"
   id="svg423"
   inkscape:version="1.2.1 (9c6d41e410, 2022-07-14, custom)"
   sodipodi:docname="audio-volume-high-symbolic.svg"
   xmlns:inkscape="http://www.inkscape.org/namespaces/inkscape"
   xmlns:sodipodi="http://sodipodi.sourceforge.net/DTD/sodipodi-0.dtd"
   xmlns="http://www.w3.org/2000/svg"
   xmlns:svg="http://www.w3.org/2000/svg">
  <sodipodi:namedview
     id="namedview425"
     pagecolor="#ffffff"
     bordercolor="#000000"
     borderopacity="0.25"
     inkscape:showpageshadow="2"
     inkscape:pageopacity="0.0"
     inkscape:pagecheckerboard="0"
     inkscape:deskcolor="#d1d1d1"
     inkscape:document-units="px"
     showgrid="false"
     inkscape:zoom="50.5625"
     inkscape:cx="8"
     inkscape:cy="8"
     inkscape:window-width="1920"
     inkscape:window-height="1012"
     inkscape:window-x="0"
     inkscape:window-y="0"
     inkscape:window-maximized="1"
     inkscape:current-layer="svg423" />
  <defs
     id="defs420" />
  <path
     id="path408"
     style="fill:#dedede;stroke-width:2.001;stroke-linecap:round;stroke-linejoin:round;-inkscape-stroke:none;paint-order:normal;fill-opacity:1"
     d="M 12.716797 0.78710938 C 12.588853 0.78710938 12.460908 0.83598857 12.363281 0.93359375 C 12.16807 1.1288466 12.16807 1.4453721 12.363281 1.640625 C 14.051278 3.3283199 14.9997 5.6169134 15 8.0039062 C 14.9903 10.3868 14.035317 12.667162 12.345703 14.347656 C 12.148637 14.542575 12.14788 14.860614 12.34375 15.056641 C 12.538669 15.253707 12.856708 15.254464 13.052734 15.058594 C 14.930422 13.191106 15.9898 10.65395 16 8.0058594 L 16 8.0039062 C 15.999599 5.3521081 14.945609 2.8084881 13.070312 0.93359375 C 12.972688 0.83598855 12.844741 0.78710938 12.716797 0.78710938 z M 5.9863281 2.7089844 C 5.7273019 2.7127935 5.4779828 2.8165085 5.2929688 3.0019531 L 3.296875 5 L 2 5 C 0.90930327 5 0 5.9093033 0 7 L 0 9 C 0 10.090697 0.90930327 11 2 11 L 3.296875 11 L 5.2929688 12.998047 C 5.922963 13.627546 6.9996217 13.181613 7 12.291016 L 7 3.7089844 C 6.9999742 3.3045804 6.7564015 2.9399912 6.3828125 2.7851562 C 6.2918413 2.7471434 6.195752 2.7227914 6.0976562 2.7128906 C 6.0604094 2.7092706 6.0233322 2.7084444 5.9863281 2.7089844 z M 10.595703 2.9082031 C 10.467759 2.9082031 10.339811 2.9570824 10.242188 3.0546875 C 10.046977 3.2499402 10.046977 3.566466 10.242188 3.7617188 C 11.36758 4.8869142 11.9998 6.4125126 12 8.0039062 C 11.9935 9.5923992 11.356705 11.112127 10.230469 12.232422 C 10.033402 12.427341 10.032646 12.745378 10.228516 12.941406 C 10.423432 13.138473 10.741472 13.139229 10.9375 12.943359 C 12.25189 11.635972 12.9931 9.8594513 13 8.0058594 L 13 8.0039062 C 12.99972 6.1477076 12.261911 4.3670823 10.949219 3.0546875 C 10.851592 2.9570825 10.723647 2.9082031 10.595703 2.9082031 z M 6 3.7109375 L 6 12.289062 L 3.7109375 10 L 2 10 C 1.4460018 10 1 9.5539979 1 9 L 1 7 C 1 6.4460018 1.4460018 6 2 6 L 3.7109375 6 L 6 3.7109375 z M 8.4746094 5.0253906 C 8.3420082 5.0254083 8.214848 5.0781028 8.1210938 5.171875 C 7.9258832 5.3671278 7.9258832 5.6836535 8.1210938 5.8789062 C 8.683862 6.4415547 8.99988 7.2042024 9 8 C 8.99673 8.7940976 8.6781826 9.5551368 8.1152344 10.115234 C 7.920024 10.310488 7.920024 10.627012 8.1152344 10.822266 C 8.3104871 11.017474 8.6270129 11.017474 8.8222656 10.822266 C 9.5731235 10.075116 9.9963 9.0611501 10 8.0019531 L 10 8 C 9.9998398 6.9394002 9.5781926 5.9217729 8.828125 5.171875 C 8.7343708 5.078103 8.6072103 5.0254083 8.4746094 5.0253906 z " />
</svg>
