<?xml version="1.0" encoding="UTF-8" standalone="no"?>
<!-- Created with Inkscape (http://www.inkscape.org/) -->

<svg
   width="22"
   height="22"
   viewBox="0 0 22 22.000001"
   version="1.1"
   id="svg5"
   inkscape:version="1.2.1 (9c6d41e410, 2022-07-14, custom)"
   sodipodi:docname="image-missing.svg"
   xmlns:inkscape="http://www.inkscape.org/namespaces/inkscape"
   xmlns:sodipodi="http://sodipodi.sourceforge.net/DTD/sodipodi-0.dtd"
   xmlns:xlink="http://www.w3.org/1999/xlink"
   xmlns="http://www.w3.org/2000/svg"
   xmlns:svg="http://www.w3.org/2000/svg">
  <sodipodi:namedview
     id="namedview7"
     pagecolor="#ffffff"
     bordercolor="#000000"
     borderopacity="0.25"
     inkscape:showpageshadow="2"
     inkscape:pageopacity="0.0"
     inkscape:pagecheckerboard="0"
     inkscape:deskcolor="#d1d1d1"
     inkscape:document-units="px"
     showgrid="false"
     inkscape:zoom="36.818182"
     inkscape:cx="11"
     inkscape:cy="11"
     inkscape:window-width="1920"
     inkscape:window-height="1012"
     inkscape:window-x="0"
     inkscape:window-y="0"
     inkscape:window-maximized="1"
     inkscape:current-layer="svg5"
     showguides="false" />
  <defs
     id="defs2">
    <linearGradient
       inkscape:collect="always"
       id="linearGradient1407">
      <stop
         style="stop-color:#e96311;stop-opacity:1;"
         offset="0"
         id="stop1403" />
      <stop
         style="stop-color:#da3f04;stop-opacity:1"
         offset="1"
         id="stop1405" />
    </linearGradient>
    <linearGradient
       inkscape:collect="always"
       xlink:href="#linearGradient1407"
       id="linearGradient1477"
       x1="7.4604449"
       y1="7.4684963"
       x2="14.594507"
       y2="14.475561"
       gradientUnits="userSpaceOnUse" />
  </defs>
  <rect
     style="fill:#7d7d7b;fill-opacity:1"
     id="rect906"
     width="22"
     height="16"
     x="-2.9802322e-08"
     y="3"
     ry="1" />
  <rect
     style="fill:#fafafa;fill-opacity:1;stroke-width:1.11803"
     id="rect1167"
     width="20"
     height="14"
     x="1"
     y="4" />
  <path
     id="path374"
     style="fill:url(#linearGradient1477);stroke-width:1.66667;fill-opacity:1"
     d="M 11 6 C 8.2385818 6 6 8.238582 6 11 C 6 13.761417 8.2385818 16 11 16 C 13.761417 16 16 13.761417 16 11 C 16 8.238582 13.761417 6 11 6 z M 11 7 C 11.924245 7 12.77387 7.3153796 13.451172 7.8417969 L 7.8417969 13.451172 C 7.3153795 12.77387 7 11.924244 7 11 C 7 8.790865 8.7908657 7 11 7 z M 14.158203 8.5488281 C 14.68462 9.2261303 15 10.075756 15 11 C 15 13.209135 13.209136 15 11 15 C 10.075756 15 9.2261304 14.68462 8.5488281 14.158203 L 14.158203 8.5488281 z " />
</svg>
