<?xml version="1.0" encoding="UTF-8" standalone="no"?>
<!-- Created with Inkscape (http://www.inkscape.org/) -->

<svg
   xmlns:dc="http://purl.org/dc/elements/1.1/"
   xmlns:cc="http://creativecommons.org/ns#"
   xmlns:rdf="http://www.w3.org/1999/02/22-rdf-syntax-ns#"
   xmlns:svg="http://www.w3.org/2000/svg"
   xmlns="http://www.w3.org/2000/svg"
   xmlns:sodipodi="http://sodipodi.sourceforge.net/DTD/sodipodi-0.dtd"
   xmlns:inkscape="http://www.inkscape.org/namespaces/inkscape"
   width="128"
   height="128"
   viewBox="0 0 33.866666 33.866668"
   version="1.1"
   id="svg2509"
   inkscape:version="0.92.4 (5da689c313, 2019-01-14)"
   sodipodi:docname="icon_current_piece.svg">
  <defs
     id="defs2503" />
  <sodipodi:namedview
     id="base"
     pagecolor="#ffffff"
     bordercolor="#666666"
     borderopacity="1.0"
     inkscape:pageopacity="0.0"
     inkscape:pageshadow="2"
     inkscape:zoom="1.4"
     inkscape:cx="-253.40813"
     inkscape:cy="-61.561841"
     inkscape:document-units="px"
     inkscape:current-layer="g2570"
     showgrid="false"
     units="px"
     inkscape:window-width="2492"
     inkscape:window-height="1376"
     inkscape:window-x="68"
     inkscape:window-y="27"
     inkscape:window-maximized="1" />
  <metadata
     id="metadata2506">
    <rdf:RDF>
      <cc:Work
         rdf:about="">
        <dc:format>image/svg+xml</dc:format>
        <dc:type
           rdf:resource="http://purl.org/dc/dcmitype/StillImage" />
        <dc:title></dc:title>
      </cc:Work>
    </rdf:RDF>
  </metadata>
  <g
     inkscape:label="Ebene 1"
     inkscape:groupmode="layer"
     id="layer1"
     transform="translate(0,-263.13332)">
    <g
       transform="matrix(0.26453414,0,0,0.26453414,63.37226,-244.46879)"
       font-size="14.6667"
       font-weight="400"
       font-style="normal"
       id="g2570"
       style="font-style:normal;font-weight:400;font-size:14.66670036px;font-family:Ubuntu;fill:none;fill-rule:evenodd;stroke:#000000;stroke-width:1;stroke-linecap:square;stroke-linejoin:bevel;stroke-opacity:1">
      <path
         d="m -140.95302,1932.7404 0.69118,112.062 h -69.00486 l -0.19139,-25.9137 0.22275,-27.7193 1.69724,-0.6159 1.52048,-0.7014 0.70479,-0.4067 1.0218,-0.6852 1.26935,-1.0451 1.16075,-1.1592 1.06104,-1.2554 0.96326,-1.3272 0.86777,-1.3738 0.77496,-1.3924 0.68291,-1.3795 0.8777,-2.0097 1.26386,-3.522 0.55623,-1.7804 0.21606,-0.9228 0.19427,-1.1523 0.16148,-1.3687 0.11878,-1.5657 0.0676,-1.7466 0.0104,-1.913 -0.058,-2.0662 -0.1324,-2.205 -0.21343,-2.3325 -0.30178,-2.446 -0.39726,-2.5483 -0.49959,-2.6371 -0.60908,-2.7146 -0.72542,-2.7795 -0.84877,-2.8318 -0.97525,-2.8616 -1.05725,-2.761 -0.93355,-2.1985 34.72106,-11.6806 2.50212,3.437 1.09172,1.3233 1.06182,1.1453 1.04965,0.9815 1.05753,0.8335 1.08979,0.7051 1.15089,0.594 1.2433,0.4976 1.36638,0.4114 1.51656,0.3326 1.68999,0.2582 1.88344,0.1898 2.09146,0.1299 3.55478,0.1052 2.77287,0.021"
         id="path2568"
         inkscape:connector-curvature="0"
         style="vector-effect:none;fill:#ffffff;fill-opacity:1;fill-rule:nonzero;stroke:#000000;stroke-width:4.14862871;stroke-linejoin:miter;stroke-miterlimit:4;stroke-dasharray:none;stroke-opacity:1"
         sodipodi:nodetypes="ccccccccccccccccccccccccccccccccccccccccccccccccccccc" />
    </g>
  </g>
</svg>
