<?xml version="1.0" encoding="UTF-8" standalone="no"?>
<!-- Uploaded to: SVG Repo, www.svgrepo.com, Generator: SVG Repo Mixer Tools -->

<svg
   width="800px"
   height="800px"
   viewBox="0 0 24 24"
   id="up-right-down-left-sign"
   data-name="Multi Color"
   class="icon multi-color"
   version="1.1"
   sodipodi:docname="vertical_grainline.svg"
   inkscape:version="1.3 (1:1.3+202307231459+0e150ed6c4)"
   inkscape:export-filename="../../light/32x32/vertical_grainline@2x.png"
   inkscape:export-xdpi="7.6799998"
   inkscape:export-ydpi="7.6799998"
   xmlns:inkscape="http://www.inkscape.org/namespaces/inkscape"
   xmlns:sodipodi="http://sodipodi.sourceforge.net/DTD/sodipodi-0.dtd"
   xmlns="http://www.w3.org/2000/svg"
   xmlns:svg="http://www.w3.org/2000/svg">
  <defs
     id="defs1" />
  <sodipodi:namedview
     id="namedview1"
     pagecolor="#ffffff"
     bordercolor="#666666"
     borderopacity="1.0"
     inkscape:showpageshadow="2"
     inkscape:pageopacity="0.0"
     inkscape:pagecheckerboard="0"
     inkscape:deskcolor="#d1d1d1"
     inkscape:zoom="0.70625"
     inkscape:cx="474.33628"
     inkscape:cy="356.81416"
     inkscape:window-width="2560"
     inkscape:window-height="1372"
     inkscape:window-x="1920"
     inkscape:window-y="0"
     inkscape:window-maximized="1"
     inkscape:current-layer="up-right-down-left-sign" />
  <title
     style="stroke-width: 2;"
     id="title1">up right down left sign</title>
  <path
     id="secondary-fill"
     d="m 13.280695,1.5521887 4.549621,4.4505461 -3.460677,-0.087053 -0.09106,3.1073127 -3.76836,-0.082404 0.09142,-3.1196927 -3.4606786,-0.087054 4.8035626,-4.2152666 a 0.94516261,0.87570185 0 0 1 1.33617,0.033611 z"
     style="fill:#2ca9bc;stroke-width:1.81954" />
  <path
     id="tertiary-fill"
     d="m 12.663979,22.597733 4.803562,-4.215267 -3.460677,-0.08705 0.09106,-3.107314 -3.767635,-0.107163 -0.09142,3.119692 -3.4606784,-0.08705 4.5496224,4.450546 a 0.94516261,0.87570185 0 0 0 1.336169,0.03362 z"
     style="fill:#b7b7b7;stroke-width:1.81954" />
  <path
     id="primary-stroke"
     d="m 13.000388,1.5298995 4.666603,4.3277288 -3.461768,0.0052 -0.03275,12.3850027 3.461768,-0.0052 -4.689529,4.341774 a 0.87570185,0.94516261 88.473019 0 1 -1.33659,0.002 l -4.6666045,-4.327738 3.4617695,-0.0052 0.03275,-12.3850016 -3.4617693,0.0052 4.6895303,-4.3417736 a 0.87570185,0.94516261 88.473019 0 1 1.336591,-0.00201 z"
     style="fill:none;stroke:#000000;stroke-width:1.81954;stroke-linecap:round;stroke-linejoin:round;fill-opacity:1" />
</svg>
