<?xml version="1.0" encoding="UTF-8" standalone="no"?>
<!-- Created with Inkscape (http://www.inkscape.org/) -->

<svg
   width="32"
   height="32"
   viewBox="0 0 32 32"
   version="1.1"
   id="svg5"
   inkscape:version="1.2.1 (9c6d41e410, 2022-07-14, custom)"
   sodipodi:docname="image-missing.svg"
   xmlns:inkscape="http://www.inkscape.org/namespaces/inkscape"
   xmlns:sodipodi="http://sodipodi.sourceforge.net/DTD/sodipodi-0.dtd"
   xmlns:xlink="http://www.w3.org/1999/xlink"
   xmlns="http://www.w3.org/2000/svg"
   xmlns:svg="http://www.w3.org/2000/svg">
  <sodipodi:namedview
     id="namedview7"
     pagecolor="#ffffff"
     bordercolor="#000000"
     borderopacity="0.25"
     inkscape:showpageshadow="2"
     inkscape:pageopacity="0.0"
     inkscape:pagecheckerboard="0"
     inkscape:deskcolor="#d1d1d1"
     inkscape:document-units="px"
     showgrid="false"
     inkscape:zoom="25.3125"
     inkscape:cx="16"
     inkscape:cy="16"
     inkscape:window-width="1920"
     inkscape:window-height="1012"
     inkscape:window-x="0"
     inkscape:window-y="0"
     inkscape:window-maximized="1"
     inkscape:current-layer="svg5" />
  <defs
     id="defs2">
    <linearGradient
       inkscape:collect="always"
       id="linearGradient1407">
      <stop
         style="stop-color:#e96311;stop-opacity:1;"
         offset="0"
         id="stop1403" />
      <stop
         style="stop-color:#da3f04;stop-opacity:1"
         offset="1"
         id="stop1405" />
    </linearGradient>
    <linearGradient
       inkscape:collect="always"
       xlink:href="#linearGradient1407"
       id="linearGradient2220"
       x1="11.816092"
       y1="11.699429"
       x2="19.925652"
       y2="20.53754"
       gradientUnits="userSpaceOnUse" />
  </defs>
  <rect
     style="fill:#7d7d7b;fill-opacity:1"
     id="rect906"
     width="28"
     height="20"
     x="2"
     y="6"
     ry="1" />
  <rect
     style="fill:#fafafa;fill-opacity:1;stroke-width:1.11803"
     id="rect1167"
     width="26"
     height="18"
     x="3"
     y="7" />
  <path
     id="path597"
     style="fill:url(#linearGradient2220);stroke-width:2;fill-opacity:1"
     d="M 16 10 A 6 6 0 0 0 10 16 A 6 6 0 0 0 16 22 A 6 6 0 0 0 22 16 A 6 6 0 0 0 16 10 z M 16 11 A 5 5 0 0 1 19.162109 12.130859 L 12.138672 19.154297 A 5 5 0 0 1 11 16 A 5 5 0 0 1 16 11 z M 19.869141 12.837891 A 5 5 0 0 1 21 16 A 5 5 0 0 1 16 21 A 5 5 0 0 1 12.845703 19.861328 L 19.869141 12.837891 z " />
</svg>
