<?xml version="1.0" encoding="UTF-8" standalone="no"?>
<!-- Created with Inkscape (http://www.inkscape.org/) -->

<svg
   width="32"
   height="32"
   viewBox="0 0 32 32"
   version="1.1"
   id="svg69118"
   inkscape:version="1.2.1 (9c6d41e410, 2022-07-14, custom)"
   sodipodi:docname="security-low.svg"
   xmlns:inkscape="http://www.inkscape.org/namespaces/inkscape"
   xmlns:sodipodi="http://sodipodi.sourceforge.net/DTD/sodipodi-0.dtd"
   xmlns:xlink="http://www.w3.org/1999/xlink"
   xmlns="http://www.w3.org/2000/svg"
   xmlns:svg="http://www.w3.org/2000/svg">
  <sodipodi:namedview
     id="namedview69120"
     pagecolor="#ffffff"
     bordercolor="#666666"
     borderopacity="1.0"
     inkscape:pageshadow="2"
     inkscape:pageopacity="0.0"
     inkscape:pagecheckerboard="0"
     inkscape:document-units="px"
     showgrid="false"
     units="px"
     inkscape:zoom="25.0625"
     inkscape:cx="16"
     inkscape:cy="16"
     inkscape:window-width="1920"
     inkscape:window-height="1011"
     inkscape:window-x="0"
     inkscape:window-y="0"
     inkscape:window-maximized="1"
     inkscape:current-layer="svg69118"
     inkscape:showpageshadow="2"
     inkscape:deskcolor="#d1d1d1" />
  <defs
     id="defs69115">
    <linearGradient
       inkscape:collect="always"
       xlink:href="#linearGradient59376"
       id="linearGradient8763"
       x1="16"
       y1="1.0351562"
       x2="16"
       y2="29.9375"
       gradientUnits="userSpaceOnUse"
       gradientTransform="matrix(1,0,0,1.0033788,0,-0.0386538)" />
    <linearGradient
       inkscape:collect="always"
       id="linearGradient59376">
      <stop
         style="stop-color:#e96311;stop-opacity:1"
         offset="0"
         id="stop59372" />
      <stop
         style="stop-color:#da3f04;stop-opacity:1"
         offset="1"
         id="stop59374" />
    </linearGradient>
  </defs>
  <path
     id="path5150"
     style="color:#000000;fill:url(#linearGradient8763);fill-opacity:1.0;stroke-width:1.00169;stroke-linecap:round;stroke-linejoin:round"
     d="M 16,1 C 13.392279,1.183285 11.63835,1.4037674 9.3046875,2.9558049 7.0804272,4.189117 4.5468067,3.9362485 3.0019531,3.9748616 2.4489286,3.9738336 2.0000543,4.4233464 2,4.9782403 v 10.0337887 0.002 c 0.00372,3.199155 2.2227549,6.786417 5.1132811,9.747669 C 9.720793,27.432879 12.905998,29.608162 16,29.999999 19.094002,29.608164 22.279207,27.43288 24.886719,24.761657 27.777245,21.800405 29.99628,18.213143 30,15.013988 v -0.002 V 4.9782403 C 29.999946,4.4233464 29.551071,3.9738336 28.998047,3.9748616 27.453193,3.9362485 24.919573,4.1871573 22.695312,2.9538452 20.36165,1.4018078 18.607721,1.1832856 16,1 Z" />
  <path
     id="path5150-0"
     style="color:#000000;opacity:0.2;fill:#4d4d4d;fill-opacity:1;stroke-width:1.00169;stroke-linecap:round;stroke-linejoin:round;-inkscape-stroke:none"
     d="M 16,1 C 13.392279,1.1832848 11.63835,1.4037676 9.3046875,2.9558049 7.0804272,4.189117 4.5468067,3.9362481 3.0019531,3.9748616 2.4489285,3.9738336 2.000054,4.4233464 2,4.9782403 v 10.0337887 0.002 c 0.00372,3.199155 2.2227549,6.786417 5.1132811,9.747669 C 9.720793,27.432832 12.905998,29.608164 16,29.999999 19.094002,29.608164 22.279206,27.432878 24.886719,24.761657 27.777245,21.800405 29.996281,18.213143 30,15.013988 v -0.002 V 4.9782403 C 29.999947,4.4233464 29.551071,3.9738336 28.998047,3.9748616 27.453191,3.9362485 24.919572,4.1871577 22.695312,2.9538452 20.36165,1.4018078 18.607721,1.1832856 16,1 Z m -0.529297,1.0719692 c 0.174622,3.8e-6 0.350589,0.00729 0.525391,0.015678 0.174799,-0.00838 0.35077,-0.015678 0.52539,-0.015678 1.499562,-2.77e-5 3.027456,0.3527652 5.214844,1.7970672 1.274913,0.6690304 1.86171,0.7868462 3.238281,0.979862 1.364859,0.1249928 2.75586,0.1283339 3.519532,0.1273814 0.277587,-0.00107 0.503053,0.223166 0.501953,0.5016892 v 10.033789 c -1.396301,6.486704 -8.181887,12.07554 -13,13.365319 C 11.042228,27.925354 4.8481889,21.834888 2.9960938,15.511758 V 5.4779698 C 2.9950263,5.1994466 3.2204597,4.9752068 3.4980469,4.9762806 4.2617181,4.9772319 5.6527195,4.9738931 7.0175782,4.8488984 8.3941494,4.6558826 8.9809467,4.5380664 10.255859,3.8690364 12.443248,2.4247359 13.971141,2.0719416 15.470703,2.0719692 Z" />
  <path
     id="rect101289"
     style="fill:#ffffff;fill-opacity:1;stroke-width:3;stroke-linecap:round;stroke-linejoin:round"
     d="m 21.364107,9.6358031 c -0.391737,-0.3917375 -1.022476,-0.391737 -1.414213,0 L 16,13.585697 12.050107,9.6358031 c -0.391737,-0.3917375 -1.022476,-0.3917375 -1.414213,0 -0.391738,0.3917369 -0.391738,1.0224759 0,1.4142139 l 3.949893,3.949893 -3.949893,3.949894 c -0.391738,0.391738 -0.391738,1.022476 0,1.414213 0.391737,0.391737 1.022476,0.391737 1.414213,0 L 16,16.414124 l 3.949894,3.949893 c 0.391737,0.391737 1.022476,0.391737 1.414213,0 0.391737,-0.391737 0.391737,-1.022476 0,-1.414213 l -3.949893,-3.949894 3.949893,-3.949893 c 0.391738,-0.391737 0.391737,-1.022477 0,-1.4142139 z"
     sodipodi:nodetypes="ssccsccssscssscss" />
</svg>
