<?xml version="1.0" encoding="UTF-8" standalone="no"?>
<!-- Created with Inkscape (http://www.inkscape.org/) -->

<svg
   width="22"
   height="22"
   viewBox="0 0 22 22"
   version="1.1"
   id="svg5"
   inkscape:version="1.2.1 (9c6d41e410, 2022-07-14, custom)"
   sodipodi:docname="emblem-synchronizing.svg"
   xmlns:inkscape="http://www.inkscape.org/namespaces/inkscape"
   xmlns:sodipodi="http://sodipodi.sourceforge.net/DTD/sodipodi-0.dtd"
   xmlns:xlink="http://www.w3.org/1999/xlink"
   xmlns="http://www.w3.org/2000/svg"
   xmlns:svg="http://www.w3.org/2000/svg">
  <sodipodi:namedview
     id="namedview7"
     pagecolor="#ffffff"
     bordercolor="#666666"
     borderopacity="1.0"
     inkscape:pageshadow="2"
     inkscape:pageopacity="0.0"
     inkscape:pagecheckerboard="0"
     inkscape:document-units="px"
     showgrid="false"
     units="px"
     height="22px"
     showguides="false"
     inkscape:zoom="36.772727"
     inkscape:cx="10.986403"
     inkscape:cy="11"
     inkscape:window-width="1920"
     inkscape:window-height="1012"
     inkscape:window-x="0"
     inkscape:window-y="0"
     inkscape:window-maximized="1"
     inkscape:current-layer="svg5"
     inkscape:showpageshadow="2"
     inkscape:deskcolor="#d1d1d1" />
  <defs
     id="defs2">
    <linearGradient
       inkscape:collect="always"
       id="linearGradient8163">
      <stop
         style="stop-color:#e8ebf1;stop-opacity:1;"
         offset="0"
         id="stop8159" />
      <stop
         style="stop-color:#c6cfdd;stop-opacity:1"
         offset="1"
         id="stop8161" />
    </linearGradient>
    <linearGradient
       inkscape:collect="always"
       xlink:href="#linearGradient8163"
       id="linearGradient1812"
       x1="8"
       y1="0"
       x2="8"
       y2="16"
       gradientUnits="userSpaceOnUse"
       gradientTransform="matrix(1.125,0,0,1.125,2,2)" />
    <linearGradient
       inkscape:collect="always"
       id="linearGradient2733">
      <stop
         style="stop-color:#1b9de2;stop-opacity:1;"
         offset="0"
         id="stop2729" />
      <stop
         style="stop-color:#0178d4;stop-opacity:1"
         offset="1"
         id="stop2731" />
    </linearGradient>
    <linearGradient
       inkscape:collect="always"
       xlink:href="#linearGradient2733"
       id="linearGradient3769"
       x1="3"
       y1="3.0009999"
       x2="13"
       y2="12.999919"
       gradientUnits="userSpaceOnUse"
       gradientTransform="translate(3,2.9995408)" />
  </defs>
  <circle
     style="opacity:1;fill:url(#linearGradient1812);fill-opacity:1;stroke-width:1.125;stroke-linecap:round;stroke-linejoin:round"
     id="path1226"
     cx="11"
     cy="11"
     r="9" />
  <circle
     style="opacity:1;fill:#ffffff;fill-opacity:1;stroke-width:1.14701;stroke-linecap:round;stroke-linejoin:round"
     id="path396"
     cx="11"
     cy="11"
     r="8" />
  <path
     id="path1393"
     style="color:#000000;fill:url(#linearGradient3769);fill-opacity:1;stroke:none;stroke-linecap:round;-inkscape-stroke:none"
     d="M 10.902344,6.0015389 C 9.1753896,6.0356554 7.5559726,6.9649004 6.6699217,8.4995857 6.5315516,8.7390138 6.6138092,9.045292 6.8535154,9.1831795 7.092507,9.3202205 7.3973225,9.2381213 7.535156,8.9995857 c 0.8416545,-1.4577882 2.502421,-2.2317566 4.160156,-1.939453 1.554128,0.2740345 2.788639,1.4302766 3.177735,2.939453 H 12.5 c -0.276999,0 -0.5,0.2230003 -0.5,0.5000003 0,0.276999 0.223001,0.5 0.5,0.5 h 3 c 0.01731,0 0.03393,-2.52e-4 0.05078,-0.002 C 15.803521,10.972119 16,10.759273 16,10.499586 V 7.4995858 c 0,-0.2769994 -0.223,-0.5 -0.5,-0.5 -0.277,0 -0.5,0.2230006 -0.5,0.5 v 0.501953 C 14.254218,7.0071257 13.147518,6.30117 11.86914,6.0757576 11.545959,6.018772 11.22215,5.995221 10.902344,6.0015389 Z M 6.4999998,10.999586 c -0.01731,0 -0.033931,2.05e-4 -0.050781,0.0019 C 6.196478,11.027056 6,11.239896 6,11.499583 v 3 c 0,0.276999 0.2230003,0.5 0.5,0.5 0.2769996,0 0.5,-0.223001 0.5,-0.5 V 13.99763 c 0.7457816,0.994413 1.8524825,1.700369 3.130859,1.925781 2.068362,0.364708 4.149085,-0.604942 5.199219,-2.423828 0.13837,-0.239428 0.05611,-0.545707 -0.183594,-0.683594 -0.238992,-0.137038 -0.543807,-0.05494 -0.68164,0.183597 -0.841654,1.457789 -2.502421,2.231757 -4.160157,1.939453 C 8.7499296,14.664893 7.5155197,13.509663 7.1269529,11.999586 h 2.3730469 c 0.2769999,0 0.5,-0.223001 0.5,-0.5 0,-0.277 -0.2230002,-0.5 -0.5,-0.5 z"
     sodipodi:nodetypes="scccscsssscsssscssscsssscscccscssss" />
</svg>
