<?xml version="1.0" encoding="UTF-8" standalone="no"?>
<!-- Created with Inkscape (http://www.inkscape.org/) -->

<svg
   width="22"
   height="22"
   viewBox="0 0 22 22"
   version="1.1"
   id="svg5"
   inkscape:version="1.2.1 (9c6d41e410, 2022-07-14, custom)"
   sodipodi:docname="emblem-unreadable.svg"
   xmlns:inkscape="http://www.inkscape.org/namespaces/inkscape"
   xmlns:sodipodi="http://sodipodi.sourceforge.net/DTD/sodipodi-0.dtd"
   xmlns:xlink="http://www.w3.org/1999/xlink"
   xmlns="http://www.w3.org/2000/svg"
   xmlns:svg="http://www.w3.org/2000/svg">
  <sodipodi:namedview
     id="namedview7"
     pagecolor="#ffffff"
     bordercolor="#666666"
     borderopacity="1.0"
     inkscape:pageshadow="2"
     inkscape:pageopacity="0.0"
     inkscape:pagecheckerboard="0"
     inkscape:document-units="px"
     showgrid="false"
     units="px"
     height="22px"
     showguides="false"
     inkscape:zoom="37.590909"
     inkscape:cx="10.986699"
     inkscape:cy="11"
     inkscape:window-width="1920"
     inkscape:window-height="1029"
     inkscape:window-x="0"
     inkscape:window-y="0"
     inkscape:window-maximized="1"
     inkscape:current-layer="svg5"
     inkscape:showpageshadow="2"
     inkscape:deskcolor="#d1d1d1" />
  <defs
     id="defs2">
    <linearGradient
       inkscape:collect="always"
       id="linearGradient2733">
      <stop
         style="stop-color:#ed6767;stop-opacity:1"
         offset="0"
         id="stop2729" />
      <stop
         style="stop-color:#d40101;stop-opacity:1"
         offset="1"
         id="stop2731" />
    </linearGradient>
    <linearGradient
       inkscape:collect="always"
       xlink:href="#linearGradient8163"
       id="linearGradient8165"
       x1="5.7449827"
       y1="8.3089285"
       x2="5.7449827"
       y2="19.347616"
       gradientUnits="userSpaceOnUse"
       gradientTransform="matrix(1.4320353,0,0,1.6306285,3.7721435,-11.548775)" />
    <linearGradient
       inkscape:collect="always"
       id="linearGradient8163">
      <stop
         style="stop-color:#e8ebf1;stop-opacity:1;"
         offset="0"
         id="stop8159" />
      <stop
         style="stop-color:#c6cfdd;stop-opacity:1"
         offset="1"
         id="stop8161" />
    </linearGradient>
    <linearGradient
       inkscape:collect="always"
       xlink:href="#linearGradient2733"
       id="linearGradient1062"
       x1="1.7878846"
       y1="2.4454489"
       x2="4.1237392"
       y2="2.5362391"
       gradientUnits="userSpaceOnUse"
       gradientTransform="matrix(2.6725297,2.6725297,-2.6725297,2.6725297,11.000001,-4.5563493)" />
  </defs>
  <rect
     style="fill:url(#linearGradient8165);fill-opacity:1;stroke-width:0.404315;stroke-linejoin:round"
     id="rect858"
     height="18"
     x="2"
     y="2"
     width="18"
     ry="2" />
  <path
     id="rect964"
     style="fill:#ffffff;stroke-width:0.999999;stroke-linejoin:round"
     d="M 4.0000001,3.0000001 H 18 c 0.554,0 1,0.446 1,1 V 18 c 0,0.554 -0.446,1 -1,1 H 4.0000001 c -0.554,0 -1,-0.446 -1,-1 V 4.0000001 c 0,-0.554 0.446,-1 1,-1 z" />
  <path
     id="rect853"
     style="fill:url(#linearGradient1062);fill-opacity:1;stroke-width:0.999999;stroke-linejoin:round"
     d="m 16.242331,5.7576702 c -0.293802,-0.2938016 -0.766858,-0.2938016 -1.06066,0 L 11.000001,9.9393405 6.8183305,5.7576702 c -0.2938016,-0.2938016 -0.7668571,-0.2938016 -1.0606603,0 -0.2938016,0.2938016 -0.2938016,0.766858 0,1.0606603 l 4.1816703,4.1816705 -4.1816703,4.18167 c -0.2938016,0.293801 -0.2938016,0.766857 0,1.06066 0.2938016,0.293801 0.766858,0.293801 1.0606603,0 l 4.1816705,-4.18167 4.18167,4.18167 c 0.293801,0.293801 0.766857,0.293801 1.06066,0 0.293801,-0.293802 0.293801,-0.766858 0,-1.06066 l -4.18167,-4.18167 4.18167,-4.1816705 c 0.293801,-0.2938016 0.293801,-0.7668571 0,-1.0606603 z"
     sodipodi:nodetypes="sscssscssscssscss" />
</svg>
