<?xml version="1.0" encoding="UTF-8" standalone="no"?>
<!-- Created with Inkscape (http://www.inkscape.org/) -->

<svg
   width="16"
   height="16"
   viewBox="0 0 16 16.000001"
   version="1.1"
   id="svg5"
   inkscape:version="1.2.1 (9c6d41e410, 2022-07-14, custom)"
   sodipodi:docname="rating-unrated.svg"
   xmlns:inkscape="http://www.inkscape.org/namespaces/inkscape"
   xmlns:sodipodi="http://sodipodi.sourceforge.net/DTD/sodipodi-0.dtd"
   xmlns="http://www.w3.org/2000/svg"
   xmlns:svg="http://www.w3.org/2000/svg">
  <sodipodi:namedview
     id="namedview7"
     pagecolor="#ffffff"
     bordercolor="#000000"
     borderopacity="0.25"
     inkscape:showpageshadow="2"
     inkscape:pageopacity="0.0"
     inkscape:pagecheckerboard="0"
     inkscape:deskcolor="#d1d1d1"
     inkscape:document-units="px"
     showgrid="false"
     showguides="false"
     inkscape:zoom="50.5625"
     inkscape:cx="7.84178"
     inkscape:cy="8"
     inkscape:window-width="1920"
     inkscape:window-height="1012"
     inkscape:window-x="0"
     inkscape:window-y="0"
     inkscape:window-maximized="1"
     inkscape:current-layer="svg5" />
  <defs
     id="defs2" />
  <path
     id="path1003"
     style="color:#000000;opacity:1;fill:#a0a0a0;fill-opacity:1;stroke:none;stroke-width:1.14291;stroke-linecap:round;stroke-linejoin:round"
     d="M 8.1051902,0.06508915 A 0.5715091,0.5715091 0 0 0 7.5873118,0.37425365 L 5.347823,4.7187397 0.49940997,5.3365101 a 0.5715091,0.5715091 0 0 0 -0.3342771,0.96879 L 3.6044477,9.7780981 2.6936961,14.579634 a 0.5715091,0.5715091 0 0 0 0.8181141,0.617213 l 4.3662501,-2.197635 4.2847727,2.349984 a 0.5715091,0.5715091 0 0 0 0.839879,-0.588193 L 12.26161,9.9304481 15.820349,6.580981 A 0.5715091,0.5715091 0 0 0 15.52123,5.6010301 L 10.69793,4.8124932 8.6124652,0.39266955 a 0.5715091,0.5715091 0 0 0 -0.507275,-0.3275804 z" />
</svg>
