<?xml version="1.0" encoding="UTF-8" standalone="no"?>
<!-- Created with Inkscape (http://www.inkscape.org/) -->

<svg
   width="32"
   height="32"
   viewBox="0 0 32 32.000002"
   version="1.1"
   id="svg5"
   inkscape:version="1.2.1 (9c6d41e410, 2022-07-14, custom)"
   sodipodi:docname="rating.svg"
   xmlns:inkscape="http://www.inkscape.org/namespaces/inkscape"
   xmlns:sodipodi="http://sodipodi.sourceforge.net/DTD/sodipodi-0.dtd"
   xmlns:xlink="http://www.w3.org/1999/xlink"
   xmlns="http://www.w3.org/2000/svg"
   xmlns:svg="http://www.w3.org/2000/svg">
  <sodipodi:namedview
     id="namedview7"
     pagecolor="#ffffff"
     bordercolor="#000000"
     borderopacity="0.25"
     inkscape:showpageshadow="2"
     inkscape:pageopacity="0.0"
     inkscape:pagecheckerboard="0"
     inkscape:deskcolor="#d1d1d1"
     inkscape:document-units="px"
     showgrid="false"
     showguides="false"
     inkscape:zoom="25.28125"
     inkscape:cx="16"
     inkscape:cy="16"
     inkscape:window-width="1920"
     inkscape:window-height="1012"
     inkscape:window-x="0"
     inkscape:window-y="0"
     inkscape:window-maximized="1"
     inkscape:current-layer="svg5" />
  <defs
     id="defs2">
    <linearGradient
       inkscape:collect="always"
       id="linearGradient1037">
      <stop
         style="stop-color:#ffab26;stop-opacity:1;"
         offset="0"
         id="stop1033" />
      <stop
         style="stop-color:#ffd212;stop-opacity:1;"
         offset="1"
         id="stop1035" />
    </linearGradient>
    <linearGradient
       inkscape:collect="always"
       xlink:href="#linearGradient1037"
       id="linearGradient1039"
       x1="33.243725"
       y1="58.869957"
       x2="32.367188"
       y2="5.1308594"
       gradientUnits="userSpaceOnUse"
       gradientTransform="matrix(0.5,0,0,0.5,0,0.49972631)" />
  </defs>
  <path
     id="path1003"
     style="color:#000000;opacity:1;fill:url(#linearGradient1039);fill-opacity:1;stroke:none;stroke-width:2.00001;stroke-linecap:round;stroke-linejoin:round"
     d="m 16.183594,3.065156 a 1.0001,1.0001 0 0 0 -0.90625,0.5410156 l -3.918945,7.6025394 -8.4843755,1.081054 a 1.0001,1.0001 0 0 0 -0.584961,1.695313 l 6.0185545,6.077148 -1.59375,8.402344 a 1.0001,1.0001 0 0 0 1.431641,1.080078 l 7.640625,-3.845703 7.498046,4.112304 a 1.0001,1.0001 0 0 0 1.469727,-1.029297 L 23.457031,20.328827 29.68457,14.4675 A 1.0001,1.0001 0 0 0 29.161133,12.752656 L 20.720703,11.372773 17.071289,3.6383982 A 1.0001,1.0001 0 0 0 16.183594,3.065156 Z" />
</svg>
