<?xml version="1.0" encoding="UTF-8" standalone="no"?>
<!-- Created with Inkscape (http://www.inkscape.org/) -->

<svg
   width="48"
   height="48"
   viewBox="0 0 48 48"
   version="1.1"
   id="svg2535"
   inkscape:version="1.2.1 (9c6d41e410, 2022-07-14, custom)"
   sodipodi:docname="dialog-password.svg"
   xmlns:inkscape="http://www.inkscape.org/namespaces/inkscape"
   xmlns:sodipodi="http://sodipodi.sourceforge.net/DTD/sodipodi-0.dtd"
   xmlns:xlink="http://www.w3.org/1999/xlink"
   xmlns="http://www.w3.org/2000/svg"
   xmlns:svg="http://www.w3.org/2000/svg">
  <sodipodi:namedview
     id="namedview2537"
     pagecolor="#ffffff"
     bordercolor="#000000"
     borderopacity="0.25"
     inkscape:showpageshadow="2"
     inkscape:pageopacity="0.0"
     inkscape:pagecheckerboard="0"
     inkscape:deskcolor="#d1d1d1"
     inkscape:document-units="px"
     showgrid="false"
     inkscape:zoom="17.229167"
     inkscape:cx="24"
     inkscape:cy="24"
     inkscape:window-width="1920"
     inkscape:window-height="1029"
     inkscape:window-x="0"
     inkscape:window-y="0"
     inkscape:window-maximized="1"
     inkscape:current-layer="svg2535" />
  <defs
     id="defs2532">
    <linearGradient
       inkscape:collect="always"
       id="linearGradient7341">
      <stop
         style="stop-color:#fedf00;stop-opacity:1;"
         offset="0"
         id="stop7337" />
      <stop
         style="stop-color:#ffbb01;stop-opacity:1;"
         offset="1"
         id="stop7339" />
    </linearGradient>
    <linearGradient
       inkscape:collect="always"
       id="linearGradient4794">
      <stop
         style="stop-color:#26ade9;stop-opacity:1;"
         offset="0"
         id="stop4790" />
      <stop
         style="stop-color:#0580d8;stop-opacity:1;"
         offset="1"
         id="stop4792" />
    </linearGradient>
    <linearGradient
       inkscape:collect="always"
       xlink:href="#linearGradient7341"
       id="linearGradient8763"
       x1="10"
       y1="1.0351562"
       x2="9.8847656"
       y2="14.952974"
       gradientUnits="userSpaceOnUse"
       gradientTransform="matrix(1.3124532,0,0,1.3169347,3.0006577,1.6367753)" />
    <linearGradient
       inkscape:collect="always"
       xlink:href="#linearGradient4794"
       id="linearGradient9363"
       gradientUnits="userSpaceOnUse"
       gradientTransform="matrix(1.3124999,0,0,1.3169347,3.0006584,1.6367737)"
       x1="21"
       y1="1.0351573"
       x2="21"
       y2="29.9375" />
  </defs>
  <path
     id="path5150"
     style="color:#000000;fill:url(#linearGradient8763);fill-opacity:1.0;stroke-width:1.31469;stroke-linecap:round;stroke-linejoin:round"
     d="M 24 3 C 20.36197 3.0005007 17.640994 4.1213368 16 5.5 C 13.393122 7.4799009 7.999991 9 5 9 A 2 2 0 0 0 3 11 L 3 24 C 3 28.431376 6.1742292 33.342635 9.7109375 36.8125 C 13.133148 40.318457 19.939301 44.485715 24 45 C 28.0607 44.485715 34.866853 40.318457 38.289062 36.8125 C 41.82577 33.342635 45 28.431376 45 24 L 45 11 A 2 2 0 0 0 43 9 C 40.000008 9 34.606878 7.479901 32 5.5 C 30.359005 4.1213364 27.63803 3.000501 24 3 z " />
  <path
     id="path5150-06"
     style="color:#000000;fill:url(#linearGradient9363);fill-opacity:1.0;stroke-width:1.31472;stroke-linecap:round;stroke-linejoin:round"
     d="M 24 3 L 24 24 L 45 24 L 45 11 A 2 2 0 0 0 43 9 C 40.000012 9 34.606875 7.4798989 32 5.5 C 30.359008 4.1213382 27.638026 3.0005007 24 3 z M 24 24 L 3 24 C 3 28.431385 6.1742204 33.34263 9.7109375 36.8125 C 13.133149 40.318463 19.939293 44.485714 24 45 L 24 24 z " />
  <path
     id="path965"
     style="color:#000000;fill:#4d4d4d;stroke-linecap:round;stroke-linejoin:round;stroke:none;fill-opacity:1;opacity:0.2"
     d="M 24 3 C 20.361975 3.0005007 17.640991 4.1213382 16 5.5 C 13.393124 7.4798989 7.999988 9 5 9 A 2 2 0 0 0 3 11 L 3 24 C 3 28.431372 6.1742327 33.342639 9.7109375 36.8125 C 13.133144 40.318453 19.939306 44.485716 24 45 C 28.060696 44.485716 34.866856 40.318453 38.289062 36.8125 C 41.825766 33.342639 45 28.431372 45 24 L 45 11 A 2 2 0 0 0 43 9 C 40.000011 9 34.606876 7.479899 32 5.5 C 30.359007 4.1213378 27.638026 3.000501 24 3 z M 24 4 C 27.4327 4.0004727 29.928892 5.065462 31.357422 6.265625 A 1.0001 1.0001 0 0 0 31.394531 6.296875 C 34.334099 8.5294506 39.662214 10 43 10 C 43.564128 10 44 10.435872 44 11 L 44 24 C 44 27.953829 41.001385 32.750629 37.587891 36.099609 A 1.0001 1.0001 0 0 0 37.574219 36.113281 C 35.956246 37.770848 33.447464 39.661698 30.878906 41.166016 C 28.360534 42.640942 25.765221 43.717524 24 43.970703 C 22.23478 43.717524 19.639464 42.64094 17.121094 41.166016 C 14.552536 39.661698 12.043754 37.770848 10.425781 36.113281 A 1.0001 1.0001 0 0 0 10.412109 36.099609 C 6.9986118 32.750628 4 27.95383 4 24 L 4 11 C 4.0000001 10.435872 4.4358718 10 5 10 C 8.3377852 10 13.6659 8.5294506 16.605469 6.296875 A 1.0001 1.0001 0 0 0 16.642578 6.265625 C 18.071104 5.065463 20.567301 4.0004724 24 4 z " />
</svg>
