<?xml version="1.0" encoding="UTF-8" standalone="no"?>
<!-- Created with Inkscape (http://www.inkscape.org/) -->

<svg
   width="48"
   height="48"
   viewBox="0 0 48 48.000002"
   version="1.1"
   id="svg5"
   inkscape:version="1.2.1 (9c6d41e410, 2022-07-14, custom)"
   sodipodi:docname="system-shutdown.svg"
   xmlns:inkscape="http://www.inkscape.org/namespaces/inkscape"
   xmlns:sodipodi="http://sodipodi.sourceforge.net/DTD/sodipodi-0.dtd"
   xmlns:xlink="http://www.w3.org/1999/xlink"
   xmlns="http://www.w3.org/2000/svg"
   xmlns:svg="http://www.w3.org/2000/svg">
  <sodipodi:namedview
     id="namedview7"
     pagecolor="#ffffff"
     bordercolor="#000000"
     borderopacity="0.25"
     inkscape:showpageshadow="2"
     inkscape:pageopacity="0.0"
     inkscape:pagecheckerboard="0"
     inkscape:deskcolor="#d1d1d1"
     inkscape:document-units="px"
     showgrid="false"
     inkscape:zoom="17.229167"
     inkscape:cx="23.970979"
     inkscape:cy="24"
     inkscape:window-width="1920"
     inkscape:window-height="1029"
     inkscape:window-x="0"
     inkscape:window-y="0"
     inkscape:window-maximized="1"
     inkscape:current-layer="svg5" />
  <defs
     id="defs2">
    <linearGradient
       inkscape:collect="always"
       id="linearGradient59376">
      <stop
         style="stop-color:#e96311;stop-opacity:1"
         offset="0"
         id="stop59372" />
      <stop
         style="stop-color:#da3f04;stop-opacity:1"
         offset="1"
         id="stop59374" />
    </linearGradient>
    <linearGradient
       inkscape:collect="always"
       xlink:href="#linearGradient59376"
       id="linearGradient30015"
       x1="12"
       y1="2"
       x2="12"
       y2="22"
       gradientUnits="userSpaceOnUse"
       gradientTransform="matrix(2.0000013,0,0,2.0000013,5.568e-4,-2.6e-6)" />
  </defs>
  <path
     id="path788"
     style="color:#000000;fill:url(#linearGradient30015);fill-opacity:1;stroke:none;stroke-width:2;stroke-linecap:round"
     d="M 24.000573,4 C 22.892574,4 22.000571,4.8920018 22.000571,6.0000013 V 22.000012 c 0,1.107999 0.892003,2.000001 2.000002,2.000001 1.107999,0 2.000002,-0.892002 2.000002,-2.000001 V 6.0000013 C 26.000575,4.8920018 25.108572,4 24.000573,4 Z M 12.602127,8.2187528 A 2.0000911,2.0000911 0 0 0 11.145095,8.6796907 C 4.7091961,14.080051 2.3302135,22.945063 5.2036852,30.839862 8.0771569,38.734661 15.599103,44.000026 24.000573,44.000026 c 8.40147,0 15.919511,-5.265365 18.792981,-13.160164 C 45.667028,22.945063 43.29195,14.080051 36.85605,8.6796907 a 2.0000911,2.0000911 0 0 0 -2.816408,0.2460938 2.0000911,2.0000911 0 0 0 0.246094,2.8164085 c 5.158201,4.328244 7.053015,11.40301 4.750003,17.73048 -2.303011,6.32747 -8.301611,10.527351 -15.035166,10.527351 -6.733553,0 -12.732156,-4.199881 -15.0351665,-10.527351 C 6.6623958,23.145203 8.5572088,16.070437 13.71541,11.742193 A 2.0000911,2.0000911 0 0 0 13.961504,8.9257845 2.0000911,2.0000911 0 0 0 12.602127,8.2187528 Z" />
</svg>
