<?xml version="1.0" encoding="UTF-8" standalone="no"?>
<!-- Created with Inkscape (http://www.inkscape.org/) -->

<svg
   width="48"
   height="48"
   viewBox="0 0 48 48.000002"
   version="1.1"
   id="svg5"
   inkscape:version="1.2.1 (9c6d41e410, 2022-07-14, custom)"
   sodipodi:docname="system-reboot.svg"
   xmlns:inkscape="http://www.inkscape.org/namespaces/inkscape"
   xmlns:sodipodi="http://sodipodi.sourceforge.net/DTD/sodipodi-0.dtd"
   xmlns:xlink="http://www.w3.org/1999/xlink"
   xmlns="http://www.w3.org/2000/svg"
   xmlns:svg="http://www.w3.org/2000/svg">
  <sodipodi:namedview
     id="namedview7"
     pagecolor="#ffffff"
     bordercolor="#000000"
     borderopacity="0.25"
     inkscape:showpageshadow="2"
     inkscape:pageopacity="0.0"
     inkscape:pagecheckerboard="0"
     inkscape:deskcolor="#d1d1d1"
     inkscape:document-units="px"
     showgrid="false"
     inkscape:zoom="17.229167"
     inkscape:cx="23.970979"
     inkscape:cy="24"
     inkscape:window-width="1920"
     inkscape:window-height="1029"
     inkscape:window-x="0"
     inkscape:window-y="0"
     inkscape:window-maximized="1"
     inkscape:current-layer="svg5" />
  <defs
     id="defs2">
    <linearGradient
       inkscape:collect="always"
       id="linearGradient6074">
      <stop
         style="stop-color:#459b11;stop-opacity:1;"
         offset="0"
         id="stop6070" />
      <stop
         style="stop-color:#7bc630;stop-opacity:1;"
         offset="1"
         id="stop6072" />
    </linearGradient>
    <linearGradient
       inkscape:collect="always"
       xlink:href="#linearGradient6074"
       id="linearGradient6076"
       x1="15.572827"
       y1="17.563978"
       x2="6.6501532"
       y2="4.2860041"
       gradientUnits="userSpaceOnUse"
       gradientTransform="matrix(2,0,0,2,1.9999171,1.998168)" />
  </defs>
  <path
     id="path3705"
     style="color:#000000;fill:url(#linearGradient6076);fill-opacity:1;stroke:none;stroke-width:2;stroke-linecap:round;-inkscape-stroke:none"
     d="m 24.265542,8.0020742 c -0.303026,-0.0052 -0.606286,-3.776e-4 -0.910156,0.01172 C 21.73475,8.078307 20.105824,8.388462 18.527261,8.9630118 12.811306,11.043449 8.8187898,16.173613 8.1131984,22.11145 L 5.7577296,19.75598 c -0.7834728,-0.783472 -2.0446514,-0.783473 -2.828125,0 -0.7834722,0.783472 -0.7834734,2.044652 0,2.828126 l 5.6562502,5.65625 c 0.7834732,0.783472 2.0446512,0.783472 2.8281252,0 l 5.65625,-5.65625 c 0.783474,-0.783474 0.783473,-2.044652 0,-2.828126 -0.783473,-0.783473 -2.044653,-0.783471 -2.828125,0 l -2.035157,2.035156 c 0.766984,-4.119735 3.645501,-7.599144 7.6875,-9.070312 4.746996,-1.727764 10.049742,-0.307284 13.296876,3.5625 a 2,2 0 0 0 2.820312,0.246094 2,2 0 0 0 0.246094,-2.816406 C 33.220792,10.093729 28.810952,8.080001 24.265542,8.0020742 Z M 37.999918,19.166137 c -0.511238,0 -1.022324,0.198108 -1.414062,0.589843 l -5.65625,5.65625 c -0.783474,0.783474 -0.783474,2.044652 0,2.828126 0.78347,0.783472 2.044654,0.78347 2.828124,0 L 35.792886,26.2052 c -0.766982,4.119734 -3.645498,7.599144 -7.6875,9.070312 -4.746992,1.727764 -10.04974,0.307284 -13.296875,-3.5625 a 2,2 0 0 0 -2.820313,-0.246094 2,2 0 0 0 -0.246093,2.816406 c 3.239401,3.860568 8.040434,5.892762 12.902345,5.69922 1.620636,-0.06452 3.249562,-0.37467 4.828124,-0.94922 5.715956,-2.080438 9.708472,-7.210602 10.414062,-13.148438 l 2.35547,2.35547 c 0.783472,0.783472 2.044652,0.783472 2.828124,0 0.783472,-0.783472 0.783474,-2.044652 0,-2.828126 l -5.65625,-5.65625 c -0.391736,-0.391736 -0.902824,-0.589844 -1.414062,-0.589843 z" />
</svg>
