<?xml version="1.0" encoding="UTF-8" standalone="no"?>
<svg
   height="24"
   viewBox="0 0 24 24"
   width="24"
   version="1.1"
   id="svg2"
   sodipodi:docname="duplicate-node.svg"
   inkscape:version="1.4.2 (1:1.4.2+202505120738+ebf0e940d0)"
   xmlns:inkscape="http://www.inkscape.org/namespaces/inkscape"
   xmlns:sodipodi="http://sodipodi.sourceforge.net/DTD/sodipodi-0.dtd"
   xmlns="http://www.w3.org/2000/svg"
   xmlns:svg="http://www.w3.org/2000/svg">
  <defs
     id="defs2" />
  <sodipodi:namedview
     id="namedview2"
     pagecolor="#ffffff"
     bordercolor="#666666"
     borderopacity="1.0"
     inkscape:showpageshadow="2"
     inkscape:pageopacity="0.0"
     inkscape:pagecheckerboard="0"
     inkscape:deskcolor="#d1d1d1"
     inkscape:zoom="34.383067"
     inkscape:cx="6.7911335"
     inkscape:cy="11.648175"
     inkscape:window-width="2560"
     inkscape:window-height="1372"
     inkscape:window-x="1920"
     inkscape:window-y="0"
     inkscape:window-maximized="1"
     inkscape:current-layer="svg2" />
  <style
     type="text/css"
     id="current-color-scheme">.ColorScheme-Text{color:#dedede;}</style>
  <g
     id="g1">
    <path
       style="fill:#dedede;fill-opacity:1;stroke:none;stroke-width:0.448943"
       id="path1"
       sodipodi:type="arc"
       sodipodi:cx="8.1835718"
       sodipodi:cy="8.1346626"
       sodipodi:rx="7.3384786"
       sodipodi:ry="7.3653641"
       sodipodi:start="5.673664"
       sodipodi:end="5.6735508"
       sodipodi:arc-type="arc"
       d="M 14.200553,3.9181756 A 7.3384786,7.3653641 0 0 1 12.384838,14.173568 7.3384786,7.3653641 0 0 1 2.1668285,12.351491 7.3384786,7.3653641 0 0 1 3.9819652,2.0959955 7.3384786,7.3653641 0 0 1 14.200077,3.917492"
       sodipodi:open="true" />
    <path
       style="fill:#3daee9;fill-opacity:1;stroke:#ffffff;stroke-width:0.530733;stroke-dasharray:none;stroke-opacity:1"
       id="path2"
       sodipodi:type="arc"
       sodipodi:cx="15.484594"
       sodipodi:cy="15.53768"
       sodipodi:rx="7.330965"
       sodipodi:ry="7.3549471"
       sodipodi:start="5.673664"
       sodipodi:end="5.6735508"
       sodipodi:open="true"
       sodipodi:arc-type="arc"
       d="M 21.495415,11.327156 A 7.330965,7.3549471 0 0 1 19.681559,21.568045 7.330965,7.3549471 0 0 1 9.4740113,19.748545 7.330965,7.3549471 0 0 1 11.28729,9.5075531 7.330965,7.3549471 0 0 1 21.49494,11.326473" />
    <path
       d="m 16.263767,14.870575 h 3.460464 q 0.379807,0 0.622462,0.274305 0.274305,0.274305 0.263755,0.611912 v 0.0422 q 0,0.369257 -0.263755,0.622462 -0.274305,0.263755 -0.622462,0.263755 h -3.460464 v 3.27056 q 0,0.422008 -0.305955,0.727964 -0.305956,0.305955 -0.696313,0.295405 h -0.0422 q -0.422008,0.0211 -0.717413,-0.284855 -0.284856,-0.316506 -0.284856,-0.738514 v -3.27056 h -3.460464 q -0.379807,0 -0.633011,-0.274305 -0.2532051,-0.274305 -0.2532051,-0.611912 v -0.0422 q 0,-0.379808 0.2532051,-0.611912 0.274305,-0.274305 0.633011,-0.274305 h 3.460464 v -3.23891 q 0,-0.422008 0.295406,-0.706863 0.284855,-0.284855 0.706863,-0.284855 h 0.0422 q 0.422007,0 0.696313,0.305955 0.305955,0.305956 0.305955,0.685763 z"
       id="text4"
       style="font-size:21.6068px;line-height:1000;font-family:Dyuthi;-inkscape-font-specification:'Dyuthi, Normal';letter-spacing:0px;word-spacing:0px;fill:#ffffff;stroke-width:0.540174"
       transform="scale(1.0140107,0.98618293)"
       aria-label="+" />
  </g>
</svg>
