<?xml version="1.0" encoding="UTF-8" standalone="no"?>
<!-- Created with Inkscape (http://www.inkscape.org/) -->

<svg
   width="16"
   height="16"
   viewBox="0 0 16 16"
   version="1.1"
   id="svg5"
   inkscape:version="1.2.1 (9c6d41e410, 2022-07-14, custom)"
   sodipodi:docname="window-close.svg"
   xmlns:inkscape="http://www.inkscape.org/namespaces/inkscape"
   xmlns:sodipodi="http://sodipodi.sourceforge.net/DTD/sodipodi-0.dtd"
   xmlns="http://www.w3.org/2000/svg"
   xmlns:svg="http://www.w3.org/2000/svg">
  <sodipodi:namedview
     id="namedview7"
     pagecolor="#ffffff"
     bordercolor="#666666"
     borderopacity="1.0"
     inkscape:showpageshadow="2"
     inkscape:pageopacity="0.0"
     inkscape:pagecheckerboard="0"
     inkscape:deskcolor="#d1d1d1"
     inkscape:document-units="px"
     showgrid="false"
     inkscape:zoom="50.125"
     inkscape:cx="7.9900249"
     inkscape:cy="8"
     inkscape:window-width="1920"
     inkscape:window-height="1011"
     inkscape:window-x="0"
     inkscape:window-y="0"
     inkscape:window-maximized="1"
     inkscape:current-layer="svg5" />
  <defs
     id="defs2">
    <style
       id="current-color-scheme"
       type="text/css">
      .ColorScheme-Text { color:#dedede; }
    </style>
  </defs>
  <path
     id="rect1770"
     style="fill:currentColor;stroke-width:2;stroke-linecap:round;stroke-linejoin:round"
     class="ColorScheme-Text"
     d="m 11.535554,4.4644463 c -0.195868,-0.1958684 -0.511239,-0.1958684 -0.707107,0 L 8.000435,7.293328 5.1715531,4.4644463 c -0.1958684,-0.1958684 -0.5112384,-0.1958684 -0.7071068,0 -0.1958684,0.1958684 -0.1958684,0.5112384 0,0.7071068 L 7.293328,8.000435 4.4644463,10.828447 c -0.1958686,0.195869 -0.1958684,0.511239 0,0.707107 0.1958684,0.195868 0.5112382,0.195868 0.7071068,0 l 2.8288819,-2.828012 2.828012,2.828012 c 0.195869,0.195868 0.511239,0.195868 0.707107,0 0.195868,-0.195868 0.195868,-0.511238 0,-0.707107 L 8.707542,8.000435 11.535553,5.1715531 c 0.195868,-0.1958684 0.195868,-0.5112384 10e-7,-0.7071068 z"
     sodipodi:nodetypes="sccsssccscccscccs" />
</svg>
