<?xml version="1.0" encoding="UTF-8" standalone="no"?>
<svg
   xmlns:dc="http://purl.org/dc/elements/1.1/"
   xmlns:cc="http://creativecommons.org/ns#"
   xmlns:rdf="http://www.w3.org/1999/02/22-rdf-syntax-ns#"
   xmlns:svg="http://www.w3.org/2000/svg"
   xmlns="http://www.w3.org/2000/svg"
   xmlns:sodipodi="http://sodipodi.sourceforge.net/DTD/sodipodi-0.dtd"
   xmlns:inkscape="http://www.inkscape.org/namespaces/inkscape"
   viewBox="0 0 128 128"
   version="1.1"
   id="svg19"
   sodipodi:docname="puzzle.svg"
   inkscape:export-filename="/home/dismine/CAD/puzzle.png"
   inkscape:export-xdpi="384"
   inkscape:export-ydpi="384"
   inkscape:version="0.92.5 (2060ec1f9f, 2020-04-08)">
  <metadata
     id="metadata23">
    <rdf:RDF>
      <cc:Work
         rdf:about="">
        <dc:format>image/svg+xml</dc:format>
        <dc:type
           rdf:resource="http://purl.org/dc/dcmitype/StillImage" />
      </cc:Work>
    </rdf:RDF>
  </metadata>
  <sodipodi:namedview
     pagecolor="#ffffff"
     bordercolor="#666666"
     borderopacity="1"
     objecttolerance="10"
     gridtolerance="10"
     guidetolerance="10"
     inkscape:pageopacity="0"
     inkscape:pageshadow="2"
     inkscape:window-width="1580"
     inkscape:window-height="849"
     id="namedview21"
     showgrid="false"
     inkscape:zoom="1.84375"
     inkscape:cx="3.5254237"
     inkscape:cy="64"
     inkscape:window-x="0"
     inkscape:window-y="360"
     inkscape:window-maximized="0"
     inkscape:current-layer="svg19" />
  <defs
     id="defs4">
    <style
       id="style2">.cls-1{isolation:isolate;}.cls-2{mix-blend-mode:multiply;}.cls-3{fill:#c9222e;stroke:#c9222e;}.cls-3,.cls-4,.cls-5,.cls-6{stroke-linecap:round;stroke-linejoin:round;}.cls-4{fill:#27ab71;stroke:#27ab71;}.cls-5{fill:#e8c81b;stroke:#e8c81b;}.cls-6{fill:#23a6dc;stroke:#23a6dc;}</style>
  </defs>
  <title
     id="title6">puzzle</title>
  <g
     class="cls-1"
     id="g17">
    <g
       id="icons"
       class="cls-2">
      <path
         class="cls-3"
         d="M96.74,65.5A8,8,0,0,0,99,60c0-4.69-4.25-8.5-9.5-8.5S80,55.31,80,60a8,8,0,0,0,2.26,5.5H65.5V77.31A10.6,10.6,0,0,1,68,77c6.34,0,11.5,5.61,11.5,12.5S74.34,102,68,102a10.6,10.6,0,0,1-2.5-.31V113.5h48v-48Z"
         id="path8" />
      <path
         class="cls-4"
         d="M62.5,96.74A8,8,0,0,0,68,99c4.69,0,8.5-4.25,8.5-9.5S72.69,80,68,80a8,8,0,0,0-5.5,2.26V65.5H50.69A10.6,10.6,0,0,1,51,68c0,6.34-5.61,11.5-12.5,11.5S26,74.34,26,68a10.6,10.6,0,0,1,.31-2.5H14.5v48h48Z"
         id="path10" />
      <path
         class="cls-5"
         d="M31.26,62.5A8,8,0,0,0,29,68c0,4.69,4.25,8.5,9.5,8.5S48,72.69,48,68a8,8,0,0,0-2.26-5.5H62.5V50.69A10.6,10.6,0,0,1,60,51c-6.34,0-11.5-5.61-11.5-12.5S53.66,26,60,26a10.6,10.6,0,0,1,2.5.31V14.5h-48v48Z"
         id="path12" />
      <path
         class="cls-6"
         d="M65.5,31.26A8,8,0,0,0,60,29c-4.69,0-8.5,4.25-8.5,9.5S55.31,48,60,48a8,8,0,0,0,5.5-2.26V62.5H77.31A10.6,10.6,0,0,1,77,60c0-6.34,5.61-11.5,12.5-11.5S102,53.66,102,60a10.6,10.6,0,0,1-.31,2.5H113.5v-48h-48Z"
         id="path14" />
    </g>
  </g>
</svg>
