<?xml version="1.0" encoding="UTF-8" standalone="no"?>
<!-- Created with Inkscape (http://www.inkscape.org/) -->

<svg
   width="16"
   height="16"
   viewBox="0 0 16 16.000001"
   version="1.1"
   id="svg5"
   inkscape:version="1.2.1 (9c6d41e410, 2022-07-14, custom)"
   sodipodi:docname="image-missing.svg"
   xmlns:inkscape="http://www.inkscape.org/namespaces/inkscape"
   xmlns:sodipodi="http://sodipodi.sourceforge.net/DTD/sodipodi-0.dtd"
   xmlns:xlink="http://www.w3.org/1999/xlink"
   xmlns="http://www.w3.org/2000/svg"
   xmlns:svg="http://www.w3.org/2000/svg">
  <sodipodi:namedview
     id="namedview7"
     pagecolor="#ffffff"
     bordercolor="#000000"
     borderopacity="0.25"
     inkscape:showpageshadow="2"
     inkscape:pageopacity="0.0"
     inkscape:pagecheckerboard="0"
     inkscape:deskcolor="#d1d1d1"
     inkscape:document-units="px"
     showgrid="false"
     inkscape:zoom="50.625"
     inkscape:cx="8"
     inkscape:cy="8"
     inkscape:window-width="1920"
     inkscape:window-height="1012"
     inkscape:window-x="0"
     inkscape:window-y="0"
     inkscape:window-maximized="1"
     inkscape:current-layer="svg5" />
  <defs
     id="defs2">
    <linearGradient
       inkscape:collect="always"
       id="linearGradient1407">
      <stop
         style="stop-color:#e96311;stop-opacity:1;"
         offset="0"
         id="stop1403" />
      <stop
         style="stop-color:#da3f04;stop-opacity:1"
         offset="1"
         id="stop1405" />
    </linearGradient>
    <linearGradient
       inkscape:collect="always"
       xlink:href="#linearGradient1407"
       id="linearGradient1401"
       x1="4.8082862"
       y1="5.5889912"
       x2="10.842735"
       y2="10.814046"
       gradientUnits="userSpaceOnUse" />
  </defs>
  <rect
     style="fill:#7d7d7b;fill-opacity:1"
     id="rect906"
     width="16"
     height="12"
     x="0"
     y="2"
     ry="1" />
  <rect
     style="fill:#fafafa;fill-opacity:1;stroke-width:1.11803"
     id="rect1167"
     width="14"
     height="10"
     x="1"
     y="3" />
  <path
     id="path374"
     style="opacity:1;fill:url(#linearGradient1401);stroke-width:2;fill-opacity:1"
     d="M 8 4 A 4 4 0 0 0 4 8 A 4 4 0 0 0 8 12 A 4 4 0 0 0 12 8 A 4 4 0 0 0 8 4 z M 8 5 A 3 3 0 0 1 9.7382812 5.5546875 L 5.5566406 9.7363281 A 3 3 0 0 1 5 8 A 3 3 0 0 1 8 5 z M 10.445312 6.2617188 A 3 3 0 0 1 11 8 A 3 3 0 0 1 8 11 A 3 3 0 0 1 6.2636719 10.443359 L 10.445312 6.2617188 z " />
</svg>
