<?xml version="1.0" encoding="UTF-8" standalone="no"?>
<!-- Created with Inkscape (http://www.inkscape.org/) -->

<svg
   width="48"
   height="48"
   viewBox="0 0 48 48.000002"
   version="1.1"
   id="svg5"
   inkscape:version="1.2.1 (9c6d41e410, 2022-07-14, custom)"
   sodipodi:docname="rating-unrated.svg"
   xmlns:inkscape="http://www.inkscape.org/namespaces/inkscape"
   xmlns:sodipodi="http://sodipodi.sourceforge.net/DTD/sodipodi-0.dtd"
   xmlns="http://www.w3.org/2000/svg"
   xmlns:svg="http://www.w3.org/2000/svg">
  <sodipodi:namedview
     id="namedview7"
     pagecolor="#ffffff"
     bordercolor="#000000"
     borderopacity="0.25"
     inkscape:showpageshadow="2"
     inkscape:pageopacity="0.0"
     inkscape:pagecheckerboard="0"
     inkscape:deskcolor="#d1d1d1"
     inkscape:document-units="px"
     showgrid="false"
     showguides="false"
     inkscape:zoom="16.854167"
     inkscape:cx="23.584672"
     inkscape:cy="24.059332"
     inkscape:window-width="1920"
     inkscape:window-height="1012"
     inkscape:window-x="0"
     inkscape:window-y="0"
     inkscape:window-maximized="1"
     inkscape:current-layer="svg5" />
  <defs
     id="defs2" />
  <path
     id="path1003"
     style="color:#000000;opacity:1;fill:#a0a0a0;fill-opacity:1;stroke:none;stroke-width:3.00014;stroke-linecap:round;stroke-linejoin:round"
     d="M 24.276125,4.065234 A 1.5002114,1.5002114 0 0 0 22.916694,4.8767909 L 17.038036,16.281067 4.3109512,17.902714 A 1.5002114,1.5002114 0 0 0 3.433474,20.445788 l 9.028201,9.116095 -2.390722,12.604032 a 1.5002114,1.5002114 0 0 0 2.147549,1.620184 l 11.461405,-5.768793 11.247529,6.168708 a 1.5002114,1.5002114 0 0 0 2.204683,-1.544006 L 35.186727,29.961801 44.528418,21.16945 A 1.5002114,1.5002114 0 0 0 43.74323,18.597079 L 31.082067,16.52717 25.607722,4.9251325 A 1.5002114,1.5002114 0 0 0 24.276125,4.065234 Z" />
</svg>
