<?xml version="1.0" encoding="UTF-8" standalone="no"?>
<svg
   version="1.1"
   id="Capa_1"
   x="0px"
   y="0px"
   width="446.615px"
   height="446.616px"
   viewBox="0 0 446.615 446.616"
   style="enable-background:new 0 0 446.615 446.616;"
   xml:space="preserve"
   sodipodi:docname="insert_node.svg"
   inkscape:export-filename="../dark/insert_node.png"
   inkscape:export-xdpi="6.878408"
   inkscape:export-ydpi="6.878408"
   inkscape:version="1.2.2 (1:1.2.2+202305151914+b0a8486541)"
   xmlns:inkscape="http://www.inkscape.org/namespaces/inkscape"
   xmlns:sodipodi="http://sodipodi.sourceforge.net/DTD/sodipodi-0.dtd"
   xmlns="http://www.w3.org/2000/svg"
   xmlns:svg="http://www.w3.org/2000/svg"
   xmlns:rdf="http://www.w3.org/1999/02/22-rdf-syntax-ns#"
   xmlns:cc="http://creativecommons.org/ns#"
   xmlns:dc="http://purl.org/dc/elements/1.1/"><metadata
     id="metadata49"><rdf:RDF><cc:Work
         rdf:about=""><dc:format>image/svg+xml</dc:format><dc:type
           rdf:resource="http://purl.org/dc/dcmitype/StillImage" /></cc:Work></rdf:RDF></metadata><defs
     id="defs47" /><sodipodi:namedview
     pagecolor="#ffffff"
     bordercolor="#666666"
     borderopacity="1"
     objecttolerance="10"
     gridtolerance="10"
     guidetolerance="10"
     inkscape:pageopacity="0"
     inkscape:pageshadow="2"
     inkscape:window-width="1540"
     inkscape:window-height="1038"
     id="namedview45"
     showgrid="false"
     inkscape:zoom="1.0568363"
     inkscape:cx="95.568254"
     inkscape:cy="216.21135"
     inkscape:window-x="75"
     inkscape:window-y="240"
     inkscape:window-maximized="0"
     inkscape:current-layer="Capa_1"
     inkscape:showpageshadow="2"
     inkscape:pagecheckerboard="0"
     inkscape:deskcolor="#d1d1d1" /><path
     d="m 191.852,260.427 -60.628,60.62 c -22.054,22.048 -59.52,20.479 -83.508,-3.505 -23.991,-23.998 -25.569,-61.446 -3.51,-83.517 l 68.694,-68.69 c 22.057,-22.057 59.52,-20.479 83.511,3.505 10.214,10.212 16.321,22.859 18.313,35.727 8.889,-0.929 17.271,-4.569 23.795,-11.089 l 2.53,-2.53 c -4.052,-15.396 -12.125,-30.14 -24.37,-42.377 C 181.508,113.4 125.855,111.827 92.623,145.066 l -68.69,68.69 c -33.239,33.229 -31.662,88.889 3.507,124.061 35.168,35.166 90.821,36.739 124.06,3.505 l 68.69,-68.69 c 3.89,-3.888 7.269,-8.116 10.207,-12.563 -12.599,2.589 -25.686,2.645 -38.545,0.358 z"
     id="path2"
     style="fill:#dedede;fill-opacity:1" /><path
     d="m 210.06,27.633 -68.7,68.695 c -3.899,3.901 -7.273,8.13 -10.218,12.578 12.603,-2.581 25.694,-2.66 38.545,-0.359 l 60.642,-60.639 c 22.052,-22.057 59.52,-20.479 83.508,3.509 23.994,23.994 25.571,61.452 3.51,83.508 l -68.689,68.695 c -22.057,22.057 -59.515,20.483 -83.511,-3.51 -10.214,-10.212 -16.321,-22.869 -18.314,-35.731 -8.888,0.92 -17.275,4.583 -23.795,11.094 l -2.527,2.53 c 4.051,15.401 12.123,30.14 24.367,42.381 35.171,35.172 90.824,36.739 124.059,3.51 l 68.685,-68.69 C 370.861,121.965 369.284,66.315 334.117,31.148 298.954,-4.023 243.294,-5.605 210.06,27.633 Z"
     id="path4"
     style="fill:#dedede;fill-opacity:1" /><path
     d="m 347.61471,251.742 c -52.794,0 -95.581,42.797 -95.581,95.582 0,52.789 42.787,95.591 95.581,95.591 52.79,0 95.577,-42.802 95.577,-95.591 0,-52.785 -42.787,-95.582 -95.577,-95.582 z m 56.154,115.276 h -35.348 v 35.503 c 0,11.164 -9.055,20.199 -20.214,20.199 -11.159,0 -20.208,-9.035 -20.208,-20.199 v -35.503 h -35.358 c -11.149,0 -20.198,-9.054 -20.198,-20.208 0,-11.154 9.049,-20.208 20.198,-20.208 h 35.358 v -35.214 c 0,-11.154 9.049,-20.203 20.208,-20.203 11.159,0 20.214,9.049 20.214,20.203 v 35.214 h 35.348 c 11.159,0 20.213,9.054 20.213,20.208 -0.004,11.164 -9.053,20.208 -20.213,20.208 z"
     id="path8"
     style="fill:#dedede;fill-opacity:1;stroke:none;stroke-opacity:1" /><g
     id="g14" /><g
     id="g16" /><g
     id="g18" /><g
     id="g20" /><g
     id="g22" /><g
     id="g24" /><g
     id="g26" /><g
     id="g28" /><g
     id="g30" /><g
     id="g32" /><g
     id="g34" /><g
     id="g36" /><g
     id="g38" /><g
     id="g40" /><g
     id="g42" /></svg>
