<?xml version="1.0" encoding="UTF-8" standalone="no"?>
<!-- Created with Inkscape (http://www.inkscape.org/) -->

<svg
   version="1.1"
   width="32"
   height="32"
   id="svg4644"
   sodipodi:docname="parallel_curve.svg"
   inkscape:version="1.4.2 (1:1.4.2+202505120738+ebf0e940d0)"
   inkscape:export-filename="../dark/parallel_curve@2x.png"
   inkscape:export-xdpi="192"
   inkscape:export-ydpi="192"
   xmlns:inkscape="http://www.inkscape.org/namespaces/inkscape"
   xmlns:sodipodi="http://sodipodi.sourceforge.net/DTD/sodipodi-0.dtd"
   xmlns="http://www.w3.org/2000/svg"
   xmlns:svg="http://www.w3.org/2000/svg"
   xmlns:rdf="http://www.w3.org/1999/02/22-rdf-syntax-ns#"
   xmlns:cc="http://creativecommons.org/ns#"
   xmlns:dc="http://purl.org/dc/elements/1.1/">
  <sodipodi:namedview
     id="namedview1"
     pagecolor="#ffffff"
     bordercolor="#666666"
     borderopacity="1.0"
     inkscape:showpageshadow="2"
     inkscape:pageopacity="0.0"
     inkscape:pagecheckerboard="0"
     inkscape:deskcolor="#d1d1d1"
     inkscape:zoom="12.89365"
     inkscape:cx="48.822482"
     inkscape:cy="22.918258"
     inkscape:window-width="2560"
     inkscape:window-height="1372"
     inkscape:window-x="1920"
     inkscape:window-y="0"
     inkscape:window-maximized="1"
     inkscape:current-layer="svg4644" />
  <defs
     id="defs4646" />
  <metadata
     id="metadata4649">
    <rdf:RDF>
      <cc:Work
         rdf:about="">
        <dc:format>image/svg+xml</dc:format>
        <dc:type
           rdf:resource="http://purl.org/dc/dcmitype/StillImage" />
        <dc:title />
      </cc:Work>
    </rdf:RDF>
  </metadata>
  <g
     id="g1">
    <path
       style="baseline-shift:baseline;display:inline;overflow:visible;fill:none;stroke:#dedede;stroke-width:2;stroke-linecap:butt;stroke-dasharray:none;stroke-opacity:1;enable-background:accumulate;stop-color:#000000"
       d="m 1.1055118,0.23877265 c 0.00819,2.31176265 0.1679866,8.82203985 0.092331,14.53704335 -0.040881,3.088141 -0.24428276,6.590797 0.3481476,9.149584 0.5889064,2.543566 0.9211127,4.279133 3.6512748,6.057022 1.3697305,0.91659 3.2638228,1.098919 5.0212018,0.807524 1.77501,-0.294318 3.076998,-0.88439 4.035439,-1.875884 1.916884,-1.982986 2.929828,-4.316546 3.984375,-6.791015 1.359933,-3.191051 2.73193,-6.67057 3.90206,-9.094606 0.07152,-0.260871 0.283043,0.885044 0.319958,1.465557 0.335843,5.281284 0.724017,13.101287 0.777448,17.321687"
       id="path7" />
    <path
       style="baseline-shift:baseline;display:inline;overflow:visible;fill:none;stroke:#ff0034;stroke-width:2;stroke-linecap:butt;stroke-dasharray:none;stroke-opacity:1;enable-background:accumulate;stop-color:#000000"
       d="M 30.633349,31.855931 C 30.578701,27.539349 31.228305,19.378538 30.279297,13.25 29.804793,10.185731 29.374916,7.5737156 27.71875,5.1191406 26.890667,3.8918531 25.247661,2.3926067 23.013672,2.3320313 20.796683,2.2719168 19.213321,3.4681989 18.085937,4.6660156 14.150858,8.7142733 12.746056,14.605105 10.878906,18.986328 10.229365,20.510461 9.7319337,21.21698 9.2304688,22.015625 9.130136,22.241986 9.0363082,21.626857 8.953125,21.267578 8.5557046,19.551066 8.3063549,17.094066 8.203125,14.513672 7.9966652,9.3528831 8.1406457,3.3295634 8.1299598,0.31227335"
       id="path4652" />
  </g>
</svg>
