<?xml version="1.0" encoding="UTF-8" standalone="no"?>
<!-- Created with Inkscape (http://www.inkscape.org/) -->

<svg
   width="64mm"
   height="64mm"
   viewBox="0 0 226.77165 226.77165"
   id="svg2"
   version="1.1"
   inkscape:version="1.2.2 (1:1.2.2+202305151914+b0a8486541)"
   sodipodi:docname="rotation.svg"
   inkscape:export-filename="../dark/rotation.png"
   inkscape:export-xdpi="12.7"
   inkscape:export-ydpi="12.7"
   xmlns:inkscape="http://www.inkscape.org/namespaces/inkscape"
   xmlns:sodipodi="http://sodipodi.sourceforge.net/DTD/sodipodi-0.dtd"
   xmlns="http://www.w3.org/2000/svg"
   xmlns:svg="http://www.w3.org/2000/svg"
   xmlns:rdf="http://www.w3.org/1999/02/22-rdf-syntax-ns#"
   xmlns:cc="http://creativecommons.org/ns#"
   xmlns:dc="http://purl.org/dc/elements/1.1/">
  <defs
     id="defs4" />
  <sodipodi:namedview
     id="base"
     pagecolor="#ffffff"
     bordercolor="#666666"
     borderopacity="1.0"
     inkscape:pageopacity="0.0"
     inkscape:pageshadow="2"
     inkscape:zoom="2"
     inkscape:cx="95.5"
     inkscape:cy="194.25"
     inkscape:document-units="px"
     inkscape:current-layer="layer1"
     showgrid="false"
     fit-margin-top="0"
     fit-margin-left="0"
     fit-margin-right="0"
     fit-margin-bottom="0"
     inkscape:window-width="1920"
     inkscape:window-height="1172"
     inkscape:window-x="0"
     inkscape:window-y="240"
     inkscape:window-maximized="1"
     inkscape:showpageshadow="2"
     inkscape:pagecheckerboard="0"
     inkscape:deskcolor="#d1d1d1" />
  <metadata
     id="metadata7">
    <rdf:RDF>
      <cc:Work
         rdf:about="">
        <dc:format>image/svg+xml</dc:format>
        <dc:type
           rdf:resource="http://purl.org/dc/dcmitype/StillImage" />
        <dc:title />
      </cc:Work>
    </rdf:RDF>
  </metadata>
  <g
     inkscape:label="Layer 1"
     inkscape:groupmode="layer"
     id="layer1"
     transform="translate(-109.37599,-227.40381)">
    <path
       style="fill:#dedede;stroke-width:1.49694;fill-opacity:1"
       d="m 209.43052,445.542 c -6.61343,-1.41987 -16.60294,-4.67763 -22.19892,-7.23944 -12.2051,-5.58745 -31.60247,-20.24962 -36.11863,-27.3015 -3.21328,-5.01747 -3.18715,-5.13717 2.09559,-9.60034 13.29703,-11.23407 12.67099,-11.17001 22.42493,-2.2947 11.09308,10.09381 27.93891,18.32272 43.1046,21.05588 23.21637,4.18401 48.20111,-4.39847 66.28131,-22.7682 31.53373,-32.03875 31.70069,-81.90719 0.38144,-113.93323 -24.41674,-24.96777 -59.71071,-31.13351 -90.36872,-15.78716 -11.67705,5.84514 -29.99944,22.91225 -29.99944,27.94416 0,2.21715 3.98395,5.21193 12.1075,9.10126 6.65911,3.18825 11.79604,6.75274 11.41538,7.9211 -1.12611,3.45642 -64.40528,41.54691 -66.06017,39.76448 -1.27164,-1.36967 -11.14763,-70.5058 -11.11933,-77.84012 0.006,-1.56143 3.8483,-0.41033 11.05593,3.31219 6.0757,3.1379 12.55768,5.70528 14.40441,5.70528 1.87351,0 6.39829,-4.16691 10.23644,-9.4268 11.92866,-16.3474 30.26486,-29.16608 53.10813,-37.12743 14.08996,-4.91068 45.02737,-4.92654 59.19711,-0.0304 35.6733,12.32639 61.17824,38.76469 71.41505,74.02847 4.9857,17.17468 4.55966,43.67779 -0.98356,61.18576 -16.48314,52.06137 -69.37486,84.28119 -120.37905,73.33075 z"
       id="path3349"
       inkscape:connector-curvature="0" />
    <path
       d="m 254.36773,342.10956 a 24.210905,25.172173 0 0 1 -24.17953,25.17215 24.210905,25.172173 0 0 1 -24.24219,-25.10691 24.210905,25.172173 0 0 1 24.1167,-25.23722 24.210905,25.172173 0 0 1 24.3047,25.0415"
       sodipodi:open="true"
       sodipodi:end="6.2780017"
       sodipodi:start="0"
       sodipodi:ry="25.172173"
       sodipodi:rx="24.210905"
       sodipodi:cy="342.10956"
       sodipodi:cx="230.15683"
       sodipodi:type="arc"
       id="path3357"
       style="fill:#da4d3b;fill-opacity:1;fill-rule:evenodd;stroke:#da4d3b;stroke-width:2.72714;stroke-linecap:round;stroke-linejoin:miter;stroke-miterlimit:4.9;stroke-dasharray:none;stroke-dashoffset:0;stroke-opacity:1"
       sodipodi:arc-type="arc" />
  </g>
</svg>
