<?xml version="1.0" encoding="UTF-8" standalone="no"?>
<!-- Uploaded to: SVG Repo, www.svgrepo.com, Generator: SVG Repo Mixer Tools -->

<svg
   fill="#000000"
   version="1.1"
   id="Capa_1"
   width="800px"
   height="800px"
   viewBox="0 0 592.381 592.381"
   xml:space="preserve"
   sodipodi:docname="expand2.svg"
   inkscape:version="1.3 (1:1.3+202307231459+0e150ed6c4)"
   inkscape:export-filename="../../light/32x32/expand2.png"
   inkscape:export-xdpi="3.8399999"
   inkscape:export-ydpi="3.8399999"
   xmlns:inkscape="http://www.inkscape.org/namespaces/inkscape"
   xmlns:sodipodi="http://sodipodi.sourceforge.net/DTD/sodipodi-0.dtd"
   xmlns="http://www.w3.org/2000/svg"
   xmlns:svg="http://www.w3.org/2000/svg"><defs
   id="defs4">&#10;	&#10;&#10;		&#10;	&#10;			&#10;			&#10;		</defs><sodipodi:namedview
   id="namedview4"
   pagecolor="#ffffff"
   bordercolor="#666666"
   borderopacity="1.0"
   inkscape:showpageshadow="2"
   inkscape:pageopacity="0.0"
   inkscape:pagecheckerboard="0"
   inkscape:deskcolor="#d1d1d1"
   inkscape:zoom="0.58125"
   inkscape:cx="190.96774"
   inkscape:cy="295.91398"
   inkscape:window-width="1920"
   inkscape:window-height="1172"
   inkscape:window-x="0"
   inkscape:window-y="240"
   inkscape:window-maximized="1"
   inkscape:current-layer="Capa_1" />&#10;<path
   d="m 532.93395,591.881 c -0.0506,0 -0.12207,0 -0.17963,0 -0.0189,0 -0.0377,0 -0.0566,0 -2.24489,-0.01 -4.07495,-0.169 -5.25596,-0.287 L 373.82603,576.221 c -11.77232,-1.178 -22.7884,-5.748 -31.8593,-13.217 -8.39902,-6.916 -14.77941,-16.042 -18.45045,-26.394 -3.67103,-10.352 -4.4759,-21.485 -2.32925,-32.199 2.31833,-11.569 7.96532,-22.14 16.33158,-30.568 l 9.2416,-9.312 -217.63507,-219.295 -9.2416,9.312 c -11.28801,11.375 -26.241097,17.639 -42.104253,17.639 -14.258381,0 -28.084058,-5.133 -38.930431,-14.453 C 27.119211,247.652 19.81287,233.528 18.278559,217.963 L 3.0197987,63.157 C 2.9026908,61.971 2.7468778,60.132 2.7369534,57.881 2.6754222,42.574 8.5466953,28.172 19.270006,17.323 29.994309,6.475 44.263607,0.5 59.449918,0.5 h 0.01687 c 0.01092,0 0.02084,0 0.03275,0 2.438425,0.002 4.425289,0.183 5.706529,0.318 L 218.10132,16.987 c 11.73263,1.241 22.69908,5.854 31.71441,13.337 8.35138,6.934 14.68711,16.062 18.31944,26.398 3.63332,10.335 4.41239,21.446 2.25383,32.131 -2.33025,11.534 -7.97028,22.072 -16.31174,30.478 l -8.45558,8.519 217.63705,219.294 8.4546,-8.519 c 11.289,-11.374 26.2411,-17.639 42.10524,-17.639 14.20281,0 27.98581,5.097 38.81134,14.353 11.70484,10.008 19.03996,24.049 20.65366,39.536 l 16.04775,154.067 c 0.13498,1.294 0.31163,3.285 0.3156,5.728 0.0169,15.271 -5.87524,29.635 -16.5926,40.446 -10.71636,10.811 -24.96482,16.765 -40.12037,16.765 z m 14.11448,-58.467 -16.04775,-154.066 c -0.99442,-9.553 -8.94883,-15.521 -17.18111,-15.521 -4.24566,0 -8.56575,1.588 -12.04227,5.091 l -27.78136,27.993 c -2.96541,2.987 -6.85081,4.48 -10.73721,4.48 -3.88639,0 -7.77278,-1.493 -10.7372,-4.48 L 196.23391,138.669 c -5.93082,-5.975 -5.93082,-15.662 0,-21.637 L 224.01428,89.04 C 234.23045,78.746 228.03366,61.114 213.66214,59.594 L 60.760931,43.424 c -0.430719,-0.045 -0.863422,-0.083 -1.296126,-0.083 -0.005,0 -0.01092,0 -0.01687,0 -7.847221,0 -14.227616,6.448 -14.195857,14.363 0.002,0.408 0.03473,0.815 0.07543,1.221 l 15.257767,154.807 c 0.946788,9.602 8.927988,15.617 17.192033,15.617 4.24268,0 8.563762,-1.587 12.04127,-5.092 l 28.568372,-28.786 c 2.96442,-2.988 6.85081,-4.481 10.73621,-4.481 3.8864,0 7.7718,1.494 10.73721,4.481 l 256.28762,258.241 c 5.92983,5.976 5.92983,15.663 0,21.638 l -28.56837,28.786 c -10.24892,10.326 -3.97671,28.012 10.44543,29.455 l 153.63958,15.374 c 0.40194,0.04 0.80686,0.074 1.21177,0.076 0.0199,0 0.0397,0 0.0586,0 7.83432,0 14.20479,-6.426 14.19585,-14.321 -9.9e-4,-0.437 -0.0377,-0.872 -0.0824,-1.306 z"
   id="path1"
   style="fill:#000000;fill-opacity:1;stroke:#000000;stroke-width:0.996213;stroke-opacity:1" /><path
   d="m 532.69676,592.381 h 0.23819 c 15.28754,0 29.66005,-6.006 40.47169,-16.911 10.80965,-10.906 16.75337,-25.396 16.7365,-40.801 -0.003,-2.474 -0.1836,-4.482 -0.31857,-5.778 L 573.77781,374.823 c -1.62661,-15.616 -9.02227,-29.774 -20.82536,-39.865 -10.91485,-9.332 -24.81198,-14.472 -39.13288,-14.472 -15.99615,0 -31.07428,6.316 -42.45657,17.785 l -8.10427,8.165 -216.93441,-218.586 8.10427,-8.166 c 8.41092,-8.475 14.0976,-19.102 16.44671,-30.731 2.17542,-10.774 1.38941,-21.978 -2.27269,-32.398 -3.6621,-10.42 -10.04944,-19.624 -18.47129,-26.617 -9.09174,-7.547 -20.1495,-12.198 -31.97938,-13.449 L 65.256683,0.321 C 63.965519,0.184 61.963768,0.002 59.498548,0 44.13062,0 29.736275,6.027 18.91769,16.971 8.1020823,27.914 2.1782099,42.444 2.2397411,57.884 c 0.00992,2.285 0.1677223,4.132 0.2848302,5.324 L 17.783331,218.014 c 1.548206,15.694 8.913101,29.936 20.741989,40.102 10.936686,9.397 24.875501,14.572 39.251982,14.572 15.99515,0 31.073288,-6.316 42.454588,-17.786 l 8.89126,-8.959 216.9364,218.587 -8.89127,8.959 c -8.43474,8.498 -14.12837,19.156 -16.46656,30.823 -2.16451,10.803 -1.35269,22.029 2.34911,32.466 3.7018,10.437 10.1338,19.64 18.60328,26.612 9.14632,7.531 20.2547,12.141 32.12428,13.328 l 153.61477,15.373 c 1.19589,0.12 3.04679,0.28 5.3036,0.29 z M 513.81957,321.486 c 14.08569,0 27.75456,5.055 38.49078,14.233 11.60658,9.925 18.88017,23.849 20.48097,39.207 l 16.04676,154.068 c 0.132,1.274 0.30964,3.249 0.31262,5.677 0.0169,15.137 -5.82463,29.375 -16.44671,40.092 -10.62407,10.717 -24.74748,16.618 -39.76904,16.618 h -0.17963 l -0.0566,0.5 0.002,-0.5 c -2.21413,-0.01 -4.03327,-0.167 -5.20931,-0.284 L 373.87565,575.724 c -11.67407,-1.168 -22.59885,-5.7 -31.59432,-13.106 -8.32955,-6.858 -14.65635,-15.91 -18.29761,-26.175 -3.64027,-10.266 -4.43918,-21.308 -2.3104,-31.933 2.29948,-11.473 7.89982,-21.955 16.19562,-30.313 l 9.59293,-9.666 -218.33673,-220.002 -9.59292,9.666 c -11.19472,11.28 -26.022764,17.493 -41.752933,17.493 -14.139288,0 -27.850835,-5.09 -38.607888,-14.333 -11.632386,-9.998 -18.877195,-24.004 -20.398605,-39.44 L 3.5140337,63.109 C 3.3989107,61.938 3.2440901,60.122 3.2341657,57.88 3.1736269,42.708 8.9942856,28.43 19.623314,17.677 30.252343,6.923 44.396594,1 59.449918,1 c 2.466213,0.002 4.434221,0.181 5.703551,0.315 L 218.04972,17.484 c 11.63437,1.231 22.51051,5.805 31.44942,13.226 8.28389,6.877 14.56604,15.93 18.1676,26.179 3.60355,10.25 4.37666,21.268 2.23597,31.865 -2.30941,11.436 -7.90379,21.888 -16.17578,30.224 l -8.80592,8.873 218.33772,220 8.80592,-8.872 c 11.19571,-11.281 26.02375,-17.493 41.75492,-17.493 z m 19.05385,228.055 c 3.98266,0 7.67255,-1.544 10.45138,-4.347 2.77883,-2.803 4.30619,-6.523 4.30123,-10.476 0,-0.479 -0.0427,-0.954 -0.0854,-1.356 l -16.0477,-154.066 c -0.94778,-9.104 -8.5449,-15.969 -17.67237,-15.969 -4.64065,0 -9.04311,1.86 -12.39557,5.237 l -27.78137,27.993 c -2.77387,2.795 -6.46276,4.334 -10.38588,4.334 -3.9241,0 -7.61201,-1.539 -10.38687,-4.334 L 196.58325,138.315 c -2.77486,-2.795 -4.30223,-6.512 -4.30223,-10.465 0,-3.953 1.52737,-7.67 4.30223,-10.465 l 27.78037,-27.993 c 4.86295,-4.9 6.4578,-12.002 4.16031,-18.534 -2.29552,-6.532 -7.97128,-11.039 -14.81217,-11.763 L 60.810553,42.926 C 60.384797,42.881 59.92629,42.84 59.464805,42.84 c -3.947925,0 -7.642778,1.549 -10.423594,4.362 -2.779823,2.812 -4.302226,6.543 -4.285354,10.503 0.002,0.424 0.03573,0.848 0.0784,1.269 l 15.25876,154.806 c 1.028168,10.436 9.879737,16.067 17.685275,16.067 4.639656,0 9.040133,-1.86 12.391602,-5.238 l 28.568366,-28.786 c 2.77387,-2.795 6.46277,-4.335 10.38589,-4.335 3.92311,0 7.61201,1.54 10.38687,4.335 l 256.28762,258.241 c 2.77387,2.796 4.30223,6.513 4.30223,10.466 0,3.953 -1.52836,7.67 -4.30223,10.465 l -28.56837,28.786 c -4.87883,4.915 -6.46674,12.034 -4.14542,18.58 2.32132,6.546 8.02785,11.039 14.89255,11.726 l 153.6376,15.375 c 0.41782,0.042 0.83861,0.077 1.25842,0.079 z M 513.82155,364.327 c 7.32718,0 15.66566,5.282 16.6849,15.072 l 16.04874,154.067 c 0.0387,0.377 0.0794,0.821 0.0794,1.255 0.004,3.685 -1.42018,7.153 -4.01144,9.767 -2.59126,2.614 -6.03205,4.054 -9.68819,4.054 -0.44462,-0.002 -0.83465,-0.035 -1.2207,-0.074 L 378.07764,533.093 c -6.47865,-0.648 -11.86561,-4.889 -14.05593,-11.066 -2.1913,-6.179 -0.69173,-12.898 3.9122,-17.537 l 28.56837,-28.786 c 2.96144,-2.984 4.59301,-6.951 4.59301,-11.172 0,-4.221 -1.63157,-8.188 -4.59301,-11.173 L 140.21466,195.118 c -2.96144,-2.984 -6.90043,-4.628 -11.08853,-4.628 -4.18909,0 -8.1261,1.644 -11.08754,4.628 l -28.568364,28.786 c -3.163898,3.189 -7.316265,4.945 -11.689947,4.945 -7.369857,0 -15.727191,-5.315 -16.69879,-15.166 L 45.824714,58.876 c -0.0397,-0.391 -0.07146,-0.782 -0.07344,-1.174 -0.01489,-3.692 1.404302,-7.17 3.996554,-9.793 2.592253,-2.623 6.038003,-4.068 9.70209,-4.068 0.434689,0 0.861438,0.039 1.261391,0.081 L 213.61153,60.091 c 6.45582,0.683 11.81201,4.937 13.9795,11.102 2.16749,6.166 0.66295,12.869 -3.92708,17.494 l -27.78037,27.993 c -2.96144,2.984 -4.59301,6.952 -4.59301,11.172 0,4.22 1.63157,8.188 4.59301,11.172 L 452.1712,397.266 c 2.96144,2.983 6.89944,4.627 11.08853,4.627 4.18809,0 8.12609,-1.644 11.08753,-4.627 l 27.78137,-27.993 c 3.16489,-3.188 7.31725,-4.944 11.69193,-4.944 h 9.9e-4 z"
   id="path2"
   style="stroke-width:0.996213" />&#10;<path
   id="path4"
   style="opacity:1;fill:#000000;fill-opacity:1;stroke:#000000;stroke-width:8.43963;stroke-opacity:1"
   d="m 62.308398,45.503133 c 10.531919,0.164293 31.313754,2.476253 75.211602,7.134316 77.36426,8.209228 80.15775,8.597319 84.20813,11.710227 5.16267,3.967756 7.13654,10.203688 5.32356,16.819798 -0.96268,3.513109 -5.68236,9.221114 -18.33463,22.173796 -14.86731,15.22031 -17.12425,18.08134 -17.70597,22.45147 -0.42954,3.22683 0.0284,6.32865 1.28604,8.7194 3.337,6.34376 262.73512,266.51941 266.6832,267.48258 7.80281,1.90358 11.08969,-0.06 26.87903,-16.05619 8.33239,-8.44154 17.03225,-16.53394 19.33217,-17.98258 8.00011,-5.03895 18.39265,-2.4382 22.53865,5.64035 1.33393,2.59919 4.46333,27.84946 10.03998,81.0243 4.45574,42.48659 8.10505,78.88278 8.11093,80.87967 0.007,2.43966 -1.39879,5.0511 -4.28726,7.96157 -2.62847,2.64849 -5.54481,4.3315 -7.50523,4.3315 -1.76336,0 -37.80491,-3.43123 -80.09309,-7.62459 -51.47914,-5.10474 -78.24903,-8.25662 -81.00595,-9.53797 -5.17031,-2.40305 -9.14708,-8.83907 -9.15296,-14.81387 -0.006,-5.95869 3.75255,-10.99728 20.81054,-27.89946 17.51757,-17.35757 19.77555,-21.83062 15.30182,-30.31903 -0.99717,-1.89205 -60.59332,-62.59772 -132.43592,-134.90118 -89.33308,-89.90618 -131.72601,-131.72948 -134.1095,-132.31096 -7.76808,-1.89512 -11.11548,0.0805 -26.24893,15.49215 -18.109763,18.44271 -22.960244,22.15802 -28.928637,22.1521 -5.634736,-0.006 -12.045929,-3.80591 -14.505228,-8.59792 -1.259882,-2.45488 -4.402411,-29.53154 -9.770151,-84.16264 l -7.914291,-80.542701 2.56346,-3.476767 c 2.895228,-3.928116 3.176723,-5.911661 13.708635,-5.747369 z" /></svg>
