<?xml version="1.0" encoding="UTF-8" standalone="no"?>
<!-- Uploaded to: SVG Repo, www.svgrepo.com, Generator: SVG Repo Mixer Tools -->

<svg
   fill="#000000"
   width="800px"
   height="800px"
   viewBox="-6 -2 24 24"
   preserveAspectRatio="xMinYMin"
   class="jam jam-padlock-alt-f"
   version="1.1"
   id="svg1"
   sodipodi:docname="hold_image.svg"
   inkscape:export-filename="../../light/16x16/hold_image@2x.png"
   inkscape:export-xdpi="3.8399999"
   inkscape:export-ydpi="3.8399999"
   inkscape:version="1.3 (1:1.3+202307231459+0e150ed6c4)"
   xmlns:inkscape="http://www.inkscape.org/namespaces/inkscape"
   xmlns:sodipodi="http://sodipodi.sourceforge.net/DTD/sodipodi-0.dtd"
   xmlns="http://www.w3.org/2000/svg"
   xmlns:svg="http://www.w3.org/2000/svg">
  <defs
     id="defs1" />
  <sodipodi:namedview
     id="namedview1"
     pagecolor="#ffffff"
     bordercolor="#666666"
     borderopacity="1.0"
     inkscape:showpageshadow="2"
     inkscape:pageopacity="0.0"
     inkscape:pagecheckerboard="0"
     inkscape:deskcolor="#d1d1d1"
     inkscape:zoom="1.4125"
     inkscape:cx="400"
     inkscape:cy="400"
     inkscape:window-width="2560"
     inkscape:window-height="1372"
     inkscape:window-x="1920"
     inkscape:window-y="0"
     inkscape:window-maximized="1"
     inkscape:current-layer="svg1" />
  <path
     d="M2 9.528V4a4 4 0 1 1 8 0v5.528a6 6 0 1 1-8 0zM4 8.34A5.99 5.99 0 0 1 6 8c.701 0 1.374.12 2 .341V4a2 2 0 1 0-4 0v4.341zM6 16a2 2 0 1 0 0-4 2 2 0 0 0 0 4z"
     id="path1" />
</svg>
