<?xml version="1.0" encoding="UTF-8" standalone="no"?>
<!-- Uploaded to: SVG Repo, www.svgrepo.com, Generator: SVG Repo Mixer Tools -->

<svg
   width="800px"
   height="800px"
   viewBox="0 0 20 20"
   fill="none"
   version="1.1"
   id="svg1"
   sodipodi:docname="open_eye.svg"
   inkscape:export-filename="../../light/16x16/open_eye@2x.png"
   inkscape:export-xdpi="3.8399999"
   inkscape:export-ydpi="3.8399999"
   inkscape:version="1.3 (1:1.3+202307231459+0e150ed6c4)"
   xmlns:inkscape="http://www.inkscape.org/namespaces/inkscape"
   xmlns:sodipodi="http://sodipodi.sourceforge.net/DTD/sodipodi-0.dtd"
   xmlns="http://www.w3.org/2000/svg"
   xmlns:svg="http://www.w3.org/2000/svg">
  <defs
     id="defs1" />
  <sodipodi:namedview
     id="namedview1"
     pagecolor="#ffffff"
     bordercolor="#666666"
     borderopacity="1.0"
     inkscape:showpageshadow="2"
     inkscape:pageopacity="0.0"
     inkscape:pagecheckerboard="0"
     inkscape:deskcolor="#d1d1d1"
     inkscape:zoom="1.4125"
     inkscape:cx="400"
     inkscape:cy="400"
     inkscape:window-width="2560"
     inkscape:window-height="1372"
     inkscape:window-x="1920"
     inkscape:window-y="0"
     inkscape:window-maximized="1"
     inkscape:current-layer="svg1" />
  <path
     fill="#000000"
     fill-rule="evenodd"
     d="M3.415 10.242c-.067-.086-.13-.167-.186-.242a16.806 16.806 0 011.803-2.025C6.429 6.648 8.187 5.5 10 5.5c1.813 0 3.57 1.148 4.968 2.475A16.816 16.816 0 0116.771 10a16.9 16.9 0 01-1.803 2.025C13.57 13.352 11.813 14.5 10 14.5c-1.813 0-3.57-1.148-4.968-2.475a16.799 16.799 0 01-1.617-1.783zm15.423-.788L18 10l.838.546-.002.003-.003.004-.01.016-.037.054a17.123 17.123 0 01-.628.854 18.805 18.805 0 01-1.812 1.998C14.848 14.898 12.606 16.5 10 16.5s-4.848-1.602-6.346-3.025a18.806 18.806 0 01-2.44-2.852 6.01 6.01 0 01-.037-.054l-.01-.016-.003-.004-.001-.002c0-.001-.001-.001.837-.547l-.838-.546.002-.003.003-.004.01-.016a6.84 6.84 0 01.17-.245 18.804 18.804 0 012.308-2.66C5.151 5.1 7.394 3.499 10 3.499s4.848 1.602 6.346 3.025a18.803 18.803 0 012.44 2.852l.037.054.01.016.003.004.001.002zM18 10l.838-.546.355.546-.355.546L18 10zM1.162 9.454L2 10l-.838.546L.807 10l.355-.546zM9 10a1 1 0 112 0 1 1 0 01-2 0zm1-3a3 3 0 100 6 3 3 0 000-6z"
     id="path1" />
</svg>
