<?xml version="1.0" encoding="UTF-8" standalone="no"?>
<!-- Uploaded to: SVG Repo, www.svgrepo.com, Transformed by: SVG Repo Mixer Tools -->

<svg
   width="800px"
   height="800px"
   viewBox="-1.8 -1.8 21.60 21.60"
   id="meteor-icon-kit__solid-long-arrow-down-right-s"
   fill="none"
   version="1.1"
   sodipodi:docname="put_after.svg"
   inkscape:export-filename="../../light/32x32/put_after@2x.png"
   inkscape:export-xdpi="7.6799998"
   inkscape:export-ydpi="7.6799998"
   inkscape:version="1.3 (1:1.3+202307231459+0e150ed6c4)"
   xmlns:inkscape="http://www.inkscape.org/namespaces/inkscape"
   xmlns:sodipodi="http://sodipodi.sourceforge.net/DTD/sodipodi-0.dtd"
   xmlns="http://www.w3.org/2000/svg"
   xmlns:svg="http://www.w3.org/2000/svg">
  <defs
     id="defs1" />
  <sodipodi:namedview
     id="namedview1"
     pagecolor="#ffffff"
     bordercolor="#666666"
     borderopacity="1.0"
     inkscape:showpageshadow="2"
     inkscape:pageopacity="0.0"
     inkscape:pagecheckerboard="0"
     inkscape:deskcolor="#d1d1d1"
     inkscape:zoom="1.4125"
     inkscape:cx="400"
     inkscape:cy="400"
     inkscape:window-width="2560"
     inkscape:window-height="1372"
     inkscape:window-x="1920"
     inkscape:window-y="0"
     inkscape:window-maximized="1"
     inkscape:current-layer="meteor-icon-kit__solid-long-arrow-down-right-s" />
  <g
     id="SVGRepo_bgCarrier"
     stroke-width="0" />
  <g
     id="SVGRepo_tracerCarrier"
     stroke-linecap="round"
     stroke-linejoin="round"
     stroke="#CCCCCC"
     stroke-width="0.288" />
  <g
     id="SVGRepo_iconCarrier">
    <path
       fill-rule="evenodd"
       clip-rule="evenodd"
       d="M12.3787 13.5H7C3.41015 13.5 0.5 10.5899 0.5 7V2C0.5 1.17157 1.17157 0.5 2 0.5C2.82843 0.5 3.5 1.17157 3.5 2V7C3.5 8.933 5.067 10.5 7 10.5H12.3787L10.9393 9.0607C10.3536 8.4749 10.3536 7.5251 10.9393 6.93934C11.5251 6.35355 12.4749 6.35355 13.0607 6.93934L17.0607 10.9393C17.6464 11.5251 17.6464 12.4749 17.0607 13.0607L13.0607 17.0607C12.4749 17.6464 11.5251 17.6464 10.9393 17.0607C10.3536 16.4749 10.3536 15.5251 10.9393 14.9393L12.3787 13.5z"
       fill="#000000"
       id="path1" />
  </g>
</svg>
