<?xml version="1.0" encoding="UTF-8" standalone="no"?>
<svg
   viewBox="0 0 16 16"
   version="1.1"
   id="svg1"
   sodipodi:docname="remove-image.svg"
   inkscape:version="1.3 (1:1.3+202307231459+0e150ed6c4)"
   inkscape:export-filename="../../16x16/remove-image@2x.png"
   inkscape:export-xdpi="256"
   inkscape:export-ydpi="256"
   xmlns:inkscape="http://www.inkscape.org/namespaces/inkscape"
   xmlns:sodipodi="http://sodipodi.sourceforge.net/DTD/sodipodi-0.dtd"
   xmlns="http://www.w3.org/2000/svg"
   xmlns:svg="http://www.w3.org/2000/svg">
  <sodipodi:namedview
     id="namedview1"
     pagecolor="#ffffff"
     bordercolor="#666666"
     borderopacity="1.0"
     inkscape:showpageshadow="2"
     inkscape:pageopacity="0.0"
     inkscape:pagecheckerboard="0"
     inkscape:deskcolor="#d1d1d1"
     inkscape:zoom="141.25"
     inkscape:cx="10.520354"
     inkscape:cy="11.716814"
     inkscape:window-width="2560"
     inkscape:window-height="1372"
     inkscape:window-x="1920"
     inkscape:window-y="0"
     inkscape:window-maximized="1"
     inkscape:current-layer="svg1" />
  <defs
     id="defs3051">
    <style
       type="text/css"
       id="current-color-scheme">&#10;      .ColorScheme-Text {&#10;        color:#363636;&#10;      }&#10;      </style>
  </defs>
  <path
     style="fill:currentColor;fill-opacity:1;stroke:none"
     d="M 2,2 V 13.28125 14 H 8 V 10 L 7.65625,10.34375 6.3125,9 H 6.28125 L 3,12.28125 V 3 h 10 v 5 h 1 V 2 Z M 6,4 C 4.8954305,4 4,4.8954305 4,6 4,7.1045695 4.8954305,8 6,8 7.1045695,8 8,7.1045695 8,6 8,4.8954305 7.1045695,4 6,4 Z"
     class="ColorScheme-Text"
     id="path1"
     sodipodi:nodetypes="cccccccccccccccsssss" />
  <path
     class="ColorScheme-NegativeText"
     d="m 11.448303,8.9553525 c -1.391098,0 -2.5188038,1.1277065 -2.5188038,2.5188065 0,1.391101 1.1277058,2.518807 2.5188038,2.518807 1.391101,0 2.518807,-1.127706 2.518807,-2.518807 0,-1.3911 -1.127706,-2.5188065 -2.518807,-2.5188065 z m -1.19895,0.7196589 1.19895,1.1989516 1.198952,-1.1989516 0.600181,0.6001816 -1.198951,1.198952 1.198951,1.198952 -0.600181,0.600181 -1.198952,-1.198952 -1.19895,1.198952 -0.6001808,-0.600181 1.1989508,-1.198952 -1.1989508,-1.198952 z"
     fill="currentColor"
     id="path2"
     style="color:#da4453;stroke-width:0.719659" />
</svg>
