<?xml version="1.0" encoding="UTF-8" standalone="no"?>
<!-- Created with Inkscape (http://www.inkscape.org/) -->

<svg
   width="16"
   height="16"
   viewBox="0 0 16 16.000001"
   version="1.1"
   id="svg5"
   inkscape:version="1.2.1 (9c6d41e410, 2022-07-14, custom)"
   sodipodi:docname="emblem-favorite-symbolic.svg"
   xmlns:inkscape="http://www.inkscape.org/namespaces/inkscape"
   xmlns:sodipodi="http://sodipodi.sourceforge.net/DTD/sodipodi-0.dtd"
   xmlns="http://www.w3.org/2000/svg"
   xmlns:svg="http://www.w3.org/2000/svg">
  <sodipodi:namedview
     id="namedview7"
     pagecolor="#ffffff"
     bordercolor="#000000"
     borderopacity="0.25"
     inkscape:showpageshadow="2"
     inkscape:pageopacity="0.0"
     inkscape:pagecheckerboard="0"
     inkscape:deskcolor="#d1d1d1"
     inkscape:document-units="px"
     showgrid="false"
     inkscape:zoom="50.3125"
     inkscape:cx="6.9267081"
     inkscape:cy="8.0099379"
     inkscape:window-width="1920"
     inkscape:window-height="1012"
     inkscape:window-x="0"
     inkscape:window-y="0"
     inkscape:window-maximized="1"
     inkscape:current-layer="svg5" />
  <defs
     id="defs2" />
  <path
     d="m 5.0000006,2.0000849 c -2.196,-0.00297 -3.9965,1.7657 -4,3.9455 -5.8441e-4,1.0244 0.43313,1.9859 1.1484,2.7169 0.026458,0.059481 0.064275,0.11322 0.11133,0.15821 l 0.00586,0.00586 5.3086,5.0354001 c 0.19073,0.18174 0.48975,0.18433 0.68359,0.0059 L 13.734381,8.8265549 v -0.00195 c 0.75694,-0.69763 1.1727,-1.6669 1.2246,-2.6857 0.0052,-0.16958 -9.67e-4,-0.26283 -0.002,-0.3926 -0.1146,-2.0823 -1.8336,-3.7496 -3.959,-3.7463 -1.2340004,0 -2.2652004,0.62622 -3.0000004,1.5001 -0.75414,-0.89289 -1.8019,-1.5005 -2.996,-1.5001 z m 0,1.0001 c 1.0548,-9.058e-4 2.0315,0.54323 2.5742,1.4317 0.19529,0.31712 0.65627,0.31712 0.85156,0 0.52277,-0.85596 1.4747,-1.4317 2.5723004,-1.4317 6.67e-4,1.3e-6 0.0013,1.3e-6 0.002,0 1.6625,-0.00262 2.9954,1.3143 2.998,2.9474 v 0.00195 c -6e-4,0.81051 -0.33949,1.586 -0.94141,2.1407 l -5.1329004,4.7249001 -4.9609,-4.7053001 -0.011719,-0.013672 c -0.0013,-6.557e-4 -0.0026,-0.00131 -0.00391,-0.00195 -0.0013,-0.00131 -0.0026,-0.00261 -0.00391,-0.00391 -0.60287,-0.55523 -0.94329,-1.3311 -0.94335,-2.1427 v -0.00195 c 0.00369,-1.6325 1.3378,-2.9485 3,-2.9455 z"
     style="color:#000000;font-variant-ligatures:normal;font-variant-position:normal;font-variant-caps:normal;font-variant-numeric:normal;font-variant-alternates:normal;font-variant-east-asian:normal;font-feature-settings:normal;font-variation-settings:normal;text-indent:0;text-decoration-line:none;text-decoration-style:solid;text-decoration-color:#000000;text-transform:none;text-orientation:mixed;dominant-baseline:auto;white-space:normal;shape-padding:0;shape-margin:0;inline-size:0;isolation:auto;mix-blend-mode:normal;solid-color:#000000;fill:#363636;color-rendering:auto;image-rendering:auto;shape-rendering:auto;stop-color:#000000"
     id="path8015" />
</svg>
