<?xml version="1.0" encoding="UTF-8" standalone="no"?>
<!-- Created with Inkscape (http://www.inkscape.org/) -->

<svg
   width="22"
   height="22"
   viewBox="0 0 22 22.000001"
   version="1.1"
   id="svg5"
   inkscape:version="1.2.1 (9c6d41e410, 2022-07-14, custom)"
   sodipodi:docname="rating-unrated.svg"
   xmlns:inkscape="http://www.inkscape.org/namespaces/inkscape"
   xmlns:sodipodi="http://sodipodi.sourceforge.net/DTD/sodipodi-0.dtd"
   xmlns="http://www.w3.org/2000/svg"
   xmlns:svg="http://www.w3.org/2000/svg">
  <sodipodi:namedview
     id="namedview7"
     pagecolor="#ffffff"
     bordercolor="#000000"
     borderopacity="0.25"
     inkscape:showpageshadow="2"
     inkscape:pageopacity="0.0"
     inkscape:pagecheckerboard="0"
     inkscape:deskcolor="#d1d1d1"
     inkscape:document-units="px"
     showgrid="false"
     showguides="false"
     inkscape:zoom="36.772727"
     inkscape:cx="10.809642"
     inkscape:cy="11.027194"
     inkscape:window-width="1920"
     inkscape:window-height="1012"
     inkscape:window-x="0"
     inkscape:window-y="0"
     inkscape:window-maximized="1"
     inkscape:current-layer="svg5" />
  <defs
     id="defs2" />
  <path
     id="path1003"
     style="color:#000000;opacity:1;fill:#a0a0a0;fill-opacity:1;stroke:none;stroke-width:1.42864;stroke-linecap:round;stroke-linejoin:round"
     d="M 11.131488,1.0651114 A 0.71438639,0.71438639 0 0 0 10.48414,1.4515671 L 7.6847789,6.8821747 1.6242624,7.6543877 A 0.71438639,0.71438639 0 0 0 1.2064161,8.8653752 l 4.2991436,4.3409978 -1.1384395,6.00192 a 0.71438639,0.71438639 0 0 0 1.0226426,0.771516 l 5.4578122,-2.747044 5.355966,2.93748 A 0.71438639,0.71438639 0 0 0 17.25339,19.435004 L 16.327013,13.39681 20.775437,9.209976 A 0.71438639,0.71438639 0 0 0 20.401538,7.9850377 L 14.372413,6.9993666 11.765582,1.4745869 A 0.71438639,0.71438639 0 0 0 11.131488,1.0651114 Z" />
</svg>
