<?xml version="1.0" encoding="UTF-8" standalone="no"?>
<!-- Created with Inkscape (http://www.inkscape.org/) -->

<svg
   width="16"
   height="16"
   viewBox="0 0 16 16"
   version="1.1"
   id="svg358"
   inkscape:version="1.2.1 (9c6d41e410, 2022-07-14, custom)"
   sodipodi:docname="network-wired-symbolic.svg"
   xmlns:inkscape="http://www.inkscape.org/namespaces/inkscape"
   xmlns:sodipodi="http://sodipodi.sourceforge.net/DTD/sodipodi-0.dtd"
   xmlns="http://www.w3.org/2000/svg"
   xmlns:svg="http://www.w3.org/2000/svg">
  <sodipodi:namedview
     id="namedview360"
     pagecolor="#ffffff"
     bordercolor="#000000"
     borderopacity="0.25"
     inkscape:showpageshadow="2"
     inkscape:pageopacity="0.0"
     inkscape:pagecheckerboard="0"
     inkscape:deskcolor="#d1d1d1"
     inkscape:document-units="px"
     showgrid="false"
     inkscape:zoom="50.3125"
     inkscape:cx="7.9900621"
     inkscape:cy="8"
     inkscape:window-width="1920"
     inkscape:window-height="1007"
     inkscape:window-x="0"
     inkscape:window-y="0"
     inkscape:window-maximized="1"
     inkscape:current-layer="svg358" />
  <defs
     id="defs355" />
  <path
     d="m 12,0 c -0.554,0 -1,0.446 -1,1 v 5 c 0,0.5540001 0.446,1 1,1 h 1 v 9 h 1 V 7 h 1 c 0.554,0 1,-0.4459999 1,-1 V 1 C 16,0.446 15.554,0 15,0 Z M 2,1 C 0.8919999,1 0,1.892 0,3 v 8 c 0,1.108 0.8919999,2 2,2 h 4 v 2 H 4 v 1 h 8 v -1 h -2 v -2 h 2 V 12 H 2 C 1.446,12 1,11.554 1,11 V 3 C 1,2.446 1.446,2 2,2 h 8 V 1 Z m 10,0 h 3 v 1 h -3 z m 0,2 h 3 V 6 H 12 Z M 7,13 h 2 v 2 H 7 Z"
     style="color:#f2f2f2;fill:#363636;fill-opacity:1;stroke-width:3.99999;stroke-linecap:round;stroke-linejoin:round"
     id="path293" />
</svg>
