<?xml version="1.0" encoding="UTF-8" standalone="no"?>
<!-- Created with Inkscape (http://www.inkscape.org/) -->

<svg
   width="16"
   height="16"
   viewBox="0 0 16 16"
   version="1.1"
   id="svg5"
   sodipodi:docname="notification-new-symbolic.svg"
   inkscape:version="1.2.1 (9c6d41e410, 2022-07-14, custom)"
   xmlns:inkscape="http://www.inkscape.org/namespaces/inkscape"
   xmlns:sodipodi="http://sodipodi.sourceforge.net/DTD/sodipodi-0.dtd"
   xmlns="http://www.w3.org/2000/svg"
   xmlns:svg="http://www.w3.org/2000/svg">
  <sodipodi:namedview
     id="namedview7"
     pagecolor="#ffffff"
     bordercolor="#000000"
     borderopacity="0.25"
     inkscape:showpageshadow="2"
     inkscape:pageopacity="0.0"
     inkscape:pagecheckerboard="0"
     inkscape:deskcolor="#d1d1d1"
     inkscape:document-units="px"
     showgrid="false"
     inkscape:zoom="50.5625"
     inkscape:cx="8"
     inkscape:cy="8"
     inkscape:window-width="1920"
     inkscape:window-height="1012"
     inkscape:window-x="0"
     inkscape:window-y="0"
     inkscape:window-maximized="1"
     inkscape:current-layer="svg5"
     showguides="false" />
  <defs
     id="defs2" />
  <path
     id="path976"
     style="color:#000000;fill:#363636;fill-opacity:1;stroke:none;stroke-width:2;stroke-linecap:round"
     d="M 7.9941406 1 C 4.7675601 1 2.1225995 3.4512776 2 6.5683594 L 1.9960938 6.7929688 L 1.9960938 10.400391 L 1.0722656 12.617188 L 1.0292969 12.744141 L 1.0078125 12.871094 C 0.95741265 13.334588 1.2005505 13.752858 1.6113281 13.923828 L 1.7363281 13.966797 C 1.8208988 13.989594 1.9081438 14 1.9960938 14 L 5 14 C 5.348906 15.113461 6.1227727 16.002544 8 16 C 9.8772275 16.0025 10.651093 15.113461 11 14 L 13.998047 14 L 14.132812 13.990234 L 14.248047 13.962891 C 14.700741 13.833891 14.998047 13.448 14.998047 13 L 14.988281 12.869141 L 14.974609 12.783203 C 14.961909 12.726303 14.944475 12.671283 14.921875 12.617188 L 13.996094 10.398438 L 13.996094 6.8671875 A 4 4 0 0 1 13 7 A 4 4 0 0 1 12.996094 7 L 12.996094 10.599609 L 13.994141 12.988281 L 13.994141 12.994141 L 13.994141 12.996094 L 13.990234 12.996094 L 2 13 L 1.9980469 13 L 1.9960938 13 C 1.9976337 12.9974 1.9998631 12.997696 2.0019531 12.978516 L 2.0019531 12.988281 L 2.0078125 12.96875 L 2.9960938 10.599609 L 2.9960938 6.8007812 L 3 6.6074219 C 3.1012108 4.0341426 5.2740298 2 7.9941406 2 C 8.3787301 2 8.7509612 2.0418378 9.109375 2.1191406 A 4 4 0 0 1 9.4511719 1.171875 C 8.98414 1.059625 8.4967185 1 7.9941406 1 z M 6 14 L 10 14 C 9.7249804 14.473148 9.262901 15.0019 8 15 C 6.7370992 15.0019 6.2750198 14.473148 6 14 z " />
  <circle
     style="fill:#3daee9;fill-opacity:1;stroke-width:3;stroke-linecap:round;stroke-linejoin:round"
     id="path285"
     cx="13"
     cy="3"
     r="3" />
</svg>
