<?xml version="1.0" encoding="UTF-8" standalone="no"?>
<!-- Created with Inkscape (http://www.inkscape.org/) -->

<svg
   width="16"
   height="16"
   viewBox="0 0 16 16"
   version="1.1"
   id="svg1183"
   inkscape:version="1.2.1 (9c6d41e410, 2022-07-14, custom)"
   sodipodi:docname="start-here-symbolic.svg"
   xmlns:inkscape="http://www.inkscape.org/namespaces/inkscape"
   xmlns:sodipodi="http://sodipodi.sourceforge.net/DTD/sodipodi-0.dtd"
   xmlns="http://www.w3.org/2000/svg"
   xmlns:svg="http://www.w3.org/2000/svg">
  <sodipodi:namedview
     id="namedview1185"
     pagecolor="#ffffff"
     bordercolor="#666666"
     borderopacity="1.0"
     inkscape:pageshadow="2"
     inkscape:pageopacity="0.0"
     inkscape:pagecheckerboard="0"
     inkscape:document-units="px"
     showgrid="false"
     units="px"
     inkscape:zoom="51.875"
     inkscape:cx="7.9903614"
     inkscape:cy="8"
     inkscape:window-width="1920"
     inkscape:window-height="1007"
     inkscape:window-x="0"
     inkscape:window-y="0"
     inkscape:window-maximized="1"
     inkscape:current-layer="svg1183"
     inkscape:showpageshadow="2"
     inkscape:deskcolor="#d1d1d1" />
  <defs
     id="defs1180" />
  <path
     id="path1986"
     style="fill:#363636;fill-opacity:1;stroke-width:1.125;stroke-linejoin:round"
     d="M 1.9746094 0 C 1.43267 0.013638474 1 0.45465735 1 1 L 1 7 L 6.875 7 L 8 7 L 8 5.875 L 8 0 L 2 0 C 1.99134 0 1.983211 -0.00021648365 1.9746094 0 z M 9 0 L 9 5.875 L 9 7 L 11 7 L 15.994141 7 L 16 7 L 16 1 C 16 0.4460011 15.553998 -1.4802959e-16 15 0 L 9 0 z M 1 8 L 1 14 C 1 14.553998 1.4460011 15 2 15 L 8 15 L 8 9.125 L 8 8 L 6.875 8 L 1 8 z M 9 8 L 9 10 L 9 15 L 15 15 C 15.553998 15 16 14.553998 16 14 L 16 8 L 15.994141 8 L 11 8 L 9 8 z " />
</svg>
