<?xml version="1.0" encoding="UTF-8" standalone="no"?>
<!-- Created with Inkscape (http://www.inkscape.org/) -->

<svg
   width="16"
   height="16"
   viewBox="0 0 16 16"
   version="1.1"
   id="svg5"
   inkscape:version="1.2.1 (9c6d41e410, 2022-07-14, custom)"
   sodipodi:docname="fcitx-kbd.svg"
   xmlns:inkscape="http://www.inkscape.org/namespaces/inkscape"
   xmlns:sodipodi="http://sodipodi.sourceforge.net/DTD/sodipodi-0.dtd"
   xmlns="http://www.w3.org/2000/svg"
   xmlns:svg="http://www.w3.org/2000/svg">
  <sodipodi:namedview
     id="namedview7"
     pagecolor="#ffffff"
     bordercolor="#000000"
     borderopacity="0.25"
     inkscape:showpageshadow="2"
     inkscape:pageopacity="0.0"
     inkscape:pagecheckerboard="0"
     inkscape:deskcolor="#d1d1d1"
     inkscape:document-units="px"
     showgrid="false"
     inkscape:zoom="50.625"
     inkscape:cx="7.4666667"
     inkscape:cy="8"
     inkscape:window-width="1920"
     inkscape:window-height="1012"
     inkscape:window-x="0"
     inkscape:window-y="0"
     inkscape:window-maximized="1"
     inkscape:current-layer="svg5" />
  <defs
     id="defs2">
    <style
       id="current-color-scheme"
       type="text/css">.ColorScheme-Text { color:#363636; }</style>
  </defs>
  <path
     d="M 2,3 C 0.8920022,3 0,3.8920022 0,5 v 7 c 0,1.107999 0.8920022,2.000001 2,2.000001 h 11 c 1.107998,0 2,-0.892002 2,-2.000001 V 5 C 15,3.8920022 14.107998,3 13,3 Z m 0,1 h 11 c 0.553998,0 1,0.4460012 1,1 v 7 c 0,0.553999 -0.446002,1.000001 -1,1.000001 H 2 C 1.4460012,13.000001 1,12.553999 1,12 V 5 C 1,4.4460012 1.4460012,4 2,4 Z M 3,5 C 2.4477153,5 2,5.4477153 2,6 2,6.5522847 2.4477153,7 3,7 3.5522847,7 4,6.5522847 4,6 4,5.4477153 3.5522847,5 3,5 Z M 6,5 C 5.4477153,5 5,5.4477153 5,6 5,6.5522847 5.4477153,7 6,7 6.5522847,7 7,6.5522847 7,6 7,5.4477153 6.5522847,5 6,5 Z M 9,5 C 8.4477153,5 8,5.4477153 8,6 8,6.5522847 8.4477153,7 9,7 9.5522847,7 10,6.5522847 10,6 10,5.4477153 9.5522847,5 9,5 Z m 3,0 c -0.552285,0 -1,0.4477153 -1,1 0,0.5522847 0.447715,1 1,1 0.552285,0 1,-0.4477153 1,-1 C 13,5.4477153 12.552285,5 12,5 Z M 4,8 C 3.4477153,8 3,8.4477153 3,9 3,9.5522847 3.4477153,10 4,10 4.5522847,10 5,9.5522847 5,9 5,8.4477153 4.5522847,8 4,8 Z M 7,8 C 6.4477153,8 6,8.4477153 6,9 6,9.5522847 6.4477153,10 7,10 7.5522847,10 8,9.5522847 8,9 8,8.4477153 7.5522847,8 7,8 Z m 3,0 C 9.4477153,8 9,8.4477153 9,9 c 0,0.5522847 0.4477153,1 1,1 0.552285,0 1,-0.4477153 1,-1 0,-0.5522847 -0.447715,-1 -1,-1 z m -6,3 v 1 h 7 v -1 z"
     style="fill:currentColor;stroke-width:2;opacity:1"
     class="ColorScheme-Text"
     id="path579" />
</svg>
