<?xml version="1.0" encoding="UTF-8" standalone="no"?>
<!-- Created with Inkscape (http://www.inkscape.org/) -->

<svg
   width="16"
   height="16"
   viewBox="0 0 16 16"
   version="1.1"
   id="svg361"
   inkscape:version="1.2.1 (9c6d41e410, 2022-07-14, custom)"
   sodipodi:docname="fcitx-anthy.svg"
   xmlns:inkscape="http://www.inkscape.org/namespaces/inkscape"
   xmlns:sodipodi="http://sodipodi.sourceforge.net/DTD/sodipodi-0.dtd"
   xmlns="http://www.w3.org/2000/svg"
   xmlns:svg="http://www.w3.org/2000/svg">
  <sodipodi:namedview
     id="namedview363"
     pagecolor="#ffffff"
     bordercolor="#000000"
     borderopacity="0.25"
     inkscape:showpageshadow="2"
     inkscape:pageopacity="0.0"
     inkscape:pagecheckerboard="0"
     inkscape:deskcolor="#d1d1d1"
     inkscape:document-units="px"
     showgrid="false"
     inkscape:zoom="50.625"
     inkscape:cx="8"
     inkscape:cy="8"
     inkscape:window-width="1920"
     inkscape:window-height="1012"
     inkscape:window-x="0"
     inkscape:window-y="0"
     inkscape:window-maximized="1"
     inkscape:current-layer="svg361" />
  <defs
     id="defs358">
    <style
       id="current-color-scheme"
       type="text/css">
         .ColorScheme-Text { color:#363636; }
     </style>
  </defs>
  <path
     id="rect584"
     style="fill:currentColor;stroke-width:1.08012;stroke-linecap:round;stroke-linejoin:round;paint-order:stroke fill markers"
     class="ColorScheme-Text"
     d="M 6.3339844,1 5.9453125,3.2558245 C 4.9321135,3.2928072 3.959099,3.3051446 3,3.3105112 V 4.5136176 H 5.6660156 C 5.2216161,6.8037465 4.7039275,9.1782325 4.1113281,10.300781 l 1,0.906886 C 6.4447268,9.6946425 7.6690015,9.439974 9.1875,9.439974 c 0.777799,0 1.369344,0.214999 1.777344,0.647125 0.406999,0.388377 0.611328,0.92827 0.611328,1.620092 0,0.776988 -0.31436,0.894364 -0.94336,1.282858 -0.592999,0.346494 -1.4827694,0.519523 -2.6679682,0.519523 -1.1262989,0 -2.0205447,-0.03921 -2.9648438,-0.26204 v 1.68845 c 1.1190989,0.07117 2.0539729,0.0638 3.0761719,0.0638 1.6295981,0 2.8529691,-0.302563 3.6679691,-0.906887 C 12.59614,13.444241 13,12.96017 13,11.707191 13,10.626875 12.688484,9.741686 12.021484,9.050331 11.355485,8.3589759 10.409999,8.0135635 9.1875,8.0135635 c -0.962999,0 -1.9285295,0.04037 -3.2988281,1.120569 l -0.1113281,-0.0638 C 6.2588433,7.8172349 6.6490128,5.9463409 6.9453125,4.563747 9.9046093,4.4085828 11.832001,4.4864928 13,4.3313287 V 2.8388388 C 11.609001,3.0298189 9.7296535,3.1874225 7.2226562,3.3059539 7.4077561,2.3122037 7.5373282,1.6481893 7.6113281,1 Z"
     sodipodi:nodetypes="cccccccscscsccscscscccccccc" />
</svg>
