<?xml version="1.0" encoding="UTF-8" standalone="no"?>
<!-- Created with Inkscape (http://www.inkscape.org/) -->

<svg
   width="16"
   height="16"
   viewBox="0 0 16 16"
   version="1.1"
   id="svg5"
   inkscape:version="1.2.1 (9c6d41e410, 2022-07-14, custom)"
   sodipodi:docname="emblem-symbolic-link.svg"
   xmlns:inkscape="http://www.inkscape.org/namespaces/inkscape"
   xmlns:sodipodi="http://sodipodi.sourceforge.net/DTD/sodipodi-0.dtd"
   xmlns:xlink="http://www.w3.org/1999/xlink"
   xmlns="http://www.w3.org/2000/svg"
   xmlns:svg="http://www.w3.org/2000/svg">
  <sodipodi:namedview
     id="namedview7"
     pagecolor="#ffffff"
     bordercolor="#666666"
     borderopacity="1.0"
     inkscape:pageshadow="2"
     inkscape:pageopacity="0.0"
     inkscape:pagecheckerboard="0"
     inkscape:document-units="px"
     showgrid="false"
     units="px"
     height="22px"
     showguides="false"
     inkscape:zoom="51.6875"
     inkscape:cx="7.9903265"
     inkscape:cy="8"
     inkscape:window-width="1920"
     inkscape:window-height="1029"
     inkscape:window-x="0"
     inkscape:window-y="0"
     inkscape:window-maximized="1"
     inkscape:current-layer="svg5"
     inkscape:showpageshadow="2"
     inkscape:deskcolor="#d1d1d1" />
  <defs
     id="defs2">
    <linearGradient
       inkscape:collect="always"
       id="linearGradient2733">
      <stop
         style="stop-color:#1b9de2;stop-opacity:1;"
         offset="0"
         id="stop2729" />
      <stop
         style="stop-color:#0178d4;stop-opacity:1"
         offset="1"
         id="stop2731" />
    </linearGradient>
    <linearGradient
       inkscape:collect="always"
       xlink:href="#linearGradient8163"
       id="linearGradient8165"
       x1="5.7449827"
       y1="8.3089285"
       x2="5.7449827"
       y2="19.347616"
       gradientUnits="userSpaceOnUse"
       gradientTransform="matrix(1.2729203,0,0,1.4494477,1.5752387,-12.043357)" />
    <linearGradient
       inkscape:collect="always"
       id="linearGradient8163">
      <stop
         style="stop-color:#e8ebf1;stop-opacity:1;"
         offset="0"
         id="stop8159" />
      <stop
         style="stop-color:#c6cfdd;stop-opacity:1"
         offset="1"
         id="stop8161" />
    </linearGradient>
    <linearGradient
       inkscape:collect="always"
       xlink:href="#linearGradient2733"
       id="linearGradient2735"
       x1="10.259241"
       y1="6.7407818"
       x2="16.000286"
       y2="11.454827"
       gradientUnits="userSpaceOnUse"
       gradientTransform="translate(-4.0003172,-1.9996791)" />
  </defs>
  <rect
     style="fill:url(#linearGradient8165);fill-opacity:1;stroke-width:0.35939;stroke-linejoin:round"
     id="rect858"
     height="16"
     x="0"
     y="0"
     width="16"
     ry="2" />
  <path
     id="rect964"
     style="fill:#ffffff;stroke-width:0.999999;stroke-linejoin:round"
     d="m 2,1.0000002 h 12 c 0.554,0 1,0.446 1,0.9999999 V 14 c 0,0.554 -0.446,1 -1,1 H 2 C 1.4460001,15 1.0000001,14.554 1.0000001,14 V 2.0000001 c 0,-0.5539999 0.446,-0.9999999 0.9999999,-0.9999999 z"
     sodipodi:nodetypes="sssssssss" />
  <path
     id="rect1721"
     style="fill:url(#linearGradient2735);fill-opacity:1;stroke-width:1.22474;stroke-linejoin:round"
     d="m 6.7106215,4.000321 c -0.397372,0.020032 -0.7109383,0.347486 -0.7109383,0.75 0,0.4155001 0.3344996,0.75 0.7500001,0.75 h 2.6914062 l -5.2207033,5.21875 c -0.2938167,0.293787 -0.2938016,0.766744 0,1.060547 0.2938016,0.293801 0.7667294,0.29379 1.0605472,0 L 10.499683,6.5628211 v 2.6875001 c 0,0.4154998 0.3345,0.7499998 0.75,0.7499998 0.415501,0 0.750001,-0.3344993 0.750001,-0.7499998 V 4.7893836 c 6.45e-4,-0.012813 0,-0.026079 0,-0.039061 0,-0.4025155 -0.313565,-0.729987 -0.710938,-0.75 -0.01281,-6.455e-4 -0.02608,0 -0.03906,0 h -0.03906 -4.4609387 c -0.013002,0 -0.02623,-6.455e-4 -0.039062,-1.1e-6 z"
     sodipodi:nodetypes="cssccsccssscssscsc" />
</svg>
