<?xml version="1.0" encoding="UTF-8" ?>
<!DOCTYPE svg PUBLIC "-//W3C//DTD SVG 1.1//EN" "http://www.w3.org/Graphics/SVG/1.1/DTD/svg11.dtd" >

<svg xmlns="http://www.w3.org/2000/svg" xmlns:xlink="http://www.w3.org/1999/xlink" version="1.1">

<metadata>
Font name:               EMS League
License:                 SIL Open Font License http://scripts.sil.org/OFL
Created by:              Sheldon B. Michaels
SVG font conversion by:  Windell H. Oskay
A derivative of:         League Script
Designer:                Haley Fiege, the League of Moveable Type
Link:                    https://www.theleagueofmoveabletype.com
Google font page:        https://fonts.google.com/specimen/League+Script
</metadata>
<defs>
<font id="EMSLeague" horiz-adv-x="378" >
<font-face
font-family="EMS League"
units-per-em="1000"
ascent="800"
descent="-200"
cap-height="500"
x-height="300">
  <font-face-src>
    <font-face-name name="EMS League"/>
  </font-face-src>
</font-face>
<missing-glyph horiz-adv-x="378" />
<glyph unicode=" " glyph-name="space" horiz-adv-x="378" />
<glyph unicode="!" glyph-name="exclam" horiz-adv-x="482" d="M 575 665 L 487 548 L 399 419 L 323 299 L 263 164 M 210 88.2 L 188 53.6 L 216 31.5 L 238 59.9 L 210 88.2" />
<glyph unicode="&#x22;" glyph-name="quotedbl" horiz-adv-x="337" d="M 170 611 L 167 554 L 148 498 L 107 450 L 66.1 416 M 249 611 L 246 548 L 230 504 L 195 463 L 145 413" />
<glyph unicode="#" glyph-name="numbersign" horiz-adv-x="734" d="M 482 658 L 50.4 -9.45 M 699 655 L 268 -12.6 M 101 214 L 532 208 M 220 454 L 668 454" />
<glyph unicode="$" glyph-name="dollar" horiz-adv-x="718" d="M 602 536 L 655 567 L 690 605 L 712 658 L 709 706 L 684 743 L 649 765 L 605 775 L 548 765 L 482 731 L 438 658 L 419 580 L 425 520 L 428 444 L 447 340 L 450 243 L 435 151 L 384 50.4 L 315 0 L 224 -31.5 L 145 -25.2 L 75.6 15.8 L 44.1 94.5 L 56.7 161 L 120 224 M 699 838 L 104 -91.4" />
<glyph unicode="%" glyph-name="percent" horiz-adv-x="652" d="M 309 677 L 258 655 L 252 614 L 274 576 L 334 567 L 365 611 L 356 652 L 315 677 L 309 677 M 312 132 L 261 110 L 255 69.3 L 274 31.5 L 337 22 L 369 66.1 L 359 110 L 318 132 L 312 132 M 523 687 L 97.6 15.8" />
<glyph unicode="&amp;" glyph-name="ampersand" horiz-adv-x="882" d="M 715 75.6 L 646 -3.15 L 561 -47.2 L 507 -59.9 L 463 -53.5 L 403 -18.9 L 381 47.2 L 387 123 L 425 227 L 469 321 L 532 428 L 605 542 L 668 633 L 734 690 L 781 702 L 822 687 L 828 662 L 819 621 L 784 586 L 724 551 L 639 526 L 510 485 L 359 441 L 246 381 L 148 287 L 104 198 L 91.4 101 L 120 15.8 L 183 -37.8 L 265 -59.9 L 340 -59.9 L 454 -22 L 542 44.1 L 598 104 L 658 189" />
<glyph unicode="&apos;" glyph-name="quotesingle" horiz-adv-x="198" d="M 306 655 L 211 460" />
<glyph unicode="(" glyph-name="parenleft" horiz-adv-x="306" d="M 580 756 L 491 684 L 397 605 L 299 495 L 227 406 L 170 309 L 123 176 L 104 85.1 L 101 9.45 L 104 -69.3" />
<glyph unicode=")" glyph-name="parenright" horiz-adv-x="469" d="M 381 724 L 381 561 L 343 406 L 277 290 L 205 183 L 113 75.6 L 22 -9.45 L -91.4 -97.6" />
<glyph unicode="*" glyph-name="asterisk" horiz-adv-x="346" d="M 180 658 L 183 438 M 101 621 L 255 469 M 75.6 545 L 81.9 545 L 280 542 M 104 466 L 252 614" />
<glyph unicode="+" glyph-name="plus" horiz-adv-x="636" d="M 428 504 L 158 85.1 M 94.5 312 L 526 309" />
<glyph unicode="," glyph-name="comma" horiz-adv-x="170" d="M 135 72.4 L 104 40.9 L 81.9 72.4 L 107 101 L 135 72.4 M 120 59.9 L 129 44.1 L 110 15.8 L 66.1 0" />
<glyph unicode="-" glyph-name="hyphen" horiz-adv-x="558" d="M 53.5 261 L 504 258" />
<glyph unicode="." glyph-name="period" horiz-adv-x="205" d="M 110 91.4 L 85 59.9 L 117 31.5 L 148 59.9 L 110 91.4" />
<glyph unicode="/" glyph-name="slash" horiz-adv-x="750" d="M 743 813 L 145 -126" />
<glyph unicode="0" glyph-name="zero" horiz-adv-x="598" d="M 536 743 L 450 743 L 372 712 L 284 649 L 186 539 L 126 447 L 85 331 L 63 249 L 59.9 142 L 85 75.6 L 129 40.9 L 189 22 L 258 31.5 L 337 78.8 L 406 148 L 476 246 L 517 337 L 551 422 L 564 482 L 576 548 L 558 630 L 539 668 L 504 690 L 466 702 L 435 702 L 403 687 L 378 649 L 381 621 L 410 589 L 435 580 L 466 576" />
<glyph unicode="1" glyph-name="one" horiz-adv-x="447" d="M 117 576 L 214 580 L 309 595 L 419 630 L 504 677 L 554 712 L 602 753 L 85 37.8" />
<glyph unicode="2" glyph-name="two" horiz-adv-x="627" d="M 501 639 L 469 564 L 425 529 L 369 523 L 337 545 L 331 573 L 359 649 L 432 712 L 501 734 L 558 740 L 627 737 L 687 693 L 709 633 L 690 551 L 649 495 L 602 454 L 472 375 L 309 271 L 154 151 L 78.8 75.6 L 53.5 53.6 L 59.9 31.5 L 78.8 22 L 164 53.6 L 217 75.6 L 255 81.9 L 299 81.9 L 346 66.1 L 403 37.8 L 444 12.6 L 485 12.6 L 507 15.8 L 526 37.8" />
<glyph unicode="3" glyph-name="three" horiz-adv-x="639" d="M 435 687 L 491 721 L 558 731 L 602 724 L 649 690 L 674 636 L 668 576 L 646 513 L 595 472 L 558 454 L 523 444 L 472 438 L 428 441 L 387 454 L 362 472 L 369 491 L 381 510 L 425 507 L 463 485 L 491 463 L 529 406 L 551 350 L 548 252 L 517 173 L 466 104 L 406 44.1 L 321 -6.3 L 249 -25.2 L 176 -28.4 L 104 -15.8 L 44.1 31.5 L 34.6 120 L 41 173 L 81.9 224 L 113 243 L 145 246 L 183 224 L 192 176 L 173 145 L 145 126" />
<glyph unicode="4" glyph-name="four" horiz-adv-x="643" d="M 243 28.4 L 794 728 L 627 608 L 460 491 L 287 410 L 110 331 L 211 343 L 397 337 L 469 328 L 542 309 L 576 287 L 605 258 L 621 236" />
<glyph unicode="5" glyph-name="five" horiz-adv-x="655" d="M 721 702 L 636 674 L 554 671 L 507 671 L 422 690 L 246 457 L 328 501 L 416 523 L 488 501 L 529 457 L 545 400 L 532 312 L 488 224 L 422 123 L 365 59.9 L 293 18.9 L 192 -6.3 L 129 9.45 L 72.5 40.9 L 50.4 97.6 L 56.7 158 L 78.8 189 L 113 233" />
<glyph unicode="6" glyph-name="six" horiz-adv-x="548" d="M 567 567 L 592 608 L 589 646 L 583 687 L 558 712 L 510 718 L 444 693 L 359 630 L 265 539 L 202 438 L 142 337 L 101 236 L 78.8 129 L 85 47.2 L 132 -6.3 L 195 -22 L 255 -15.8 L 334 22 L 413 104 L 485 233 L 504 315 L 507 356 L 488 406 L 441 447 L 381 457 L 309 435 L 255 403 L 224 372 L 195 337" />
<glyph unicode="7" glyph-name="seven" horiz-adv-x="384" d="M 176 690 L 343 658 L 432 658 L 504 665 L 567 684 L 592 690 L 595 668 L 548 586 L 441 435 L 290 243 L 173 101 L 50.4 -37.8" />
<glyph unicode="8" glyph-name="eight" horiz-adv-x="759" d="M 668 526 L 668 598 L 655 633 L 611 677 L 542 706 L 463 687 L 406 639 L 381 589 L 375 523 L 400 457 L 432 387 L 463 306 L 466 239 L 447 154 L 419 78.8 L 350 9.45 L 249 -41 L 192 -53.5 L 129 -59.9 L 41 -22 L 6.3 31.5 L 15.8 104 L 50.4 183 L 104 255 L 158 306 L 243 350 L 369 400 L 488 444 L 567 491 L 608 545 L 627 586 L 633 636 L 630 684 L 617 734 L 583 784" />
<glyph unicode="9" glyph-name="nine" horiz-adv-x="438" d="M 564 702 L 457 728 L 356 724 L 287 702 L 186 646 L 113 567 L 94.5 523 L 94.5 472 L 117 432 L 164 391 L 227 381 L 306 406 L 387 454 L 454 513 L 513 570 L 617 680 L 123 3.15" />
<glyph unicode=":" glyph-name="colon" horiz-adv-x="268" d="M 189 337 L 161 302 L 189 274 L 214 302 L 189 337 M 142 148 L 110 113 L 139 81.9 L 167 110 L 142 148" />
<glyph unicode=";" glyph-name="semicolon" horiz-adv-x="284" d="M 113 104 L 81.9 69.3 L 113 40.9 L 139 69.3 L 113 104 M 198 340 L 170 306 L 198 277 L 224 306 L 198 340 M 129 56.7 L 126 31.5 L 94.5 3.15 L 69.3 -3.15" />
<glyph unicode="&#x3c;" glyph-name="less" horiz-adv-x="643" d="M 513 507 L 444 447 L 362 394 L 287 359 L 224 340 L 186 334 L 97.6 328 L 161 271 L 220 220 L 265 170 L 290 113" />
<glyph unicode="=" glyph-name="equal" horiz-adv-x="646" d="M 139 372 L 583 372 M 53.5 217 L 488 217" />
<glyph unicode="&#x3e;" glyph-name="greater" horiz-adv-x="643" d="M 315 532 L 340 469 L 387 413 L 438 359 L 482 328 L 517 306 L 438 309 L 337 284 L 252 243 L 176 195 L 123 158 L 88.2 129" />
<glyph unicode="?" glyph-name="question" horiz-adv-x="658" d="M 233 498 L 280 586 L 346 639 L 416 668 L 476 674 L 536 665 L 583 633 L 605 576 L 589 513 L 542 441 L 476 384 L 422 350 L 343 324 L 265 328 L 161 167 M 104 91.4 L 72.5 56.7 L 104 28.4 L 135 53.6 L 104 91.4" />
<glyph unicode="@" glyph-name="at" horiz-adv-x="866" d="M 715 381 L 482 214 L 381 151 L 315 132 L 255 148 L 217 183 L 211 239 L 249 315 L 315 381 L 416 454 L 498 479 L 570 482 L 621 466 L 652 435 L 643 387 L 611 337 L 507 217 L 495 198 L 501 164 L 554 145 L 614 167 L 712 239 L 794 337 L 816 394 L 813 466 L 769 529 L 696 570 L 614 586 L 517 586 L 419 564 L 277 501 L 173 425 L 104 353 L 66.1 280 L 50.4 233 L 50.4 154 L 75.6 94.5 L 126 44.1 L 205 9.45 L 290 -6.3 L 372 3.15 L 466 18.9 L 554 53.6 L 643 120" />
<glyph unicode="A" glyph-name="A" horiz-adv-x="932" d="M 44.1 120 L 59.9 50.4 L 101 12.6 L 135 -3.15 L 183 -3.15 L 217 9.45 L 277 50.4 L 331 113 L 397 214 L 488 362 L 573 485 L 668 592 L 775 690 L 863 750 L 954 775 L 1033.2 784 L 1074.2 784 L 1096.2 778 L 1152.9 747 L 1089.9 778 L 1045.8 781 L 1001.7 756 L 901 668 L 828 561 L 765 441 L 734 346 L 712 261 L 702 195 L 696 34.6 L 680 139 L 658 214 L 630 290 L 576 350 L 536 378 L 488 397 L 419 397 L 365 375 L 353 331 L 372 284 L 413 255 L 479 236 L 567 233 L 687 239 L 765 258 L 841 299" />
<glyph unicode="B" glyph-name="B" horiz-adv-x="765" d="M 794 731 L 743 778 L 671 784 L 614 775 L 526 731 L 476 690 L 410 598 L 142 148 L 91.4 78.8 L 47.2 25.2 L -22.1 -6.3 L -69.3 -3.15 L -97.6 12.6 L -129 50.4 M 183 573 L 252 633 L 328 671 L 394 693 L 450 702 L 542 693 L 614 674 L 684 627 L 709 567 L 702 501 L 687 454 L 646 422 L 589 403 L 523 394 L 441 403 L 432 422 L 432 444 L 454 457 L 498 450 L 542 428 L 576 406 L 630 356 L 655 299 L 665 224 L 633 135 L 583 75.6 L 523 34.6 L 469 22 L 375 22 L 337 37.8 L 290 63 L 255 101 L 239 142 L 239 195" />
<glyph unicode="C" glyph-name="C" horiz-adv-x="576" d="M 302 684 L 306 680 L 328 621 L 375 573 L 457 526 L 558 529 L 614 558 L 652 589 L 674 652 L 674 690 L 665 702 L 636 721 L 573 721 L 510 699 L 400 646 L 356 617 L 271 545 L 164 441 L 75.6 309 L 41 211 L 41 145 L 56.7 78.8 L 107 34.6 L 145 12.6 L 252 12.6 L 309 40.9 L 350 63 L 391 107 L 460 192" />
<glyph unicode="D" glyph-name="D" horiz-adv-x="765" d="M 573 567 L 520 520 L 447 482 L 406 479 L 346 482 L 280 513 L 255 564 L 258 611 L 306 674 L 375 699 L 466 693 L 520 684 L 592 652 L 658 592 L 699 507 L 706 397 L 693 290 L 655 186 L 602 110 L 520 47.2 L 450 22 L 384 31.5 L 321 53.6 L 277 104 L 274 170 L 296 211 L 321 227 L 350 233 L 384 233 L 432 214 L 447 208 M -85.1 59.9 L -66.1 15.8 L -12.6 -3.15 L 44.1 6.3 L 91.4 40.9 L 135 88.2 L 195 183 L 340 435 L 419 551 L 529 662 L 592 709 L 668 743 L 750 743 L 806 734 L 835 721 L 876 674" />
<glyph unicode="E" glyph-name="E" horiz-adv-x="652" d="M 249 690 L 271 630 L 306 589 L 365 548 L 432 523 L 501 526 L 564 558 L 608 595 L 621 636 L 624 680 L 605 712 L 570 734 L 523 740 L 472 731 L 397 696 L 328 630 L 296 554 L 293 485 L 299 438 L 340 397 L 384 381 L 413 387 L 425 394 L 432 410 L 422 432 L 387 447 L 340 450 L 296 441 L 224 413 L 148 346 L 107 261 L 104 161 L 129 104 L 176 50.4 L 236 31.5 L 340 25.2 L 413 50.4 L 469 78.8 L 507 110 L 561 186" />
<glyph unicode="F" glyph-name="F" horiz-adv-x="621" d="M -28.4 117 L -22.1 59.9 L 3.15 22 L 72.5 6.3 L 142 34.6 L 202 88.2 L 246 142 L 299 211 L 387 328 L 482 454 L 636 624 L 765 706 L 876 731 L 926 731 L 976 712 L 995 668 L 964 621 L 923 598 L 888 592 L 816 592 L 781 592 L 712 608 L 605 633 L 472 674 L 384 702 L 315 693 L 243 677 L 164 621 M 542 384 L 491 359 L 450 359 L 397 375 L 346 394 L 287 400 L 233 384 L 214 359 L 233 324 L 293 312 L 359 318 L 397 337" />
<glyph unicode="G" glyph-name="G" horiz-adv-x="762" d="M 482 709 L 510 630 L 564 576 L 658 532 L 747 532 L 832 576 L 876 627 L 879 671 L 866 721 L 819 747 L 759 743 L 668 706 L 592 671 L 476 589 L 387 501 L 290 381 L 214 236 L 198 139 L 233 66.1 L 287 12.6 L 365 -3.15 L 463 15.8 L 561 78.8 L 614 132 L 655 202 L 580 -15.8 L 504 -164 L 422 -255 L 321 -312 L 258 -302 L 211 -258 L 217 -183 L 258 -126 L 337 -85 L 469 -34.6 L 554 -22 L 624 -15.8 L 734 -12.6" />
<glyph unicode="H" glyph-name="H" horiz-adv-x="712" d="M 419 832 L 513 759 L 583 753 L 646 781 L 665 810 L 665 825 L 639 841 L 614 841 L 573 822 L 539 800 L 485 702 L 432 602 L 384 441 L 334 302 L 280 148 L 246 44.1 L 205 -31.5 L 173 -97.6 L 145 -123 L 113 -142 L 72.5 -142 L 25.2 -107 L 9.45 -25.2 L 18.9 47.2 L 88.2 148 L 173 217 L 261 277 L 482 375 L 665 444 L 788 520 L 888 605 L 939 652 L 932 718 L 914 734 L 869 740 L 828 715 L 737 602 L 649 466 L 573 328 L 523 217 L 504 110 L 529 18.9 L 561 -28.4 L 639 -72.5" />
<glyph unicode="I" glyph-name="I" horiz-adv-x="649" d="M -3.15 66.1 L 3.15 0 L 63 -41 L 120 -44.1 L 186 -15.8 L 268 63 L 381 208 L 507 384 L 611 523 L 721 630 L 825 690 L 888 709 L 942 709 L 973 684 L 989 658 L 973 624 L 945 598 L 907 589 L 873 592 L 803 605 L 721 630 L 668 655 L 611 662 L 548 655" />
<glyph unicode="J" glyph-name="J" horiz-adv-x="397" d="M 252 189 L 217 117 L 154 69.3 L 50.4 47.2 L -40.9 31.5 L -154 25.2 L -277 -3.15 L -387 -50.4 L -450 -126 L -463 -158 L -469 -202 L -450 -243 L -387 -252 L -346 -239 L -249 -205 L -148 -123 L -37.8 -15.8 L 113 164 L 306 406 L 450 576 L 576 680 L 674 731 L 762 753 L 832 750 L 873 734 L 888 712 L 898 674 L 885 652 L 841 617 L 788 611 L 747 608 L 684 621 L 583 649 L 435 690 L 359 696 L 299 684 L 274 677" />
<glyph unicode="K" glyph-name="K" horiz-adv-x="687" d="M -202 142 L -195 88.2 L -173 53.6 L -129 31.5 L -94.5 28.4 L -56.7 50.4 L 25.2 107 L 123 227 L 236 378 L 312 491 L 419 611 L 501 684 L 561 728 L 617 740 L 668 743 L 690 737 L 706 693 L 687 662 L 652 643 L 621 646 L 520 662 L 413 690 L 309 715 L 239 721 L 183 731 L 132 715 L 104 706 L 94.5 677 M 926 583 L 926 621 L 898 646 L 866 652 L 828 643 L 750 573 L 687 513 L 614 466 L 558 432 L 479 397 L 419 378 L 346 372 L 284 369 L 249 378 L 202 406 L 202 447 L 233 466 L 268 466 L 346 422 L 378 384 L 419 324 L 441 258 L 444 173 L 435 78.8 L 450 22 L 498 9.45 L 576 47.2" />
<glyph unicode="L" glyph-name="L" horiz-adv-x="655" d="M 551 658 L 652 687 L 740 671 L 803 646 L 895 611 L 954 624 L 989 646 L 999 674 L 980 699 L 923 721 L 838 696 L 788 665 L 721 602 L 646 520 L 558 384 L 416 202 L 334 107 L 224 22 L 173 -6.3 L 132 -6.3 L 56.7 15.8 L 28.4 63 L 41 97.6 L 88.2 123 L 161 113 L 230 69.3 L 293 0 L 400 -88.2 L 491 -132 L 567 -139 L 617 -123 L 655 -94.5 L 658 -53.5 L 655 -34.6 L 624 3.15" />
<glyph unicode="M" glyph-name="M" horiz-adv-x="901" d="M -375 164 L -400 117 L -391 53.6 L -356 0 L -296 -15.8 L -249 -12.6 L -170 12.6 L -94.5 72.4 L 6.3 183 L 129 340 L 268 520 L 356 611 L 432 680 L 476 696 L 523 706 L 542 696 L 548 662 L 488 532 L 438 394 L 419 280 L 410 183 L 410 69.3 L 397 12.6 L 356 -3.15 L 324 0 L 312 22 L 312 66.1 L 321 110 L 384 217 L 488 346 L 643 529 L 778 630 L 860 680 L 920 699 L 939 699 L 964 680 L 964 652 L 926 595 L 828 416 L 765 280 L 737 154 L 728 40.9 L 724 -15.8 L 769 -94.5 L 828 -117 L 917 -88.2 L 961 -50.4" />
<glyph unicode="N" glyph-name="N" horiz-adv-x="706" d="M -220 176 L -220 170 L -243 97.6 L -211 22 L -154 -3.15 L -94.5 -3.15 L -9.45 31.5 L 78.8 101 L 161 198 L 274 334 L 438 523 L 526 633 L 583 674 L 624 702 L 652 709 L 674 706 L 684 674 L 668 643 L 614 548 L 513 343 L 454 154 L 454 104 L 457 47.2 L 472 22 L 510 37.8 L 526 69.3 L 658 296 L 731 406 L 873 567 L 983 655 L 1067.8 709 L 1137.2 728 L 1206.4 724 L 1247.4 696 L 1241.1 643 L 1168.7 621 L 1143.4 621 L 1096.2 636 L 1042.7 662 L 992 734" />
<glyph unicode="O" glyph-name="O" horiz-adv-x="715" d="M 605 690 L 491 696 L 369 652 L 246 564 L 154 485 L 69.3 359 L 31.5 252 L 28.4 183 L 44.1 107 L 117 37.8 L 186 12.6 L 324 25.2 L 454 75.6 L 633 214 L 721 337 L 759 425 L 775 523 L 772 586 L 728 662 L 693 690 L 633 706 L 589 696 L 517 655 L 482 586 L 491 510 L 536 457 L 598 406 L 693 381 L 765 381 L 857 432 L 876 479 L 860 536 L 822 570 L 813 576 L 715 586 L 608 545 L 551 513 L 498 469 L 450 397" />
<glyph unicode="P" glyph-name="P" horiz-adv-x="917" d="M 12.6 9.45 L 47.2 -34.6 L 120 -41 L 198 3.15 L 258 85.1 L 381 309 L 472 463 L 633 624 L 737 687 L 825 709 L 895 696 L 932 680 L 967 636 M 309 724 L 384 684 L 422 621 L 428 573 L 413 491 L 362 479 L 321 520 L 337 595 L 394 652 L 441 684 L 517 709 L 611 718 L 687 709 L 778 677 L 850 633 L 904 570 L 929 498 L 926 406 L 895 321 L 819 255 L 709 217 L 627 220 L 536 261 L 485 315" />
<glyph unicode="Q" glyph-name="Q" horiz-adv-x="781" d="M 384 444 L 428 469 L 488 472 L 545 454 L 586 400 L 595 318 L 570 243 L 523 192 L 466 154 L 413 142 L 353 135 L 296 145 L 230 176 L 180 230 L 154 287 L 154 375 L 195 469 L 252 548 L 328 608 L 400 649 L 447 665 L 529 671 L 639 652 L 699 602 L 731 529 L 731 428 L 699 328 L 658 252 L 608 195 L 548 129 L 469 63 L 410 28.4 L 321 -9.45 L 230 -31.5 L 145 -28.4 L 75.6 -12.6 L 41 34.6 L 56.7 81.9 L 113 101 L 227 88.2 L 296 59.9 L 346 31.5 L 432 -53.5 L 476 -101 L 536 -158 L 611 -186 L 702 -192 L 759 -158 L 769 -117 L 769 -81.9 L 731 -44.1 L 665 -44.1" />
<glyph unicode="R" glyph-name="R" horiz-adv-x="879" d="M -59.9 -15.8 L -28.4 -56.7 L 6.3 -75.6 L 50.4 -72.5 L 117 -37.8 L 176 34.6 L 280 214 L 397 406 L 513 558 L 605 630 L 699 671 L 781 680 L 832 665 L 863 652 L 898 608 M 252 690 L 315 662 L 365 580 L 359 517 L 343 463 L 306 450 L 284 460 L 258 498 L 280 576 L 302 605 L 362 658 L 428 684 L 529 687 L 627 677 L 709 655 L 788 605 L 844 523 L 857 457 L 850 403 L 822 340 L 759 268 L 674 227 L 595 217 L 488 224 L 397 252 L 334 287 L 296 334 L 306 381 L 362 387 L 428 359 L 488 309 L 523 249 L 539 202 L 526 66.1 L 526 -3.15 L 558 -56.7 L 611 -63 L 684 -6.3" />
<glyph unicode="S" glyph-name="S" horiz-adv-x="715" d="M -151 12.6 L -47.2 15.8 L 9.45 37.8 L 88.2 117 L 123 186 L 132 255 L 97.6 302 L 50.4 324 L -3.15 302 L -40.9 233 L -53.6 132 L -28.4 66.1 L 56.7 0 L 158 -31.5 L 280 -18.9 L 391 40.9 L 466 135 L 504 252 L 517 520 L 529 595 L 554 665 L 595 734 L 674 784 L 750 769 L 775 734 L 762 649 L 696 583 L 633 542 L 567 529 L 472 526 L 403 558" />
<glyph unicode="T" glyph-name="T" horiz-adv-x="624" d="M -50.4 78.8 L -56.7 22 L -28.4 -15.8 L 18.9 -34.6 L 63 -31.5 L 120 -3.15 L 170 40.9 L 249 139 L 460 406 L 558 507 L 621 576 L 715 636 L 800 671 L 876 674 L 954 655 L 967 627 L 967 598 L 948 567 L 895 545 L 828 536 L 747 539 L 633 558 L 403 633 L 306 636 L 239 633 L 202 614 L 135 567" />
<glyph unicode="U" glyph-name="U" horiz-adv-x="693" d="M -25.2 548 L -72.4 564 L -101 589 L -110 621 L -94.5 658 L -56.7 693 L -3.15 702 L 75.6 702 L 154 677 L 230 649 L 324 621 L 403 598 L 488 605 L 536 617 L 551 652 L 542 674 L 513 690 L 469 677 L 419 630 L 306 529 L 132 334 L 59.9 189 L 44.1 129 L 53.5 69.3 L 101 3.15 L 180 -31.5 L 280 -18.9 L 346 18.9 L 403 59.9 L 441 107 L 513 258 L 554 337 L 605 406 L 674 479 L 791 576 L 904 633 L 775 567 L 696 501 L 573 356 L 491 217 L 447 120 L 425 34.6 L 432 -56.7 L 479 -88.2 L 564 -56.7 L 602 -12.6 L 611 59.9" />
<glyph unicode="V" glyph-name="V" horiz-adv-x="873" d="M 44.1 526 L -6.3 551 L -31.5 592 L -22.1 652 L 31.5 690 L 97.6 699 L 154 690 L 220 668 L 346 611 L 410 592 L 482 583 L 558 589 L 598 608 L 621 639 L 617 655 L 592 674 L 554 671 L 510 639 L 403 548 L 293 432 L 205 309 L 126 176 L 72.5 59.9 L 41 -22 L 9.45 -53.5 L -25.2 -66.1 L -63 -72.5 L -104 -53.5 L -113 -25.2 L -72.4 15.8 L -15.8 28.4 L 12.6 28.4 L 117 3.15 L 224 -9.45 L 321 -15.8 L 435 12.6 L 570 85.1 L 658 170 L 737 290 L 794 413 L 828 529 L 863 709" />
<glyph unicode="W" glyph-name="W" horiz-adv-x="1178.1" d="M 120 529 L 72.5 548 L 44.1 573 L 44.1 614 L 66.1 665 L 120 690 L 208 687 L 280 671 L 331 652 L 472 598 L 545 592 L 646 592 L 677 608 L 693 624 L 693 646 L 684 665 L 665 674 L 617 668 L 576 643 L 488 558 L 362 425 L 268 293 L 189 158 L 132 31.5 L 110 -28.4 L 53.5 -66.1 L 6.3 -72.5 L -34.6 -47.2 L -44.1 -15.8 L -6.3 12.6 L 37.8 28.4 L 296 12.6 L 378 25.2 L 463 50.4 L 529 81.9 L 617 161 L 706 265 L 762 410 L 791 520 L 800 614 L 791 627 L 772 627 L 753 602 L 724 495 L 712 334 L 690 176 L 674 104 L 633 25.2 L 586 -50.4 L 548 -85 L 513 -101 L 485 -101 L 463 -72.5 L 466 -53.5 L 482 -34.6 L 517 -28.4 L 706 -25.2 L 788 -3.15 L 882 44.1 L 980 145 L 1055.2 265 L 1099.3 394 L 1124.6 504 L 1127.7 624" />
<glyph unicode="X" glyph-name="X" horiz-adv-x="753" d="M 34.6 274 L -40.9 271 L -101 249 L -167 195 L -186 126 L -186 94.5 L -161 34.6 L -101 -6.3 L -34.6 -18.9 L 31.5 -18.9 L 129 3.15 L 224 50.4 L 321 132 L 400 224 L 466 321 L 517 400 L 605 498 L 702 580 L 778 624 L 857 646 L 923 646 L 961 627 L 995 598 L 999 551 M 384 472 L 353 422 L 309 397 L 255 397 L 220 406 L 180 444 L 167 482 L 161 551 L 189 614 L 230 655 L 299 684 L 416 687 L 476 662 L 510 630 L 536 573 L 529 482 L 510 416 L 400 192 L 384 113 L 387 40.9 L 428 -15.8 L 501 -50.4 L 586 -28.4 L 636 28.4 L 646 78.8 L 643 120 L 595 167 L 548 167 L 510 139" />
<glyph unicode="Y" glyph-name="Y" horiz-adv-x="687" d="M 59.9 570 L 15.8 592 L -12.6 646 L -3.15 696 L 25.2 724 L 56.7 740 L 142 740 L 217 718 L 312 677 L 428 639 L 523 630 L 576 627 L 611 639 L 636 671 L 630 702 L 598 715 L 558 702 L 517 671 L 485 646 L 372 539 L 287 438 L 217 312 L 202 224 L 220 154 L 274 110 L 400 101 L 441 126 L 507 170 L 554 230 L 740 491 L 847 589 L 929 633 L 999 658 L 895 624 L 781 529 L 643 356 L 529 195 L 450 69.3 L 391 -22 L 315 -81.9 L 252 -110 L 148 -110 L 85 -88.2 L 50.4 -59.9 L 6.3 9.45 L -3.15 53.6 L 18.9 110 L 34.6 129 L 78.8 129 L 75.6 56.7 L 53.5 9.45 L -3.15 -47.2 L -50.4 -72.5" />
<glyph unicode="Z" glyph-name="Z" horiz-adv-x="885" d="M 195 504 L 170 551 L 167 611 L 195 665 L 236 690 L 274 693 L 362 662 L 444 633 L 526 611 L 602 595 L 680 583 L 737 573 L 844 580 L 917 605 L 948 627 L 942 668 L 923 684 L 866 687 L 810 680 L 743 652 L 680 608 L 614 542 L 498 375 L 425 284 L 346 205 L 202 56.7 L 132 3.15 L 53.5 -12.6 L -15.8 -3.15 L -34.6 12.6 L -40.9 40.9 L -22.1 97.6 L 34.6 120 L 110 117 L 195 101 L 312 63 L 539 -18.9 L 646 -37.8 L 753 -31.5 L 813 9.45 L 819 47.2 L 822 91.4 L 819 101" />
<glyph unicode="[" glyph-name="bracketleft" horiz-adv-x="416" d="M 687 702 L 576 699 L 44.1 -123 L 161 -123" />
<glyph unicode="\" glyph-name="backslash" horiz-adv-x="394" d="M 85 788 L 261 -129" />
<glyph unicode="]" glyph-name="bracketright" horiz-adv-x="639" d="M 447 731 L 570 728 L 34.6 -107 L -75.6 -117" />
<glyph unicode="^" glyph-name="asciicircum" horiz-adv-x="630" d="M 66.1 454 L 192 482 L 337 536 L 482 624 L 532 652 L 513 564 L 513 501 L 539 460 L 564 450" />
<glyph unicode="_" glyph-name="underscore" horiz-adv-x="520" d="M 25.2 40.9 L 488 40.9" />
<glyph unicode="`" glyph-name="grave" horiz-adv-x="337" d="M 22 806 L 50.4 731 L 104 680 L 186 655 L 284 652" />
<glyph unicode="a" glyph-name="a" horiz-adv-x="633" d="M 548 299 L 413 211 L 296 126 L 214 66.1 L 145 31.5 L 104 25.2 L 63 28.4 L 15.8 53.6 L -9.45 91.4 L -6.3 180 L 41 246 L 186 356 L 284 397 L 359 410 L 444 397 L 482 353 L 469 293 L 425 233 L 312 120 L 299 88.2 L 309 59.9 L 378 37.8 L 454 53.6 L 561 110 L 633 189" />
<glyph unicode="b" glyph-name="b" horiz-adv-x="507" d="M 0 186 L 88.2 249 L 135 299 L 343 523 L 469 684 L 495 721 L 495 740 L 485 765 L 454 775 L 428 765 L 331 671 L 167 482 L 69.3 343 L 22 261 L 3.15 217 L -3.15 148 L -3.15 97.6 L 28.4 59.9 L 63 34.6 L 94.5 22 L 142 22 L 217 53.6 L 293 120 L 343 195 L 356 255 L 359 306 L 359 337 L 346 356 L 306 356 L 296 315 L 324 265 L 387 198 L 432 170 L 476 170 L 507 189" />
<glyph unicode="c" glyph-name="c" horiz-adv-x="507" d="M 350 331 L 350 356 L 324 391 L 252 400 L 167 362 L 66.1 280 L 12.6 217 L -15.8 154 L -12.6 94.5 L 37.8 47.2 L 135 34.6 L 265 63 L 375 117 L 507 189" />
<glyph unicode="d" glyph-name="d" horiz-adv-x="636" d="M 457 274 L 476 337 L 450 394 L 369 416 L 246 391 L 113 312 L 44.1 249 L -3.15 186 L -22.1 129 L -9.45 85.1 L 28.4 40.9 L 110 18.9 L 186 44.1 L 302 120 L 410 230 L 523 350 L 646 457 L 765 586 L 803 639 L 810 665 L 800 684 L 781 687 L 743 668 L 668 567 L 583 463 L 529 387 L 381 170 L 350 113 L 343 72.4 L 350 50.4 L 372 34.6 L 410 40.9 L 491 72.4 L 558 113 L 636 189" />
<glyph unicode="e" glyph-name="e" horiz-adv-x="498" d="M 34.6 309 L 151 252 L 249 243 L 318 252 L 372 280 L 410 318 L 422 362 L 419 384 L 378 425 L 309 441 L 208 410 L 101 334 L 25.2 243 L -9.45 170 L -12.6 97.6 L 12.6 59.9 L 53.5 31.5 L 81.9 25.2 L 180 25.2 L 284 56.7 L 397 113 L 498 189" />
<glyph unicode="f" glyph-name="f" horiz-adv-x="359" d="M 3.15 198 L 142 265 L 315 391 L 428 495 L 507 602 L 542 674 L 539 737 L 517 765 L 488 772 L 438 721 L 107 331 L -195 -66.1 L -296 -217 L -340 -309 L -353 -356 L -334 -397 L -277 -378 L -227 -346 L -148 -236 L -88.2 -120 L -63 -15.8 L -66.1 94.5 L 15.8 53.6 L 110 56.7 L 154 59.9 L 246 94.5 L 306 132 L 359 189" />
<glyph unicode="g" glyph-name="g" horiz-adv-x="545" d="M 536 296 L 375 192 L 249 88.2 L 135 25.2 L 75.6 31.5 L 3.15 63 L -18.9 145 L 15.8 224 L 97.6 299 L 164 346 L 252 397 L 318 406 L 400 403 L 441 394 L 469 362 L 472 321 L 457 284 L 435 243 L 306 110 L 243 25.2 L 164 -85 L 81.9 -189 L -6.3 -290 L -78.8 -356 L -135 -397 L -176 -403 L -195 -391 L -208 -346 L -195 -302 L -107 -214 L 41 -104 L 167 -25.2 L 343 63 L 447 120 L 545 189" />
<glyph unicode="h" glyph-name="h" horiz-adv-x="576" d="M 113 372 L 249 457 L 369 551 L 485 655 L 536 709 L 548 750 L 539 781 L 523 797 L 488 803 L 419 737 L 274 580 L 176 460 L 78.8 318 L 9.45 208 L -66.1 50.4 L 56.7 214 L 192 356 L 280 413 L 391 419 L 428 391 L 441 328 L 413 265 L 328 167 L 280 101 L 284 47.2 L 302 40.9 L 350 53.6 L 422 81.9 L 501 123 L 576 189" />
<glyph unicode="i" glyph-name="i" horiz-adv-x="306" d="M 161 413 L 25.2 233 L -25.2 145 L -37.8 104 L -34.6 78.8 L -25.2 56.7 L -9.45 40.9 L 28.4 37.8 L 75.6 47.2 L 135 66.1 L 214 110 L 306 189 M 227 548 L 205 520 L 233 498 L 258 526 L 227 548" />
<glyph unicode="j" glyph-name="j" horiz-adv-x="224" d="M 129 413 L -50.4 104 L -205 -151 L -359 -346 L -419 -397 L -457 -406 L -491 -372 L -485 -334 L -454 -284 L -346 -189 L -88.2 -28.4 L 101 91.4 L 224 189 M 176 548 L 151 517 L 186 491 L 211 523 L 176 548" />
<glyph unicode="k" glyph-name="k" horiz-adv-x="472" d="M -75.6 34.6 L 15.8 224 L 132 410 L 265 602 L 387 756 L 454 797 L 491 791 L 510 756 L 491 687 L 397 573 L 290 472 L 158 365 L 97.6 318 L 28.4 239 L 126 346 L 220 397 L 290 413 L 381 410 L 416 384 L 422 337 L 410 299 L 346 252 L 296 239 L 198 236 L 161 246 L 104 265 L 94.5 129 L 107 75.6 L 145 37.8 L 186 18.9 L 249 18.9 L 334 63 L 394 97.6 L 435 135 L 472 189" />
<glyph unicode="l" glyph-name="l" horiz-adv-x="394" d="M 28.4 239 L 37.8 239 L 255 394 L 416 545 L 485 649 L 507 715 L 488 765 L 444 775 L 340 702 L 192 510 L 75.6 328 L -6.3 180 L -15.8 97.6 L 28.4 40.9 L 126 47.2 L 243 94.5 L 394 189" />
<glyph unicode="m" glyph-name="m" horiz-adv-x="917" d="M 120 403 L 139 378 L 113 331 L 47.2 239 L -59.9 132 L -158 28.4 L 81.9 255 L 220 356 L 324 403 L 378 413 L 410 410 L 435 375 L 432 318 L 410 249 L 258 47.2 L 413 233 L 545 343 L 636 397 L 715 400 L 753 381 L 756 334 L 728 271 L 624 139 L 602 97.6 L 611 63 L 652 37.8 L 731 53.6 L 819 104 L 917 189" />
<glyph unicode="n" glyph-name="n" horiz-adv-x="639" d="M 101 394 L 97.6 346 L 59.9 287 L 0 186 L -101 47.2 L 34.6 211 L 126 296 L 217 359 L 293 394 L 384 403 L 428 394 L 460 365 L 463 328 L 438 284 L 372 186 L 334 123 L 318 85.1 L 328 56.7 L 353 37.8 L 397 34.6 L 466 59.9 L 532 101 L 573 132 L 639 189" />
<glyph unicode="o" glyph-name="o" horiz-adv-x="621" d="M 432 369 L 400 406 L 299 419 L 186 384 L 78.8 306 L 9.45 220 L -12.6 145 L -6.3 88.2 L 28.4 40.9 L 94.5 18.9 L 158 37.8 L 271 97.6 L 334 158 L 387 217 L 428 280 L 444 309 L 444 350 L 422 372 L 391 365 L 340 299 L 340 243 L 356 186 L 391 151 L 466 126 L 529 132 L 621 189" />
<glyph unicode="p" glyph-name="p" horiz-adv-x="652" d="M 258 476 L 139 249 L -9.45 3.15 L -135 -189 L -230 -312 L -277 -356 L -306 -369 L -340 -365 L -350 -346 L -324 -255 L -246 -129 L -158 9.45 L -25.2 161 L 107 299 L 211 381 L 299 428 L 410 444 L 488 419 L 536 359 L 520 268 L 460 176 L 394 120 L 296 75.6 L 243 56.7 L 170 56.7 L 129 66.1 L 53.5 94.5 L 243 25.2 L 334 25.2 L 410 47.2 L 517 91.4 L 595 142 L 652 189" />
<glyph unicode="q" glyph-name="q" horiz-adv-x="558" d="M 315 145 L 296 0 L 252 -117 L 198 -220 L 117 -328 L 56.7 -381 L 12.6 -391 L -12.6 -372 L -18.9 -331 L 9.45 -271 L 120 -113 L 202 0 L 290 110 L 343 173 L 428 249 L 469 315 L 463 384 L 438 410 L 346 428 L 249 403 L 132 343 L 15.8 220 L -18.9 148 L 3.15 85.1 L 69.3 37.8 L 148 47.2 L 239 101 L 369 189 L 337 129 L 343 88.2 L 369 66.1 L 406 75.6 L 450 107 L 558 189" />
<glyph unicode="r" glyph-name="r" horiz-adv-x="482" d="M 0 189 L 59.9 236 L 126 315 L 164 384 L 183 403 L 195 435 L 189 460 L 167 469 L 148 454 L 148 432 L 176 400 L 236 381 L 274 378 L 306 372 L 315 353 L 302 324 L 176 151 L 151 88.2 L 164 31.5 L 205 9.45 L 246 12.6 L 315 53.6 L 482 189" />
<glyph unicode="s" glyph-name="s" horiz-adv-x="422" d="M -3.15 186 L 72.5 246 L 145 315 L 211 365 L 261 410 L 271 441 L 268 457 L 246 469 L 220 454 L 202 425 L 205 372 L 208 151 L 198 78.8 L 173 37.8 L 151 25.2 L 101 25.2 L 75.6 44.1 L 66.1 66.1 L 66.1 94.5 L 88.2 129 L 148 167 L 214 202 L 296 230 L 365 252 L 438 243" />
<glyph unicode="t" glyph-name="t" horiz-adv-x="491" d="M 0 189 L 239 384 L 391 539 L 485 674 L 529 772 L 542 803 L 526 825 L 495 806 L 432 690 L 353 548 L 214 293 L 120 101 L 117 66.1 L 132 37.8 L 173 22 L 224 22 L 312 53.6 L 425 120 L 491 189 M 113 438 L 120 441 L 460 425" />
<glyph unicode="u" glyph-name="u" horiz-adv-x="608" d="M 161 422 L 47.2 265 L -12.6 170 L -31.5 113 L -28.4 75.6 L 9.45 50.4 L 63 47.2 L 126 69.3 L 208 113 L 309 189 L 391 274 L 517 422 L 350 224 L 306 139 L 293 78.8 L 299 50.4 L 321 34.6 L 362 37.8 L 425 53.6 L 520 107 L 608 189" />
<glyph unicode="v" glyph-name="v" horiz-adv-x="630" d="M 0 375 L 37.8 406 L 72.5 422 L 94.5 410 L 81.9 346 L 44.1 274 L 3.15 198 L -25.2 135 L -37.8 97.6 L -28.4 69.3 L 3.15 40.9 L 69.3 37.8 L 192 94.5 L 271 167 L 343 252 L 375 306 L 406 365 L 416 425 L 400 447 L 362 447 L 353 410 L 369 365 L 422 328 L 507 318 L 564 334 L 633 384" />
<glyph unicode="w" glyph-name="w" horiz-adv-x="724" d="M 120 397 L 37.8 268 L -25.2 132 L -31.5 66.1 L 22 25.2 L 94.5 47.2 L 186 110 L 261 189 L 324 271 L 391 391 L 280 142 L 274 66.1 L 318 31.5 L 378 34.6 L 438 59.9 L 520 148 L 583 246 L 624 318 L 643 384 L 627 416 L 595 416 L 583 369 L 573 309 L 586 274 L 614 220 L 652 167 L 690 170 L 724 189" />
<glyph unicode="x" glyph-name="x" horiz-adv-x="570" d="M 9.45 302 L 113 356 L 195 391 L 239 400 L 265 375 L 224 198 L 211 59.9 L 277 22 L 372 44.1 L 482 104 L 570 189 M -53.6 0 L 113 142 L 287 271 L 425 353 L 523 400" />
<glyph unicode="y" glyph-name="y" horiz-adv-x="554" d="M 239 413 L 173 381 L 94.5 315 L 9.45 217 L -15.8 145 L -22.1 104 L -18.9 69.3 L 44.1 25.2 L 94.5 25.2 L 195 66.1 L 315 139 L 416 227 L 482 315 L 520 375 L 498 406 L 457 400 L 406 302 L 312 132 L 198 -72.5 L 110 -208 L 22 -309 L -69.3 -378 L -126 -400 L -161 -394 L -170 -378 L -173 -334 L -117 -261 L 31.5 -139 L 126 -72.5 L 277 6.3 L 422 88.2 L 510 148 L 554 189" />
<glyph unicode="z" glyph-name="z" horiz-adv-x="507" d="M 88.2 318 L 180 381 L 236 403 L 284 416 L 324 400 L 359 346 L 356 268 L 296 192 L 208 129 L 120 81.9 L 180 53.6 L 224 6.3 L 198 -107 L 126 -202 L 44.1 -293 L -28.4 -362 L -81.9 -394 L -120 -403 L -151 -391 L -164 -350 L -129 -293 L -53.6 -208 L 110 -88.2 L 227 -12.6 L 372 63 L 432 117 L 507 189" />
<glyph unicode="{" glyph-name="braceleft" horiz-adv-x="369" d="M 564 756 L 488 743 L 413 687 L 369 602 L 337 485 L 299 410 L 261 378 L 198 350 L 255 293 L 255 252 L 243 198 L 192 129 L 120 78.8 L 75.6 31.5 L 72.5 -25.2 L 78.8 -44.1 L 107 -85" />
<glyph unicode="|" glyph-name="bar" horiz-adv-x="639" d="M 627 810 L 37.8 -120" />
<glyph unicode="}" glyph-name="braceright" horiz-adv-x="532" d="M 438 781 L 472 753 L 485 702 L 460 652 L 391 592 L 334 529 L 302 454 L 302 413 L 315 378 L 362 346 L 293 318 L 243 271 L 205 176 L 176 72.4 L 113 -18.9 L 63 -59.9 L -3.15 -72.5" />
<glyph unicode="~" glyph-name="asciitilde" horiz-adv-x="369" d="M 53.5 687 L 53.5 636 L 107 621 L 161 649 L 208 687 L 255 690 L 293 674 L 309 624" />
<glyph unicode="&#xa0;" glyph-name="nbspace" horiz-adv-x="378" />
<glyph unicode="&#xa1;" glyph-name="exclamdown" horiz-adv-x="482" d="M 91.4 31.5 L 180 148 L 268 277 L 343 397 L 403 532 M 457 608 L 479 643 L 450 665 L 428 636 L 457 608" />
<glyph unicode="&#xa2;" glyph-name="cent" horiz-adv-x="600" d="M 350 331 L 350 356 L 324 391 L 252 400 L 167 362 L 66.1 280 L 12.6 217 L -15.8 154 L -12.6 94.5 L 37.8 47.2 L 135 34.6 L 265 63 L 375 117 L 507 189 M 418 600 L -60.5 -151" />
<glyph unicode="&#xa5;" glyph-name="yen" horiz-adv-x="510" d="M 53.5 662 L 110 469 L 164 378 L 224 321 L 280 312 L 340 334 L 413 413 L 469 504 L 491 589 L 498 639 L 463 665 L 419 655 L 384 611 L 343 510 L 328 391 L 306 268 L 306 94.5 L 315 -53.5 M 186 135 L 416 135 M 186 261 L 416 261" />
<glyph unicode="&#xa6;" glyph-name="brokenbar" horiz-adv-x="90.7" d="M 215 220 L 217 142 L 210 68 L 203 15.1 L 198 -15.1 L 192 -37.8 M 215 693 L 217 614 L 210 541 L 203 488 L 198 457 L 192 435" />
<glyph unicode="&#xa8;" glyph-name="dieresis" horiz-adv-x="567" d=" M 290 668 L 265 636 L 296 608 L 328 636 L 290 668 M 503 687 L 477 655 L 509 627 L 540 655 L 503 687" />
<glyph unicode="&#xa9;" glyph-name="copyright" horiz-adv-x="791" d="M 126 592 L 233 643 L 362 674 L 479 671 L 570 665 L 665 621 L 743 539 L 759 438 L 737 296 L 687 192 L 592 101 L 444 31.5 L 306 25.2 L 186 66.1 L 104 154 L 69.3 277 L 91.4 428 L 135 523 L 195 598 L 287 693 L 391 747 L 495 772 L 558 747 L 545 715 L 510 649 M 487 435 L 490 436 L 498 450 L 493 484 L 461 509 L 419 515 L 353 509 L 298 477 L 257 435 L 227 365 L 220 304 L 235 235 L 269 200 L 317 175 L 370 169 L 428 178 L 479 202 L 502 217 L 520 239 L 520 247" />
<glyph unicode="&#xaa;" glyph-name="ordfeminine" horiz-adv-x="317" d="M 432 780 L 364 736 L 306 693 L 265 663 L 230 646 L 209 643 L 189 644 L 165 657 L 153 676 L 154 720 L 178 753 L 250 808 L 299 828 L 337 835 L 380 828 L 398 806 L 392 776 L 370 747 L 313 690 L 307 674 L 312 660 L 346 649 L 384 657 L 438 685 L 474 724" />
<glyph unicode="&#xab;" glyph-name="guillemotleft" horiz-adv-x="270" d="M 169 247 L 49.1 159 L 141 68 M 295 247 L 175 159 L 267 68" />
<glyph unicode="&#xae;" glyph-name="registered" horiz-adv-x="791" d="M 126 592 L 233 643 L 362 674 L 479 671 L 570 665 L 665 621 L 743 539 L 759 438 L 737 296 L 687 192 L 592 101 L 444 31.5 L 306 25.2 L 186 66.1 L 104 154 L 69.3 277 L 91.4 428 L 135 523 L 195 598 L 287 693 L 391 747 L 495 772 L 558 747 L 545 715 L 510 649 M 236 181 L 239 268 L 250 351 L 268 447 L 285 523 L 293 532 M 243 513 L 328 509 L 389 493 L 422 476 L 438 447 L 436 411 L 414 376 L 376 343 L 337 332 L 298 329 L 260 328 L 235 335 L 290 284 L 343 232 L 386 195 L 428 172 L 454 170 L 466 184 L 474 214 L 474 254" />
<glyph unicode="&#xb0;" glyph-name="degree" horiz-adv-x="257" d="M 323 774 L 289 776 L 252 763 L 215 736 L 188 713 L 163 675 L 151 643 L 150 622 L 155 599 L 177 578 L 198 571 L 239 575 L 278 590 L 332 631 L 358 668 L 369 695 L 374 724 L 373 743 L 360 765 L 350 774 L 332 779 L 318 776 L 297 764 L 286 743 L 289 720 L 302 704 L 321 689 L 350 681 L 371 681 L 399 696 L 404 711 L 400 728 L 388 738 L 386 740 L 356 743 L 324 730 L 307 721 L 291 708 L 277 686" />
<glyph unicode="&#xb1;" glyph-name="plusminus" horiz-adv-x="509" d="M 496 20.2 L 857 17.6 M 796 592 L 580 257 M 529 438 L 874 436" />
<glyph unicode="&#xb2;" glyph-name="twosuperior" horiz-adv-x="313" d="M 408 950 L 392 912 L 370 895 L 342 891 L 326 902 L 323 917 L 337 954 L 373 986 L 408 997 L 436 1000.1 L 471 999 L 501 976 L 512 947 L 502 906 L 482 877 L 458 857 L 394 817 L 312 765 L 235 706 L 197 668 L 184 657 L 187 646 L 197 641 L 239 657 L 266 668 L 285 671 L 307 671 L 331 663 L 359 649 L 380 636 L 400 636 L 411 638 L 421 649" />
<glyph unicode="&#xb3;" glyph-name="threesuperior" horiz-adv-x="320" d="M 375 973 L 403 991 L 436 995 L 458 992 L 482 975 L 495 948 L 491 918 L 480 887 L 455 866 L 436 857 L 419 852 L 394 849 L 372 850 L 351 857 L 339 866 L 342 876 L 348 885 L 370 884 L 389 873 L 403 862 L 422 833 L 433 805 L 432 756 L 416 717 L 391 682 L 361 652 L 318 627 L 282 617 L 246 616 L 209 622 L 180 646 L 175 690 L 178 717 L 198 742 L 214 751 L 230 753 L 249 742 L 254 718 L 244 702 L 230 693" />
<glyph unicode="&#xb4;" glyph-name="acute" horiz-adv-x="378" d=" M 359 767 L 233 597" />
<glyph unicode="&#xb7;" glyph-name="middot" horiz-adv-x="246" d="M 208 412 L 178 374 L 215 340 L 253 374 L 208 412" />
<glyph unicode="&#xb9;" glyph-name="onesuperior" horiz-adv-x="224" d="M 216 918 L 265 920 L 312 928 L 367 945 L 410 969 L 435 986 L 458 1006.4 L 200 649" />
<glyph unicode="&#xba;" glyph-name="ordmasculine" horiz-adv-x="257" d="M 323 774 L 289 776 L 252 763 L 215 736 L 188 713 L 163 675 L 151 643 L 150 622 L 155 599 L 177 578 L 198 571 L 239 575 L 278 590 L 332 631 L 358 668 L 369 695 L 374 724 L 373 743 L 360 765 L 350 774 L 332 779 L 318 776 L 297 764 L 286 743 L 289 720 L 302 704 L 321 689 L 350 681 L 371 681 L 399 696 L 404 711 L 400 728 L 388 738 L 386 740 L 356 743 L 324 730 L 307 721 L 291 708 L 277 686" />
<glyph unicode="&#xbb;" glyph-name="guillemotright" horiz-adv-x="270" d="M 60.5 249 L 152 164 L 30.2 78.1 M 186 249 L 278 164 L 156 78.1" />
<glyph unicode="&#xbc;" glyph-name="onequarter" horiz-adv-x="1046.3" d="M 69.9 724 L 129 726 L 185 735 L 251 756 L 302 784 L 333 805 L 361 830 L 51 401 M 806 813 L 208 -126 M 618 17 L 949 437 L 849 365 L 748 295 L 644 246 L 539 198 L 599 206 L 711 202 L 754 197 L 798 185 L 818 172 L 835 155 L 845 142" />
<glyph unicode="&#xbd;" glyph-name="onehalf" horiz-adv-x="1031.2" d="M 69.9 724 L 129 726 L 185 735 L 251 756 L 302 784 L 333 805 L 361 830 L 51 401 M 806 813 L 208 -126 M 773 384 L 754 338 L 728 318 L 694 314 L 675 327 L 671 344 L 688 389 L 731 427 L 773 440 L 807 444 L 849 442 L 885 416 L 898 380 L 886 331 L 862 297 L 833 272 L 756 225 L 658 163 L 565 90.7 L 520 45.4 L 505 32.1 L 508 18.9 L 520 13.2 L 571 32.1 L 603 45.4 L 626 49.1 L 652 49.1 L 680 39.7 L 714 22.7 L 739 7.56 L 764 7.56 L 777 9.45 L 788 22.7" />
<glyph unicode="&#xbe;" glyph-name="threequarters" horiz-adv-x="1230.8" d="M 261 790 L 295 811 L 335 816 L 361 813 L 389 792 L 404 760 L 401 724 L 387 686 L 357 662 L 335 650 L 314 644 L 284 641 L 257 643 L 232 650 L 217 662 L 221 673 L 229 684 L 255 682 L 278 669 L 295 656 L 318 622 L 331 588 L 329 529 L 310 482 L 280 440 L 244 404 L 193 374 L 149 363 L 106 361 L 62.4 369 L 26.5 397 L 20.8 450 L 24.6 482 L 49.1 512 L 68 524 L 86.9 525 L 110 512 L 115 484 L 104 465 L 86.9 454 M 806 813 L 208 -126 M 618 17 L 949 437 L 849 365 L 748 295 L 644 246 L 539 198 L 599 206 L 711 202 L 754 197 L 798 185 L 818 172 L 835 155 L 845 142" />
<glyph unicode="&#xbf;" glyph-name="questiondown" horiz-adv-x="658" d="M 444 205 L 397 117 L 331 63 L 261 34.7 L 202 28.4 L 142 37.8 L 94.5 69.3 L 72.4 126 L 88.2 189 L 135 261 L 202 318 L 255 353 L 334 378 L 413 375 L 517 536 M 573 611 L 605 646 L 573 674 L 542 649 L 573 611" />
<glyph unicode="&#xc0;" glyph-name="Agrave" horiz-adv-x="932" d="M 44.1 120 L 59.9 50.4 L 101 12.6 L 135 -3.15 L 183 -3.15 L 217 9.45 L 277 50.4 L 331 113 L 397 214 L 488 362 L 573 485 L 668 592 L 775 690 L 863 750 L 954 775 L 1033.2 784 L 1074.2 784 L 1096.2 778 L 1152.9 747 L 1089.9 778 L 1045.8 781 L 1001.7 756 L 901 668 L 828 561 L 765 441 L 734 346 L 712 261 L 702 195 L 696 34.6 L 680 139 L 658 214 L 630 290 L 576 350 L 536 378 L 488 397 L 419 397 L 365 375 L 353 331 L 372 284 L 413 255 L 479 236 L 567 233 L 687 239 L 765 258 L 841 299 M 877 969 L 884 941 L 906 903 L 959 850" />
<glyph unicode="&#xc1;" glyph-name="Aacute" horiz-adv-x="932" d="M 44.1 120 L 59.9 50.4 L 101 12.6 L 135 -3.15 L 183 -3.15 L 217 9.45 L 277 50.4 L 331 113 L 397 214 L 488 362 L 573 485 L 668 592 L 775 690 L 863 750 L 954 775 L 1033.2 784 L 1074.2 784 L 1096.2 778 L 1152.9 747 L 1089.9 778 L 1045.8 781 L 1001.7 756 L 901 668 L 828 561 L 765 441 L 734 346 L 712 261 L 702 195 L 696 34.6 L 680 139 L 658 214 L 630 290 L 576 350 L 536 378 L 488 397 L 419 397 L 365 375 L 353 331 L 372 284 L 413 255 L 479 236 L 567 233 L 687 239 L 765 258 L 841 299 M 1087.5 1078.7 L 961 909" />
<glyph unicode="&#xc2;" glyph-name="Acircumflex" horiz-adv-x="932" d="M 44.1 120 L 59.9 50.4 L 101 12.6 L 135 -3.15 L 183 -3.15 L 217 9.45 L 277 50.4 L 331 113 L 397 214 L 488 362 L 573 485 L 668 592 L 775 690 L 863 750 L 954 775 L 1033.2 784 L 1074.2 784 L 1096.2 778 L 1152.9 747 L 1089.9 778 L 1045.8 781 L 1001.7 756 L 901 668 L 828 561 L 765 441 L 734 346 L 712 261 L 702 195 L 696 34.6 L 680 139 L 658 214 L 630 290 L 576 350 L 536 378 L 488 397 L 419 397 L 365 375 L 353 331 L 372 284 L 413 255 L 479 236 L 567 233 L 687 239 L 765 258 L 841 299 M 680 803 L 762 821 L 856 856 L 951 914 L 983 932 L 971 875 L 971 834 L 988 807 L 1004.0 801" />
<glyph unicode="&#xc3;" glyph-name="Atilde" horiz-adv-x="932" d="M 44.1 120 L 59.9 50.4 L 101 12.6 L 135 -3.15 L 183 -3.15 L 217 9.45 L 277 50.4 L 331 113 L 397 214 L 488 362 L 573 485 L 668 592 L 775 690 L 863 750 L 954 775 L 1033.2 784 L 1074.2 784 L 1096.2 778 L 1152.9 747 L 1089.9 778 L 1045.8 781 L 1001.7 756 L 901 668 L 828 561 L 765 441 L 734 346 L 712 261 L 702 195 L 696 34.6 L 680 139 L 658 214 L 630 290 L 576 350 L 536 378 L 488 397 L 419 397 L 365 375 L 353 331 L 372 284 L 413 255 L 479 236 L 567 233 L 687 239 L 765 258 L 841 299 M 807 882 L 807 848 L 843 837 L 880 856 L 912 882 L 943 884 L 969 873 L 980 839" />
<glyph unicode="&#xc4;" glyph-name="Adieresis" horiz-adv-x="932" d="M 44.1 120 L 59.9 50.4 L 101 12.6 L 135 -3.15 L 183 -3.15 L 217 9.45 L 277 50.4 L 331 113 L 397 214 L 488 362 L 573 485 L 668 592 L 775 690 L 863 750 L 954 775 L 1033.2 784 L 1074.2 784 L 1096.2 778 L 1152.9 747 L 1089.9 778 L 1045.8 781 L 1001.7 756 L 901 668 L 828 561 L 765 441 L 734 346 L 712 261 L 702 195 L 696 34.6 L 680 139 L 658 214 L 630 290 L 576 350 L 536 378 L 488 397 L 419 397 L 365 375 L 353 331 L 372 284 L 413 255 L 479 236 L 567 233 L 687 239 L 765 258 L 841 299 M 776 960 L 751 928 L 783 900 L 814 928 L 776 960 M 1022.1 947 L 997 915 L 1028.4 887 L 1059.9 915 L 1022.1 947" />
<glyph unicode="&#xc5;" glyph-name="Aring" horiz-adv-x="1316.7" d="M 12.6 186 L -9.45 123 L -6.3 56.7 L 37.8 15.8 L 91.4 6.3 L 176 12.6 L 287 69.3 L 428 167 L 693 394 L 866 573 L 958 674 L 1030.1 743 L 1111.9 813 L 1190.7 847 L 1244.2 876 L 1275.8 885 L 1307.2 885 L 1348.2 888 L 1395.4 917 L 1433.2 932 L 1483.7 939 L 1423.8 926 L 1367.1 898 L 1319.8 850 L 1250.6 753 L 1193.8 643 L 1140.3 548 L 1089.9 435 L 1017.4 315 L 970 183 L 951 110 L 951 53.6 L 970 28.4 L 995 25.2 L 1036.3 22 L 1080.4 37.8 L 1137.2 88.2 L 1187.6 139 L 1253.7 224 M 236 284 L 230 312 L 258 359 L 309 384 L 391 413 L 466 422 L 532 425 L 639 422 L 759 413 L 860 413 L 939 416 L 973 416 L 1011.2 438 M 734 643 L 706 684 L 721 759 L 775 819 L 873 860 L 1042.7 882 L 1146.6 879 L 1260.0 882 M 1340.0 1310.7 L 1284.3 1302.2 L 1235.1 1273.9 L 1198.3 1232.3 L 1168.0 1186.9 L 1153.8 1141.6 L 1152.9 1098.1 L 1164.2 1068.8 L 1186.9 1051.8 L 1220.0 1041.4 L 1257.8 1041.4 L 1311.7 1056.5 L 1375.0 1101.9 L 1415.6 1156.7 L 1434.5 1211.5 L 1436.4 1252.1 L 1425.1 1282.4 L 1395.8 1302.2 L 1373.1 1308.8 L 1340.0 1310.7" />
<glyph unicode="&#xc8;" glyph-name="Egrave" horiz-adv-x="652" d="M 249 690 L 271 630 L 306 589 L 365 548 L 432 523 L 501 526 L 564 558 L 608 595 L 621 636 L 624 680 L 605 712 L 570 734 L 523 740 L 472 731 L 397 696 L 328 630 L 296 554 L 293 485 L 299 438 L 340 397 L 384 381 L 413 387 L 425 394 L 432 410 L 422 432 L 387 447 L 340 450 L 296 441 L 224 413 L 148 346 L 107 261 L 104 161 L 129 104 L 176 50.4 L 236 31.5 L 340 25.2 L 413 50.4 L 469 78.8 L 507 110 L 561 186 M 613 985 L 620 957 L 642 919 L 695 865" />
<glyph unicode="&#xc9;" glyph-name="Eacute" horiz-adv-x="652" d="M 249 690 L 271 630 L 306 589 L 365 548 L 432 523 L 501 526 L 564 558 L 608 595 L 621 636 L 624 680 L 605 712 L 570 734 L 523 740 L 472 731 L 397 696 L 328 630 L 296 554 L 293 485 L 299 438 L 340 397 L 384 381 L 413 387 L 425 394 L 432 410 L 422 432 L 387 447 L 340 450 L 296 441 L 224 413 L 148 346 L 107 261 L 104 161 L 129 104 L 176 50.4 L 236 31.5 L 340 25.2 L 413 50.4 L 469 78.8 L 507 110 L 561 186 M 802 1090.6 L 676 920" />
<glyph unicode="&#xca;" glyph-name="Ecircumflex" horiz-adv-x="652" d="M 249 690 L 271 630 L 306 589 L 365 548 L 432 523 L 501 526 L 564 558 L 608 595 L 621 636 L 624 680 L 605 712 L 570 734 L 523 740 L 472 731 L 397 696 L 328 630 L 296 554 L 293 485 L 299 438 L 340 397 L 384 381 L 413 387 L 425 394 L 432 410 L 422 432 L 387 447 L 340 450 L 296 441 L 224 413 L 148 346 L 107 261 L 104 161 L 129 104 L 176 50.4 L 236 31.5 L 340 25.2 L 413 50.4 L 469 78.8 L 507 110 L 561 186 M 425 912 L 516 932 L 621 971 L 727 1035.0 L 763 1055.6 L 750 992 L 750 946 L 768 916 L 786 909" />
<glyph unicode="&#xcb;" glyph-name="Edieresis" horiz-adv-x="652" d="M 249 690 L 271 630 L 306 589 L 365 548 L 432 523 L 501 526 L 564 558 L 608 595 L 621 636 L 624 680 L 605 712 L 570 734 L 523 740 L 472 731 L 397 696 L 328 630 L 296 554 L 293 485 L 299 438 L 340 397 L 384 381 L 413 387 L 425 394 L 432 410 L 422 432 L 387 447 L 340 450 L 296 441 L 224 413 L 148 346 L 107 261 L 104 161 L 129 104 L 176 50.4 L 236 31.5 L 340 25.2 L 413 50.4 L 469 78.8 L 507 110 L 561 186 M 496 914 L 471 882 L 502 854 L 534 882 L 496 914 M 776 911 L 751 880 L 783 851 L 814 880 L 776 911" />
<glyph unicode="&#xcc;" glyph-name="Igrave" horiz-adv-x="649" d="M -3.15 66.1 L 3.15 0 L 63 -41 L 120 -44.1 L 186 -15.8 L 268 63 L 381 208 L 507 384 L 611 523 L 721 630 L 825 690 L 888 709 L 942 709 L 973 684 L 989 658 L 973 624 L 945 598 L 907 589 L 873 592 L 803 605 L 721 630 L 668 655 L 611 662 L 548 655 M 693 974 L 700 946 L 722 908 L 775 855" />
<glyph unicode="&#xcd;" glyph-name="Iacute" horiz-adv-x="649" d="M -3.15 66.1 L 3.15 0 L 63 -41 L 120 -44.1 L 186 -15.8 L 268 63 L 381 208 L 507 384 L 611 523 L 721 630 L 825 690 L 888 709 L 942 709 L 973 684 L 989 658 L 973 624 L 945 598 L 907 589 L 873 592 L 803 605 L 721 630 L 668 655 L 611 662 L 548 655 M 819 1094.7 L 693 925" />
<glyph unicode="&#xce;" glyph-name="Icircumflex" horiz-adv-x="649" d="M -3.15 66.1 L 3.15 0 L 63 -41 L 120 -44.1 L 186 -15.8 L 268 63 L 381 208 L 507 384 L 611 523 L 721 630 L 825 690 L 888 709 L 942 709 L 973 684 L 989 658 L 973 624 L 945 598 L 907 589 L 873 592 L 803 605 L 721 630 L 668 655 L 611 662 L 548 655 M 528 814 L 610 833 L 705 867 L 799 925 L 832 943 L 819 886 L 819 845 L 836 818 L 852 812" />
<glyph unicode="&#xcf;" glyph-name="Idieresis" horiz-adv-x="649" d="M -3.15 66.1 L 3.15 0 L 63 -41 L 120 -44.1 L 186 -15.8 L 268 63 L 381 208 L 507 384 L 611 523 L 721 630 L 825 690 L 888 709 L 942 709 L 973 684 L 989 658 L 973 624 L 945 598 L 907 589 L 873 592 L 803 605 L 721 630 L 668 655 L 611 662 L 548 655 M 612 957 L 587 926 L 618 897 L 650 926 L 612 957 M 831 952 L 806 921 L 837 892 L 869 921 L 831 952" />
<glyph unicode="&#xd0;" glyph-name="Eth" horiz-adv-x="765" d="M 53.5 356 L 504 353 M 573 567 L 520 520 L 447 482 L 406 479 L 346 482 L 280 513 L 255 564 L 258 611 L 306 674 L 375 699 L 466 693 L 520 684 L 592 652 L 658 592 L 699 507 L 706 397 L 693 290 L 655 186 L 602 110 L 520 47.2 L 450 22 L 384 31.5 L 321 53.6 L 277 104 L 274 170 L 296 211 L 321 227 L 350 233 L 384 233 L 432 214 L 447 208 M -85.1 59.9 L -66.1 15.8 L -12.6 -3.15 L 44.1 6.3 L 91.4 40.9 L 135 88.2 L 195 183 L 340 435 L 419 551 L 529 662 L 592 709 L 668 743 L 750 743 L 806 734 L 835 721 L 876 674" />
<glyph unicode="&#xd1;" glyph-name="Ntilde" horiz-adv-x="706" d="M -220 176 L -220 170 L -243 97.6 L -211 22 L -154 -3.15 L -94.5 -3.15 L -9.45 31.5 L 78.8 101 L 161 198 L 274 334 L 438 523 L 526 633 L 583 674 L 624 702 L 652 709 L 674 706 L 684 674 L 668 643 L 614 548 L 513 343 L 454 154 L 454 104 L 457 47.2 L 472 22 L 510 37.8 L 526 69.3 L 658 296 L 731 406 L 873 567 L 983 655 L 1067.8 709 L 1137.2 728 L 1206.4 724 L 1247.4 696 L 1241.1 643 L 1168.7 621 L 1143.4 621 L 1096.2 636 L 1042.7 662 L 992 734 M 693 888 L 693 855 L 729 844 L 765 863 L 796 888 L 828 890 L 853 880 L 864 846" />
<glyph unicode="&#xd2;" glyph-name="Ograve" horiz-adv-x="715" d="M 605 690 L 491 696 L 369 652 L 246 564 L 154 485 L 69.3 359 L 31.5 252 L 28.4 183 L 44.1 107 L 117 37.8 L 186 12.6 L 324 25.2 L 454 75.6 L 633 214 L 721 337 L 759 425 L 775 523 L 772 586 L 728 662 L 693 690 L 633 706 L 589 696 L 517 655 L 482 586 L 491 510 L 536 457 L 598 406 L 693 381 L 765 381 L 857 432 L 876 479 L 860 536 L 822 570 L 813 576 L 715 586 L 608 545 L 551 513 L 498 469 L 450 397 M 634 959 L 641 931 L 663 893 L 716 839" />
<glyph unicode="&#xd3;" glyph-name="Oacute" horiz-adv-x="715" d="M 605 690 L 491 696 L 369 652 L 246 564 L 154 485 L 69.3 359 L 31.5 252 L 28.4 183 L 44.1 107 L 117 37.8 L 186 12.6 L 324 25.2 L 454 75.6 L 633 214 L 721 337 L 759 425 L 775 523 L 772 586 L 728 662 L 693 690 L 633 706 L 589 696 L 517 655 L 482 586 L 491 510 L 536 457 L 598 406 L 693 381 L 765 381 L 857 432 L 876 479 L 860 536 L 822 570 L 813 576 L 715 586 L 608 545 L 551 513 L 498 469 L 450 397 M 856 1054.5 L 730 884" />
<glyph unicode="&#xd4;" glyph-name="Ocircumflex" horiz-adv-x="715" d="M 605 690 L 491 696 L 369 652 L 246 564 L 154 485 L 69.3 359 L 31.5 252 L 28.4 183 L 44.1 107 L 117 37.8 L 186 12.6 L 324 25.2 L 454 75.6 L 633 214 L 721 337 L 759 425 L 775 523 L 772 586 L 728 662 L 693 690 L 633 706 L 589 696 L 517 655 L 482 586 L 491 510 L 536 457 L 598 406 L 693 381 L 765 381 L 857 432 L 876 479 L 860 536 L 822 570 L 813 576 L 715 586 L 608 545 L 551 513 L 498 469 L 450 397 M 442 911 L 534 931 L 639 970 L 744 1034.3 L 780 1054.9 L 767 991 L 767 945 L 785 915 L 803 909" />
<glyph unicode="&#xd5;" glyph-name="Otilde" horiz-adv-x="715" d="M 605 690 L 491 696 L 369 652 L 246 564 L 154 485 L 69.3 359 L 31.5 252 L 28.4 183 L 44.1 107 L 117 37.8 L 186 12.6 L 324 25.2 L 454 75.6 L 633 214 L 721 337 L 759 425 L 775 523 L 772 586 L 728 662 L 693 690 L 633 706 L 589 696 L 517 655 L 482 586 L 491 510 L 536 457 L 598 406 L 693 381 L 765 381 L 857 432 L 876 479 L 860 536 L 822 570 L 813 576 L 715 586 L 608 545 L 551 513 L 498 469 L 450 397 M 480 929 L 480 894 L 518 882 L 556 902 L 589 929 L 623 931 L 649 920 L 661 885" />
<glyph unicode="&#xd6;" glyph-name="Odieresis" horiz-adv-x="715" d="M 605 690 L 491 696 L 369 652 L 246 564 L 154 485 L 69.3 359 L 31.5 252 L 28.4 183 L 44.1 107 L 117 37.8 L 186 12.6 L 324 25.2 L 454 75.6 L 633 214 L 721 337 L 759 425 L 775 523 L 772 586 L 728 662 L 693 690 L 633 706 L 589 696 L 517 655 L 482 586 L 491 510 L 536 457 L 598 406 L 693 381 L 765 381 L 857 432 L 876 479 L 860 536 L 822 570 L 813 576 L 715 586 L 608 545 L 551 513 L 498 469 L 450 397 M 526 956 L 501 925 L 532 896 L 564 925 L 526 956 M 815 917 L 790 885 L 822 857 L 853 885 L 815 917" />
<glyph unicode="&#xd7;" glyph-name="multiply" horiz-adv-x="387" d="M 3.15 -28.4 L 198 265 L 346 472 M 107 498 L 192 224 L 293 -3.15" />
<glyph unicode="&#xd8;" glyph-name="Oslash" horiz-adv-x="715" d="M 605 690 L 491 696 L 369 652 L 246 564 L 154 485 L 69.3 359 L 31.5 252 L 28.4 183 L 44.1 107 L 117 37.8 L 186 12.6 L 324 25.2 L 454 75.6 L 633 214 L 721 337 L 759 425 L 775 523 L 772 586 L 728 662 L 693 690 L 633 706 L 589 696 L 517 655 L 482 586 L 491 510 L 536 457 L 598 406 L 693 381 L 765 381 L 857 432 L 876 479 L 860 536 L 822 570 L 813 576 L 715 586 L 608 545 L 551 513 L 498 469 L 450 397 M 735 878 L 88.5 -136" />
<glyph unicode="&#xd9;" glyph-name="Ugrave" horiz-adv-x="693" d="M -25.2 548 L -72.4 564 L -101 589 L -110 621 L -94.5 658 L -56.7 693 L -3.15 702 L 75.6 702 L 154 677 L 230 649 L 324 621 L 403 598 L 488 605 L 536 617 L 551 652 L 542 674 L 513 690 L 469 677 L 419 630 L 306 529 L 132 334 L 59.9 189 L 44.1 129 L 53.5 69.3 L 101 3.15 L 180 -31.5 L 280 -18.9 L 346 18.9 L 403 59.9 L 441 107 L 513 258 L 554 337 L 605 406 L 674 479 L 791 576 L 904 633 L 775 567 L 696 501 L 573 356 L 491 217 L 447 120 L 425 34.6 L 432 -56.7 L 479 -88.2 L 564 -56.7 L 602 -12.6 L 611 59.9 M 642 959 L 649 930 L 671 892 L 724 839" />
<glyph unicode="&#xda;" glyph-name="Uacute" horiz-adv-x="693" d="M -25.2 548 L -72.4 564 L -101 589 L -110 621 L -94.5 658 L -56.7 693 L -3.15 702 L 75.6 702 L 154 677 L 230 649 L 324 621 L 403 598 L 488 605 L 536 617 L 551 652 L 542 674 L 513 690 L 469 677 L 419 630 L 306 529 L 132 334 L 59.9 189 L 44.1 129 L 53.5 69.3 L 101 3.15 L 180 -31.5 L 280 -18.9 L 346 18.9 L 403 59.9 L 441 107 L 513 258 L 554 337 L 605 406 L 674 479 L 791 576 L 904 633 L 775 567 L 696 501 L 573 356 L 491 217 L 447 120 L 425 34.6 L 432 -56.7 L 479 -88.2 L 564 -56.7 L 602 -12.6 L 611 59.9 M 823 1085.5 L 697 915" />
<glyph unicode="&#xdb;" glyph-name="Ucircumflex" horiz-adv-x="693" d="M -25.2 548 L -72.4 564 L -101 589 L -110 621 L -94.5 658 L -56.7 693 L -3.15 702 L 75.6 702 L 154 677 L 230 649 L 324 621 L 403 598 L 488 605 L 536 617 L 551 652 L 542 674 L 513 690 L 469 677 L 419 630 L 306 529 L 132 334 L 59.9 189 L 44.1 129 L 53.5 69.3 L 101 3.15 L 180 -31.5 L 280 -18.9 L 346 18.9 L 403 59.9 L 441 107 L 513 258 L 554 337 L 605 406 L 674 479 L 791 576 L 904 633 L 775 567 L 696 501 L 573 356 L 491 217 L 447 120 L 425 34.6 L 432 -56.7 L 479 -88.2 L 564 -56.7 L 602 -12.6 L 611 59.9 M 484 857 L 570 876 L 670 913 L 770 974 L 805 993 L 792 933 L 792 889 L 809 861 L 826 854" />
<glyph unicode="&#xdc;" glyph-name="Udieresis" horiz-adv-x="693" d="M -25.2 548 L -72.4 564 L -101 589 L -110 621 L -94.5 658 L -56.7 693 L -3.15 702 L 75.6 702 L 154 677 L 230 649 L 324 621 L 403 598 L 488 605 L 536 617 L 551 652 L 542 674 L 513 690 L 469 677 L 419 630 L 306 529 L 132 334 L 59.9 189 L 44.1 129 L 53.5 69.3 L 101 3.15 L 180 -31.5 L 280 -18.9 L 346 18.9 L 403 59.9 L 441 107 L 513 258 L 554 337 L 605 406 L 674 479 L 791 576 L 904 633 L 775 567 L 696 501 L 573 356 L 491 217 L 447 120 L 425 34.6 L 432 -56.7 L 479 -88.2 L 564 -56.7 L 602 -12.6 L 611 59.9 M 549 912 L 524 880 L 556 852 L 587 880 L 549 912 M 809 928 L 784 896 L 815 868 L 847 896 L 809 928" />
<glyph unicode="&#xdd;" glyph-name="Yacute" horiz-adv-x="687" d="M 59.9 570 L 15.8 592 L -12.6 646 L -3.15 696 L 25.2 724 L 56.7 740 L 142 740 L 217 718 L 312 677 L 428 639 L 523 630 L 576 627 L 611 639 L 636 671 L 630 702 L 598 715 L 558 702 L 517 671 L 485 646 L 372 539 L 287 438 L 217 312 L 202 224 L 220 154 L 274 110 L 400 101 L 441 126 L 507 170 L 554 230 L 740 491 L 847 589 L 929 633 L 999 658 L 895 624 L 781 529 L 643 356 L 529 195 L 450 69.3 L 391 -22 L 315 -81.9 L 252 -110 L 148 -110 L 85 -88.2 L 50.4 -59.9 L 6.3 9.45 L -3.15 53.6 L 18.9 110 L 34.6 129 L 78.8 129 L 75.6 56.7 L 53.5 9.45 L -3.15 -47.2 L -50.4 -72.5 M 820 1079.0 L 694 909" />
<glyph unicode="&#xe0;" glyph-name="agrave" horiz-adv-x="633" d="M 548 299 L 413 211 L 296 126 L 214 66.1 L 145 31.5 L 104 25.2 L 63 28.4 L 15.8 53.6 L -9.45 91.4 L -6.3 180 L 41 246 L 186 356 L 284 397 L 359 410 L 444 397 L 482 353 L 469 293 L 425 233 L 312 120 L 299 88.2 L 309 59.9 L 378 37.8 L 454 53.6 L 561 110 L 633 189 M 344 644 L 350 616 L 372 578 L 426 524" />
<glyph unicode="&#xe1;" glyph-name="aacute" horiz-adv-x="633" d="M 548 299 L 413 211 L 296 126 L 214 66.1 L 145 31.5 L 104 25.2 L 63 28.4 L 15.8 53.6 L -9.45 91.4 L -6.3 180 L 41 246 L 186 356 L 284 397 L 359 410 L 444 397 L 482 353 L 469 293 L 425 233 L 312 120 L 299 88.2 L 309 59.9 L 378 37.8 L 454 53.6 L 561 110 L 633 189 M 501 762 L 375 592" />
<glyph unicode="&#xe2;" glyph-name="acircumflex" horiz-adv-x="633" d="M 548 299 L 413 211 L 296 126 L 214 66.1 L 145 31.5 L 104 25.2 L 63 28.4 L 15.8 53.6 L -9.45 91.4 L -6.3 180 L 41 246 L 186 356 L 284 397 L 359 410 L 444 397 L 482 353 L 469 293 L 425 233 L 312 120 L 299 88.2 L 309 59.9 L 378 37.8 L 454 53.6 L 561 110 L 633 189 M 140 528 L 223 547 L 318 582 L 413 640 L 446 659 L 434 601 L 434 560 L 450 533 L 467 526" />
<glyph unicode="&#xe3;" glyph-name="atilde" horiz-adv-x="633" d="M 548 299 L 413 211 L 296 126 L 214 66.1 L 145 31.5 L 104 25.2 L 63 28.4 L 15.8 53.6 L -9.45 91.4 L -6.3 180 L 41 246 L 186 356 L 284 397 L 359 410 L 444 397 L 482 353 L 469 293 L 425 233 L 312 120 L 299 88.2 L 309 59.9 L 378 37.8 L 454 53.6 L 561 110 L 633 189 M 266 614 L 266 577 L 305 566 L 345 586 L 380 614 L 414 617 L 442 605 L 454 568" />
<glyph unicode="&#xe4;" glyph-name="adieresis" horiz-adv-x="633" d="M 548 299 L 413 211 L 296 126 L 214 66.1 L 145 31.5 L 104 25.2 L 63 28.4 L 15.8 53.6 L -9.45 91.4 L -6.3 180 L 41 246 L 186 356 L 284 397 L 359 410 L 444 397 L 482 353 L 469 293 L 425 233 L 312 120 L 299 88.2 L 309 59.9 L 378 37.8 L 454 53.6 L 561 110 L 633 189 M 273 657 L 248 625 L 280 597 L 311 625 L 273 657 M 548 671 L 523 639 L 554 611 L 586 639 L 548 671" />
<glyph unicode="&#xe5;" glyph-name="aring" horiz-adv-x="460" d="M 309 438 L 186 454 L 53.5 381 L -56.7 236 L -117 88.2 L -97.6 50.4 L -37.8 53.6 L 132 195 L 173 233 L 233 331 L 265 384 L 265 425 L 324 438 L 173 189 L 139 97.6 L 129 47.2 L 161 34.6 L 236 66.1 L 334 151 L 397 224 M 378 885 L 322 877 L 273 849 L 236 807 L 206 762 L 192 716 L 191 673 L 202 644 L 225 627 L 258 616 L 296 616 L 350 631 L 413 677 L 454 731 L 472 786 L 474 827 L 463 857 L 434 877 L 411 884 L 378 885" />
<glyph unicode="&#xe8;" glyph-name="egrave" horiz-adv-x="498" d="M 34.6 309 L 151 252 L 249 243 L 318 252 L 372 280 L 410 318 L 422 362 L 419 384 L 378 425 L 309 441 L 208 410 L 101 334 L 25.2 243 L -9.45 170 L -12.6 97.6 L 12.6 59.9 L 53.5 31.5 L 81.9 25.2 L 180 25.2 L 284 56.7 L 397 113 L 498 189 M 275 651 L 281 622 L 303 585 L 357 531" />
<glyph unicode="&#xe9;" glyph-name="eacute" horiz-adv-x="498" d="M 34.6 309 L 151 252 L 249 243 L 318 252 L 372 280 L 410 318 L 422 362 L 419 384 L 378 425 L 309 441 L 208 410 L 101 334 L 25.2 243 L -9.45 170 L -12.6 97.6 L 12.6 59.9 L 53.5 31.5 L 81.9 25.2 L 180 25.2 L 284 56.7 L 397 113 L 498 189 M 426 732 L 300 561" />
<glyph unicode="&#xea;" glyph-name="ecircumflex" horiz-adv-x="498" d="M 34.6 309 L 151 252 L 249 243 L 318 252 L 372 280 L 410 318 L 422 362 L 419 384 L 378 425 L 309 441 L 208 410 L 101 334 L 25.2 243 L -9.45 170 L -12.6 97.6 L 12.6 59.9 L 53.5 31.5 L 81.9 25.2 L 180 25.2 L 284 56.7 L 397 113 L 498 189 M 112 580 L 203 601 L 307 640 L 412 703 L 448 724 L 434 660 L 434 615 L 453 585 L 471 578" />
<glyph unicode="&#xeb;" glyph-name="edieresis" horiz-adv-x="498" d="M 34.6 309 L 151 252 L 249 243 L 318 252 L 372 280 L 410 318 L 422 362 L 419 384 L 378 425 L 309 441 L 208 410 L 101 334 L 25.2 243 L -9.45 170 L -12.6 97.6 L 12.6 59.9 L 53.5 31.5 L 81.9 25.2 L 180 25.2 L 284 56.7 L 397 113 L 498 189 M 235 677 L 209 645 L 241 617 L 272 645 L 235 677 M 449 670 L 424 639 L 456 610 L 487 639 L 449 670" />
<glyph unicode="&#xec;" glyph-name="igrave" horiz-adv-x="306" d="M 161 413 L 25.2 233 L -25.2 145 L -37.8 104 L -34.6 78.8 L -25.2 56.7 L -9.45 40.9 L 28.4 37.8 L 75.6 47.2 L 135 66.1 L 214 110 L 306 189  M 194 644 L 201 615 L 223 578 L 276 524" />
<glyph unicode="&#xed;" glyph-name="iacute" horiz-adv-x="306" d="M 161 413 L 25.2 233 L -25.2 145 L -37.8 104 L -34.6 78.8 L -25.2 56.7 L -9.45 40.9 L 28.4 37.8 L 75.6 47.2 L 135 66.1 L 214 110 L 306 189  M 323 781 L 197 610" />
<glyph unicode="&#xee;" glyph-name="icircumflex" horiz-adv-x="306" d="M 161 413 L 25.2 233 L -25.2 145 L -37.8 104 L -34.6 78.8 L -25.2 56.7 L -9.45 40.9 L 28.4 37.8 L 75.6 47.2 L 135 66.1 L 214 110 L 306 189  M 47.5 607 L 142 628 L 251 668 L 359 734 L 397 756 L 383 689 L 383 642 L 402 612 L 421 604" />
<glyph unicode="&#xef;" glyph-name="idieresis" horiz-adv-x="306" d="M 161 413 L 25.2 233 L -25.2 145 L -37.8 104 L -34.6 78.8 L -25.2 56.7 L -9.45 40.9 L 28.4 37.8 L 75.6 47.2 L 135 66.1 L 214 110 L 306 189  M 126 632 L 100 601 L 132 572 L 163 601 L 126 632 M 367 639 L 342 607 L 373 579 L 405 607 L 367 639" />
<glyph unicode="&#xf1;" glyph-name="ntilde" horiz-adv-x="639" d="M 101 394 L 97.6 346 L 59.9 287 L 0 186 L -101 47.2 L 34.6 211 L 126 296 L 217 359 L 293 394 L 384 403 L 428 394 L 460 365 L 463 328 L 438 284 L 372 186 L 334 123 L 318 85.1 L 328 56.7 L 353 37.8 L 397 34.6 L 466 59.9 L 532 101 L 573 132 L 639 189 M 233 553 L 233 519 L 268 509 L 304 528 L 335 553 L 367 555 L 392 545 L 402 511" />
<glyph unicode="&#xf2;" glyph-name="ograve" horiz-adv-x="621" d="M 432 369 L 400 406 L 299 419 L 186 384 L 78.8 306 L 9.45 220 L -12.6 145 L -6.3 88.2 L 28.4 40.9 L 94.5 18.9 L 158 37.8 L 271 97.6 L 334 158 L 387 217 L 428 280 L 444 309 L 444 350 L 422 372 L 391 365 L 340 299 L 340 243 L 356 186 L 391 151 L 466 126 L 529 132 L 621 189 M 330 670 L 336 642 L 358 604 L 412 550" />
<glyph unicode="&#xf3;" glyph-name="oacute" horiz-adv-x="621" d="M 432 369 L 400 406 L 299 419 L 186 384 L 78.8 306 L 9.45 220 L -12.6 145 L -6.3 88.2 L 28.4 40.9 L 94.5 18.9 L 158 37.8 L 271 97.6 L 334 158 L 387 217 L 428 280 L 444 309 L 444 350 L 422 372 L 391 365 L 340 299 L 340 243 L 356 186 L 391 151 L 466 126 L 529 132 L 621 189 M 490 766 L 364 596" />
<glyph unicode="&#xf4;" glyph-name="ocircumflex" horiz-adv-x="621" d="M 432 369 L 400 406 L 299 419 L 186 384 L 78.8 306 L 9.45 220 L -12.6 145 L -6.3 88.2 L 28.4 40.9 L 94.5 18.9 L 158 37.8 L 271 97.6 L 334 158 L 387 217 L 428 280 L 444 309 L 444 350 L 422 372 L 391 365 L 340 299 L 340 243 L 356 186 L 391 151 L 466 126 L 529 132 L 621 189 M 135 542 L 219 561 L 315 596 L 412 655 L 445 674 L 433 615 L 433 573 L 449 546 L 466 540" />
<glyph unicode="&#xf5;" glyph-name="otilde" horiz-adv-x="621" d="M 432 369 L 400 406 L 299 419 L 186 384 L 78.8 306 L 9.45 220 L -12.6 145 L -6.3 88.2 L 28.4 40.9 L 94.5 18.9 L 158 37.8 L 271 97.6 L 334 158 L 387 217 L 428 280 L 444 309 L 444 350 L 422 372 L 391 365 L 340 299 L 340 243 L 356 186 L 391 151 L 466 126 L 529 132 L 621 189 M 246 612 L 246 576 L 284 565 L 323 585 L 357 612 L 391 615 L 418 603 L 429 567" />
<glyph unicode="&#xf6;" glyph-name="odieresis" horiz-adv-x="621" d="M 432 369 L 400 406 L 299 419 L 186 384 L 78.8 306 L 9.45 220 L -12.6 145 L -6.3 88.2 L 28.4 40.9 L 94.5 18.9 L 158 37.8 L 271 97.6 L 334 158 L 387 217 L 428 280 L 444 309 L 444 350 L 422 372 L 391 365 L 340 299 L 340 243 L 356 186 L 391 151 L 466 126 L 529 132 L 621 189 M 297 659 L 271 627 L 303 599 L 334 627 L 297 659 M 538 664 L 513 633 L 544 604 L 576 633 L 538 664" />
<glyph unicode="&#xf7;" glyph-name="divide" horiz-adv-x="585" d="M 284 501 L 259 469 L 290 441 L 322 469 L 284 501 M 288 249 L 262 217 L 294 189 L 325 217 L 288 249 M 56.2 356 L 529 353" />
<glyph unicode="&#xf8;" glyph-name="oslash" horiz-adv-x="621" d="M 432 369 L 400 406 L 299 419 L 186 384 L 78.8 306 L 9.45 220 L -12.6 145 L -6.3 88.2 L 28.4 40.9 L 94.5 18.9 L 158 37.8 L 271 97.6 L 334 158 L 387 217 L 428 280 L 444 309 L 444 350 L 422 372 L 391 365 L 340 299 L 340 243 L 356 186 L 391 151 L 466 126 L 529 132 L 621 189 M 454 569 L 35.3 -88.2" />
<glyph unicode="&#xf9;" glyph-name="ugrave" horiz-adv-x="608" d="M 161 422 L 47.2 265 L -12.6 170 L -31.5 113 L -28.4 75.6 L 9.45 50.4 L 63 47.2 L 126 69.3 L 208 113 L 309 189 L 391 274 L 517 422 L 350 224 L 306 139 L 293 78.8 L 299 50.4 L 321 34.6 L 362 37.8 L 425 53.6 L 520 107 L 608 189 M 339 651 L 345 622 L 367 584 L 420 531" />
<glyph unicode="&#xfa;" glyph-name="uacute" horiz-adv-x="608" d="M 161 422 L 47.2 265 L -12.6 170 L -31.5 113 L -28.4 75.6 L 9.45 50.4 L 63 47.2 L 126 69.3 L 208 113 L 309 189 L 391 274 L 517 422 L 350 224 L 306 139 L 293 78.8 L 299 50.4 L 321 34.6 L 362 37.8 L 425 53.6 L 520 107 L 608 189 M 461 782 L 335 612" />
<glyph unicode="&#xfb;" glyph-name="ucircumflex" horiz-adv-x="608" d="M 161 422 L 47.2 265 L -12.6 170 L -31.5 113 L -28.4 75.6 L 9.45 50.4 L 63 47.2 L 126 69.3 L 208 113 L 309 189 L 391 274 L 517 422 L 350 224 L 306 139 L 293 78.8 L 299 50.4 L 321 34.6 L 362 37.8 L 425 53.6 L 520 107 L 608 189 M 161 598 L 254 619 L 360 658 L 467 723 L 505 744 L 491 679 L 491 632 L 509 602 L 528 595" />
<glyph unicode="&#xfc;" glyph-name="udieresis" horiz-adv-x="608" d="M 161 422 L 47.2 265 L -12.6 170 L -31.5 113 L -28.4 75.6 L 9.45 50.4 L 63 47.2 L 126 69.3 L 208 113 L 309 189 L 391 274 L 517 422 L 350 224 L 306 139 L 293 78.8 L 299 50.4 L 321 34.6 L 362 37.8 L 425 53.6 L 520 107 L 608 189 M 268 653 L 242 621 L 274 593 L 305 621 L 268 653 M 572 681 L 546 649 L 578 621 L 609 649 L 572 681" />
<glyph unicode="&#xfd;" glyph-name="yacute" horiz-adv-x="554" d="M 239 413 L 173 381 L 94.5 315 L 9.45 217 L -15.8 145 L -22.1 104 L -18.9 69.3 L 44.1 25.2 L 94.5 25.2 L 195 66.1 L 315 139 L 416 227 L 482 315 L 520 375 L 498 406 L 457 400 L 406 302 L 312 132 L 198 -72.5 L 110 -208 L 22 -309 L -69.3 -378 L -126 -400 L -161 -394 L -170 -378 L -173 -334 L -117 -261 L 31.5 -139 L 126 -72.5 L 277 6.3 L 422 88.2 L 510 148 L 554 189 M 453 741 L 327 571" />
<glyph unicode="&#xff;" glyph-name="ydieresis" horiz-adv-x="554" d="M 239 413 L 173 381 L 94.5 315 L 9.45 217 L -15.8 145 L -22.1 104 L -18.9 69.3 L 44.1 25.2 L 94.5 25.2 L 195 66.1 L 315 139 L 416 227 L 482 315 L 520 375 L 498 406 L 457 400 L 406 302 L 312 132 L 198 -72.5 L 110 -208 L 22 -309 L -69.3 -378 L -126 -400 L -161 -394 L -170 -378 L -173 -334 L -117 -261 L 31.5 -139 L 126 -72.5 L 277 6.3 L 422 88.2 L 510 148 L 554 189 M 281 689 L 255 658 L 287 629 L 318 658 L 281 689 M 512 690 L 486 658 L 518 630 L 549 658 L 512 690" />
<glyph unicode="&#x2013;" glyph-name="endash" horiz-adv-x="836" d="M 80.3 261 L 756 258" />
<glyph unicode="&#x2014;" glyph-name="emdash" horiz-adv-x="1115.1" d="M 107 261 L 1008.0 258" />
<glyph unicode="&#x201c;" glyph-name="quotedblleft" horiz-adv-x="319" d="M 335 754 L 329 780 L 310 760 L 336 720 L 370 692 L 393 683 M 476 754 L 471 780 L 452 760 L 478 720 L 512 692 L 534 683" />
<glyph unicode="&#x201d;" glyph-name="quotedblright" horiz-adv-x="319" d="M 184 726 L 190 751 L 208 731 L 183 692 L 149 663 L 126 655 M 326 726 L 332 751 L 350 731 L 325 692 L 291 663 L 268 655" />
<glyph unicode="&#x2039;" glyph-name="guilsinglleft" horiz-adv-x="180" d="M 169 247 L 49.1 159 L 141 68" />
<glyph unicode="&#x203a;" glyph-name="guilsinglright" horiz-adv-x="180" d="M 60.5 249 L 152 164 L 30.2 78.1" />
<glyph unicode="&#x20ac;" glyph-name="Euro" horiz-adv-x="545" d="M 580 775 L 570 854 L 498 945 L 413 967 L 337 948 L 239 832 L 151 674 L 94.5 488 L 53.5 315 L 72.5 139 L 135 28.4 L 220 -18.9 L 312 -6.3 L 447 81.9 M 66.1 274 L 139 280 L 239 255 L 290 265 L 359 293 M 66.1 400 L 139 406 L 239 381 L 290 391 L 359 419" />
<glyph unicode="&#x0178;" glyph-name="Ydieresis" horiz-adv-x="687" d="M 59.9 570 L 15.8 592 L -12.6 646 L -3.15 696 L 25.2 724 L 56.7 740 L 142 740 L 217 718 L 312 677 L 428 639 L 523 630 L 576 627 L 611 639 L 636 671 L 630 702 L 598 715 L 558 702 L 517 671 L 485 646 L 372 539 L 287 438 L 217 312 L 202 224 L 220 154 L 274 110 L 400 101 L 441 126 L 507 170 L 554 230 L 740 491 L 847 589 L 929 633 L 999 658 L 895 624 L 781 529 L 643 356 L 529 195 L 450 69.3 L 391 -22 L 315 -81.9 L 252 -110 L 148 -110 L 85 -88.2 L 50.4 -59.9 L 6.3 9.45 L -3.15 53.6 L 18.9 110 L 34.6 129 L 78.8 129 L 75.6 56.7 L 53.5 9.45 L -3.15 -47.2 L -50.4 -72.5 M 656 924 L 631 893 L 662 864 L 694 893 L 656 924 M 899 967 L 874 936 L 906 908 L 937 936 L 899 967" />
<glyph unicode="&#x102;" glyph-name="Abreve" horiz-adv-x="932" d="M 44.1 120 L 59.9 50.4 L 101 12.6 L 135 -3.15 L 183 -3.15 L 217 9.45 L 277 50.4 L 331 113 L 397 214 L 488 362 L 573 485 L 668 592 L 775 690 L 863 750 L 954 775 L 1033.2 784 L 1074.2 784 L 1096.2 778 L 1152.9 747 L 1089.9 778 L 1045.8 781 L 1001.7 756 L 901 668 L 828 561 L 765 441 L 734 346 L 712 261 L 702 195 L 696 34.6 L 680 139 L 658 214 L 630 290 L 576 350 L 536 378 L 488 397 L 419 397 L 365 375 L 353 331 L 372 284 L 413 255 L 479 236 L 567 233 L 687 239 L 765 258 L 841 299 M963.173 987.291C920.519 970.853 927.566 910.958 829.541 911.851C731.515 912.745 780.508 962.599 754.376 1000.42" />
<glyph unicode="&#x114;" glyph-name="Ebreve" horiz-adv-x="652" d="M 249 690 L 271 630 L 306 589 L 365 548 L 432 523 L 501 526 L 564 558 L 608 595 L 621 636 L 624 680 L 605 712 L 570 734 L 523 740 L 472 731 L 397 696 L 328 630 L 296 554 L 293 485 L 299 438 L 340 397 L 384 381 L 413 387 L 425 394 L 432 410 L 422 432 L 387 447 L 340 450 L 296 441 L 224 413 L 148 346 L 107 261 L 104 161 L 129 104 L 176 50.4 L 236 31.5 L 340 25.2 L 413 50.4 L 469 78.8 L 507 110 L 561 186 M734.173 989.738C691.519 973.3 698.566 913.404 600.541 914.298C502.515 915.191 551.508 965.045 525.376 1002.87" />
<glyph unicode="&#x11E;" glyph-name="Gbreve" horiz-adv-x="762" d="M 482 709 L 510 630 L 564 576 L 658 532 L 747 532 L 832 576 L 876 627 L 879 671 L 866 721 L 819 747 L 759 743 L 668 706 L 592 671 L 476 589 L 387 501 L 290 381 L 214 236 L 198 139 L 233 66.1 L 287 12.6 L 365 -3.15 L 463 15.8 L 561 78.8 L 614 132 L 655 202 L 580 -15.8 L 504 -164 L 422 -255 L 321 -312 L 258 -302 L 211 -258 L 217 -183 L 258 -126 L 337 -85 L 469 -34.6 L 554 -22 L 624 -15.8 L 734 -12.6 M769.173 964.379C726.519 947.942 733.566 888.046 635.541 888.94C537.515 889.833 586.508 939.687 560.376 977.507" />
<glyph unicode="&#x12C;" glyph-name="Ibreve" horiz-adv-x="649" d="M -3.15 66.1 L 3.15 0 L 63 -41 L 120 -44.1 L 186 -15.8 L 268 63 L 381 208 L 507 384 L 611 523 L 721 630 L 825 690 L 888 709 L 942 709 L 973 684 L 989 658 L 973 624 L 945 598 L 907 589 L 873 592 L 803 605 L 721 630 L 668 655 L 611 662 L 548 655 M813.173 957.784C770.519 941.346 777.566 881.451 679.541 882.344C581.515 883.238 630.508 933.092 604.376 970.912" />
<glyph unicode="&#x14E;" glyph-name="Obreve" horiz-adv-x="715" d="M 605 690 L 491 696 L 369 652 L 246 564 L 154 485 L 69.3 359 L 31.5 252 L 28.4 183 L 44.1 107 L 117 37.8 L 186 12.6 L 324 25.2 L 454 75.6 L 633 214 L 721 337 L 759 425 L 775 523 L 772 586 L 728 662 L 693 690 L 633 706 L 589 696 L 517 655 L 482 586 L 491 510 L 536 457 L 598 406 L 693 381 L 765 381 L 857 432 L 876 479 L 860 536 L 822 570 L 813 576 L 715 586 L 608 545 L 551 513 L 498 469 L 450 397 M754.173 988.136C711.519 971.698 718.566 911.803 620.541 912.696C522.515 913.59 571.508 963.443 545.376 1001.26" />
<glyph unicode="&#x16C;" glyph-name="Ubreve" horiz-adv-x="693" d="M -25.2 548 L -72.4 564 L -101 589 L -110 621 L -94.5 658 L -56.7 693 L -3.15 702 L 75.6 702 L 154 677 L 230 649 L 324 621 L 403 598 L 488 605 L 536 617 L 551 652 L 542 674 L 513 690 L 469 677 L 419 630 L 306 529 L 132 334 L 59.9 189 L 44.1 129 L 53.5 69.3 L 101 3.15 L 180 -31.5 L 280 -18.9 L 346 18.9 L 403 59.9 L 441 107 L 513 258 L 554 337 L 605 406 L 674 479 L 791 576 L 904 633 L 775 567 L 696 501 L 573 356 L 491 217 L 447 120 L 425 34.6 L 432 -56.7 L 479 -88.2 L 564 -56.7 L 602 -12.6 L 611 59.9 M747.173 1009.46C704.519 993.018 711.566 933.122 613.541 934.016C515.515 934.909 564.508 984.763 538.376 1022.58" />
<glyph unicode="&#x103;" glyph-name="abreve" horiz-adv-x="633" d="M 548 299 L 413 211 L 296 126 L 214 66.1 L 145 31.5 L 104 25.2 L 63 28.4 L 15.8 53.6 L -9.45 91.4 L -6.3 180 L 41 246 L 186 356 L 284 397 L 359 410 L 444 397 L 482 353 L 469 293 L 425 233 L 312 120 L 299 88.2 L 309 59.9 L 378 37.8 L 454 53.6 L 561 110 L 633 189 M488.173 711.392C445.519 694.954 452.566 635.058 354.541 635.952C256.515 636.846 305.508 686.699 279.376 724.519" />
<glyph unicode="&#x115;" glyph-name="ebreve" horiz-adv-x="498" d="M 34.6 309 L 151 252 L 249 243 L 318 252 L 372 280 L 410 318 L 422 362 L 419 384 L 378 425 L 309 441 L 208 410 L 101 334 L 25.2 243 L -9.45 170 L -12.6 97.6 L 12.6 59.9 L 53.5 31.5 L 81.9 25.2 L 180 25.2 L 284 56.7 L 397 113 L 498 189 M445.173 677.765C402.519 661.327 409.566 601.432 311.541 602.325C213.515 603.219 262.508 653.073 236.376 690.893" />
<glyph unicode="&#x11F;" glyph-name="gbreve" horiz-adv-x="545" d="M 536 296 L 375 192 L 249 88.2 L 135 25.2 L 75.6 31.5 L 3.15 63 L -18.9 145 L 15.8 224 L 97.6 299 L 164 346 L 252 397 L 318 406 L 400 403 L 441 394 L 469 362 L 472 321 L 457 284 L 435 243 L 306 110 L 243 25.2 L 164 -85 L 81.9 -189 L -6.3 -290 L -78.8 -356 L -135 -397 L -176 -403 L -195 -391 L -208 -346 L -195 -302 L -107 -214 L 41 -104 L 167 -25.2 L 343 63 L 447 120 L 545 189 M460.173 708.675C417.519 692.237 424.566 632.341 326.541 633.235C228.515 634.129 277.508 683.982 251.376 721.802" />
<glyph unicode="&#x12D;" glyph-name="ibreve" horiz-adv-x="306" d="M 161 413 L 25.2 233 L -25.2 145 L -37.8 104 L -34.6 78.8 L -25.2 56.7 L -9.45 40.9 L 28.4 37.8 L 75.6 47.2 L 135 66.1 L 214 110 L 306 189  M384.173 706.231C341.519 689.793 348.566 629.898 250.541 630.791C152.515 631.685 201.508 681.538 175.376 719.358" />
<glyph unicode="&#x14F;" glyph-name="obreve" horiz-adv-x="621" d="M 432 369 L 400 406 L 299 419 L 186 384 L 78.8 306 L 9.45 220 L -12.6 145 L -6.3 88.2 L 28.4 40.9 L 94.5 18.9 L 158 37.8 L 271 97.6 L 334 158 L 387 217 L 428 280 L 444 309 L 444 350 L 422 372 L 391 365 L 340 299 L 340 243 L 356 186 L 391 151 L 466 126 L 529 132 L 621 189 M484.173 730.465C441.519 714.027 448.566 654.131 350.541 655.025C252.515 655.918 301.508 705.772 275.376 743.592" />
<glyph unicode="&#x16D;" glyph-name="ubreve" horiz-adv-x="608" d="M 161 422 L 47.2 265 L -12.6 170 L -31.5 113 L -28.4 75.6 L 9.45 50.4 L 63 47.2 L 126 69.3 L 208 113 L 309 189 L 391 274 L 517 422 L 350 224 L 306 139 L 293 78.8 L 299 50.4 L 321 34.6 L 362 37.8 L 425 53.6 L 520 107 L 608 189 M480.173 690.797C437.519 674.359 444.566 614.464 346.541 615.357C248.515 616.251 297.508 666.104 271.376 703.924" />
<glyph unicode="&#x106;" glyph-name="Cacute" horiz-adv-x="576" d="M 302 684 L 306 680 L 328 621 L 375 573 L 457 526 L 558 529 L 614 558 L 652 589 L 674 652 L 674 690 L 665 702 L 636 721 L 573 721 L 510 699 L 400 646 L 356 617 L 271 545 L 164 441 L 75.6 309 L 41 211 L 41 145 L 56.7 78.8 L 107 34.6 L 145 12.6 L 252 12.6 L 309 40.9 L 350 63 L 391 107 L 460 192 M 787 1052.8 L 661 883" />
<glyph unicode="&#x107;" glyph-name="cacute" horiz-adv-x="507" d="M 350 331 L 350 356 L 324 391 L 252 400 L 167 362 L 66.1 280 L 12.6 217 L -15.8 154 L -12.6 94.5 L 37.8 47.2 L 135 34.6 L 265 63 L 375 117 L 507 189 M 431 745 L 305 575" />
<glyph unicode="&#x110;" glyph-name="Dcroat" horiz-adv-x="765" d="M 53.5 356 L 504 353 M 573 567 L 520 520 L 447 482 L 406 479 L 346 482 L 280 513 L 255 564 L 258 611 L 306 674 L 375 699 L 466 693 L 520 684 L 592 652 L 658 592 L 699 507 L 706 397 L 693 290 L 655 186 L 602 110 L 520 47.2 L 450 22 L 384 31.5 L 321 53.6 L 277 104 L 274 170 L 296 211 L 321 227 L 350 233 L 384 233 L 432 214 L 447 208 M -85.1 59.9 L -66.1 15.8 L -12.6 -3.15 L 44.1 6.3 L 91.4 40.9 L 135 88.2 L 195 183 L 340 435 L 419 551 L 529 662 L 592 709 L 668 743 L 750 743 L 806 734 L 835 721 L 876 674" />
<glyph unicode="&#x111;" glyph-name="dcroat" horiz-adv-x="636" d="M 400 576 L 850 573 M 457 274 L 476 337 L 450 394 L 369 416 L 246 391 L 113 312 L 44.1 249 L -3.15 186 L -22.1 129 L -9.45 85.1 L 28.4 40.9 L 110 18.9 L 186 44.1 L 302 120 L 410 230 L 523 350 L 646 457 L 765 586 L 803 639 L 810 665 L 800 684 L 781 687 L 743 668 L 668 567 L 583 463 L 529 387 L 381 170 L 350 113 L 343 72.4 L 350 50.4 L 372 34.6 L 410 40.9 L 491 72.4 L 558 113 L 636 189" />
<glyph unicode="&#x10C;" glyph-name="Ccaron" horiz-adv-x="576" d="M 302 684 L 306 680 L 328 621 L 375 573 L 457 526 L 558 529 L 614 558 L 652 589 L 674 652 L 674 690 L 665 702 L 636 721 L 573 721 L 510 699 L 400 646 L 356 617 L 271 545 L 164 441 L 75.6 309 L 41 211 L 41 145 L 56.7 78.8 L 107 34.6 L 145 12.6 L 252 12.6 L 309 40.9 L 350 63 L 391 107 L 460 192 M 767 1048.2 L 717 1036.9 L 659 1015.5 L 601 980 L 581 969 L 589 1004.1 L 589 1029.3 L 578 1045.7 L 568 1049.5" />
<glyph unicode="&#x10D;" glyph-name="ccaron" horiz-adv-x="507" d="M 350 331 L 350 356 L 324 391 L 252 400 L 167 362 L 66.1 280 L 12.6 217 L -15.8 154 L -12.6 94.5 L 37.8 47.2 L 135 34.6 L 265 63 L 375 117 L 507 189 M 452 699 L 401 688 L 343 667 L 285 631 L 265 620 L 273 655 L 273 681 L 263 697 L 253 701" />
<glyph unicode="&#x160;" glyph-name="Scaron" horiz-adv-x="715" d="M -151 12.6 L -47.2 15.8 L 9.45 37.8 L 88.2 117 L 123 186 L 132 255 L 97.6 302 L 50.4 324 L -3.15 302 L -40.9 233 L -53.6 132 L -28.4 66.1 L 56.7 0 L 158 -31.5 L 280 -18.9 L 391 40.9 L 466 135 L 504 252 L 517 520 L 529 595 L 554 665 L 595 734 L 674 784 L 750 769 L 775 734 L 762 649 L 696 583 L 633 542 L 567 529 L 472 526 L 403 558 M 773 1045.1 L 722 1033.8 L 664 1012.4 L 606 977 L 586 966 L 594 1001.0 L 594 1026.2 L 584 1042.6 L 574 1046.4" />
<glyph unicode="&#x161;" glyph-name="scaron" horiz-adv-x="422" d="M -3.15 186 L 72.5 246 L 145 315 L 211 365 L 261 410 L 271 441 L 268 457 L 246 469 L 220 454 L 202 425 L 205 372 L 208 151 L 198 78.8 L 173 37.8 L 151 25.2 L 101 25.2 L 75.6 44.1 L 66.1 66.1 L 66.1 94.5 L 88.2 129 L 148 167 L 214 202 L 296 230 L 365 252 L 438 243 M 417 713 L 367 701 L 309 680 L 251 645 L 231 633 L 238 669 L 238 694 L 228 710 L 218 714" />
<glyph unicode="&#x17D;" glyph-name="Zcaron" horiz-adv-x="885" d="M 195 504 L 170 551 L 167 611 L 195 665 L 236 690 L 274 693 L 362 662 L 444 633 L 526 611 L 602 595 L 680 583 L 737 573 L 844 580 L 917 605 L 948 627 L 942 668 L 923 684 L 866 687 L 810 680 L 743 652 L 680 608 L 614 542 L 498 375 L 425 284 L 346 205 L 202 56.7 L 132 3.15 L 53.5 -12.6 L -15.8 -3.15 L -34.6 12.6 L -40.9 40.9 L -22.1 97.6 L 34.6 120 L 110 117 L 195 101 L 312 63 L 539 -18.9 L 646 -37.8 L 753 -31.5 L 813 9.45 L 819 47.2 L 822 91.4 L 819 101 M 811 1057.0 L 760 1045.6 L 702 1024.2 L 644 989 L 624 978 L 632 1012.9 L 632 1038.1 L 622 1054.5 L 612 1058.2" />
<glyph unicode="&#x17E;" glyph-name="zcaron" horiz-adv-x="507" d="M 88.2 318 L 180 381 L 236 403 L 284 416 L 324 400 L 359 346 L 356 268 L 296 192 L 208 129 L 120 81.9 L 180 53.6 L 224 6.3 L 198 -107 L 126 -202 L 44.1 -293 L -28.4 -362 L -81.9 -394 L -120 -403 L -151 -391 L -164 -350 L -129 -293 L -53.6 -208 L 110 -88.2 L 227 -12.6 L 372 63 L 432 117 L 507 189 M 429 712 L 379 701 L 321 679 L 263 644 L 242 632 L 250 668 L 250 693 L 240 709 L 230 713" />
<glyph unicode="&#x15F;" glyph-name="scedilla" horiz-adv-x="422" d="M132.048 28.1137C120.513 -31.8664 153.273 -123.758 36.9666 -114.466M-3.15 186C82.4848 260.293 177.649 331.71 254.677 402.027C267.878 416.57 277.876 441.469 266.268 459.12C248.027 481.218 222.998 460.698 209.466 441.993C195.933 423.288 204.9 388.303 205.676 331.86C206.451 275.417 213.486 194.245 204.4 103.684C199.585 74.8293 186.323 44.6367 160.983 28.3574C136.951 20.6017 107.014 17.5883 85.6122 33.5284C58.8012 54.5567 57.5256 98.1602 81.5363 121.882C176.964 199.188 335.702 261.031 438 243" />
<glyph unicode="&#xc7;" glyph-name="Ccedilla" horiz-adv-x="576" d="M197.319 13.1711C177.382 -54.4374 171.357 -196.214 84.7324 -104.917M302 684L306 680L328 621L375 573L457 526L558 529L614 558L652 589L674 652L674 690L665 702L636 721L573 721L510 699L400 646L356 617L271 545L164 441L75.6 309L41 211L41 145L56.7 78.8L107 34.6L145 12.6L252 12.6L309 40.9L350 63L391 107L460 192" />
<glyph unicode="&#xC6;" glyph-name="AE" horiz-adv-x="1300.0" d="M893.407 690C941.02 537.274 1130 439.582 1243.7 598.73C1357.41 757.878 1073.29 808.949 967.433 618.81C861.576 428.671 1031.32 334.826 1070.19 411.243C1109.06 487.66 813.997 460.418 762.597 283.38C711.197 106.343 808.258 38.7479 923.924 24.0398C1039.59 9.33168 1123.65 70.932 1205.41 186M44.1 120C54.1706 34.6963 120.105 -41.8861 244.853 24.1959C369.602 90.2778 594.469 766.924 1011.9 780.723C1065.54 784.638 1112.21 769.553 1152.9 747C940.996 900.352 762.229 454.951 712 261C697.506 186.321 698.836 110.426 696 34.6L680 139C670.617 227.921 622.7 321.76 554.136 369.314C476.95 422.849 377.54 420.79 353 345.746C328.034 269.398 460.249 228.691 576.747 231.21C693.245 233.729 790.33 272.196 841 299" />
<glyph unicode="&#x130;" glyph-name="Idotaccent" horiz-adv-x="649" d="M871.068 844.61L849.068 816.61L877.068 794.61L902.068 822.61L871.068 844.61M-3.15 66.1L3.15 -0L63 -41L120 -44.1L186 -15.8L268 63L381 208L507 384L611 523L721 630L825 690L888 709L942 709L973 684L989 658L973 624L945 598L907 589L873 592L803 605L721 630L668 655L611 662L548 655" />
<glyph unicode="&#x131;" glyph-name="dotlessi" horiz-adv-x="306" d="M161 413L25.2 233L-25.2 145L-37.8 104L-34.6 78.8L-25.2 56.7L-9.45 40.9L28.4 37.8L75.6 47.2L135 66.1L214 110L306 189" />
<glyph unicode="&#x2D8;" glyph-name="breve" horiz-adv-x="630" d="M347.173 546.52C304.519 530.082 311.566 470.187 213.541 471.08C115.515 471.974 164.508 521.828 138.376 559.648" />
<glyph unicode="&#xa3;" glyph-name="sterling" horiz-adv-x="700" d="M274 356L724 353M551 658L652 687L740 671L803 646L895 611L954 624L989 646L999 674L980 699L923 721L838 696L788 665L721 602L646 520L558 384L416 202L334 107L224 22L173 -6.3L132 -6.3L56.7 15.8L28.4 63L41 97.6L88.2 123L161 113L230 69.3L293 0L400 -88.2L491 -132L567 -139L617 -123L655 -94.5L658 -53.5L655 -34.6L624 3.15" />
<glyph unicode="&#x15E;" glyph-name="Scedilla" horiz-adv-x="715" d="M185.902 -32.4964C165.965 -100.105 144.717 -250.762 39.0649 -154.39M-151 12.6C-89.4541 11.9535 -18.0523 5.34478 29.3114 53.2215C85.6557 102.013 137.925 187.376 133.428 247.07C128.931 306.764 80.9091 328.744 36.6875 322.876C-22.9216 309.304 -41.5901 241.751 -51.0209 189.248C-61.5445 137.283 -50.8193 77.7282 -7.18541 43.5104C63.5315 -20.0242 164.37 -48.6573 257.279 -24.9143C357.704 -3.5733 442.288 70.4933 480.959 165.042C535.016 302.41 495.086 453.969 529 595C548.136 660.414 574.37 732.139 636.757 768.196C675.772 796.113 737.694 798.484 766.957 755.262C796.22 712.04 768.711 637.175 722.911 604.623C630.67 524.563 496.615 501.249 403 558" />
<glyph unicode="&#xdf;" glyph-name="germandbls" horiz-adv-x="730" d="M-129 50.4C-129 50.4 -68.9967 -29.7835 -8.35001 -6.02246C168.902 63.424 353.909 599.248 484.412 679.962C611.724 758.702 754.258 605.343 697.447 481.277C640.637 357.211 385.97 400.158 432 444C478.03 487.842 758.118 362.747 633.926 138.441C509.733 -85.8655 374.371 164.772 216.18 5.5965" />
<glyph unicode="&#xe7;" glyph-name="ccedilla" horiz-adv-x="507" d="M110.983 38.5381C97.2766 -7.97418 93.1343 -105.512 33.5814 -42.7026M350 331L350 356L324 391L252 400L167 362L66.1 280L12.6 217L-15.8 154L-12.6 94.5L37.8 47.2L135 34.6L265 63L375 117L507 189" />
<glyph unicode="&#xb8;" glyph-name="cedilla" horiz-adv-x="576" d="M197.319 13.1711C177.382 -54.4374 171.357 -196.214 84.7324 -104.917" />
<glyph unicode="&#xE6;" glyph-name="ae" horiz-adv-x="1010.0" d="M384.308 42.5311C302.559 44.9042 273.77 72.6459 325.405 138.925C377.04 205.203 507.182 286.43 478.846 355.366C450.509 424.301 282.078 414.124 186 356C89.9216 297.876 -24.7269 193.81 -13.3754 113.528C-2.02389 33.2454 95.0956 -3.86421 188.767 60.5803C275.707 120.394 293.313 140.725 408.777 227.117C467.368 273.536 538.126 285.562 592.481 263.732C657.842 237.693 744.023 237.126 802.107 250.296C883.217 268.687 925.849 306.647 921.444 369.668C923.961 437.305 797.446 454.049 710 410C622.554 365.951 506.9 243.28 495.106 169.148C483.313 95.016 480.483 50.689 588.73 23.8316C696.977 -3.02586 866.283 82.4167 1000 189" />
</font>
</defs>
</svg>
