<?xml version="1.0" encoding="UTF-8" ?>
<!DOCTYPE svg PUBLIC "-//W3C//DTD SVG 1.1//EN" "http://www.w3.org/Graphics/SVG/1.1/DTD/svg11.dtd" >

<svg xmlns="http://www.w3.org/2000/svg" xmlns:xlink="http://www.w3.org/1999/xlink" version="1.1">

<metadata>
Font name:               EMS Pepita
License:                 SIL Open Font License http://scripts.sil.org/OFL
Created by:              Sheldon B. Michaels
SVG font conversion by:  Windell H. Oskay
A derivative of:         Pecita
Designer:                Philippe Cochy
Link:                    http://pecita.eu/police-en.php
FontSquirrel page:       https://www.fontsquirrel.com/fonts/Pecita
</metadata>
<defs>
<font id="EMSPepita" horiz-adv-x="378" >
<font-face
font-family="EMS Pepita"
units-per-em="1000"
ascent="800"
descent="-200"
cap-height="500"
x-height="300">
  <font-face-src>
    <font-face-name name="EMS Pepita"/>
  </font-face-src>
</font-face>
<missing-glyph horiz-adv-x="378" />
<glyph unicode=" " glyph-name="space" horiz-adv-x="378" />
<glyph unicode="!" glyph-name="exclam" horiz-adv-x="217" d="M 182 627 L 154 381 L 160 154 M 132 25.2 L 132 -6.3 L 169 -6.3 L 169 22.1 L 132 25.2" />
<glyph unicode="&#x22;" glyph-name="quotedbl" horiz-adv-x="287" d="M 31.5 762 L 28.4 554 M 164 756 L 173 551" />
<glyph unicode="#" glyph-name="numbersign" horiz-adv-x="548" d="M 261 384 L 154 227 L 50.4 0 M 252 25.2 L 419 381 M 444 277 L 151 277 L 18.9 296 M 22 97.7 L 176 129 L 252 132 L 422 113" />
<glyph unicode="$" glyph-name="dollar" horiz-adv-x="520" d="M 391 510 L 331 561 L 249 576 L 148 567 L 59.9 513 L 22 438 L 37.8 359 L 110 306 L 217 271 L 309 227 L 369 186 L 406 120 L 413 47.2 L 362 12.6 L 261 3.15 L 139 9.45 L 18.9 34.6 M 173 -129 L 236 687" />
<glyph unicode="%" glyph-name="percent" horiz-adv-x="951" d="M 59.9 573 L 12.6 529 L 6.3 447 L 66.1 397 L 151 400 L 227 460 L 246 542 L 211 592 L 139 611 M 690 164 L 643 117 L 633 34.6 L 696 -15.8 L 778 -12.6 L 857 47.2 L 873 129 L 838 180 L 765 198 M 589 750 L 387 243 L 318 25.2 L 302 -88.2" />
<glyph unicode="&amp;" glyph-name="ampersand" horiz-adv-x="517" d="M 413 271 L 359 151 L 271 44.1 L 176 0 L 78.8 18.9 L 37.8 88.2 L 47.2 148 L 135 224 L 265 324 L 299 400 L 312 482 L 287 554 L 233 605 L 161 602 L 101 548 L 72.5 463 L 69.3 384 L 104 290 L 158 186 L 230 97.7 L 350 12.6 L 410 6.3" />
<glyph unicode="&apos;" glyph-name="quotesingle" horiz-adv-x="142" d="M 37.8 759 L 15.8 652 L 15.8 561" />
<glyph unicode="(" glyph-name="parenleft" horiz-adv-x="321" d="M 208 759 L 107 507 L 44.1 280 L 31.5 63 L 91.4 -161 L 230 -419" />
<glyph unicode=")" glyph-name="parenright" horiz-adv-x="337" d="M 9.45 762 L 164 592 L 230 381 L 258 176 L 236 -88.2 L 145 -410" />
<glyph unicode="*" glyph-name="asterisk" horiz-adv-x="517" d="M 220 -53.5 L 249 406 M 81.9 3.15 L 246 211 L 287 274 L 381 340 M 31.5 170 L 438 189 M 97.6 328 L 334 63 L 406 3.15" />
<glyph unicode="+" glyph-name="plus" horiz-adv-x="403" d="M 167 353 L 176 158 L 198 50.4 M 31.5 170 L 161 176 L 328 211" />
<glyph unicode="," glyph-name="comma" horiz-adv-x="211" d="M 126 -34.6 L 107 -110 L 25.2 -239" />
<glyph unicode="-" glyph-name="hyphen" horiz-adv-x="334" d="M 15.8 170 L 252 173" />
<glyph unicode="." glyph-name="period" horiz-adv-x="214" d="M 91.4 18.9 L 91.4 -12.6 L 129 -12.6 L 129 15.8 L 91.4 18.9" />
<glyph unicode="/" glyph-name="slash" horiz-adv-x="400" d="M 318 561 L 135 120 L 59.9 -88.2 L 28.4 -198 L 18.9 -277" />
<glyph unicode="0" glyph-name="zero" horiz-adv-x="513" d="M 78.8 416 L 15.8 321 L 15.8 180 L 94.5 81.9 L 233 63 L 381 142 L 460 249 L 485 381 L 422 491 L 277 558 L 202 539 L 142 501" />
<glyph unicode="1" glyph-name="one" horiz-adv-x="246" d="M 75.6 621 L 75.6 3.15" />
<glyph unicode="2" glyph-name="two" horiz-adv-x="517" d="M 117 476 L 117 539 L 148 592 L 217 608 L 290 573 L 296 495 L 220 375 L 113 224 L 66.1 145 L 66.1 81.9 L 117 25.2 L 214 12.6 L 350 9.45" />
<glyph unicode="3" glyph-name="three" horiz-adv-x="517" d="M 50.4 3.15 L 186 22.1 L 277 69.3 L 356 120 L 369 173 L 353 214 L 239 280 L 202 318 L 202 356 L 224 394 L 290 441 L 340 513 L 331 561 L 277 611 L 186 621 L 117 602 L 63 589" />
<glyph unicode="4" glyph-name="four" horiz-adv-x="517" d="M 145 614 L 88.2 504 L 66.1 387 L 75.6 309 L 142 224 L 214 195 L 280 211 L 331 236 L 365 268 L 340 180 L 337 94.5 L 359 18.9 L 378 0" />
<glyph unicode="5" glyph-name="five" horiz-adv-x="523" d="M 94.5 586 L 91.4 482 L 132 400 L 243 287 L 328 186 L 328 94.5 L 255 22.1 L 158 9.45 L 97.6 15.8 L 15.8 59.9 M 211 548 L 340 592 L 422 614" />
<glyph unicode="6" glyph-name="six" horiz-adv-x="513" d="M 406 617 L 205 479 L 85 343 L 25.2 211 L 28.4 85.1 L 97.6 12.6 L 239 15.8 L 334 75.6 L 387 173 L 378 268 L 318 315 L 227 312 L 167 265" />
<glyph unicode="7" glyph-name="seven" horiz-adv-x="517" d="M 56.7 564 L 161 576 L 328 611 L 365 605 L 397 558 L 394 498 L 356 422 L 249 198 L 205 6.3" />
<glyph unicode="8" glyph-name="eight" horiz-adv-x="510" d="M 110 513 L 72.5 454 L 101 362 L 161 299 L 258 217 L 309 148 L 324 85.1 L 302 34.6 L 236 6.3 L 145 18.9 L 78.8 81.9 L 75.6 151 L 113 211 L 154 249 L 343 410 L 372 495 L 337 570 L 280 605 L 227 614 L 173 583" />
<glyph unicode="9" glyph-name="nine" horiz-adv-x="513" d="M 246 6.3 L 331 107 L 369 224 L 378 343 L 365 441 L 350 517 L 369 413 L 299 353 L 180 324 L 104 350 L 59.9 435 L 88.2 545 L 158 608 L 246 614 L 284 592" />
<glyph unicode=":" glyph-name="colon" horiz-adv-x="230" d="M 97.6 306 L 97.6 274 L 139 274 L 139 302 L 97.6 306 M 94.5 31.5 L 94.5 0 L 132 0 L 132 28.4 L 94.5 31.5" />
<glyph unicode=";" glyph-name="semicolon" horiz-adv-x="230" d="M 104 309 L 104 277 L 142 277 L 142 306 L 104 309 M 123 25.2 L 107 -63 L 56.7 -148 L 9.45 -202" />
<glyph unicode="&#x3c;" glyph-name="less" horiz-adv-x="495" d="M 403 576 L 224 419 L 56.7 299 L 15.8 265 L 3.15 211 L 41 167 L 151 135 L 249 88.2 L 381 3.15" />
<glyph unicode="=" glyph-name="equal" horiz-adv-x="529" d="M 18.9 265 L 170 284 L 258 280 L 425 261 M 34.6 50.4 L 224 69.3 L 444 69.3" />
<glyph unicode="&#x3e;" glyph-name="greater" horiz-adv-x="529" d="M 12.6 614 L 236 425 L 353 346 L 400 296 L 410 243 L 391 214 L 340 180 L 44.1 9.45" />
<glyph unicode="?" glyph-name="question" horiz-adv-x="369" d="M 88.2 22.1 L 88.2 -9.45 L 129 -9.45 L 129 18.9 L 88.2 22.1 M 113 183 L 120 255 L 249 495 L 268 608 L 252 687 L 183 743 L 88.2 743 L 31.5 693 L 3.15 627 L 31.5 576" />
<glyph unicode="@" glyph-name="at" horiz-adv-x="709" d="M 444 331 L 419 205 L 343 85.1 L 265 34.6 L 189 59.9 L 167 170 L 214 252 L 277 268 L 337 224 L 384 132 L 444 88.2 L 523 120 L 595 202 L 630 306 L 617 410 L 548 485 L 447 513 L 284 472 L 145 372 L 53.5 230 L 34.6 63 L 72.5 -85 L 186 -170 L 369 -139 L 479 -88.2 L 561 -34.6" />
<glyph unicode="A" glyph-name="A" horiz-adv-x="558" d="M 15.8 3.15 L 81.9 346 L 145 520 L 192 595 L 243 614 L 265 608 L 299 551 L 340 416 L 372 224 L 381 101 L 381 56.7 L 359 12.6 L 324 0 L 290 9.45 L 255 34.6 L 192 148 L 198 198 L 227 239 L 277 274 L 365 302 L 460 318" />
<glyph unicode="B" glyph-name="B" horiz-adv-x="529" d="M 56.7 148 L 31.5 217 L 15.8 321 L 25.2 428 L 47.2 504 L 78.8 558 L 123 602 L 167 611 L 211 602 L 239 548 L 236 485 L 208 403 L 202 343 L 217 293 L 258 280 L 328 271 L 410 246 L 447 198 L 435 120 L 372 59.9 L 277 12.6 L 208 3.15 L 158 12.6 L 120 37.8" />
<glyph unicode="C" glyph-name="C" horiz-adv-x="501" d="M 387 583 L 324 611 L 217 602 L 123 532 L 63 450 L 31.5 353 L 22 243 L 41 139 L 97.6 50.4 L 195 3.15 L 318 12.6 L 410 69.3" />
<glyph unicode="D" glyph-name="D" horiz-adv-x="529" d="M 22 110 L 9.45 268 L 12.6 394 L 28.4 501 L 69.3 580 L 148 611 L 239 614 L 331 573 L 406 501 L 428 403 L 419 318 L 346 233 L 44.1 -34.6" />
<glyph unicode="E" glyph-name="E" horiz-adv-x="517" d="M 419 614 L 233 608 L 63 573 L 31.5 454 L 15.8 321 L 139 337 L 246 343 L 337 328 L 246 343 L 145 337 L 15.8 321 L 6.3 170 L 15.8 94.5 L 56.7 34.6 L 117 6.3 L 233 6.3 L 334 31.5 L 419 72.4" />
<glyph unicode="F" glyph-name="F" horiz-adv-x="517" d="M 457 602 L 328 621 L 173 602 L 53.5 551 L 6.3 501 L 6.3 384 L 34.6 230 L 104 75.6 L 164 0 L 139 243 L 145 428 L 142 312 L 277 302 L 365 318" />
<glyph unicode="G" glyph-name="G" horiz-adv-x="529" d="M 378 472 L 394 520 L 378 583 L 328 614 L 224 614 L 120 526 L 50.4 422 L 0 296 L 0 180 L 53.5 69.3 L 142 3.15 L 233 12.6 L 296 59.9 L 318 101 L 324 173 L 312 220 L 312 268 L 343 302 L 384 312 L 438 312" />
<glyph unicode="H" glyph-name="H" horiz-adv-x="576" d="M 120 617 L 139 428 L 176 255 L 195 151 L 198 50.4 L 164 12.6 L 120 6.3 L 53.5 25.2 L 15.8 69.3 L -3.15 132 L 6.3 186 L 41 214 L 154 268 L 258 324 L 337 384 L 394 447 L 416 491 L 428 595 L 425 384 L 441 186 L 479 6.3" />
<glyph unicode="I" glyph-name="I" horiz-adv-x="230" d="M 66.1 580 L 63 132 L 88.2 3.15" />
<glyph unicode="J" glyph-name="J" horiz-adv-x="539" d="M 63 186 L 22 139 L 6.3 91.4 L 31.5 34.6 L 107 3.15 L 224 3.15 L 334 44.1 L 403 107 L 428 170 L 410 328 L 400 485 L 406 558 L 419 611" />
<glyph unicode="K" glyph-name="K" horiz-adv-x="564" d="M 28.4 545 L 9.45 113 L 34.6 31.5 L 75.6 0 L 132 9.45 L 164 69.3 L 359 472 L 466 614 L 359 472 L 284 312 L 340 208 L 410 75.6 L 466 6.3" />
<glyph unicode="L" glyph-name="L" horiz-adv-x="438" d="M 50.4 617 L 53.5 428 L 18.9 167 L 25.2 85.1 L 75.6 40.9 L 164 18.9 L 340 12.6" />
<glyph unicode="M" glyph-name="M" horiz-adv-x="668" d="M 53.5 6.3 L 22 69.3 L 22 211 L 28.4 378 L 69.3 548 L 97.6 476 L 129 403 L 158 356 L 208 318 L 265 328 L 343 375 L 410 444 L 466 517 L 504 595 L 498 447 L 517 255 L 539 107 L 576 3.15" />
<glyph unicode="N" glyph-name="N" horiz-adv-x="658" d="M 41 -28.4 L 135 608 L 154 564 L 183 447 L 220 274 L 255 158 L 309 37.8 L 346 3.15 L 400 9.45 L 444 63 L 476 145 L 561 617" />
<glyph unicode="O" glyph-name="O" horiz-adv-x="621" d="M 104 432 L 31.5 356 L 6.3 255 L 12.6 161 L 59.9 72.4 L 142 12.6 L 274 -3.15 L 365 37.8 L 460 132 L 513 246 L 510 384 L 476 513 L 381 589 L 255 617 L 151 576" />
<glyph unicode="P" glyph-name="P" horiz-adv-x="520" d="M 81.9 -34.6 L 81.9 28.4 L 3.15 309 L 15.8 444 L 81.9 545 L 202 602 L 328 608 L 403 542 L 425 444 L 391 359 L 324 315 L 170 252" />
<glyph unicode="Q" glyph-name="Q" horiz-adv-x="674" d="M 324 428 L 246 466 L 176 457 L 75.6 391 L 25.2 280 L 12.6 167 L 69.3 66.1 L 164 18.9 L 324 9.45 L 447 63 L 545 167 L 589 306 L 583 441 L 523 539 L 410 605 L 296 608 L 220 561 L 176 517 L 151 432 L 151 359 L 205 271 L 280 224 L 375 180 L 460 129 L 523 72.4 L 595 -72.5" />
<glyph unicode="R" glyph-name="R" horiz-adv-x="636" d="M 50.4 3.15 L 15.8 139 L 25.2 312 L 104 460 L 198 554 L 328 602 L 447 611 L 523 570 L 558 507 L 548 447 L 466 359 L 346 287 L 284 230 L 268 161 L 302 97.7 L 372 56.7 L 469 12.6 L 542 6.3" />
<glyph unicode="S" glyph-name="S" horiz-adv-x="614" d="M 22 3.15 L 186 0 L 356 25.2 L 472 50.4 L 517 107 L 501 180 L 428 230 L 324 261 L 211 318 L 151 362 L 120 425 L 151 507 L 224 576 L 337 608 L 435 605 L 485 539 L 479 472 L 438 422" />
<glyph unicode="T" glyph-name="T" horiz-adv-x="498" d="M 12.6 598 L 161 614 L 302 608 L 378 580 L 444 558 L 457 539 L 441 529 L 387 529 L 312 501 L 211 394 L 180 268 L 180 148 L 224 0" />
<glyph unicode="U" glyph-name="U" horiz-adv-x="526" d="M 50.4 517 L 22 384 L 15.8 265 L 37.8 129 L 110 31.5 L 198 3.15 L 299 37.8 L 378 142 L 419 277 L 425 435 L 422 545 L 413 614" />
<glyph unicode="V" glyph-name="V" horiz-adv-x="576" d="M 6.3 614 L 18.9 400 L 50.4 249 L 94.5 104 L 123 47.2 L 161 9.45 L 198 3.15 L 243 28.4 L 265 75.6 L 293 198 L 331 384 L 381 513 L 410 570 L 447 605 L 488 614" />
<glyph unicode="W" glyph-name="W" horiz-adv-x="939" d="M 22 513 L 25.2 362 L 44.1 224 L 88.2 113 L 139 28.4 L 189 3.15 L 227 25.2 L 369 406 L 397 447 L 425 463 L 472 460 L 491 410 L 548 81.9 L 564 50.4 L 595 31.5 L 624 40.9 L 649 85.1 L 734 340 L 794 498 L 850 608" />
<glyph unicode="X" glyph-name="X" horiz-adv-x="608" d="M 41 9.45 L 158 170 L 306 359 L 419 485 L 479 529 M 41 614 L 126 536 L 258 293 L 343 142 L 406 59.9 L 460 18.9 L 501 9.45" />
<glyph unicode="Y" glyph-name="Y" horiz-adv-x="529" d="M 18.9 614 L 53.5 510 L 129 438 L 230 410 L 302 428 L 365 472 L 413 510 L 447 564 L 432 488 L 403 397 L 315 227 L 255 97.7 L 233 3.15" />
<glyph unicode="Z" glyph-name="Z" horiz-adv-x="548" d="M 15.8 548 L 170 586 L 287 608 L 378 608 L 435 576 L 444 536 L 435 466 L 343 381 L 154 246 L 85 195 L 53.5 139 L 50.4 94.5 L 66.1 47.2 L 129 18.9 L 214 3.15 L 416 12.6 L 454 31.5" />
<glyph unicode="[" glyph-name="bracketleft" horiz-adv-x="457" d="M 287 706 L 236 743 L 208 753 L 66.1 706 L 41 674 L 50.4 564 L 66.1 353 L 50.4 18.9 L 34.6 -220 L 59.9 -293 L 151 -328 L 249 -321 L 343 -290" />
<glyph unicode="\" glyph-name="backslash" horiz-adv-x="413" d="M 12.6 542 L 129 154 L 318 -284" />
<glyph unicode="]" glyph-name="bracketright" horiz-adv-x="428" d="M 44.1 731 L 158 750 L 236 721 L 293 658 L 302 564 L 261 28.4 L 296 -41 L 334 -151 L 350 -239 L 321 -302 L 261 -331 L 18.9 -296" />
<glyph unicode="^" glyph-name="asciicircum" horiz-adv-x="400" d="M 15.8 488 L 154 655 L 186 662 L 205 643 L 302 485" />
<glyph unicode="_" glyph-name="underscore" horiz-adv-x="624" d="M 41 9.45 L 180 31.5 L 334 12.6 L 444 6.3 L 602 12.6" />
<glyph unicode="`" glyph-name="grave" horiz-adv-x="258" d="M 0 684 L 94.5 551 L 164 485" />
<glyph unicode="a" glyph-name="a" horiz-adv-x="454" d="M 306 271 L 271 324 L 173 337 L 63 268 L 3.15 158 L 0 66.1 L 69.3 -9.45 L 205 37.8 L 261 81.9 L 337 151 L 340 69.3 L 365 12.6 L 394 3.15 L 422 22.1 L 454 78.8" />
<glyph unicode="b" glyph-name="b" horiz-adv-x="476" d="M 120 756 L 53.5 523 L 22 293 L 31.5 151 L 129 271 L 239 337 L 328 321 L 356 217 L 306 81.9 L 208 6.3 L 94.5 18.9" />
<glyph unicode="c" glyph-name="c" horiz-adv-x="312" d="M 233 324 L 135 337 L 47.2 284 L -25.2 173 L 9.45 37.8 L 129 -6.3 L 224 18.9 L 312 75.6" />
<glyph unicode="d" glyph-name="d" horiz-adv-x="520" d="M 312 293 L 211 340 L 110 309 L 25.2 220 L -12.6 117 L 18.9 22.1 L 126 6.3 L 230 91.4 L 287 208 L 359 476 L 394 750 L 350 151 L 365 69.3 L 428 3.15 L 457 0 L 482 12.6 L 520 78.8" />
<glyph unicode="e" glyph-name="e" horiz-adv-x="318" d="M 6.3 75.6 L 123 104 L 208 189 L 217 268 L 192 321 L 101 343 L -6.3 271 L -28.4 158 L -12.6 91.4 L 72.5 12.6 L 186 3.15 L 299 44.1 M 302 47.2 L 321 78.8" />
<glyph unicode="f" glyph-name="f" horiz-adv-x="425" d="M 192 -413 L 148 -271 L 113 44.1 L 110 353 L 148 589 L 211 702 L 290 724 L 337 668 L 362 542 L 306 384 L 220 274 M 34.6 -78.8 L 151 -9.45 L 227 12.6 L 337 25.2" />
<glyph unicode="g" glyph-name="g" horiz-adv-x="337" d="M 277 299 L 208 343 L 107 324 L 25.2 249 L 25.2 145 L 126 12.6 L 214 -88.2 L 274 -202 L 268 -356 L 189 -419 L 104 -397 L 72.5 -309 L 120 -183 L 315 34.6 L 337 78.8" />
<glyph unicode="h" glyph-name="h" horiz-adv-x="513" d="M 59.9 750 L 15.8 375 L -3.15 189 L -6.3 91.4 L 15.8 18.9 L 50.4 6.3 L 88.2 22.1 L 176 192 L 224 293 L 296 337 L 353 340 L 384 265 L 384 69.3 L 400 9.45 L 422 -9.45 L 444 -9.45 L 472 6.3 L 513 78.8" />
<glyph unicode="i" glyph-name="i" horiz-adv-x="230" d="M 18.9 343 L -9.45 192 L 0 72.4 L 72.5 3.15 L 173 18.9 L 205 34.6 L 230 78.8 M 63 586 L 94.5 536" />
<glyph unicode="j" glyph-name="j" horiz-adv-x="293" d="M 132 340 L 132 211 L 170 53.6 L 198 -91.4 L 211 -265 L 154 -391 L 47.2 -419 L -3.15 -346 L 28.4 -258 L 129 -88.2 L 271 37.8 L 293 78.8 M 126 570 L 132 513" />
<glyph unicode="k" glyph-name="k" horiz-adv-x="428" d="M 25.2 747 L -9.45 526 L -9.45 334 L -9.45 198 L 0 66.1 L 31.5 66.1 L 37.8 88.2 L 59.9 198 L 154 293 L 227 328 L 299 343 M 167 173 L 233 50.4 L 306 0 L 362 9.45 L 403 31.5 L 428 75.6" />
<glyph unicode="l" glyph-name="l" horiz-adv-x="271" d="M 63 274 L 148 369 L 205 513 L 198 652 L 132 718 L 34.6 693 L -18.9 564 L -37.8 384 L -34.6 180 L 9.45 50.4 L 120 0 L 249 37.8 L 271 78.8" />
<glyph unicode="m" glyph-name="m" horiz-adv-x="1089.9" d="M 1089.9 78.8 L 1071.0 47.2 L 1004.8 3.15 L 964 3.15 L 923 37.8 L 917 167 L 907 236 L 841 277 L 806 249 L 750 189 L 674 59.9 L 608 6.3 L 551 12.6 L 529 66.1 L 529 192 L 517 274 L 463 312 L 419 299 L 378 255 L 255 59.9 L 195 37.8 L 148 53.6 L 135 113 L 129 296 L 104 318 L 88.2 265 L 50.4 167 L 25.2 126 L -3.15 75.6" />
<glyph unicode="n" glyph-name="n" horiz-adv-x="611" d="M 510 3.15 L 476 37.8 L 454 126 L 454 243 L 428 296 L 375 309 L 312 274 L 233 170 L 158 12.6 L 142 113 L 126 243 L 85 318 L 66.1 306 L 50.4 243 L 34.6 151 L 0 78.8 M 510 0 L 545 0 L 583 22.1 L 614 78.8" />
<glyph unicode="o" glyph-name="o" horiz-adv-x="400" d="M 41 277 L 3.15 205 L 15.8 97.7 L 59.9 28.4 L 189 0 L 309 63 L 372 176 L 356 271 L 277 334 L 183 337 L 145 315" />
<glyph unicode="p" glyph-name="p" horiz-adv-x="649" d="M 372 22.1 L 435 3.15 L 491 12.6 L 536 69.3 L 567 195 L 529 302 L 435 346 L 334 302 L 265 224 L 198 50.4 L 142 -416 L 135 -53.5 L 129 120 L 97.6 186 L 59.9 205 L 31.5 189 L 15.8 148 L 0 78.8" />
<glyph unicode="q" glyph-name="q" horiz-adv-x="466" d="M 350 277 L 299 324 L 217 340 L 97.6 287 L 47.2 211 L 25.2 104 L 63 9.45 L 170 12.6 L 261 66.1 L 359 170 L 337 -97.6 L 343 -268 L 359 -410" />
<glyph unicode="r" glyph-name="r" horiz-adv-x="510" d="M 18.9 208 L 3.15 280 L 69.3 331 L 189 343 L 277 312 L 306 205 L 343 69.3 L 384 12.6 L 457 9.45 L 479 25.2 L 510 78.8" />
<glyph unicode="s" glyph-name="s" horiz-adv-x="545" d="M 0 75.6 L 47.2 151 L 164 271 L 255 331 L 318 346 L 391 324 L 454 252 L 463 145 L 413 47.2 L 299 3.15 L 236 12.6 L 208 40.9" />
<glyph unicode="t" glyph-name="t" horiz-adv-x="375" d="M 145 677 L 126 186 L 154 75.6 L 220 3.15 L 299 15.8 L 356 44.1 L 375 78.8 M 15.8 343 L 158 340 L 296 362" />
<glyph unicode="u" glyph-name="u" horiz-adv-x="652" d="M 126 274 L 113 145 L 151 44.1 L 239 -3.15 L 346 40.9 L 410 126 L 444 306 L 463 101 L 520 12.6 L 586 9.45 L 633 44.1 L 652 78.8" />
<glyph unicode="v" glyph-name="v" horiz-adv-x="608" d="M 91.4 271 L 104 151 L 151 37.8 L 214 6.3 L 299 31.5 L 356 132 L 435 299 L 485 340 L 536 340 L 564 293" />
<glyph unicode="w" glyph-name="w" horiz-adv-x="951" d="M 154 309 L 145 126 L 173 44.1 L 249 3.15 L 340 44.1 L 422 142 L 517 312 L 523 183 L 558 81.9 L 608 66.1 L 706 107 L 803 192 L 869 280 L 885 353 L 891 236 L 929 186" />
<glyph unicode="x" glyph-name="x" horiz-adv-x="658" d="M 120 334 L 321 85.1 L 406 37.8 L 520 37.8 L 573 132 L 558 246 L 485 306 L 387 306 L 309 230 L 230 59.9 L 167 -142" />
<glyph unicode="y" glyph-name="y" horiz-adv-x="520" d="M 22 302 L 15.8 198 L 31.5 94.5 L 132 31.5 L 252 85.1 L 315 180 L 337 246 L 337 324 L 425 -78.8 L 432 -202 L 422 -321 L 369 -413 L 296 -413 L 252 -353 L 271 -239 L 359 -107 L 444 -18.9 L 472 9.45 L 501 44.1 L 520 78.8" />
<glyph unicode="z" glyph-name="z" horiz-adv-x="504" d="M 41 198 L 18.9 252 L 53.5 324 L 164 346 L 252 340 L 309 274 L 302 180 L 274 56.7 L 299 -15.8 L 372 -142 L 400 -249 L 350 -372 L 271 -425 L 189 -362 L 220 -255 L 287 -158 L 466 12.6 L 504 78.8" />
<glyph unicode="{" glyph-name="braceleft" horiz-adv-x="422" d="M 227 646 L 233 504 L 173 321 L 72.5 154 L 135 132 L 176 81.9 L 167 -56.7 L 205 -202 L 277 -258 L 334 -280" />
<glyph unicode="|" glyph-name="bar" horiz-adv-x="246" d="M 151 712 L 123 356 L 113 -135" />
<glyph unicode="}" glyph-name="braceright" horiz-adv-x="350" d="M 18.9 731 L 81.9 750 L 139 731 L 167 668 L 142 561 L 123 359 L 161 268 L 211 239 L 274 233 L 205 173 L 164 78.8 L 154 -69.3 L 186 -183 L 214 -233" />
<glyph unicode="~" glyph-name="asciitilde" horiz-adv-x="444" d="M 12.6 230 L 47.2 287 L 91.4 302 L 158 268 L 214 217 L 277 217 L 337 277" />
<glyph unicode="&#xa0;" glyph-name="nbspace" horiz-adv-x="378" />
<glyph unicode="&#xa1;" glyph-name="exclamdown" horiz-adv-x="217" d="M 88.2 -6.3 L 117 239 L 110 466 M 139 595 L 139 627 L 101 627 L 101 598 L 139 595" />
<glyph unicode="&#xa2;" glyph-name="cent" horiz-adv-x="400" d="M 233 324 L 135 337 L 47.2 284 L -25.2 173 L 9.45 37.8 L 129 -6.3 L 224 18.9 L 312 75.6 M 255 561 L 72.5 120 L -3.15 -88.2 L -34.6 -198 L -44.1 -277" />
<glyph unicode="&#xa5;" glyph-name="yen" horiz-adv-x="510" d="M 53.5 662 L 110 469 L 164 378 L 224 321 L 280 312 L 340 334 L 413 413 L 469 504 L 491 589 L 498 639 L 463 665 L 419 655 L 384 611 L 343 510 L 328 391 L 306 268 L 306 94.5 L 315 -53.5 M 186 135 L 416 135 M 186 261 L 416 261" />
<glyph unicode="&#xa6;" glyph-name="brokenbar" horiz-adv-x="73.7" d="M 215 214 L 207 107 L 204 -40.6 M 215 686 L 207 579 L 204 432" />
<glyph unicode="&#xa8;" glyph-name="dieresis" horiz-adv-x="567" d=" M 136 594 L 136 563 L 174 563 L 174 591 L 136 594 M 411 606 L 411 574 L 449 574 L 449 602 L 411 606" />
<glyph unicode="&#xa9;" glyph-name="copyright" horiz-adv-x="621" d="M 104 432 L 31.5 356 L 6.3 255 L 12.6 161 L 59.9 72.4 L 142 12.6 L 274 -3.15 L 365 37.8 L 460 132 L 513 246 L 510 384 L 476 513 L 381 589 L 255 617 L 151 576 M 351 449 L 320 463 L 266 458 L 219 424 L 189 383 L 173 334 L 169 279 L 178 227 L 206 183 L 255 159 L 317 164 L 362 192" />
<glyph unicode="&#xaa;" glyph-name="ordfeminine" horiz-adv-x="227" d="M 279 765 L 261 792 L 213 799 L 158 764 L 128 709 L 126 663 L 161 625 L 228 649 L 257 671 L 295 706 L 296 665 L 309 636 L 323 632 L 337 641 L 353 669" />
<glyph unicode="&#xab;" glyph-name="guillemotleft" horiz-adv-x="297" d="M 161 461 L 89.5 335 L 22.7 239 L 6.3 212 L 1.26 169 L 16.4 134 L 60.5 108 L 99.5 70.6 L 152 2.52 M 287 461 L 215 335 L 149 239 L 132 212 L 127 169 L 142 134 L 186 108 L 226 70.6 L 278 2.52" />
<glyph unicode="&#xae;" glyph-name="registered" horiz-adv-x="621" d="M 104 432 L 31.5 356 L 6.3 255 L 12.6 161 L 59.9 72.4 L 142 12.6 L 274 -3.15 L 365 37.8 L 460 132 L 513 246 L 510 384 L 476 513 L 381 589 L 255 617 L 151 576 M 151 159 L 134 227 L 139 313 L 178 387 L 225 435 L 290 458 L 350 463 L 387 443 L 405 411 L 400 381 L 359 337 L 299 301 L 268 272 L 260 238 L 277 206 L 312 186 L 361 164 L 397 161" />
<glyph unicode="&#xb0;" glyph-name="degree" horiz-adv-x="223" d="M 154 696 L 132 674 L 125 644 L 127 615 L 141 589 L 165 571 L 205 566 L 232 578 L 261 607 L 277 641 L 276 682 L 266 721 L 237 744 L 199 752 L 168 740" />
<glyph unicode="&#xb1;" glyph-name="plusminus" horiz-adv-x="323" d="M 466 -52.9 L 655 -50.4 M 587 471 L 595 315 L 612 229 M 479 325 L 582 330 L 716 358" />
<glyph unicode="&#xb2;" glyph-name="twosuperior" horiz-adv-x="258" d="M 184 868 L 184 899 L 200 926 L 235 934 L 271 917 L 274 877 L 236 817 L 183 742 L 159 702 L 159 671 L 184 643 L 233 636 L 301 635" />
<glyph unicode="&#xb3;" glyph-name="threesuperior" horiz-adv-x="258" d="M 151 632 L 219 641 L 265 665 L 304 690 L 310 717 L 302 737 L 246 770 L 227 789 L 227 808 L 238 827 L 271 850 L 296 887 L 291 910 L 265 936 L 219 940 L 184 931 L 158 925" />
<glyph unicode="&#xb4;" glyph-name="acute" horiz-adv-x="378" d=" M 237 641 L 231 603 L 212 555 L 190 521 L 168 492" />
<glyph unicode="&#xb7;" glyph-name="middot" horiz-adv-x="334" d="M 185 325 L 185 287 L 231 287 L 231 321 L 185 325" />
<glyph unicode="&#xb9;" glyph-name="onesuperior" horiz-adv-x="123" d="M 164 940 L 164 632" />
<glyph unicode="&#xba;" glyph-name="ordmasculine" horiz-adv-x="223" d="M 154 696 L 132 674 L 125 644 L 127 615 L 141 589 L 165 571 L 205 566 L 232 578 L 261 607 L 277 641 L 276 682 L 266 721 L 237 744 L 199 752 L 168 740" />
<glyph unicode="&#xbb;" glyph-name="guillemotright" horiz-adv-x="318" d="M 5.04 491 L 94.5 340 L 141 277 L 160 237 L 164 194 L 156 171 L 136 144 L 17.6 7.56 M 131 491 L 221 340 L 267 277 L 286 237 L 290 194 L 282 171 L 262 144 L 144 7.56" />
<glyph unicode="&#xbc;" glyph-name="onequarter" horiz-adv-x="732" d="M 45.4 750 L 45.4 380 M 476 561 L 293 120 L 217 -88.2 L 186 -198 L 176 -277 M 559 369 L 525 302 L 512 232 L 518 185 L 558 134 L 601 117 L 641 127 L 671 142 L 692 161 L 677 108 L 675 56.7 L 688 11.3 L 699 0" />
<glyph unicode="&#xbd;" glyph-name="onehalf" horiz-adv-x="732" d="M 45.4 750 L 45.4 380 M 476 561 L 293 120 L 217 -88.2 L 186 -198 L 176 -277 M 542 285 L 542 323 L 561 355 L 603 365 L 646 344 L 650 297 L 605 225 L 541 134 L 512 86.9 L 512 49.1 L 542 15.1 L 601 7.56 L 682 5.67" />
<glyph unicode="&#xbe;" glyph-name="threequarters" horiz-adv-x="992" d="M 30.2 380 L 112 391 L 166 420 L 214 450 L 221 482 L 212 507 L 144 546 L 121 569 L 121 592 L 134 614 L 174 643 L 204 686 L 198 714 L 166 745 L 112 750 L 69.9 739 L 37.8 731 M 476 561 L 293 120 L 217 -88.2 L 186 -198 L 176 -277 M 559 369 L 525 302 L 512 232 L 518 185 L 558 134 L 601 117 L 641 127 L 671 142 L 692 161 L 677 108 L 675 56.7 L 688 11.3 L 699 0" />
<glyph unicode="&#xbf;" glyph-name="questiondown" horiz-adv-x="369" d="M 183 712 L 183 743 L 142 743 L 142 715 L 183 712 M 157 551 L 151 479 L 22.1 239 L 3.15 126 L 18.9 47.3 L 88.2 -9.45 L 183 -9.45 L 239 41 L 268 107 L 239 158" />
<glyph unicode="&#xc0;" glyph-name="Agrave" horiz-adv-x="558" d="M 15.8 3.15 L 81.9 346 L 145 520 L 192 595 L 243 614 L 265 608 L 299 551 L 340 416 L 372 224 L 381 101 L 381 56.7 L 359 12.6 L 324 0 L 290 9.45 L 255 34.6 L 192 148 L 198 198 L 227 239 L 277 274 L 365 302 L 460 318 M 97.3 1023.8 L 192 892 L 261 825" />
<glyph unicode="&#xc1;" glyph-name="Aacute" horiz-adv-x="558" d="M 15.8 3.15 L 81.9 346 L 145 520 L 192 595 L 243 614 L 265 608 L 299 551 L 340 416 L 372 224 L 381 101 L 381 56.7 L 359 12.6 L 324 0 L 290 9.45 L 255 34.6 L 192 148 L 198 198 L 227 239 L 277 274 L 365 302 L 460 318 M 339 995 L 333 958 L 314 910 L 292 876 L 270 847" />
<glyph unicode="&#xc2;" glyph-name="Acircumflex" horiz-adv-x="558" d="M 15.8 3.15 L 81.9 346 L 145 520 L 192 595 L 243 614 L 265 608 L 299 551 L 340 416 L 372 224 L 381 101 L 381 56.7 L 359 12.6 L 324 0 L 290 9.45 L 255 34.6 L 192 148 L 198 198 L 227 239 L 277 274 L 365 302 L 460 318 M 115 689 L 207 800 L 228 804 L 240 792 L 305 687" />
<glyph unicode="&#xc3;" glyph-name="Atilde" horiz-adv-x="558" d="M 15.8 3.15 L 81.9 346 L 145 520 L 192 595 L 243 614 L 265 608 L 299 551 L 340 416 L 372 224 L 381 101 L 381 56.7 L 359 12.6 L 324 0 L 290 9.45 L 255 34.6 L 192 148 L 198 198 L 227 239 L 277 274 L 365 302 L 460 318 M 88.8 783 L 114 824 L 145 835 L 192 810 L 233 774 L 278 774 L 321 817" />
<glyph unicode="&#xc4;" glyph-name="Adieresis" horiz-adv-x="558" d="M 15.8 3.15 L 81.9 346 L 145 520 L 192 595 L 243 614 L 265 608 L 299 551 L 340 416 L 372 224 L 381 101 L 381 56.7 L 359 12.6 L 324 0 L 290 9.45 L 255 34.6 L 192 148 L 198 198 L 227 239 L 277 274 L 365 302 L 460 318 M 163 897 L 163 865 L 201 865 L 201 894 L 163 897 M 402 894 L 402 863 L 440 863 L 440 891 L 402 894" />
<glyph unicode="&#xc5;" glyph-name="Aring" horiz-adv-x="558" d="M 15.8 3.15 L 81.9 346 L 145 520 L 192 595 L 243 614 L 265 608 L 299 551 L 340 416 L 372 224 L 381 101 L 381 56.7 L 359 12.6 L 324 0 L 290 9.45 L 255 34.6 L 192 148 L 198 198 L 227 239 L 277 274 L 365 302 L 460 318 M 198 885 L 177 863 L 169 833 L 171 804 L 185 778 L 210 760 L 249 755 L 277 767 L 305 796 L 321 830 L 320 871 L 310 910 L 282 933 L 244 941 L 213 929" />
<glyph unicode="&#xc8;" glyph-name="Egrave" horiz-adv-x="517" d="M 419 614 L 233 608 L 63 573 L 31.5 454 L 15.8 321 L 139 337 L 246 343 L 337 328 L 246 343 L 145 337 L 15.8 321 L 6.3 170 L 15.8 94.5 L 56.7 34.6 L 117 6.3 L 233 6.3 L 334 31.5 L 419 72.4 M 60.6 1028.0 L 155 896 L 224 830" />
<glyph unicode="&#xc9;" glyph-name="Eacute" horiz-adv-x="517" d="M 419 614 L 233 608 L 63 573 L 31.5 454 L 15.8 321 L 139 337 L 246 343 L 337 328 L 246 343 L 145 337 L 15.8 321 L 6.3 170 L 15.8 94.5 L 56.7 34.6 L 117 6.3 L 233 6.3 L 334 31.5 L 419 72.4 M 316 984 L 310 946 L 291 899 L 269 864 L 247 836" />
<glyph unicode="&#xca;" glyph-name="Ecircumflex" horiz-adv-x="517" d="M 419 614 L 233 608 L 63 573 L 31.5 454 L 15.8 321 L 139 337 L 246 343 L 337 328 L 246 343 L 145 337 L 15.8 321 L 6.3 170 L 15.8 94.5 L 56.7 34.6 L 117 6.3 L 233 6.3 L 334 31.5 L 419 72.4 M 124 742 L 221 858 L 243 863 L 256 849 L 325 739" />
<glyph unicode="&#xcb;" glyph-name="Edieresis" horiz-adv-x="517" d="M 419 614 L 233 608 L 63 573 L 31.5 454 L 15.8 321 L 139 337 L 246 343 L 337 328 L 246 343 L 145 337 L 15.8 321 L 6.3 170 L 15.8 94.5 L 56.7 34.6 L 117 6.3 L 233 6.3 L 334 31.5 L 419 72.4 M 127 869 L 127 838 L 165 838 L 165 866 L 127 869 M 394 891 L 394 859 L 432 859 L 432 887 L 394 891" />
<glyph unicode="&#xcc;" glyph-name="Igrave" horiz-adv-x="230" d="M 66.1 580 L 63 132 L 88.2 3.15 M -68.9 1017.7 L 25.6 885 L 94.9 819" />
<glyph unicode="&#xcd;" glyph-name="Iacute" horiz-adv-x="230" d="M 66.1 580 L 63 132 L 88.2 3.15 M 158 975 L 152 937 L 133 890 L 111 855 L 88.8 827" />
<glyph unicode="&#xce;" glyph-name="Icircumflex" horiz-adv-x="230" d="M 66.1 580 L 63 132 L 88.2 3.15 M -11.5 682 L 79.2 791 L 99.8 795 L 112 783 L 176 680" />
<glyph unicode="&#xcf;" glyph-name="Idieresis" horiz-adv-x="230" d="M 66.1 580 L 63 132 L 88.2 3.15 M -35.2 878 L -35.2 846 L 2.6 846 L 2.6 875 L -35.2 878 M 248 840 L 248 809 L 286 809 L 286 837 L 248 840" />
<glyph unicode="&#xd0;" glyph-name="Eth" horiz-adv-x="529" d="M -47.2 233 L 189 236 M 22 110 L 9.45 268 L 12.6 394 L 28.4 501 L 69.3 580 L 148 611 L 239 614 L 331 573 L 406 501 L 428 403 L 419 318 L 346 233 L 44.1 -34.6" />
<glyph unicode="&#xd1;" glyph-name="Ntilde" horiz-adv-x="658" d="M 41 -28.4 L 135 608 L 154 564 L 183 447 L 220 274 L 255 158 L 309 37.8 L 346 3.15 L 400 9.45 L 444 63 L 476 145 L 561 617 M 260 710 L 283 748 L 313 758 L 356 735 L 394 702 L 436 702 L 475 741" />
<glyph unicode="&#xd2;" glyph-name="Ograve" horiz-adv-x="621" d="M 104 432 L 31.5 356 L 6.3 255 L 12.6 161 L 59.9 72.4 L 142 12.6 L 274 -3.15 L 365 37.8 L 460 132 L 513 246 L 510 384 L 476 513 L 381 589 L 255 617 L 151 576 M 116 1022.7 L 211 890 L 280 824" />
<glyph unicode="&#xd3;" glyph-name="Oacute" horiz-adv-x="621" d="M 104 432 L 31.5 356 L 6.3 255 L 12.6 161 L 59.9 72.4 L 142 12.6 L 274 -3.15 L 365 37.8 L 460 132 L 513 246 L 510 384 L 476 513 L 381 589 L 255 617 L 151 576 M 354 972 L 348 934 L 329 887 L 307 852 L 285 824" />
<glyph unicode="&#xd4;" glyph-name="Ocircumflex" horiz-adv-x="621" d="M 104 432 L 31.5 356 L 6.3 255 L 12.6 161 L 59.9 72.4 L 142 12.6 L 274 -3.15 L 365 37.8 L 460 132 L 513 246 L 510 384 L 476 513 L 381 589 L 255 617 L 151 576 M 164 746 L 262 864 L 284 869 L 298 855 L 367 744" />
<glyph unicode="&#xd5;" glyph-name="Otilde" horiz-adv-x="621" d="M 104 432 L 31.5 356 L 6.3 255 L 12.6 161 L 59.9 72.4 L 142 12.6 L 274 -3.15 L 365 37.8 L 460 132 L 513 246 L 510 384 L 476 513 L 381 589 L 255 617 L 151 576 M 210 717 L 233 756 L 263 766 L 307 743 L 345 709 L 388 709 L 428 749" />
<glyph unicode="&#xd6;" glyph-name="Odieresis" horiz-adv-x="621" d="M 104 432 L 31.5 356 L 6.3 255 L 12.6 161 L 59.9 72.4 L 142 12.6 L 274 -3.15 L 365 37.8 L 460 132 L 513 246 L 510 384 L 476 513 L 381 589 L 255 617 L 151 576 M 215 844 L 215 812 L 252 812 L 252 841 L 215 844 M 386 847 L 386 815 L 424 815 L 424 844 L 386 847" />
<glyph unicode="&#xd7;" glyph-name="multiply" horiz-adv-x="485" d="M 104 447 L 321 214 L 523 12.6 L 315 214 L 485 447 L 321 211 L 195 69.3 L 126 3.15" />
<glyph unicode="&#xd8;" glyph-name="Oslash" horiz-adv-x="621" d="M 104 432 L 31.5 356 L 6.3 255 L 12.6 161 L 59.9 72.4 L 142 12.6 L 274 -3.15 L 365 37.8 L 460 132 L 513 246 L 510 384 L 476 513 L 381 589 L 255 617 L 151 576 M 446 708 L 248 231 L 167 6.8 L 133 -112 L 122 -197" />
<glyph unicode="&#xd9;" glyph-name="Ugrave" horiz-adv-x="526" d="M 50.4 517 L 22 384 L 15.8 265 L 37.8 129 L 110 31.5 L 198 3.15 L 299 37.8 L 378 142 L 419 277 L 425 435 L 422 545 L 413 614 M 68.6 1029.4 L 163 897 L 232 831" />
<glyph unicode="&#xda;" glyph-name="Uacute" horiz-adv-x="526" d="M 50.4 517 L 22 384 L 15.8 265 L 37.8 129 L 110 31.5 L 198 3.15 L 299 37.8 L 378 142 L 419 277 L 425 435 L 422 545 L 413 614 M 320 956 L 314 919 L 295 871 L 273 837 L 251 808" />
<glyph unicode="&#xdb;" glyph-name="Ucircumflex" horiz-adv-x="526" d="M 50.4 517 L 22 384 L 15.8 265 L 37.8 129 L 110 31.5 L 198 3.15 L 299 37.8 L 378 142 L 419 277 L 425 435 L 422 545 L 413 614 M 133 782 L 235 905 L 258 910 L 272 896 L 344 780" />
<glyph unicode="&#xdc;" glyph-name="Udieresis" horiz-adv-x="526" d="M 50.4 517 L 22 384 L 15.8 265 L 37.8 129 L 110 31.5 L 198 3.15 L 299 37.8 L 378 142 L 419 277 L 425 435 L 422 545 L 413 614 M 171 843 L 171 812 L 209 812 L 209 840 L 171 843 M 380 861 L 380 829 L 418 829 L 418 858 L 380 861" />
<glyph unicode="&#xdd;" glyph-name="Yacute" horiz-adv-x="529" d="M 18.9 614 L 53.5 510 L 129 438 L 230 410 L 302 428 L 365 472 L 413 510 L 447 564 L 432 488 L 403 397 L 315 227 L 255 97.7 L 233 3.15 M 335 970 L 329 933 L 310 885 L 288 851 L 266 822" />
<glyph unicode="&#xe0;" glyph-name="agrave" horiz-adv-x="454" d="M 306 271 L 271 324 L 173 337 L 63 268 L 3.15 158 L 0 66.1 L 69.3 -9.45 L 205 37.8 L 261 81.9 L 337 151 L 340 69.3 L 365 12.6 L 394 3.15 L 422 22.1 L 454 78.8 M 14.8 703 L 109 571 L 179 505" />
<glyph unicode="&#xe1;" glyph-name="aacute" horiz-adv-x="454" d="M 306 271 L 271 324 L 173 337 L 63 268 L 3.15 158 L 0 66.1 L 69.3 -9.45 L 205 37.8 L 261 81.9 L 337 151 L 340 69.3 L 365 12.6 L 394 3.15 L 422 22.1 L 454 78.8 M 268 648 L 262 610 L 243 563 L 221 528 L 199 500" />
<glyph unicode="&#xe2;" glyph-name="acircumflex" horiz-adv-x="454" d="M 306 271 L 271 324 L 173 337 L 63 268 L 3.15 158 L 0 66.1 L 69.3 -9.45 L 205 37.8 L 261 81.9 L 337 151 L 340 69.3 L 365 12.6 L 394 3.15 L 422 22.1 L 454 78.8 M 90.6 440 L 181 549 L 202 554 L 214 541 L 278 438" />
<glyph unicode="&#xe3;" glyph-name="atilde" horiz-adv-x="454" d="M 306 271 L 271 324 L 173 337 L 63 268 L 3.15 158 L 0 66.1 L 69.3 -9.45 L 205 37.8 L 261 81.9 L 337 151 L 340 69.3 L 365 12.6 L 394 3.15 L 422 22.1 L 454 78.8 M 118 484 L 141 523 L 171 534 L 216 510 L 255 476 L 297 476 L 338 517" />
<glyph unicode="&#xe4;" glyph-name="adieresis" horiz-adv-x="454" d="M 306 271 L 271 324 L 173 337 L 63 268 L 3.15 158 L 0 66.1 L 69.3 -9.45 L 205 37.8 L 261 81.9 L 337 151 L 340 69.3 L 365 12.6 L 394 3.15 L 422 22.1 L 454 78.8 M 96.1 587 L 96.1 556 L 134 556 L 134 584 L 96.1 587 M 334 571 L 334 540 L 372 540 L 372 568 L 334 571" />
<glyph unicode="&#xe5;" glyph-name="aring" horiz-adv-x="454" d="M 306 271 L 271 324 L 173 337 L 63 268 L 3.15 158 L 0 66.1 L 69.3 -9.45 L 205 37.8 L 261 81.9 L 337 151 L 340 69.3 L 365 12.6 L 394 3.15 L 422 22.1 L 454 78.8 M 173 602 L 151 579 L 144 549 L 146 521 L 160 494 L 184 476 L 224 472 L 251 484 L 280 512 L 296 546 L 295 588 L 284 627 L 256 649 L 218 658 L 187 645" />
<glyph unicode="&#xe8;" glyph-name="egrave" horiz-adv-x="318" d="M 6.3 75.6 L 123 104 L 208 189 L 217 268 L 192 321 L 101 343 L -6.3 271 L -28.4 158 L -12.6 91.4 L 72.5 12.6 L 186 3.15 L 299 44.1 M 302 47.2 L 321 78.8 M -69.4 710 L 25.1 578 L 94.4 512" />
<glyph unicode="&#xe9;" glyph-name="eacute" horiz-adv-x="318" d="M 6.3 75.6 L 123 104 L 208 189 L 217 268 L 192 321 L 101 343 L -6.3 271 L -28.4 158 L -12.6 91.4 L 72.5 12.6 L 186 3.15 L 299 44.1 M 302 47.2 L 321 78.8 M 227 684 L 221 647 L 202 599 L 180 565 L 158 536" />
<glyph unicode="&#xea;" glyph-name="ecircumflex" horiz-adv-x="318" d="M 6.3 75.6 L 123 104 L 208 189 L 217 268 L 192 321 L 101 343 L -6.3 271 L -28.4 158 L -12.6 91.4 L 72.5 12.6 L 186 3.15 L 299 44.1 M 302 47.2 L 321 78.8 M 51.1 448 L 141 557 L 162 561 L 174 549 L 238 446" />
<glyph unicode="&#xeb;" glyph-name="edieresis" horiz-adv-x="318" d="M 6.3 75.6 L 123 104 L 208 189 L 217 268 L 192 321 L 101 343 L -6.3 271 L -28.4 158 L -12.6 91.4 L 72.5 12.6 L 186 3.15 L 299 44.1 M 302 47.2 L 321 78.8 M 41.6 573 L 41.6 541 L 79.4 541 L 79.4 569 L 41.6 573 M 267 560 L 267 529 L 305 529 L 305 557 L 267 560" />
<glyph unicode="&#xec;" glyph-name="igrave" horiz-adv-x="230" d="M 18.9 343 L -9.45 192 L 0 72.4 L 72.5 3.15 L 173 18.9 L 205 34.6 L 230 78.8  M -120 723 L -25.2 591 L 44.1 525" />
<glyph unicode="&#xed;" glyph-name="iacute" horiz-adv-x="230" d="M 18.9 343 L -9.45 192 L 0 72.4 L 72.5 3.15 L 173 18.9 L 205 34.6 L 230 78.8  M 176 651 L 170 614 L 151 566 L 129 532 L 107 503" />
<glyph unicode="&#xee;" glyph-name="icircumflex" horiz-adv-x="230" d="M 18.9 343 L -9.45 192 L 0 72.4 L 72.5 3.15 L 173 18.9 L 205 34.6 L 230 78.8  M -32.3 473 L 66.4 592 L 88.9 597 L 102 583 L 172 471" />
<glyph unicode="&#xef;" glyph-name="idieresis" horiz-adv-x="230" d="M 18.9 343 L -9.45 192 L 0 72.4 L 72.5 3.15 L 173 18.9 L 205 34.6 L 230 78.8  M -29.9 573 L -29.9 541 L 7.89 541 L 7.89 569 L -29.9 573 M 207 562 L 207 530 L 245 530 L 245 559 L 207 562" />
<glyph unicode="&#xf1;" glyph-name="ntilde" horiz-adv-x="611" d="M 510 3.15 L 476 37.8 L 454 126 L 454 243 L 428 296 L 375 309 L 312 274 L 233 170 L 158 12.6 L 142 113 L 126 243 L 85 318 L 66.1 306 L 50.4 243 L 34.6 151 L 0 78.8 M 510 0 L 545 0 L 583 22.1 L 614 78.8 M 147 484 L 171 523 L 201 534 L 247 510 L 286 475 L 329 475 L 370 517" />
<glyph unicode="&#xf2;" glyph-name="ograve" horiz-adv-x="400" d="M 41 277 L 3.15 205 L 15.8 97.7 L 59.9 28.4 L 189 0 L 309 63 L 372 176 L 356 271 L 277 334 L 183 337 L 145 315 M -22.9 713 L 71.6 581 L 141 515" />
<glyph unicode="&#xf3;" glyph-name="oacute" horiz-adv-x="400" d="M 41 277 L 3.15 205 L 15.8 97.7 L 59.9 28.4 L 189 0 L 309 63 L 372 176 L 356 271 L 277 334 L 183 337 L 145 315 M 258 666 L 252 628 L 233 581 L 211 547 L 189 518" />
<glyph unicode="&#xf4;" glyph-name="ocircumflex" horiz-adv-x="400" d="M 41 277 L 3.15 205 L 15.8 97.7 L 59.9 28.4 L 189 0 L 309 63 L 372 176 L 356 271 L 277 334 L 183 337 L 145 315 M 82 482 L 183 603 L 206 608 L 219 594 L 290 479" />
<glyph unicode="&#xf5;" glyph-name="otilde" horiz-adv-x="400" d="M 41 277 L 3.15 205 L 15.8 97.7 L 59.9 28.4 L 189 0 L 309 63 L 372 176 L 356 271 L 277 334 L 183 337 L 145 315 M 95.3 499 L 120 540 L 151 551 L 198 526 L 238 490 L 283 490 L 325 533" />
<glyph unicode="&#xf6;" glyph-name="odieresis" horiz-adv-x="400" d="M 41 277 L 3.15 205 L 15.8 97.7 L 59.9 28.4 L 189 0 L 309 63 L 372 176 L 356 271 L 277 334 L 183 337 L 145 315 M 93.6 559 L 93.6 527 L 131 527 L 131 555 L 93.6 559 M 325 566 L 325 534 L 363 534 L 363 563 L 325 566" />
<glyph unicode="&#xf7;" glyph-name="divide" horiz-adv-x="501" d="M 230 428 L 230 397 L 268 397 L 268 425 L 230 428 M 224 113 L 224 81.9 L 262 81.9 L 262 110 L 224 113 M 23.6 265 L 378 268" />
<glyph unicode="&#xf8;" glyph-name="oslash" horiz-adv-x="400" d="M 41 277 L 3.15 205 L 15.8 97.7 L 59.9 28.4 L 189 0 L 309 63 L 372 176 L 356 271 L 277 334 L 183 337 L 145 315 M 289 459 L 161 150 L 108 4.41 L 86 -72.8 L 79.4 -128" />
<glyph unicode="&#xf9;" glyph-name="ugrave" horiz-adv-x="652" d="M 126 274 L 113 145 L 151 44.1 L 239 -3.15 L 346 40.9 L 410 126 L 444 306 L 463 101 L 520 12.6 L 586 9.45 L 633 44.1 L 652 78.8 M 112 728 L 206 595 L 276 529" />
<glyph unicode="&#xfa;" glyph-name="uacute" horiz-adv-x="652" d="M 126 274 L 113 145 L 151 44.1 L 239 -3.15 L 346 40.9 L 410 126 L 444 306 L 463 101 L 520 12.6 L 586 9.45 L 633 44.1 L 652 78.8 M 377 691 L 371 653 L 352 606 L 330 571 L 308 543" />
<glyph unicode="&#xfb;" glyph-name="ucircumflex" horiz-adv-x="652" d="M 126 274 L 113 145 L 151 44.1 L 239 -3.15 L 346 40.9 L 410 126 L 444 306 L 463 101 L 520 12.6 L 586 9.45 L 633 44.1 L 652 78.8 M 185 476 L 284 595 L 307 600 L 320 586 L 390 474" />
<glyph unicode="&#xfc;" glyph-name="udieresis" horiz-adv-x="652" d="M 126 274 L 113 145 L 151 44.1 L 239 -3.15 L 346 40.9 L 410 126 L 444 306 L 463 101 L 520 12.6 L 586 9.45 L 633 44.1 L 652 78.8 M 190 569 L 190 538 L 228 538 L 228 566 L 190 569 M 473 570 L 473 539 L 511 539 L 511 567 L 473 570" />
<glyph unicode="&#xfd;" glyph-name="yacute" horiz-adv-x="520" d="M 22 302 L 15.8 198 L 31.5 94.5 L 132 31.5 L 252 85.1 L 315 180 L 337 246 L 337 324 L 425 -78.8 L 432 -202 L 422 -321 L 369 -413 L 296 -413 L 252 -353 L 271 -239 L 359 -107 L 444 -18.9 L 472 9.45 L 501 44.1 L 520 78.8 M 331 652 L 324 614 L 305 567 L 283 532 L 261 504" />
<glyph unicode="&#xff;" glyph-name="ydieresis" horiz-adv-x="520" d="M 22 302 L 15.8 198 L 31.5 94.5 L 132 31.5 L 252 85.1 L 315 180 L 337 246 L 337 324 L 425 -78.8 L 432 -202 L 422 -321 L 369 -413 L 296 -413 L 252 -353 L 271 -239 L 359 -107 L 444 -18.9 L 472 9.45 L 501 44.1 L 520 78.8 M 124 612 L 124 581 L 162 581 L 162 609 L 124 612 M 391 615 L 391 583 L 429 583 L 429 612 L 391 615" />
<glyph unicode="&#x2013;" glyph-name="endash" horiz-adv-x="501" d="M 23.6 170 L 378 173" />
<glyph unicode="&#x2014;" glyph-name="emdash" horiz-adv-x="668" d="M 31.5 170 L 504 173" />
<glyph unicode="&#x201c;" glyph-name="quotedblleft" horiz-adv-x="494" d="M 113 757 L 156 638 L 187 578 M 255 757 L 298 638 L 329 578" />
<glyph unicode="&#x201d;" glyph-name="quotedblright" horiz-adv-x="494" d="M 102 757 L 59.5 638 L 28.3 578 M 244 757 L 201 638 L 170 578" />
<glyph unicode="&#x2039;" glyph-name="guilsinglleft" horiz-adv-x="198" d="M 161 461 L 89.5 335 L 22.7 239 L 6.3 212 L 1.26 169 L 16.4 134 L 60.5 108 L 99.5 70.6 L 152 2.52" />
<glyph unicode="&#x203a;" glyph-name="guilsinglright" horiz-adv-x="212" d="M 5.04 491 L 94.5 340 L 141 277 L 160 237 L 164 194 L 156 171 L 136 144 L 17.6 7.56" />
<glyph unicode="&#x20ac;" glyph-name="Euro" horiz-adv-x="706" d="M 595 554 L 602 558 L 617 586 L 608 652 L 545 702 L 460 715 L 328 702 L 217 639 L 135 554 L 75.6 416 L 63 293 L 91.4 154 L 161 85.1 L 255 34.6 L 362 22 L 479 40.9 L 580 88.2 L 627 120 L 662 164 L 662 180 M 53.5 236 L 34.6 214 L 227 220 M 53.5 362 L 34.6 340 L 227 346" />
<glyph unicode="&#x0178;" glyph-name="Ydieresis" horiz-adv-x="529" d="M 18.9 614 L 53.5 510 L 129 438 L 230 410 L 302 428 L 365 472 L 413 510 L 447 564 L 432 488 L 403 397 L 315 227 L 255 97.7 L 233 3.15 M 102 880 L 102 849 L 140 849 L 140 877 L 102 880 M 429 877 L 429 846 L 466 846 L 466 874 L 429 877" />
<glyph unicode="&#x102;" glyph-name="Abreve" horiz-adv-x="558" d="M 15.8 3.15 L 81.9 346 L 145 520 L 192 595 L 243 614 L 265 608 L 299 551 L 340 416 L 372 224 L 381 101 L 381 56.7 L 359 12.6 L 324 0 L 290 9.45 L 255 34.6 L 192 148 L 198 198 L 227 239 L 277 274 L 365 302 L 460 318 M112.8 943.75C119.039 889.84 186.28 854.51 230.629 851.739C274.978 848.967 387.201 884.62 399 946.75" />
<glyph unicode="&#x114;" glyph-name="Ebreve" horiz-adv-x="517" d="M 419 614 L 233 608 L 63 573 L 31.5 454 L 15.8 321 L 139 337 L 246 343 L 337 328 L 246 343 L 145 337 L 15.8 321 L 6.3 170 L 15.8 94.5 L 56.7 34.6 L 117 6.3 L 233 6.3 L 334 31.5 L 419 72.4 M99.8 895.066C106.039 841.156 173.28 805.826 217.629 803.054C261.978 800.283 374.201 835.936 386 898.066" />
<glyph unicode="&#x11E;" glyph-name="Gbreve" horiz-adv-x="529" d="M 378 472 L 394 520 L 378 583 L 328 614 L 224 614 L 120 526 L 50.4 422 L 0 296 L 0 180 L 53.5 69.3 L 142 3.15 L 233 12.6 L 296 59.9 L 318 101 L 324 173 L 312 220 L 312 268 L 343 302 L 384 312 L 438 312 M103.8 897.471C110.039 843.561 177.28 808.231 221.629 805.46C265.978 802.688 378.201 838.341 390 900.471" />
<glyph unicode="&#x12C;" glyph-name="Ibreve" horiz-adv-x="230" d="M 66.1 580 L 63 132 L 88.2 3.15 M-31.2 923.099C-24.9607 869.189 42.2802 833.859 86.6292 831.088C130.978 828.316 243.201 863.969 255 926.099" />
<glyph unicode="&#x14E;" glyph-name="Obreve" horiz-adv-x="621" d="M 104 432 L 31.5 356 L 6.3 255 L 12.6 161 L 59.9 72.4 L 142 12.6 L 274 -3.15 L 365 37.8 L 460 132 L 513 246 L 510 384 L 476 513 L 381 589 L 255 617 L 151 576 M132.8 919.506C139.039 865.597 206.28 830.267 250.629 827.495C294.978 824.724 407.201 860.377 419 922.506" />
<glyph unicode="&#x16C;" glyph-name="Ubreve" horiz-adv-x="526" d="M 50.4 517 L 22 384 L 15.8 265 L 37.8 129 L 110 31.5 L 198 3.15 L 299 37.8 L 378 142 L 419 277 L 425 435 L 422 545 L 413 614 M102.8 948.645C109.039 894.735 176.28 859.405 220.629 856.634C264.978 853.862 377.201 889.515 389 951.645" />
<glyph unicode="&#x103;" glyph-name="abreve" horiz-adv-x="454" d="M 306 271 L 271 324 L 173 337 L 63 268 L 3.15 158 L 0 66.1 L 69.3 -9.45 L 205 37.8 L 261 81.9 L 337 151 L 340 69.3 L 365 12.6 L 394 3.15 L 422 22.1 L 454 78.8 M79.8 611.61C86.0393 557.7 153.28 522.37 197.629 519.599C241.978 516.827 354.201 552.48 366 614.61" />
<glyph unicode="&#x115;" glyph-name="ebreve" horiz-adv-x="318" d="M 6.3 75.6 L 123 104 L 208 189 L 217 268 L 192 321 L 101 343 L -6.3 271 L -28.4 158 L -12.6 91.4 L 72.5 12.6 L 186 3.15 L 299 44.1 M 302 47.2 L 321 78.8 M36.8 662.565C43.0393 608.655 110.28 573.325 154.629 570.554C198.978 567.782 311.201 603.435 323 665.565" />
<glyph unicode="&#x11F;" glyph-name="gbreve" horiz-adv-x="337" d="M 277 299 L 208 343 L 107 324 L 25.2 249 L 25.2 145 L 126 12.6 L 214 -88.2 L 274 -202 L 268 -356 L 189 -419 L 104 -397 L 72.5 -309 L 120 -183 L 315 34.6 L 337 78.8 M42.8 638.52C49.0393 584.61 116.28 549.28 160.629 546.508C204.978 543.737 317.201 579.39 329 641.52" />
<glyph unicode="&#x12D;" glyph-name="ibreve" horiz-adv-x="230" d="M 18.9 343 L -9.45 192 L 0 72.4 L 72.5 3.15 L 173 18.9 L 205 34.6 L 230 78.8  M8.8 610.684C15.0393 556.774 82.2802 521.444 126.629 518.672C170.978 515.901 283.201 551.554 295 613.684" />
<glyph unicode="&#x14F;" glyph-name="obreve" horiz-adv-x="400" d="M 41 277 L 3.15 205 L 15.8 97.7 L 59.9 28.4 L 189 0 L 309 63 L 372 176 L 356 271 L 277 334 L 183 337 L 145 315 M62.8 633.404C69.0393 579.494 136.28 544.164 180.629 541.393C224.978 538.621 337.201 574.274 349 636.404" />
<glyph unicode="&#x16D;" glyph-name="ubreve" horiz-adv-x="652" d="M 126 274 L 113 145 L 151 44.1 L 239 -3.15 L 346 40.9 L 410 126 L 444 306 L 463 101 L 520 12.6 L 586 9.45 L 633 44.1 L 652 78.8 M142.8 620.716C149.039 566.806 216.28 531.476 260.629 528.704C304.978 525.933 417.201 561.586 429 623.716" />
<glyph unicode="&#x106;" glyph-name="Cacute" horiz-adv-x="501" d="M 387 583 L 324 611 L 217 602 L 123 532 L 63 450 L 31.5 353 L 22 243 L 41 139 L 97.6 50.4 L 195 3.15 L 318 12.6 L 410 69.3 M 305 988 L 299 951 L 280 903 L 258 869 L 236 840" />
<glyph unicode="&#x107;" glyph-name="cacute" horiz-adv-x="312" d="M 233 324 L 135 337 L 47.2 284 L -25.2 173 L 9.45 37.8 L 129 -6.3 L 224 18.9 L 312 75.6 M 227 682 L 221 644 L 202 597 L 180 562 L 158 534" />
<glyph unicode="&#x110;" glyph-name="Dcroat" horiz-adv-x="529" d="M -47.2 233 L 189 236 M 22 110 L 9.45 268 L 12.6 394 L 28.4 501 L 69.3 580 L 148 611 L 239 614 L 331 573 L 406 501 L 428 403 L 419 318 L 346 233 L 44.1 -34.6" />
<glyph unicode="&#x111;" glyph-name="dcroat" horiz-adv-x="520" d="M 236 548 L 472 551 M 312 293 L 211 340 L 110 309 L 25.2 220 L -12.6 117 L 18.9 22.1 L 126 6.3 L 230 91.4 L 287 208 L 359 476 L 394 750 L 350 151 L 365 69.3 L 428 3.15 L 457 0 L 482 12.6 L 520 78.8" />
<glyph unicode="&#x10C;" glyph-name="Ccaron" horiz-adv-x="501" d="M 387 583 L 324 611 L 217 602 L 123 532 L 63 450 L 31.5 353 L 22 243 L 41 139 L 97.6 50.4 L 195 3.15 L 318 12.6 L 410 69.3 M 362 874 L 265 757 L 243 753 L 229 766 L 161 876" />
<glyph unicode="&#x10D;" glyph-name="ccaron" horiz-adv-x="312" d="M 233 324 L 135 337 L 47.2 284 L -25.2 173 L 9.45 37.8 L 129 -6.3 L 224 18.9 L 312 75.6 M 276 596 L 179 480 L 157 475 L 144 488 L 75.5 599" />
<glyph unicode="&#x160;" glyph-name="Scaron" horiz-adv-x="614" d="M 22 3.15 L 186 0 L 356 25.2 L 472 50.4 L 517 107 L 501 180 L 428 230 L 324 261 L 211 318 L 151 362 L 120 425 L 151 507 L 224 576 L 337 608 L 435 605 L 485 539 L 479 472 L 438 422 M 422 891 L 325 775 L 303 770 L 290 783 L 222 894" />
<glyph unicode="&#x161;" glyph-name="scaron" horiz-adv-x="545" d="M 0 75.6 L 47.2 151 L 164 271 L 255 331 L 318 346 L 391 324 L 454 252 L 463 145 L 413 47.2 L 299 3.15 L 236 12.6 L 208 40.9 M 323 594 L 226 477 L 204 472 L 190 486 L 122 596" />
<glyph unicode="&#x17D;" glyph-name="Zcaron" horiz-adv-x="548" d="M 15.8 548 L 170 586 L 287 608 L 378 608 L 435 576 L 444 536 L 435 466 L 343 381 L 154 246 L 85 195 L 53.5 139 L 50.4 94.5 L 66.1 47.2 L 129 18.9 L 214 3.15 L 416 12.6 L 454 31.5 M 371 873 L 274 756 L 252 752 L 238 765 L 170 875" />
<glyph unicode="&#x17E;" glyph-name="zcaron" horiz-adv-x="504" d="M 41 198 L 18.9 252 L 53.5 324 L 164 346 L 252 340 L 309 274 L 302 180 L 274 56.7 L 299 -15.8 L 372 -142 L 400 -249 L 350 -372 L 271 -425 L 189 -362 L 220 -255 L 287 -158 L 466 12.6 L 504 78.8 M 343 610 L 246 494 L 224 489 L 211 502 L 143 613" />
<glyph unicode="&#xC6;" glyph-name="AE" horiz-adv-x="830" d="M779 614C586.572 621.244 541.533 597.404 423 573C366.087 451.338 395.922 305.308 377.022 170.975C378.28 84.6964 380.585 26.4704 466.705 13.7875C552.824 1.10457 681.615 25.5405 779 72.4M15.8 3.14996C38.6237 182.362 103.682 442.677 145 520C202.105 612.92 261.198 647.414 294.142 560.715C340.67 451.55 362.334 281.995 372 224C379.215 149.384 405.945 3.36663 322.057 6.80059C238.169 10.2346 208.687 103.939 195.886 184.918C189.692 224.105 268.236 302.444 378.741 324.702C496.592 348.44 620.668 346.529 697 328" />
<glyph unicode="&#x2D8;" glyph-name="breve" horiz-adv-x="400" d="M15.8 579C22.0393 525.09 89.2802 489.76 133.629 486.989C177.978 484.217 290.201 519.87 302 582" />
<glyph unicode="&#x130;" glyph-name="Idotaccent" horiz-adv-x="230" d="M56.2839 745.339L87.7839 695.339M66.1 580L63 132L88.2 3.15" />
<glyph unicode="&#xc7;" glyph-name="Ccedilla" horiz-adv-x="501" d="M259.725 8.57902L266.808 -11.6744C269.458 -19.2516 272.878 -26.8339 274.001 -34.7026C275.764 -47.0636 269.274 -84.6736 261.915 -96.1837C252.922 -110.249 218.095 -133.223 193.105 -133.373M387 583L324 611L217 602L123 532L63 450L31.5 353L22 243L41 139L97.6 50.4L195 3.15L318 12.6L410 69.3" />
<glyph unicode="&#x15E;" glyph-name="Scedilla" horiz-adv-x="614" d="M338.681 18.2078C366.921 -40.782 341.882 -97.8182 272.061 -123.744M22 3.15C165.275 18.2907 352.117 -20.0302 472 50.4C499.032 67.2162 511.461 83.1272 517 107C522.539 130.873 516.202 157.442 501 180C485.798 202.558 457.635 215.863 428 230C349.708 251.743 282.155 274.786 211 318C182.445 335.506 166.484 343.529 151 362C135.516 380.471 121.26 398.717 120 425C118.74 451.283 133.622 480.905 151 507C168.378 533.095 192.424 558.063 224 576C255.576 593.937 301.355 603.605 337 608C372.645 612.395 408.217 618.826 435 605C461.783 591.174 478.1 563.041 485 539C491.9 514.959 487.32 492.353 479 472C470.68 451.647 438 422 438 422" />
<glyph unicode="&#xdf;" glyph-name="germandbls" horiz-adv-x="529" d="M138.973 -261.091C73.3088 142.924 -63.0962 349.364 89.4467 557.164C154.083 645.215 265.227 587.81 268.964 514.267C272.701 440.723 149.1 345.558 121.076 338.806C152.593 343.961 414.648 345.01 416.463 173.353C418.279 1.69648 166.141 58.4786 166.141 58.4786" />
<glyph unicode="&#xa3;" glyph-name="sterling" horiz-adv-x="438" d="M-18.5385 284.289C-18.5385 284.289 58.6759 274.893 99.2276 270.779C139.779 266.665 235.763 273.712 235.763 273.712M340 12.6C340 12.6 208.1 12.6922 164 18.9C119.9 25.1078 75.6 40.9 75.6 40.9C20.5513 76.7171 23.6437 105.332 18.9 167C18.9 167 42.7083 367.123 53.5 428C64.2917 488.877 65.0016 708.946 203.647 614.093C246.122 583.635 257.953 463.243 257.953 463.243" />
<glyph unicode="&#xb8;" glyph-name="cedilla" horiz-adv-x="501" d="M259.725 8.57902L266.808 -11.6744C269.458 -19.2516 272.878 -26.8339 274.001 -34.7026C275.764 -47.0636 269.274 -84.6736 261.915 -96.1837C252.922 -110.249 218.095 -133.223 193.105 -133.373" />
<glyph unicode="&#xe7;" glyph-name="ccedilla" horiz-adv-x="312" d="M147.435 -1.08622L153.256 -16.3351C155.434 -22.04 158.245 -27.7488 159.167 -33.6732C160.617 -42.9799 155.283 -71.2967 149.235 -79.9628C141.844 -90.5524 113.222 -107.85 92.6848 -107.963M233 324L135 337L47.2 284L-25.2 173L9.45 37.8L129 -6.3L224 18.9L312 75.6" />
<glyph unicode="&#xE6;" glyph-name="ae" horiz-adv-x="690" d="M287.773 240.332C308.903 253.686 299.033 279.052 289.517 291.525C229.145 370.649 142.464 336.177 64.4241 257.319C-25.9181 166.03 -16.7111 36.6437 73.5722 2.6547C163.856 -31.3343 255.427 73.4522 326.319 180.906C320.907 136.864 331.947 105.098 360.158 74.4656C495.934 94.6573 643.511 233.614 541.559 315.25C439.607 396.887 291.749 239.857 335.594 112.745C372.099 6.91011 505.926 -22.175 614.722 34.2962" />
<glyph unicode="&#x15F;" glyph-name="scedilla" horiz-adv-x="545" d="M315.584 10.441C343.825 -48.5488 321.674 -128.694 248.965 -131.511M0 75.6C0 75.6 20.8095 117.387 47.2 151C73.5905 184.613 128.491 241.638 164 271C199.509 300.362 228.421 319.501 255 331C281.579 342.499 294.51 346.693 318 346C341.49 345.307 366.914 339.518 391 324C415.086 308.482 440.779 283.152 454 252C467.221 220.848 469.992 180.521 463 145C456.008 109.479 441.731 73.0913 413 47.2C384.269 21.3087 329.8 6.5492 299 3.15C268.2 -0.249198 251.383 4.78949 236 12.6C220.617 20.4105 208 40.9 208 40.9" />
<glyph unicode="&#x131;" glyph-name="dotlessi" horiz-adv-x="230" d="M18.9 343L-9.45 192L0 72.4L72.5 3.15L173 18.9L205 34.6L230 78.8" />
</font>
</defs>
</svg>
